<?xml version="1.0" standalone="no"?>
<!DOCTYPE svg PUBLIC "-//W3C//DTD SVG 1.1//EN" "http://www.w3.org/Graphics/SVG/1.1/DTD/svg11.dtd" >
<svg xmlns="http://www.w3.org/2000/svg" xmlns:xlink="http://www.w3.org/1999/xlink" version="1.1">
<metadata></metadata>
<defs>
<font id="elisardtinfantregular" horiz-adv-x="1064" >
<font-face units-per-em="2048" ascent="1638" descent="-410" />
<missing-glyph horiz-adv-x="512" />
<glyph unicode="&#xfb03;" horiz-adv-x="1572" d="M43 782v115h123v174q0 72 21.5 132.5t58.5 101.5t86 69.5t103 42t112 13.5q169 0 317 -76l-4 -6q107 82 256 82q155 0 287 -60l-23 -125q-144 66 -237 66q-113 0 -188.5 -63.5t-75.5 -188.5v-162h567v-897h-139v782h-428v-782h-144v782h-426v-782h-143v782h-123zM309 897 h426v174q0 106 47 189q-107 51 -209 51q-113 0 -188.5 -63.5t-75.5 -188.5v-162z" />
<glyph unicode="&#xfb04;" horiz-adv-x="1587" d="M43 782v115h123v174q0 72 21.5 132.5t58.5 101.5t86 69.5t103 42t112 13.5q169 0 317 -76q98 76 215 76q116 0 226 -27h145v-1180q0 -63 12 -98t47 -35q31 0 56 10l20 -102q-49 -21 -100 -21q-180 0 -180 242v1061q-108 31 -205 31q-86 0 -153.5 -65t-67.5 -165v-184h272 v-115h-272v-782h-144v782h-426v-782h-143v782h-123zM309 897h426v195q0 95 45 168q-107 51 -207 51q-113 0 -188.5 -63.5t-75.5 -188.5v-162z" />
<glyph horiz-adv-x="0" />
<glyph horiz-adv-x="682" />
<glyph unicode=" "  horiz-adv-x="512" />
<glyph unicode="&#x09;" horiz-adv-x="512" />
<glyph unicode="&#xa0;" horiz-adv-x="512" />
<glyph unicode="!" horiz-adv-x="454" d="M121 96q0 40 30.5 71.5t71.5 31.5q44 0 75.5 -31.5t31.5 -71.5q0 -44 -31.5 -75t-75.5 -31q-42 0 -72 31t-30 75zM145 967v358h164v-410q-4 -77 -13.5 -182.5t-21.5 -218t-14 -139.5h-65q-3 33 -15 165.5t-21.5 249t-13.5 177.5z" />
<glyph unicode="&#x22;" horiz-adv-x="641" d="M117 1327h135l-29 -352h-78zM387 1327h135l-28 -352h-78z" />
<glyph unicode="#" d="M39 408v116h203l59 332h-238v117h259l79 432l115 -16l-78 -416h291l78 432l115 -16l-76 -416h178v-117h-203l-57 -332h237v-116h-260l-79 -433l-115 17l76 416h-289l-78 -433l-113 17l74 416h-178zM358 524h289l60 332h-291z" />
<glyph unicode="$" d="M137 68l23 141q66 -42 155 -73.5t174 -31.5q124 0 205.5 66.5t81.5 171.5q0 56 -21 100.5t-56.5 75t-81.5 56.5t-96.5 49t-101 47.5t-96.5 57t-81.5 72.5t-56.5 99t-21 131q0 120 85 208.5t210 109.5v161h139v-155q146 -7 272 -74l-22 -129q-167 78 -307 78 q-93 0 -159.5 -57.5t-66.5 -135.5q0 -55 21 -99t56.5 -74t81.5 -56t97 -48.5t101.5 -47t96.5 -56.5t81.5 -71.5t56.5 -97.5t21 -130q0 -145 -88.5 -245.5t-241.5 -126.5v-168h-139v159q-148 4 -322 93z" />
<glyph unicode="%" horiz-adv-x="1288" d="M43 991q0 155 78 250.5t194 95.5q66 0 120 -31t87 -81t50.5 -109.5t17.5 -120.5q0 -159 -80 -254.5t-197 -95.5t-193.5 97t-76.5 249zM139 14l905 1366l86 -53l-905 -1366zM150 993q0 -105 45.5 -177.5t121.5 -72.5t121 72.5t45 177.5t-46 176.5t-122 71.5 q-74 0 -119.5 -73t-45.5 -175zM700 317q0 155 78 251t195 96q67 0 120.5 -31t85.5 -81t49 -109.5t17 -120.5q0 -160 -79 -255.5t-195 -95.5q-117 0 -194 98t-77 248zM807 319q0 -104 46 -176.5t120 -72.5q76 0 121 72t45 177q0 106 -45 178t-121 72q-75 0 -120.5 -73.5 t-45.5 -176.5z" />
<glyph unicode="&#x26;" horiz-adv-x="1361" d="M59 344q0 58 17.5 110t44.5 91.5t70 79t83 68t95 61.5q-46 52 -76 91.5t-60 101.5t-30 112q0 127 89.5 211t223.5 84q132 0 230 -79t98 -206q0 -194 -273 -340q32 -34 154 -158.5t190 -195.5q99 137 207 379l127 -45q-110 -259 -245 -433q155 -140 303 -225l-123 -80 q-149 91 -275 205q-198 -209 -434 -209q-169 0 -292.5 111t-123.5 266zM213 371q0 -119 80 -196t203 -77q162 0 325 174q-146 155 -366 381q-48 -32 -77 -52.5t-64.5 -50.5t-54.5 -55t-32.5 -57.5t-13.5 -66.5zM340 1065q0 -85 149 -250q110 62 166 119.5t56 132.5 q0 73 -53 123.5t-130 50.5q-81 0 -134.5 -51t-53.5 -125z" />
<glyph unicode="'" horiz-adv-x="339" d="M102 1327h136l-29 -352h-80z" />
<glyph unicode="(" horiz-adv-x="577" d="M84 471q0 543 295 932l123 -39q-129 -182 -199 -398t-70 -497q0 -498 256 -875l-120 -40q-285 375 -285 917z" />
<glyph unicode=")" horiz-adv-x="577" d="M74 1364l125 39q295 -389 295 -932q0 -542 -285 -917l-121 40q254 382 254 875q0 281 -69.5 497.5t-198.5 397.5z" />
<glyph unicode="*" horiz-adv-x="860" d="M66 1051l38 110l283 -108l-16 303h118l-16 -303l285 108l37 -110l-297 -80l196 -238l-98 -71l-168 256l-164 -256l-98 71l196 238z" />
<glyph unicode="+" d="M113 459v125h356v366h125v-366h356v-125h-356v-367h-125v367h-356z" />
<glyph unicode="," horiz-adv-x="456" d="M115 98q0 39 29 70t73 31q42 0 73.5 -30.5t31.5 -76.5q0 -50 -48 -141l-96 -184l-63 26l43 101q14 36 14 69q0 23 -28.5 59t-28.5 76z" />
<glyph unicode="-" horiz-adv-x="638" d="M51 418v127h535v-127h-535z" />
<glyph unicode="." horiz-adv-x="456" d="M123 96q0 40 30.5 71.5t71.5 31.5q44 0 75.5 -31.5t31.5 -71.5q0 -44 -31.5 -75t-75.5 -31q-42 0 -72 31t-30 75z" />
<glyph unicode="/" horiz-adv-x="749" d="M0 -154l631 1577l119 -41l-629 -1577z" />
<glyph unicode="0" d="M76 664q0 313 123 501.5t329 188.5q215 0 338 -187.5t123 -502.5q0 -311 -122 -502t-337 -191q-91 0 -166.5 35t-128 97t-89 149t-53.5 190.5t-17 221.5zM231 664q0 -267 74.5 -415.5t222.5 -148.5q146 0 226 153t80 411t-80 409.5t-224 151.5q-147 0 -223 -147t-76 -414 z" />
<glyph unicode="1" d="M459 0v1327h145v-1327h-145z" />
<glyph unicode="2" d="M147 1227q67 56 163.5 90.5t209.5 34.5q166 0 280.5 -102t114.5 -261q0 -67 -29.5 -145t-90.5 -167.5t-95.5 -135t-100.5 -125.5q-12 -14 -17 -21q-131 -156 -234 -270h598v-125h-796v90q50 57 294 344q60 72 103.5 128t99.5 136t86.5 150t30.5 121q0 109 -74 182.5 t-186 73.5q-97 0 -176.5 -39t-157.5 -109z" />
<glyph unicode="3" d="M106 78l58 121q116 -97 291 -97q144 0 233.5 82.5t89.5 202.5q0 55 -22 103.5t-66.5 89.5t-122.5 64.5t-180 23.5h-45v125h45q158 0 249 75t91 172q0 78 -67 132.5t-185 54.5q-85 0 -148 -18t-137 -52l-34 123q166 74 327 74q186 0 288.5 -89.5t102.5 -215.5 q0 -111 -74.5 -201.5t-201.5 -108.5q110 -13 189.5 -67t116 -128.5t36.5 -160.5q0 -61 -19 -119.5t-58 -111t-94.5 -92t-133.5 -62.5t-170 -23q-100 0 -204.5 30t-154.5 73z" />
<glyph unicode="4" d="M70 324v98l501 934l129 -60l-454 -843h422v401l145 70v-471h193v-129h-193v-324h-145v324h-598z" />
<glyph unicode="5" d="M111 78l57 117q124 -93 299 -93q134 0 230 84.5t96 241.5q0 138 -93 218.5t-241 80.5q-35 0 -66.5 -2.5t-58 -7.5t-43.5 -9t-38 -10.5t-26 -7.5l88 637h613l-25 -123h-467l-53 -373q70 13 145 13q108 0 203.5 -49.5t157 -145t61.5 -215.5q0 -204 -135 -333.5t-336 -129.5 q-214 0 -368 107z" />
<glyph unicode="6" d="M94 481q0 143 48.5 279.5t132 246.5t186 198t219.5 151l104 -84q-163 -103 -274 -207.5t-174 -241.5q102 54 215 54q123 0 220 -61t149.5 -164.5t52.5 -229.5q0 -191 -122.5 -319t-315.5 -128q-133 0 -235.5 73t-154 187t-51.5 246zM244 463q0 -91 35.5 -173t105 -135 t156.5 -53q124 0 202 92t78 222q0 134 -81.5 236t-204.5 102q-145 0 -263 -92q-28 -67 -28 -199z" />
<glyph unicode="7" d="M164 1192v135h819v-104l-604 -1239l-146 45l572 1159q0 2 -2 4h-639z" />
<glyph unicode="8" d="M109 340q0 237 292 389q-48 29 -84.5 56.5t-71.5 64.5t-54 81.5t-19 94.5q0 60 24 117.5t68.5 105t115.5 76.5t157 29q92 0 164.5 -31t113 -79.5t60.5 -101t20 -102.5q0 -173 -225 -305q60 -32 105 -65t88.5 -79t67 -106t23.5 -131q0 -115 -59 -203t-154.5 -132 t-210.5 -44q-182 0 -301.5 102t-119.5 263zM264 356q0 -117 74 -187.5t192 -70.5q120 0 195.5 68t75.5 184q0 49 -15.5 91.5t-40 73.5t-62 59.5t-74.5 48.5t-85 41q-116 -51 -188 -128t-72 -180zM319 1028q0 -80 54 -134.5t170 -100.5q35 19 56 31t53.5 36t51 45.5 t32.5 53.5t14 67q0 88 -56.5 146.5t-158.5 58.5q-100 0 -158 -59.5t-58 -143.5z" />
<glyph unicode="9" d="M94 907q0 191 122.5 319t315.5 128q133 0 235.5 -73t154 -187t51.5 -246q0 -144 -48.5 -280.5t-132 -246.5t-186 -198t-219.5 -152l-104 86q78 49 138 93.5t120.5 99.5t108.5 119t81 135q-101 -53 -215 -53q-123 0 -220 61.5t-149.5 165t-52.5 229.5zM246 913 q0 -134 81.5 -236t204.5 -102q143 0 263 93q28 67 28 198q0 91 -35.5 173t-105 135t-156.5 53q-124 0 -202 -92t-78 -222z" />
<glyph unicode=":" horiz-adv-x="456" d="M123 96q0 40 30.5 71.5t71.5 31.5q44 0 75.5 -31.5t31.5 -71.5q0 -44 -31.5 -75t-75.5 -31q-42 0 -72 31t-30 75zM123 748q0 40 30.5 71t71.5 31q44 0 75.5 -31t31.5 -71q0 -44 -31.5 -75.5t-75.5 -31.5q-41 0 -71.5 31.5t-30.5 75.5z" />
<glyph unicode=";" horiz-adv-x="456" d="M115 98q0 39 29 70t73 31q42 0 73.5 -30.5t31.5 -76.5q0 -50 -48 -141l-96 -184l-63 26l43 101q14 36 14 69q0 23 -28.5 59t-28.5 76zM123 748q0 40 30.5 71t71.5 31q44 0 75.5 -31t31.5 -71q0 -44 -31.5 -75.5t-75.5 -31.5q-41 0 -71.5 31.5t-30.5 75.5z" />
<glyph unicode="&#x3c;" d="M113 500v88l784 442l53 -108l-667 -377v-2l667 -377l-53 -109z" />
<glyph unicode="=" d="M113 285v127h837v-127h-837zM113 651v127h837v-127h-837z" />
<glyph unicode="&#x3e;" d="M113 166l667 377v2l-667 377l53 108l784 -442v-88l-784 -443z" />
<glyph unicode="?" horiz-adv-x="841" d="M86 1233q186 121 342 121q162 0 261 -92t99 -242q0 -67 -28 -123.5t-69.5 -96.5t-85 -76.5t-80 -82t-48.5 -94.5q-31 -102 -31 -191h-131q1 71 4 113t16.5 100.5t39.5 94.5q21 30 57.5 66t69.5 66.5t64 64t50 72t19 77.5q0 99 -61.5 162t-165.5 63q-101 0 -263 -107z M270 96q0 40 31 71.5t72 31.5q43 0 74.5 -31.5t31.5 -71.5q0 -44 -31 -75t-75 -31q-42 0 -72.5 31t-30.5 75z" />
<glyph unicode="@" horiz-adv-x="1554" d="M53 498q0 167 64 326.5t172 280t261.5 194t321.5 73.5q182 0 326 -88t221.5 -236t77.5 -327q0 -125 -37.5 -235.5t-97 -184t-133.5 -116t-148 -42.5q-86 0 -146.5 48.5t-49.5 136.5q-18 -33 -84 -75t-119 -42q-74 0 -130.5 45.5t-84 116.5t-27.5 155q0 120 46.5 224 t136.5 169.5t204 65.5q35 0 74 -8t88.5 -22.5t67.5 -18.5l-60 -598q-5 -56 19.5 -90.5t68.5 -34.5q60 0 110.5 31.5t85 82t59 115t35.5 129.5t11 127q0 93 -20 177t-61.5 156.5t-101.5 125.5t-146 83t-189 30q-127 0 -239.5 -45t-195 -121.5t-143 -176t-90.5 -210.5 t-30 -223q0 -91 22 -174.5t66.5 -155.5t108.5 -125t153.5 -83t194.5 -30q66 0 128 11.5t95.5 24t79.5 32.5l43 -84q-170 -84 -354 -84q-141 0 -263.5 52.5t-207.5 142.5t-134 213.5t-49 261.5zM551 537q0 -86 40 -155t109 -69q57 0 115 44.5t88 93.5l39 403q-56 37 -137 37 q-108 0 -181 -105t-73 -249z" />
<glyph unicode="A" horiz-adv-x="1150" d="M14 2l484 1325h161l474 -1323l-160 -12l-135 395h-527l-141 -395zM352 514h443l-191 541q-13 40 -26 94h-5q-7 -29 -28 -94z" />
<glyph unicode="B" horiz-adv-x="1081" d="M162 0v1327h411q159 0 264 -95t105 -239q0 -54 -14 -100.5t-39 -80.5t-51.5 -58.5t-57.5 -42.5q94 -31 167 -120.5t73 -209.5q0 -174 -117 -277.5t-293 -103.5h-448zM317 123h273q116 0 195 69.5t79 190.5q0 112 -80.5 183t-183.5 71h-283v-514zM317 752h252q96 0 159 65 t63 162q0 113 -74.5 168t-192.5 55h-207v-450z" />
<glyph unicode="C" horiz-adv-x="1142" d="M92 670q0 198 80 354t225 244t330 88q95 0 191.5 -28t162.5 -71l-18 -143q-170 107 -326 107q-99 0 -187.5 -37.5t-155 -106t-105.5 -173.5t-39 -232q0 -268 128.5 -414.5t338.5 -146.5q105 0 185.5 28t180.5 84l17 -141q-71 -47 -178 -79t-220 -32q-133 0 -245 48 t-193 136t-126.5 220.5t-45.5 294.5z" />
<glyph unicode="D" horiz-adv-x="1280" d="M162 0v1327h426q181 0 319 -88t209.5 -236.5t71.5 -332.5q0 -302 -168.5 -486t-431.5 -184h-426zM317 127h246q203 0 333 142.5t130 400.5q0 147 -57 267.5t-162 191.5t-238 71h-252v-1073z" />
<glyph unicode="E" horiz-adv-x="1015" d="M162 0v1327h747v-123h-592v-450h510v-123h-510v-506h635v-125h-790z" />
<glyph unicode="F" horiz-adv-x="921" d="M162 0v1327h733v-123h-578v-456h494v-125h-494v-623h-155z" />
<glyph unicode="G" horiz-adv-x="1257" d="M92 668q0 195 82 351t233 246.5t345 90.5q93 0 192.5 -25.5t165.5 -62.5l-20 -135q-176 94 -334 94q-104 0 -195.5 -39t-161 -109.5t-109.5 -176t-40 -232.5q0 -268 132.5 -419t348.5 -151q85 0 148 13.5t129 48.5v350h-201v147h344v-585q-78 -44 -197 -73.5t-225 -29.5 q-286 0 -461.5 190.5t-175.5 506.5z" />
<glyph unicode="H" horiz-adv-x="1308" d="M162 0v1327h155v-547h674v547h152v-1327h-152v647h-674v-647h-155z" />
<glyph unicode="I" horiz-adv-x="481" d="M162 0v1327h155v-1327h-155z" />
<glyph unicode="J" horiz-adv-x="634" d="M-35 12l27 142q33 -26 58 -34.5t69 -8.5q215 0 215 256v960h153v-965q0 -77 -21 -145t-62.5 -123t-110 -87t-156.5 -32q-114 0 -172 37z" />
<glyph unicode="K" horiz-adv-x="1101" d="M162 0v1327h155v-565l547 575l160 -30l-567 -590l602 -705l-168 -28l-574 680v-664h-155z" />
<glyph unicode="L" horiz-adv-x="917" d="M162 0v1327h155v-1202h588v-125h-743z" />
<glyph unicode="M" horiz-adv-x="1562" d="M141 2l49 1325h162l357 -676q37 -67 73 -155h2q31 83 68 155l362 676h164l43 -1325l-153 -4l-27 977q-4 86 -4 125l-401 -799h-107l-412 774q2 -47 2 -100l-28 -977z" />
<glyph unicode="N" horiz-adv-x="1388" d="M162 0v1327h149l764 -1083q-2 53 -2 145v938h152v-1327h-150l-766 1087q2 -39 2 -120v-967h-149z" />
<glyph unicode="O" horiz-adv-x="1378" d="M92 664q0 197 76 356t212.5 249.5t307.5 90.5q137 0 251 -55t189 -150t116.5 -221.5t41.5 -269.5q0 -197 -77 -355.5t-213.5 -248t-307.5 -89.5q-182 0 -319.5 94.5t-207 250.5t-69.5 348zM252 678q0 -111 28 -211.5t81 -180.5t138.5 -127.5t192.5 -47.5q133 0 233.5 76 t150.5 197.5t50 266.5q0 88 -17.5 171t-53.5 156t-87.5 128t-124.5 87t-159 32q-100 0 -183 -45t-137 -121.5t-83 -174.5t-29 -206z" />
<glyph unicode="P" horiz-adv-x="1013" d="M162 0v1327h381q192 0 311 -107.5t119 -279.5q0 -181 -122.5 -297.5t-311.5 -116.5h-222v-526h-155zM317 651h203q132 0 213.5 78.5t81.5 206.5q0 123 -78 195.5t-209 72.5h-211v-553z" />
<glyph unicode="Q" horiz-adv-x="1378" d="M92 664q0 197 76 356t212.5 249.5t307.5 90.5q137 0 251 -55t189 -150t116.5 -221.5t41.5 -269.5q0 -228 -102.5 -402.5t-274.5 -247.5q79 -153 174 -153q47 0 84.5 26.5t77.5 73.5l84 -82q-129 -141 -258 -141q-94 0 -172 71t-123 171q-70 -9 -88 -9q-182 0 -319.5 94.5 t-207 250.5t-69.5 348zM252 678q0 -111 28 -211.5t81 -180.5t138.5 -127.5t192.5 -47.5q133 0 233.5 76t150.5 197.5t50 266.5q0 88 -17.5 171t-53.5 156t-87.5 128t-124.5 87t-159 32q-100 0 -183 -45t-137 -121.5t-83 -174.5t-29 -206z" />
<glyph unicode="R" horiz-adv-x="1095" d="M162 0v1327h405q184 0 298 -109.5t114 -273.5q0 -132 -77.5 -230t-188.5 -132l348 -576l-170 -16l-334 567q-31 -2 -92 -2h-148v-555h-155zM315 678h195q66 0 120.5 14t98.5 44t69 82t25 122q0 137 -84.5 200.5t-222.5 63.5h-201v-526z" />
<glyph unicode="S" horiz-adv-x="950" d="M86 68l23 141q66 -42 155 -73.5t174 -31.5q124 0 205.5 66.5t81.5 171.5q0 56 -21 100.5t-56.5 75t-81.5 56.5t-96.5 49t-101 47.5t-96.5 57t-81.5 72.5t-56.5 99t-21 131q0 144 114.5 235t264.5 91q175 0 327 -76l-22 -129q-167 78 -308 78q-93 0 -159 -57t-66 -136 q0 -55 21 -99t56.5 -74t81.5 -56t97 -48.5t101.5 -47t96.5 -56.5t81.5 -71.5t56.5 -97.5t21 -130q0 -168 -118 -276.5t-315 -108.5q-101 0 -196.5 30.5t-161.5 66.5z" />
<glyph unicode="T" horiz-adv-x="1015" d="M0 1196v131h1008v-131h-430v-1196h-152v1196h-426z" />
<glyph unicode="U" horiz-adv-x="1294" d="M135 502v825h154v-840q0 -167 99.5 -274t262.5 -107q160 0 259.5 106t99.5 275v840h151v-825q0 -161 -69 -283t-184.5 -185t-258.5 -63q-227 0 -370.5 145.5t-143.5 385.5z" />
<glyph unicode="V" horiz-adv-x="1177" d="M10 1321l160 14l365 -995l53 -152h2q10 32 29.5 83.5t25.5 68.5l367 995l155 -14l-518 -1321h-145z" />
<glyph unicode="W" horiz-adv-x="1789" d="M20 1325l162 12l264 -987q16 -59 35 -155h4q7 30 23 85t20 68l291 979h142l282 -979q16 -50 39 -153h4q9 39 41 155l287 987l153 -10l-403 -1327h-174l-268 952q-17 65 -33 142h-4q-26 -98 -39 -142l-283 -952h-174z" />
<glyph unicode="X" horiz-adv-x="1159" d="M20 10l480 672l-434 633l172 26l356 -530l369 528l153 -26l-440 -623l461 -678l-172 -24l-383 573l-402 -573z" />
<glyph unicode="Y" horiz-adv-x="1118" d="M14 1319l174 16l373 -651h2l381 653l158 -18l-469 -778v-541h-154v541z" />
<glyph unicode="Z" horiz-adv-x="1052" d="M49 0v119l756 1077h-709v131h901v-117l-759 -1075h749v-135h-938z" />
<glyph unicode="[" horiz-adv-x="636" d="M160 -446v1847h444v-111h-305v-1628h305v-108h-444z" />
<glyph unicode="\" horiz-adv-x="712" d="M-10 1401l133 47l602 -1587l-135 -45z" />
<glyph unicode="]" horiz-adv-x="636" d="M33 -338h305v1628h-305v111h444v-1847h-444v108z" />
<glyph unicode="^" d="M113 553l360 803h115l362 -801l-119 -16l-299 694h-2l-301 -696z" />
<glyph unicode="_" d="M0 -160h1065v-96h-1065v96z" />
<glyph unicode="`" horiz-adv-x="708" d="M139 1335l137 35l209 -289l-75 -24z" />
<glyph unicode="a" horiz-adv-x="1021" d="M72 444q0 129 56 238.5t157 174.5t225 65q120 0 210 -26t177 -83v-813h-143v78h-2q-135 -98 -265 -98q-180 0 -297.5 132t-117.5 332zM215 451q0 -149 79.5 -248t213.5 -99q115 0 246 101v543q-87 51 -226 51q-140 0 -226.5 -99.5t-86.5 -248.5z" />
<glyph unicode="b" horiz-adv-x="1013" d="M123 96v1307h143v-565h2q150 84 283 84q106 0 196 -61t141.5 -164t51.5 -222q0 -217 -126.5 -353t-315.5 -136q-178 0 -375 110zM266 176q126 -67 226 -67q127 0 215 103t88 251q0 138 -75.5 236t-193.5 98q-61 0 -131.5 -24.5t-128.5 -59.5v-537z" />
<glyph unicode="c" horiz-adv-x="851" d="M72 440q0 207 124.5 345.5t315.5 138.5q148 0 270 -72l-22 -131q-67 38 -121 58t-119 20q-133 0 -218 -99.5t-85 -253.5q0 -143 88 -241.5t225 -98.5q74 0 128 20t124 62l19 -133q-132 -80 -283 -80q-128 0 -231 63.5t-159 169.5t-56 232z" />
<glyph unicode="d" horiz-adv-x="1021" d="M63 444q0 130 56.5 239.5t158 174t224.5 64.5q125 0 243 -72h3v553h143v-1403h-139v78h-2q-133 -96 -271 -96q-178 0 -297 131.5t-119 330.5zM209 449q0 -147 79 -245t212 -98q67 0 125 26.5t123 74.5v518q-133 74 -236 74q-135 0 -219 -100t-84 -250z" />
<glyph unicode="e" horiz-adv-x="962" d="M72 440q0 206 117.5 344t295.5 138q169 0 283 -121.5t135 -341.5l-684 -62q12 -130 95 -215.5t208 -85.5q158 0 320 117l51 -109q-57 -45 -161.5 -86t-223.5 -41q-187 0 -311.5 136t-124.5 327zM221 518l522 49q-26 108 -92 175t-164 67q-109 0 -181.5 -81.5 t-84.5 -209.5z" />
<glyph unicode="f" horiz-adv-x="610" d="M43 782v115h123v227q0 76 28 136.5t73.5 96.5t98.5 54.5t109 18.5q101 0 223 -54l-16 -123q-36 18 -57.5 28t-59 20t-71.5 10q-80 0 -132.5 -49.5t-52.5 -147.5v-217h273v-115h-273v-782h-143v782h-123z" />
<glyph unicode="g" horiz-adv-x="1021" d="M63 444q0 130 56.5 239.5t158 174t224.5 64.5q111 0 197 -23t192 -86v-895q0 -49 -10 -96.5t-39.5 -100.5t-75.5 -92.5t-125 -65.5t-180 -26q-105 0 -203.5 34t-153.5 69l43 114q141 -92 299 -92q302 0 302 246v170h-3q-133 -96 -266 -96q-178 0 -297 131.5t-119 330.5z M209 449q0 -147 79 -245t212 -98q67 0 125 26.5t123 74.5v541q-87 51 -232 51q-137 0 -222 -100t-85 -250z" />
<glyph unicode="h" horiz-adv-x="1021" d="M119 0v1403h137v-645h2q44 33 67.5 49t73 45t97 43t94.5 14q127 0 199.5 -78.5t72.5 -224.5v-606h-137v582q0 104 -42.5 152t-129.5 48q-111 0 -297 -147v-635h-137z" />
<glyph unicode="i" horiz-adv-x="391" d="M109 1196q0 34 25.5 60t60.5 26q36 0 61 -26t25 -60q0 -36 -25 -61t-61 -25q-35 0 -60.5 25.5t-25.5 60.5zM125 0v897h141v-897h-141z" />
<glyph unicode="j" horiz-adv-x="391" d="M-184 -420l10 125q88 -45 154 -45q59 0 102 40.5t43 131.5v1065h143v-1071q0 -136 -79.5 -212.5t-180.5 -76.5q-102 0 -192 43zM109 1196q0 34 25.5 60t60.5 26q36 0 61 -26t25 -60q0 -36 -25 -61t-61 -25q-35 0 -60.5 25.5t-25.5 60.5z" />
<glyph unicode="k" horiz-adv-x="884" d="M123 0v1403h143v-885l402 393l155 -30l-389 -373l432 -496l-155 -24l-369 426h-76v-414h-143z" />
<glyph unicode="l" horiz-adv-x="401" d="M119 219v1184h145v-1180q0 -63 12.5 -98t47.5 -35q30 0 55 10l20 -102q-49 -21 -100 -21q-180 0 -180 242z" />
<glyph unicode="m" horiz-adv-x="1583" d="M123 0v897h141v-131h2q3 2 26.5 21.5t32.5 26.5t34 25t40 26.5t40.5 22t46 20t46 11.5t50.5 5q93 0 159.5 -43t96.5 -125q89 75 171 121.5t167 46.5q130 0 205 -83t75 -231v-610h-143v584q0 109 -42 159t-134 50q-35 0 -72.5 -13t-81.5 -43t-62.5 -44t-62.5 -50 q4 -24 4 -49v-594h-145v584q0 108 -42.5 158.5t-133.5 50.5q-34 0 -71.5 -14t-79.5 -42.5t-63.5 -45.5t-60.5 -50v-641h-143z" />
<glyph unicode="n" horiz-adv-x="1021" d="M123 0v897h141v-133h2q45 34 70 51t77 48t102 46t99 15q131 0 207 -82.5t76 -233.5v-608h-143v584q0 109 -44 159t-135 50q-116 0 -309 -154v-639h-143z" />
<glyph unicode="o" horiz-adv-x="1026" d="M72 446q0 128 57 237.5t159 175t224 65.5t224.5 -65.5t160 -174t57.5 -233.5q0 -127 -57.5 -235.5t-160 -173.5t-224.5 -65q-187 0 -313.5 137t-126.5 332zM219 449q0 -147 85.5 -248t211.5 -101q123 0 208 103.5t85 247.5q0 145 -86.5 247.5t-210.5 102.5 q-126 0 -209.5 -102t-83.5 -250z" />
<glyph unicode="p" horiz-adv-x="1013" d="M123 -463v1360h141v-74h2q157 99 285 99q107 0 197.5 -61.5t142 -164t51.5 -221.5q0 -213 -127 -355.5t-315 -142.5q-20 0 -51 7q-89 12 -181 55h-2v-502h-143zM266 166q107 -66 226 -66q128 0 215.5 107t87.5 258q0 136 -75.5 234t-193.5 98q-110 0 -260 -95v-536z" />
<glyph unicode="q" horiz-adv-x="1021" d="M72 444q0 129 56 238.5t157 174.5t225 65q120 0 210 -26t177 -83v-1276h-143v541h-2q-135 -98 -265 -98q-180 0 -297.5 132t-117.5 332zM215 451q0 -149 79.5 -248t213.5 -99q115 0 246 101v543q-87 51 -226 51q-140 0 -226.5 -99.5t-86.5 -248.5z" />
<glyph unicode="r" horiz-adv-x="673" d="M123 0v897h141v-123h2q161 148 287 148q42 0 94 -13l-8 -131q-43 13 -94 13q-26 0 -54.5 -8.5t-50 -18.5t-50.5 -30t-44 -32t-43.5 -36t-36.5 -31v-635h-143z" />
<glyph unicode="s" horiz-adv-x="731" d="M68 45l24 121q123 -72 238 -72q91 0 144.5 41.5t53.5 93.5q0 46 -24.5 80.5t-63.5 56.5t-86 41.5t-94 42t-86 50.5t-63.5 74t-24.5 106q0 112 84.5 178t222.5 66q114 0 232 -58l-23 -114q-121 57 -205 57q-82 0 -128 -36t-46 -91q0 -36 25 -64t64.5 -47.5t87.5 -38.5 t95.5 -43.5t87 -56.5t64.5 -83.5t25 -117.5q0 -103 -90.5 -178.5t-245.5 -75.5q-73 0 -147 20.5t-121 47.5z" />
<glyph unicode="t" horiz-adv-x="702" d="M33 782v92l125 29v172l143 55v-233h295v-115h-295v-483q0 -101 36 -152t132 -51q84 0 195 62l16 -119q-104 -64 -244 -64q-48 0 -95.5 17t-89 48.5t-67.5 84.5t-26 117v540h-125z" />
<glyph unicode="u" horiz-adv-x="1007" d="M123 287v610h139v-578q0 -120 45 -169.5t142 -49.5q112 0 294 152v645h140v-897h-135v125h-3q-104 -78 -159 -106q-92 -48 -176 -48q-132 0 -209.5 83.5t-77.5 232.5z" />
<glyph unicode="v" horiz-adv-x="880" d="M8 891l144 20l292 -721h2l291 719l133 -16l-372 -893h-113z" />
<glyph unicode="w" horiz-adv-x="1302" d="M8 897l142 10l215 -708h2l221 698h127l215 -698h6l227 708l131 -14l-303 -893h-127l-217 696h-2l-223 -696h-125z" />
<glyph unicode="x" horiz-adv-x="856" d="M12 12l338 447l-311 426l154 24l243 -344h2l254 342l142 -20l-320 -424l330 -451l-156 -20l-260 362h-2l-270 -362z" />
<glyph unicode="y" horiz-adv-x="1007" d="M98 -360l43 114q141 -92 299 -92q303 0 303 246v213h-2q-104 -78 -161 -106q-88 -44 -170 -44q-132 0 -209.5 83.5t-77.5 232.5v610h139v-578q0 -120 45 -169.5t142 -49.5q112 0 294 152v645h140v-979q0 -49 -10 -96.5t-39 -100.5t-74.5 -92.5t-124.5 -65.5t-180 -26 q-105 0 -203.5 34t-153.5 69z" />
<glyph unicode="z" horiz-adv-x="823" d="M57 0v111l537 663h-512v123h700v-106l-538 -666h544v-125h-731z" />
<glyph unicode="{" horiz-adv-x="544" d="M57 420v117q79 3 116.5 49t35.5 137l-8 371q-2 83 21.5 145t66 96.5t92 51t106.5 16.5v-103q-60 0 -106 -50.5t-43 -153.5l10 -353q4 -206 -174 -266q178 -60 174 -264l-10 -354q-3 -101 43 -152t106 -51v-102q-57 0 -106.5 16.5t-92 51t-66 96.5t-21.5 145l8 370 q3 181 -152 187z" />
<glyph unicode="|" horiz-adv-x="430" d="M145 -463v1866h140v-1866h-140z" />
<glyph unicode="}" horiz-adv-x="544" d="M57 -344q60 0 106.5 51t43.5 154l-8 352q-4 203 172 262v2q-176 62 -172 266l8 353q3 103 -43.5 153.5t-106.5 50.5v103q45 0 85.5 -9.5t79 -32.5t66 -58t43 -89.5t13.5 -123.5l-8 -369q-2 -90 35 -135.5t116 -48.5v-117q-79 -3 -116 -48.5t-35 -135.5l8 -371 q3 -85 -20.5 -147.5t-66.5 -97t-93 -50.5t-107 -16v102z" />
<glyph unicode="~" d="M94 424q52 244 219 244q52 0 113.5 -24t109 -53t107 -53t107.5 -24q58 0 86 35.5t51 107.5l82 -28q-10 -53 -24.5 -92.5t-39.5 -75t-64 -54t-91 -18.5q-54 0 -118 24.5t-112.5 53.5t-106 53.5t-100.5 24.5q-99 0 -135 -154z" />
<glyph unicode="&#xa1;" horiz-adv-x="454" d="M121 811q0 44 31 75.5t75 31.5q42 0 72.5 -31.5t30.5 -75.5q0 -40 -31 -71t-72 -31q-44 0 -75 31t-31 71zM143 -8q7 147 50 540h65q3 -50 24 -283t25 -308v-385h-164v436z" />
<glyph unicode="&#xa2;" horiz-adv-x="851" d="M72 641q0 189 101.5 320.5t264.5 156.5v223h133v-219q110 -11 211 -71l-22 -131q-64 38 -119 58.5t-121 20.5q-133 0 -218 -99t-85 -253q0 -143 88 -241.5t225 -98.5q75 0 129.5 19.5t122.5 60.5l19 -129q-102 -65 -228 -80v-188h-133v194q-164 26 -266 155.5t-102 301.5 z" />
<glyph unicode="&#xa3;" d="M104 0v102q53 32 122 143.5t69 203.5q0 65 -14 147h-164v111h137q-5 18 -15.5 55.5t-16 59.5t-10.5 53.5t-5 58.5q0 126 60 223t159 147t219 50q77 0 161.5 -21t133.5 -53l-53 -115q-99 64 -236 64q-126 0 -210.5 -80.5t-84.5 -218.5q0 -27 4.5 -58t9 -51.5t14 -58.5 t13.5 -55h385v-111h-360q10 -65 10 -113q0 -194 -137 -360h663v-123h-854z" />
<glyph unicode="&#xa4;" horiz-adv-x="1163" d="M92 252l137 137q-90 111 -90 266q0 148 90 267l-137 139l76 78l141 -138q121 89 266 89q143 0 265 -89l141 138l78 -78l-139 -139q90 -119 90 -269q0 -143 -92 -262l141 -139l-78 -80l-141 139q-129 -90 -265 -90q-145 0 -266 90l-139 -139zM258 653q0 -132 92 -224.5 t225 -92.5q132 0 225 92.5t93 224.5q0 135 -92.5 227.5t-225.5 92.5q-134 0 -225.5 -92.5t-91.5 -227.5z" />
<glyph unicode="&#xa5;" d="M35 1315l160 22l342 -653h2l346 653l147 -24l-317 -576h276v-106h-336l-51 -94v-52h387v-106h-387v-379h-147v379h-400v106h400v52l-51 94h-349v106h287z" />
<glyph unicode="&#xa6;" horiz-adv-x="698" d="M279 231h141v-694h-141v694zM279 709v694h141v-694h-141z" />
<glyph unicode="&#xa7;" horiz-adv-x="854" d="M88 653q0 144 115 232q-94 84 -94 196q0 122 89.5 200.5t239.5 78.5q68 0 144 -19t127 -43l-17 -118q-133 59 -250 59q-90 0 -142 -44t-52 -112q0 -41 29.5 -77.5t76.5 -66t103.5 -60t113 -67.5t103.5 -79t76.5 -103.5t29.5 -133.5q0 -138 -102 -222q86 -89 86 -208 q0 -117 -94 -200t-269 -83q-73 0 -157 19t-144 44l17 125q60 -29 140 -49t138 -20q112 0 172 46.5t60 108.5q0 52 -29.5 96t-77.5 76.5t-105 64t-114.5 65.5t-105.5 73.5t-77.5 96t-29.5 124.5zM213 659q0 -41 23 -77.5t67 -68t86 -56t101 -56.5t92 -53q71 55 71 139 q0 41 -16.5 78t-40 63t-62.5 53.5t-71 45t-80 43.5t-76 43q-94 -51 -94 -154z" />
<glyph unicode="&#xa8;" horiz-adv-x="708" d="M76 1165q0 34 25.5 59t60.5 25q36 0 62 -25t26 -59q0 -37 -25.5 -62.5t-62.5 -25.5q-35 0 -60.5 25.5t-25.5 62.5zM459 1165q0 34 24.5 59t59.5 25q36 0 62 -25t26 -59q0 -37 -25.5 -62.5t-62.5 -25.5q-35 0 -59.5 25.5t-24.5 62.5z" />
<glyph unicode="&#xa9;" horiz-adv-x="1525" d="M74 664q0 187 92.5 345.5t251.5 250.5t346 92q139 0 265.5 -54.5t218 -146.5t146 -219.5t54.5 -267.5q0 -139 -54.5 -266t-146 -219.5t-218 -147t-265.5 -54.5q-187 0 -346 92.5t-251.5 250.5t-92.5 344zM182 664q0 -122 44.5 -230.5t121.5 -186.5t185.5 -123.5 t230.5 -45.5q163 0 296 77.5t208 211.5t75 297q0 164 -75 297.5t-207.5 209.5t-296.5 76q-123 0 -231 -44.5t-185 -122t-121.5 -185.5t-44.5 -231zM385 651q0 174 103 298t264 124q144 0 270 -78l-18 -98q-121 76 -248 76q-117 0 -186.5 -86.5t-69.5 -224.5 q0 -129 80.5 -220.5t199.5 -91.5q70 0 119 20t119 66l24 -98q-136 -88 -280 -88q-161 0 -269 116t-108 285z" />
<glyph unicode="&#xaa;" horiz-adv-x="546" d="M51 741q0 69 49 106.5t123 49.5q63 10 135 14v35q0 84 -82 84q-68 0 -180 -41l2 94q105 39 189 39q87 0 134.5 -48t47.5 -124v-344h-109v56h-2q-84 -68 -159 -68q-62 0 -105 40t-43 107zM158 750q0 -34 19.5 -54t51.5 -20q10 0 20.5 2t18.5 3.5t19 6.5t16 7.5t16 9.5 t14 8.5t14 9.5l11 8v113q-67 -4 -98 -10q-44 -7 -73 -28.5t-29 -55.5z" />
<glyph unicode="&#xab;" horiz-adv-x="972" d="M92 446l289 355l108 -62l-239 -293l244 -290l-113 -60zM479 446l289 355l109 -62l-240 -293l246 -290l-115 -60z" />
<glyph unicode="&#xac;" d="M113 526v125h837v-366h-127v241h-710z" />
<glyph unicode="&#xad;" horiz-adv-x="638" d="M51 418v127h535v-127h-535z" />
<glyph unicode="&#xae;" horiz-adv-x="1525" d="M74 664q0 187 92.5 345.5t251.5 250.5t346 92q139 0 265.5 -54.5t218 -146.5t146 -219.5t54.5 -267.5q0 -139 -54.5 -266t-146 -219.5t-218 -147t-265.5 -54.5q-187 0 -346 92.5t-251.5 250.5t-92.5 344zM182 664q0 -122 44.5 -230.5t121.5 -186.5t185.5 -123.5 t230.5 -45.5q163 0 296 77.5t208 211.5t75 297q0 164 -75 297.5t-207.5 209.5t-296.5 76q-123 0 -231 -44.5t-185 -122t-121.5 -185.5t-44.5 -231zM526 283v774h248q108 0 177 -66t69 -160q0 -73 -47.5 -136t-110.5 -81l197 -313l-111 -27l-194 322h-121v-313h-107zM633 686 h133q68 0 107.5 40t39.5 103q0 142 -174 142h-106v-285z" />
<glyph unicode="&#xaf;" horiz-adv-x="708" d="M96 1106v119h518v-119h-518z" />
<glyph unicode="&#xb0;" horiz-adv-x="620" d="M43 1071q0 111 77 187.5t185 76.5q112 0 187 -74.5t75 -185.5t-78.5 -185.5t-185.5 -74.5q-110 0 -185 74t-75 182zM139 1071q0 -71 48 -120.5t118 -49.5t119 50t49 124q0 71 -47.5 122.5t-120.5 51.5q-71 0 -119.5 -52.5t-46.5 -125.5z" />
<glyph unicode="&#xb1;" d="M113 0v125h837v-125h-837zM113 616v119h356v367h125v-367h356v-119h-356v-366h-125v366h-356z" />
<glyph unicode="&#xb2;" horiz-adv-x="634" d="M92 1278q95 72 217 72q97 0 164.5 -57t67.5 -148q0 -38 -15.5 -80t-48.5 -89t-51 -69.5t-55 -66.5q-28 -30 -69.5 -78.5t-55.5 -63.5h309v-92h-457v68l170 194q46 54 73 89t56 86.5t29 84.5q0 55 -38 91t-95 36q-86 0 -182 -81z" />
<glyph unicode="&#xb3;" horiz-adv-x="634" d="M76 647l37 88q71 -49 161 -49q75 0 119.5 39.5t44.5 97.5q0 60 -46 100t-142 40h-33v86h35q77 0 120.5 35.5t43.5 80.5q0 41 -33.5 68t-95.5 27q-85 0 -160 -35l-27 88q92 39 197 39q108 0 168.5 -51t60.5 -121q0 -59 -39 -106t-108 -60q86 -16 132 -70t46 -123 q0 -92 -73 -160.5t-201 -68.5q-62 0 -118.5 15.5t-88.5 39.5z" />
<glyph unicode="&#xb4;" horiz-adv-x="708" d="M223 1081l207 289l141 -35l-270 -278z" />
<glyph unicode="&#xb5;" horiz-adv-x="1075" d="M150 -49v946h143v-512q0 -80 21 -142.5t74 -103.5t132 -41q88 0 153 51.5t93 122.5q16 46 16 101v524h142v-647q0 -85 19.5 -121t72.5 -39l-15 -106q-31 -7 -47 -7q-62 0 -105.5 42t-51.5 133h-4q-39 -68 -111.5 -119t-169.5 -51q-166 0 -225 116v-135q0 -275 20 -366 h-127q-30 82 -30 354z" />
<glyph unicode="&#xb6;" horiz-adv-x="1196" d="M68 915q0 195 136 303.5t363 108.5h516v-98h-135v-1675h-112v1675h-222v-1675h-114v964q-204 4 -318 112.5t-114 284.5z" />
<glyph unicode="&#xb7;" horiz-adv-x="456" d="M123 618q0 40 30.5 71.5t71.5 31.5q44 0 75.5 -31.5t31.5 -71.5q0 -44 -31.5 -75t-75.5 -31q-42 0 -72 31t-30 75z" />
<glyph unicode="&#xb8;" horiz-adv-x="708" d="M180 -367l17 66q21 -11 57 -19t65 -8q44 0 74.5 18t30.5 60q0 78 -162 100l72 152h86l-47 -102q58 -7 106.5 -48t48.5 -100q0 -74 -60 -113.5t-151 -39.5q-67 0 -137 34z" />
<glyph unicode="&#xb9;" horiz-adv-x="634" d="M260 606v729h113v-729h-113z" />
<glyph unicode="&#xba;" horiz-adv-x="616" d="M49 856q0 110 73.5 188t182.5 78q112 0 186 -77.5t74 -186.5q0 -112 -73.5 -188t-186.5 -76q-110 0 -183 75.5t-73 186.5zM164 854q0 -70 40.5 -120t104.5 -50q63 0 103.5 51t40.5 125q0 70 -42.5 120t-105.5 50q-62 0 -101.5 -50.5t-39.5 -125.5z" />
<glyph unicode="&#xbb;" horiz-adv-x="972" d="M92 739l113 60l289 -353l-289 -352l-109 62l240 290zM479 739l113 60l291 -353l-291 -352l-109 62l242 290z" />
<glyph unicode="&#xbc;" horiz-adv-x="1474" d="M258 -49l903 1513l94 -53l-901 -1511zM260 606v729h113v-729h-113zM883 176v68l274 508l94 -50l-233 -434h207v203l112 41v-244h93v-92h-93v-176h-112v176h-342z" />
<glyph unicode="&#xbd;" horiz-adv-x="1474" d="M238 -49l903 1513l94 -53l-901 -1511zM260 606v729h113v-729h-113zM932 672q94 71 217 71q97 0 164 -56.5t67 -147.5q0 -38 -15.5 -80.5t-48 -89t-51.5 -70t-55 -66.5q-28 -30 -70 -78.5t-55 -62.5h310v-92h-457v68l170 194q46 54 73 89t56 86.5t29 84.5q0 55 -38 91 t-95 36q-86 0 -183 -82z" />
<glyph unicode="&#xbe;" horiz-adv-x="1474" d="M76 647l37 88q71 -49 161 -49q75 0 119.5 39.5t44.5 97.5q0 60 -46 100t-142 40h-33v86h35q77 0 120.5 35.5t43.5 80.5q0 41 -33.5 68t-95.5 27q-85 0 -160 -35l-27 88q92 39 197 39q108 0 168.5 -51t60.5 -121q0 -59 -39 -106t-108 -60q86 -16 132 -70t46 -123 q0 -92 -73 -160.5t-201 -68.5q-62 0 -118.5 15.5t-88.5 39.5zM258 -49l903 1513l94 -53l-901 -1511zM883 176v68l274 508l94 -50l-233 -434h207v203l112 41v-244h93v-92h-93v-176h-112v176h-342z" />
<glyph unicode="&#xbf;" horiz-adv-x="841" d="M53 -121q0 67 28 123.5t70 96.5t85.5 76.5t80 82t48.5 94.5q28 92 28 191h133q-1 -73 -3.5 -113.5t-16 -100t-39.5 -96.5q-24 -34 -73 -81t-87.5 -82t-69 -84t-30.5 -97q0 -100 61 -162.5t166 -62.5q100 0 262 107l60 -105q-189 -123 -342 -123q-162 0 -261.5 93 t-99.5 243zM362 803q0 44 31.5 75t75.5 31q42 0 72 -31t30 -75q0 -40 -30.5 -71.5t-71.5 -31.5q-44 0 -75.5 31.5t-31.5 71.5z" />
<glyph unicode="&#xc0;" horiz-adv-x="1150" d="M14 2l484 1325h161l474 -1323l-160 -12l-135 395h-527l-141 -395zM340 1710l137 35l209 -289l-76 -24zM352 514h443l-191 541q-13 40 -26 94h-5q-7 -29 -28 -94z" />
<glyph unicode="&#xc1;" horiz-adv-x="1150" d="M14 2l484 1325h161l474 -1323l-160 -12l-135 395h-527l-141 -395zM352 514h443l-191 541q-13 40 -26 94h-5q-7 -29 -28 -94zM463 1456l207 289l141 -35l-270 -278z" />
<glyph unicode="&#xc2;" horiz-adv-x="1150" d="M14 2l484 1325h161l474 -1323l-160 -12l-135 395h-527l-141 -395zM281 1470l243 238h109l237 -238l-92 -38l-198 190l-203 -190zM352 514h443l-191 541q-13 40 -26 94h-5q-7 -29 -28 -94z" />
<glyph unicode="&#xc3;" horiz-adv-x="1150" d="M14 2l484 1325h161l474 -1323l-160 -12l-135 395h-527l-141 -395zM305 1456q3 73 44 124.5t106 51.5q49 0 124.5 -38t112.5 -38q32 0 51.5 21.5t24.5 54.5l78 -8q-3 -72 -41 -120t-107 -48q-49 0 -125.5 40t-107.5 40q-34 0 -56.5 -27t-29.5 -63zM352 514h443l-191 541 q-13 40 -26 94h-5q-7 -29 -28 -94z" />
<glyph unicode="&#xc4;" horiz-adv-x="1150" d="M14 2l484 1325h161l474 -1323l-160 -12l-135 395h-527l-141 -395zM297 1540q0 34 25.5 59t60.5 25q36 0 62 -25t26 -59q0 -37 -25.5 -62.5t-62.5 -25.5q-35 0 -60.5 25.5t-25.5 62.5zM352 514h443l-191 541q-13 40 -26 94h-5q-7 -29 -28 -94zM680 1540q0 34 24.5 59 t59.5 25q36 0 62 -25t26 -59q0 -37 -25.5 -62.5t-62.5 -25.5q-35 0 -59.5 25.5t-24.5 62.5z" />
<glyph unicode="&#xc5;" horiz-adv-x="1150" d="M14 2l484 1325h161l474 -1323l-160 -12l-135 395h-527l-141 -395zM352 514h443l-191 541q-13 40 -26 94h-5q-7 -29 -28 -94zM377 1573q0 84 59.5 136t141.5 52q85 0 140.5 -54.5t55.5 -133.5q0 -78 -56 -132.5t-140 -54.5q-88 0 -144.5 54.5t-56.5 132.5zM465 1573 q0 -48 31 -83.5t79 -35.5q50 0 82.5 35t32.5 84q0 47 -31 83t-84 36q-49 0 -79.5 -35t-30.5 -84z" />
<glyph unicode="&#xc6;" horiz-adv-x="1669" d="M6 4l709 1323h755l9 -125h-582l55 -450h471l9 -123h-461l65 -506h553l8 -123h-696l-53 403h-469l-219 -407zM440 526h394l-66 490q-5 43 -10 127h-2q-42 -96 -60 -127z" />
<glyph unicode="&#xc7;" horiz-adv-x="1142" d="M92 670q0 198 80 354t225 244t330 88q95 0 191.5 -28t162.5 -71l-18 -143q-170 107 -326 107q-99 0 -187.5 -37.5t-155 -106t-105.5 -173.5t-39 -232q0 -268 128.5 -414.5t338.5 -146.5q105 0 185.5 28t180.5 84l17 -141q-69 -46 -170.5 -77t-208.5 -34l-33 -71 q58 -7 107 -48t49 -100q0 -74 -60 -113.5t-151 -39.5q-67 0 -137 34l16 66q21 -11 57.5 -19t65.5 -8q43 0 73.5 18t30.5 60q0 78 -161 100l57 125q-244 22 -393.5 207t-149.5 488z" />
<glyph unicode="&#xc8;" horiz-adv-x="1015" d="M162 0v1327h747v-123h-592v-450h510v-123h-510v-506h635v-125h-790zM313 1710l138 35l208 -289l-75 -24z" />
<glyph unicode="&#xc9;" horiz-adv-x="1015" d="M162 0v1327h747v-123h-592v-450h510v-123h-510v-506h635v-125h-790zM436 1456l207 289l141 -35l-270 -278z" />
<glyph unicode="&#xca;" horiz-adv-x="1015" d="M162 0v1327h747v-123h-592v-450h510v-123h-510v-506h635v-125h-790zM254 1470l244 238h108l238 -238l-92 -38l-199 190l-203 -190z" />
<glyph unicode="&#xcb;" horiz-adv-x="1015" d="M162 0v1327h747v-123h-592v-450h510v-123h-510v-506h635v-125h-790zM270 1540q0 34 25.5 59t60.5 25q36 0 62 -25t26 -59q0 -37 -25.5 -62.5t-62.5 -25.5q-35 0 -60.5 25.5t-25.5 62.5zM653 1540q0 34 24.5 59t59.5 25q36 0 62 -25t26 -59q0 -37 -25.5 -62.5t-62.5 -25.5 q-35 0 -59.5 25.5t-24.5 62.5z" />
<glyph unicode="&#xcc;" horiz-adv-x="481" d="M6 1710l137 35l209 -289l-76 -24zM162 0v1327h155v-1327h-155z" />
<glyph unicode="&#xcd;" horiz-adv-x="481" d="M129 1456l207 289l141 -35l-270 -278zM162 0v1327h155v-1327h-155z" />
<glyph unicode="&#xce;" horiz-adv-x="481" d="M-53 1470l243 238h109l238 -238l-93 -38l-198 190l-203 -190zM162 0v1327h155v-1327h-155z" />
<glyph unicode="&#xcf;" horiz-adv-x="481" d="M-37 1540q0 34 25.5 59t60.5 25q36 0 62 -25t26 -59q0 -37 -25.5 -62.5t-62.5 -25.5q-35 0 -60.5 25.5t-25.5 62.5zM162 0v1327h155v-1327h-155zM346 1540q0 34 24.5 59t59.5 25q36 0 62 -25t26 -59q0 -37 -25.5 -62.5t-62.5 -25.5q-35 0 -59.5 25.5t-24.5 62.5z" />
<glyph unicode="&#xd0;" horiz-adv-x="1280" d="M0 600v129h162v598h426q181 0 319 -88t209.5 -236.5t71.5 -332.5q0 -302 -168.5 -486t-431.5 -184h-426v600h-162zM317 127h246q203 0 333 142.5t130 400.5q0 147 -57 267.5t-162 191.5t-238 71h-252v-471h342v-129h-342v-473z" />
<glyph unicode="&#xd1;" horiz-adv-x="1388" d="M162 0v1327h149l764 -1083q-2 53 -2 145v938h152v-1327h-150l-766 1087q2 -39 2 -120v-967h-149zM424 1456q3 73 43.5 124.5t105.5 51.5q49 0 125 -38t113 -38q32 0 51.5 21.5t24.5 54.5l78 -8q-3 -72 -41 -120t-107 -48q-49 0 -125.5 40t-107.5 40q-34 0 -56.5 -27 t-29.5 -63z" />
<glyph unicode="&#xd2;" horiz-adv-x="1378" d="M92 664q0 197 76 356t212.5 249.5t307.5 90.5q137 0 251 -55t189 -150t116.5 -221.5t41.5 -269.5q0 -197 -77 -355.5t-213.5 -248t-307.5 -89.5q-182 0 -319.5 94.5t-207 250.5t-69.5 348zM252 678q0 -111 28 -211.5t81 -180.5t138.5 -127.5t192.5 -47.5q133 0 233.5 76 t150.5 197.5t50 266.5q0 88 -17.5 171t-53.5 156t-87.5 128t-124.5 87t-159 32q-100 0 -183 -45t-137 -121.5t-83 -174.5t-29 -206zM455 1710l137 35l209 -289l-76 -24z" />
<glyph unicode="&#xd3;" horiz-adv-x="1378" d="M92 664q0 197 76 356t212.5 249.5t307.5 90.5q137 0 251 -55t189 -150t116.5 -221.5t41.5 -269.5q0 -197 -77 -355.5t-213.5 -248t-307.5 -89.5q-182 0 -319.5 94.5t-207 250.5t-69.5 348zM252 678q0 -111 28 -211.5t81 -180.5t138.5 -127.5t192.5 -47.5q133 0 233.5 76 t150.5 197.5t50 266.5q0 88 -17.5 171t-53.5 156t-87.5 128t-124.5 87t-159 32q-100 0 -183 -45t-137 -121.5t-83 -174.5t-29 -206zM575 1456l207 289l142 -35l-271 -278z" />
<glyph unicode="&#xd4;" horiz-adv-x="1378" d="M92 664q0 197 76 356t212.5 249.5t307.5 90.5q137 0 251 -55t189 -150t116.5 -221.5t41.5 -269.5q0 -197 -77 -355.5t-213.5 -248t-307.5 -89.5q-182 0 -319.5 94.5t-207 250.5t-69.5 348zM252 678q0 -111 28 -211.5t81 -180.5t138.5 -127.5t192.5 -47.5q133 0 233.5 76 t150.5 197.5t50 266.5q0 88 -17.5 171t-53.5 156t-87.5 128t-124.5 87t-159 32q-100 0 -183 -45t-137 -121.5t-83 -174.5t-29 -206zM393 1470l244 238h108l238 -238l-92 -38l-199 190l-203 -190z" />
<glyph unicode="&#xd5;" horiz-adv-x="1378" d="M92 664q0 197 76 356t212.5 249.5t307.5 90.5q137 0 251 -55t189 -150t116.5 -221.5t41.5 -269.5q0 -197 -77 -355.5t-213.5 -248t-307.5 -89.5q-182 0 -319.5 94.5t-207 250.5t-69.5 348zM252 678q0 -111 28 -211.5t81 -180.5t138.5 -127.5t192.5 -47.5q133 0 233.5 76 t150.5 197.5t50 266.5q0 88 -17.5 171t-53.5 156t-87.5 128t-124.5 87t-159 32q-100 0 -183 -45t-137 -121.5t-83 -174.5t-29 -206zM418 1456q3 73 43.5 124.5t105.5 51.5q49 0 125 -38t113 -38q32 0 51.5 21.5t24.5 54.5l77 -8q-3 -72 -40.5 -120t-106.5 -48 q-49 0 -125.5 40t-107.5 40q-34 0 -56.5 -27t-29.5 -63z" />
<glyph unicode="&#xd6;" horiz-adv-x="1378" d="M92 664q0 197 76 356t212.5 249.5t307.5 90.5q137 0 251 -55t189 -150t116.5 -221.5t41.5 -269.5q0 -197 -77 -355.5t-213.5 -248t-307.5 -89.5q-182 0 -319.5 94.5t-207 250.5t-69.5 348zM252 678q0 -111 28 -211.5t81 -180.5t138.5 -127.5t192.5 -47.5q133 0 233.5 76 t150.5 197.5t50 266.5q0 88 -17.5 171t-53.5 156t-87.5 128t-124.5 87t-159 32q-100 0 -183 -45t-137 -121.5t-83 -174.5t-29 -206zM412 1540q0 34 25.5 59t60.5 25q36 0 62 -25t26 -59q0 -37 -25.5 -62.5t-62.5 -25.5q-35 0 -60.5 25.5t-25.5 62.5zM795 1540q0 34 24.5 59 t59.5 25q36 0 62 -25t26 -59q0 -37 -25.5 -62.5t-62.5 -25.5q-35 0 -59.5 25.5t-24.5 62.5z" />
<glyph unicode="&#xd7;" d="M168 250l276 276l-270 269l86 86l268 -273l277 279l90 -88l-277 -277l271 -270l-86 -86l-271 270l-276 -276z" />
<glyph unicode="&#xd8;" horiz-adv-x="1378" d="M39 -25l188 228q-135 189 -135 461q0 197 76 356t212.5 249.5t307.5 90.5q223 0 379 -143l178 215l88 -76l-186 -228q139 -194 139 -464q0 -197 -77 -355.5t-213.5 -248t-307.5 -89.5q-224 0 -381 144l-178 -215zM252 678q0 -197 80 -348l639 772q-116 123 -287 123 q-100 0 -183 -45t-137 -121.5t-83 -174.5t-29 -206zM406 231q114 -120 286 -120q133 0 233.5 76t150.5 197.5t50 266.5q0 200 -84 353z" />
<glyph unicode="&#xd9;" horiz-adv-x="1294" d="M135 502v825h154v-840q0 -167 99.5 -274t262.5 -107q160 0 259.5 106t99.5 275v840h151v-825q0 -161 -69 -283t-184.5 -185t-258.5 -63q-227 0 -370.5 145.5t-143.5 385.5zM412 1710l137 35l209 -289l-76 -24z" />
<glyph unicode="&#xda;" horiz-adv-x="1294" d="M135 502v825h154v-840q0 -167 99.5 -274t262.5 -107q160 0 259.5 106t99.5 275v840h151v-825q0 -161 -69 -283t-184.5 -185t-258.5 -63q-227 0 -370.5 145.5t-143.5 385.5zM535 1456l206 289l142 -35l-271 -278z" />
<glyph unicode="&#xdb;" horiz-adv-x="1294" d="M135 502v825h154v-840q0 -167 99.5 -274t262.5 -107q160 0 259.5 106t99.5 275v840h151v-825q0 -161 -69 -283t-184.5 -185t-258.5 -63q-227 0 -370.5 145.5t-143.5 385.5zM352 1470l244 238h109l237 -238l-92 -38l-199 190l-202 -190z" />
<glyph unicode="&#xdc;" horiz-adv-x="1294" d="M135 502v825h154v-840q0 -167 99.5 -274t262.5 -107q160 0 259.5 106t99.5 275v840h151v-825q0 -161 -69 -283t-184.5 -185t-258.5 -63q-227 0 -370.5 145.5t-143.5 385.5zM369 1540q0 34 25.5 59t60.5 25q36 0 62 -25t26 -59q0 -37 -25.5 -62.5t-62.5 -25.5 q-35 0 -60.5 25.5t-25.5 62.5zM752 1540q0 34 24.5 59t59.5 25q36 0 62 -25t26 -59q0 -37 -25.5 -62.5t-62.5 -25.5q-35 0 -59.5 25.5t-24.5 62.5z" />
<glyph unicode="&#xdd;" horiz-adv-x="1118" d="M14 1319l174 16l373 -651h2l381 653l158 -18l-469 -778v-541h-154v541zM446 1456l207 289l142 -35l-271 -278z" />
<glyph unicode="&#xde;" horiz-adv-x="1013" d="M162 0v1327h155v-264h226q192 0 311 -107.5t119 -279.5q0 -181 -122.5 -297.5t-311.5 -116.5h-222v-262h-155zM317 387h203q132 0 213.5 78.5t81.5 206.5q0 123 -78 195.5t-209 72.5h-211v-553z" />
<glyph unicode="&#xdf;" horiz-adv-x="1050" d="M141 0v1044q0 158 101.5 258.5t265.5 100.5q72 0 137 -21t116.5 -60.5t82 -103.5t30.5 -143q0 -56 -20.5 -105.5t-50 -84.5t-59 -65t-50 -59.5t-20.5 -55.5q0 -24 31.5 -55t76 -65.5t89.5 -75t76.5 -96.5t31.5 -116q0 -132 -91 -218.5t-220 -86.5q-84 0 -145 21t-122 59 l54 102q86 -63 198 -63q81 0 134 54.5t53 121.5q0 49 -33 96t-79.5 83.5t-93 70t-79.5 69.5t-33 70q0 38 15.5 73t39 61t51 56.5t51 58.5t39 69t15.5 87q0 87 -63 145t-158 58q-106 0 -168.5 -61.5t-62.5 -173.5v-1049h-140z" />
<glyph unicode="&#xe0;" horiz-adv-x="1021" d="M72 444q0 129 56 238.5t157 174.5t225 65q120 0 210 -26t177 -83v-813h-143v78h-2q-135 -98 -265 -98q-180 0 -297.5 132t-117.5 332zM215 451q0 -149 79.5 -248t213.5 -99q115 0 246 101v543q-87 51 -226 51q-140 0 -226.5 -99.5t-86.5 -248.5zM309 1335l137 35 l209 -289l-75 -24z" />
<glyph unicode="&#xe1;" horiz-adv-x="1021" d="M72 444q0 129 56 238.5t157 174.5t225 65q120 0 210 -26t177 -83v-813h-143v78h-2q-135 -98 -265 -98q-180 0 -297.5 132t-117.5 332zM215 451q0 -149 79.5 -248t213.5 -99q115 0 246 101v543q-87 51 -226 51q-140 0 -226.5 -99.5t-86.5 -248.5zM393 1081l207 289 l141 -35l-270 -278z" />
<glyph unicode="&#xe2;" horiz-adv-x="1021" d="M72 444q0 129 56 238.5t157 174.5t225 65q120 0 210 -26t177 -83v-813h-143v78h-2q-135 -98 -265 -98q-180 0 -297.5 132t-117.5 332zM215 451q0 -149 79.5 -248t213.5 -99q115 0 246 101v543q-87 51 -226 51q-140 0 -226.5 -99.5t-86.5 -248.5zM227 1096l244 237h109 l237 -237l-92 -39l-199 190l-202 -190z" />
<glyph unicode="&#xe3;" horiz-adv-x="1021" d="M72 444q0 129 56 238.5t157 174.5t225 65q120 0 210 -26t177 -83v-813h-143v78h-2q-135 -98 -265 -98q-180 0 -297.5 132t-117.5 332zM215 451q0 -149 79.5 -248t213.5 -99q115 0 246 101v543q-87 51 -226 51q-140 0 -226.5 -99.5t-86.5 -248.5zM258 1081q3 73 44 124.5 t106 51.5q49 0 124.5 -37.5t112.5 -37.5q32 0 51.5 21t24.5 54l78 -8q-3 -72 -41 -120t-107 -48q-49 0 -125.5 40t-107.5 40q-34 0 -56.5 -27t-29.5 -63z" />
<glyph unicode="&#xe4;" horiz-adv-x="1021" d="M72 444q0 129 56 238.5t157 174.5t225 65q120 0 210 -26t177 -83v-813h-143v78h-2q-135 -98 -265 -98q-180 0 -297.5 132t-117.5 332zM215 451q0 -149 79.5 -248t213.5 -99q115 0 246 101v543q-87 51 -226 51q-140 0 -226.5 -99.5t-86.5 -248.5zM246 1165q0 34 25.5 59 t60.5 25q36 0 62 -25t26 -59q0 -37 -25.5 -62.5t-62.5 -25.5q-35 0 -60.5 25.5t-25.5 62.5zM629 1165q0 34 24.5 59t59.5 25q36 0 62 -25t26 -59q0 -37 -25.5 -62.5t-62.5 -25.5q-35 0 -59.5 25.5t-24.5 62.5z" />
<glyph unicode="&#xe5;" horiz-adv-x="1021" d="M72 444q0 129 56 238.5t157 174.5t225 65q120 0 210 -26t177 -83v-813h-143v78h-2q-135 -98 -265 -98q-180 0 -297.5 132t-117.5 332zM215 451q0 -149 79.5 -248t213.5 -99q115 0 246 101v543q-87 51 -226 51q-140 0 -226.5 -99.5t-86.5 -248.5zM326 1198q0 84 59 136 t141 52q85 0 141 -54.5t56 -133.5q0 -77 -56.5 -131.5t-140.5 -54.5q-88 0 -144 54t-56 132zM414 1198q0 -48 31 -83.5t79 -35.5q50 0 82.5 35t32.5 84q0 47 -31 83t-84 36q-49 0 -79.5 -35t-30.5 -84z" />
<glyph unicode="&#xe6;" horiz-adv-x="1628" d="M72 444q0 129 56 238.5t157 174.5t225 65q119 0 210.5 -27t178.5 -84q105 111 258 111q170 0 279 -125t133 -338l-674 -62q5 -126 89.5 -212.5t209.5 -86.5q92 0 163.5 30.5t149.5 84.5l52 -109q-65 -48 -163 -87.5t-216 -39.5q-170 0 -283 123v-100h-143v78h-2 q-135 -98 -265 -98q-180 0 -297.5 132t-117.5 332zM215 451q0 -149 79.5 -248t213.5 -99q115 0 246 101v543q-87 51 -226 51q-140 0 -226.5 -99.5t-86.5 -248.5zM889 518l522 49q-25 107 -91.5 174.5t-164.5 67.5q-107 0 -179.5 -81.5t-86.5 -209.5z" />
<glyph unicode="&#xe7;" horiz-adv-x="851" d="M72 440q0 207 124.5 345.5t315.5 138.5q148 0 270 -72l-22 -131q-67 38 -121 58t-119 20q-133 0 -218 -99.5t-85 -253.5q0 -143 88 -241.5t225 -98.5q74 0 128 20t124 62l19 -133q-118 -74 -260 -80l-35 -75q58 -7 107 -48t49 -100q0 -74 -60 -113.5t-151 -39.5 q-68 0 -138 34l17 66q21 -11 57.5 -19t65.5 -8q43 0 73.5 18t30.5 60q0 78 -162 100l60 130q-169 23 -276 154t-107 306z" />
<glyph unicode="&#xe8;" horiz-adv-x="962" d="M72 440q0 206 117.5 344t295.5 138q169 0 283 -121.5t135 -341.5l-684 -62q12 -130 95 -215.5t208 -85.5q158 0 320 117l51 -109q-57 -45 -161.5 -86t-223.5 -41q-187 0 -311.5 136t-124.5 327zM221 518l522 49q-26 108 -92 175t-164 67q-109 0 -181.5 -81.5 t-84.5 -209.5zM246 1335l137 35l209 -289l-76 -24z" />
<glyph unicode="&#xe9;" horiz-adv-x="962" d="M72 440q0 206 117.5 344t295.5 138q169 0 283 -121.5t135 -341.5l-684 -62q12 -130 95 -215.5t208 -85.5q158 0 320 117l51 -109q-57 -45 -161.5 -86t-223.5 -41q-187 0 -311.5 136t-124.5 327zM221 518l522 49q-26 108 -92 175t-164 67q-109 0 -181.5 -81.5 t-84.5 -209.5zM348 1081l207 289l141 -35l-270 -278z" />
<glyph unicode="&#xea;" horiz-adv-x="962" d="M72 440q0 206 117.5 344t295.5 138q169 0 283 -121.5t135 -341.5l-684 -62q12 -130 95 -215.5t208 -85.5q158 0 320 117l51 -109q-57 -45 -161.5 -86t-223.5 -41q-187 0 -311.5 136t-124.5 327zM186 1096l244 237h109l237 -237l-92 -39l-199 190l-202 -190zM221 518 l522 49q-26 108 -92 175t-164 67q-109 0 -181.5 -81.5t-84.5 -209.5z" />
<glyph unicode="&#xeb;" horiz-adv-x="962" d="M72 440q0 206 117.5 344t295.5 138q169 0 283 -121.5t135 -341.5l-684 -62q12 -130 95 -215.5t208 -85.5q158 0 320 117l51 -109q-57 -45 -161.5 -86t-223.5 -41q-187 0 -311.5 136t-124.5 327zM203 1165q0 34 25.5 59t60.5 25q36 0 62 -25t26 -59q0 -37 -25.5 -62.5 t-62.5 -25.5q-35 0 -60.5 25.5t-25.5 62.5zM221 518l522 49q-26 108 -92 175t-164 67q-109 0 -181.5 -81.5t-84.5 -209.5zM586 1165q0 34 24.5 59t59.5 25q36 0 62 -25t26 -59q0 -37 -25.5 -62.5t-62.5 -25.5q-35 0 -59.5 25.5t-24.5 62.5z" />
<glyph unicode="&#xec;" horiz-adv-x="391" d="M-39 1335l137 35l209 -289l-76 -24zM125 0v897h141v-897h-141z" />
<glyph unicode="&#xed;" horiz-adv-x="391" d="M84 1081l207 289l141 -35l-270 -278zM125 0v897h141v-897h-141z" />
<glyph unicode="&#xee;" horiz-adv-x="391" d="M-98 1096l243 237h109l238 -237l-93 -39l-198 190l-203 -190zM125 0v897h141v-897h-141z" />
<glyph unicode="&#xef;" horiz-adv-x="391" d="M-82 1165q0 34 25.5 59t60.5 25q36 0 62 -25t26 -59q0 -37 -25.5 -62.5t-62.5 -25.5q-35 0 -60.5 25.5t-25.5 62.5zM125 0v897h141v-897h-141zM301 1165q0 34 24.5 59t59.5 25q36 0 62 -25t26 -59q0 -37 -25.5 -62.5t-62.5 -25.5q-35 0 -59.5 25.5t-24.5 62.5z" />
<glyph unicode="&#xf0;" horiz-adv-x="1026" d="M72 446q0 128 57 237.5t159 175t224 65.5q93 0 188 -50h2q-65 131 -188 250l-129 -145l-78 72l127 143q-85 69 -155 117l88 94q79 -43 159 -105l119 138l82 -70l-123 -137q156 -146 253 -337t97 -396q0 -226 -126.5 -373.5t-315.5 -147.5q-187 0 -313.5 137t-126.5 332z M219 436q0 -139 83 -237.5t220 -98.5q126 0 206.5 106.5t80.5 262.5q0 161 -29 233q-128 99 -268 99q-128 0 -210.5 -107t-82.5 -258z" />
<glyph unicode="&#xf1;" horiz-adv-x="1021" d="M123 0v897h141v-133h2q45 34 70 51t77 48t102 46t99 15q131 0 207 -82.5t76 -233.5v-608h-143v584q0 109 -44 159t-135 50q-116 0 -309 -154v-639h-143zM240 1081q3 73 43.5 124.5t105.5 51.5q49 0 125 -37.5t113 -37.5q32 0 51 21t24 54l78 -8q-3 -72 -40.5 -120 t-106.5 -48q-49 0 -126 40t-108 40q-34 0 -56.5 -27t-29.5 -63z" />
<glyph unicode="&#xf2;" horiz-adv-x="1026" d="M72 446q0 128 57 237.5t159 175t224 65.5t224.5 -65.5t160 -174t57.5 -233.5q0 -127 -57.5 -235.5t-160 -173.5t-224.5 -65q-187 0 -313.5 137t-126.5 332zM219 449q0 -147 85.5 -248t211.5 -101q123 0 208 103.5t85 247.5q0 145 -86.5 247.5t-210.5 102.5 q-126 0 -209.5 -102t-83.5 -250zM279 1335l137 35l209 -289l-76 -24z" />
<glyph unicode="&#xf3;" horiz-adv-x="1026" d="M72 446q0 128 57 237.5t159 175t224 65.5t224.5 -65.5t160 -174t57.5 -233.5q0 -127 -57.5 -235.5t-160 -173.5t-224.5 -65q-187 0 -313.5 137t-126.5 332zM219 449q0 -147 85.5 -248t211.5 -101q123 0 208 103.5t85 247.5q0 145 -86.5 247.5t-210.5 102.5 q-126 0 -209.5 -102t-83.5 -250zM399 1081l207 289l142 -35l-271 -278z" />
<glyph unicode="&#xf4;" horiz-adv-x="1026" d="M72 446q0 128 57 237.5t159 175t224 65.5t224.5 -65.5t160 -174t57.5 -233.5q0 -127 -57.5 -235.5t-160 -173.5t-224.5 -65q-187 0 -313.5 137t-126.5 332zM217 1096l244 237h108l238 -237l-92 -39l-199 190l-203 -190zM219 449q0 -147 85.5 -248t211.5 -101 q123 0 208 103.5t85 247.5q0 145 -86.5 247.5t-210.5 102.5q-126 0 -209.5 -102t-83.5 -250z" />
<glyph unicode="&#xf5;" horiz-adv-x="1026" d="M72 446q0 128 57 237.5t159 175t224 65.5t224.5 -65.5t160 -174t57.5 -233.5q0 -127 -57.5 -235.5t-160 -173.5t-224.5 -65q-187 0 -313.5 137t-126.5 332zM219 449q0 -147 85.5 -248t211.5 -101q123 0 208 103.5t85 247.5q0 145 -86.5 247.5t-210.5 102.5 q-126 0 -209.5 -102t-83.5 -250zM242 1081q3 73 43.5 124.5t105.5 51.5q49 0 125 -37.5t113 -37.5q32 0 51.5 21t24.5 54l77 -8q-3 -72 -40.5 -120t-106.5 -48q-49 0 -126 40t-108 40q-34 0 -56.5 -27t-29.5 -63z" />
<glyph unicode="&#xf6;" horiz-adv-x="1026" d="M72 446q0 128 57 237.5t159 175t224 65.5t224.5 -65.5t160 -174t57.5 -233.5q0 -127 -57.5 -235.5t-160 -173.5t-224.5 -65q-187 0 -313.5 137t-126.5 332zM219 449q0 -147 85.5 -248t211.5 -101q123 0 208 103.5t85 247.5q0 145 -86.5 247.5t-210.5 102.5 q-126 0 -209.5 -102t-83.5 -250zM236 1165q0 34 25.5 59t60.5 25q36 0 62 -25t26 -59q0 -37 -25.5 -62.5t-62.5 -25.5q-35 0 -60.5 25.5t-25.5 62.5zM618 1165q0 34 24.5 59t59.5 25q37 0 63 -25t26 -59q0 -37 -26 -62.5t-63 -25.5q-35 0 -59.5 25.5t-24.5 62.5z" />
<glyph unicode="&#xf7;" d="M113 465v119h837v-119h-837zM428 160q0 40 30.5 71t71.5 31q44 0 75.5 -31t31.5 -71q0 -44 -31.5 -75.5t-75.5 -31.5q-41 0 -71.5 31.5t-30.5 75.5zM428 893q0 40 30.5 71t71.5 31q44 0 75.5 -31t31.5 -71q0 -44 -31.5 -75.5t-75.5 -31.5q-41 0 -71.5 31.5t-30.5 75.5z " />
<glyph unicode="&#xf8;" horiz-adv-x="1026" d="M29 -18l143 163q-100 131 -100 301q0 128 57 237.5t159 175t224 65.5q149 0 270 -97l140 156l71 -63l-145 -164q106 -132 106 -305q0 -127 -57.5 -235.5t-160 -173.5t-224.5 -65q-152 0 -270 97l-142 -158zM219 449q0 -112 51 -197l422 477q-82 72 -180 72 q-126 0 -209.5 -102t-83.5 -250zM330 174q80 -74 186 -74q123 0 208 103.5t85 247.5q0 115 -57 200z" />
<glyph unicode="&#xf9;" horiz-adv-x="1007" d="M123 287v610h139v-578q0 -120 45 -169.5t142 -49.5q112 0 294 152v645h140v-897h-135v125h-3q-104 -78 -159 -106q-92 -48 -176 -48q-132 0 -209.5 83.5t-77.5 232.5zM268 1335l138 35l208 -289l-75 -24z" />
<glyph unicode="&#xfa;" horiz-adv-x="1007" d="M123 287v610h139v-578q0 -120 45 -169.5t142 -49.5q112 0 294 152v645h140v-897h-135v125h-3q-104 -78 -159 -106q-92 -48 -176 -48q-132 0 -209.5 83.5t-77.5 232.5zM391 1081l207 289l141 -35l-270 -278z" />
<glyph unicode="&#xfb;" horiz-adv-x="1007" d="M123 287v610h139v-578q0 -120 45 -169.5t142 -49.5q112 0 294 152v645h140v-897h-135v125h-3q-104 -78 -159 -106q-92 -48 -176 -48q-132 0 -209.5 83.5t-77.5 232.5zM209 1096l244 237h108l238 -237l-92 -39l-199 190l-203 -190z" />
<glyph unicode="&#xfc;" horiz-adv-x="1007" d="M123 287v610h139v-578q0 -120 45 -169.5t142 -49.5q112 0 294 152v645h140v-897h-135v125h-3q-104 -78 -159 -106q-92 -48 -176 -48q-132 0 -209.5 83.5t-77.5 232.5zM225 1165q0 34 25.5 59t60.5 25q36 0 62 -25t26 -59q0 -37 -25.5 -62.5t-62.5 -25.5q-35 0 -60.5 25.5 t-25.5 62.5zM608 1165q0 34 24.5 59t59.5 25q36 0 62 -25t26 -59q0 -37 -25.5 -62.5t-62.5 -25.5q-35 0 -59.5 25.5t-24.5 62.5z" />
<glyph unicode="&#xfd;" horiz-adv-x="1007" d="M98 -360l43 114q141 -92 299 -92q303 0 303 246v213h-2q-104 -78 -161 -106q-88 -44 -170 -44q-132 0 -209.5 83.5t-77.5 232.5v610h139v-578q0 -120 45 -169.5t142 -49.5q112 0 294 152v645h140v-979q0 -49 -10 -96.5t-39 -100.5t-74.5 -92.5t-124.5 -65.5t-180 -26 q-105 0 -203.5 34t-153.5 69zM379 1081l207 289l141 -35l-270 -278z" />
<glyph unicode="&#xfe;" horiz-adv-x="1013" d="M123 -463v1866h143v-580h2q157 99 283 99q107 0 197.5 -61.5t142 -164t51.5 -221.5q0 -213 -127 -355.5t-315 -142.5q-20 0 -51 7q-89 12 -181 55h-2v-502h-143zM266 166q107 -66 226 -66q128 0 215.5 107t87.5 258q0 136 -75.5 234t-193.5 98q-110 0 -260 -95v-536z" />
<glyph unicode="&#xff;" horiz-adv-x="1007" d="M98 -360l43 114q141 -92 299 -92q303 0 303 246v213h-2q-104 -78 -161 -106q-88 -44 -170 -44q-132 0 -209.5 83.5t-77.5 232.5v610h139v-578q0 -120 45 -169.5t142 -49.5q112 0 294 152v645h140v-979q0 -49 -10 -96.5t-39 -100.5t-74.5 -92.5t-124.5 -65.5t-180 -26 q-105 0 -203.5 34t-153.5 69zM229 1165q0 34 25.5 59t60.5 25q36 0 62 -25t26 -59q0 -37 -25.5 -62.5t-62.5 -25.5q-35 0 -60.5 25.5t-25.5 62.5zM612 1165q0 34 24.5 59t59.5 25q36 0 62 -25t26 -59q0 -37 -25.5 -62.5t-62.5 -25.5q-35 0 -59.5 25.5t-24.5 62.5z" />
<glyph unicode="&#x152;" horiz-adv-x="1861" d="M92 664q0 199 75.5 358t210.5 248.5t304 89.5q110 0 199.5 -45t152.5 -123v135h721v-123h-569v-452h485v-123h-485v-506h612v-123h-764v141q-61 -78 -153 -124t-199 -46q-180 0 -315.5 93t-205 249t-69.5 351zM254 664q0 -82 15 -160.5t49 -151.5t83 -127.5t122.5 -87.5 t162.5 -33q130 0 217 80.5t121 231.5v499q-19 135 -115.5 223.5t-232.5 88.5q-84 0 -154 -31t-119 -85t-83 -126t-50 -153t-16 -168z" />
<glyph unicode="&#x153;" horiz-adv-x="1695" d="M72 446q0 128 57 237.5t159 175t224 65.5q116 0 210.5 -58.5t151.5 -158.5q53 102 142 158.5t203 56.5q169 0 282.5 -121.5t134.5 -341.5l-684 -62q12 -131 94.5 -216t208.5 -85q158 0 320 117l51 -109q-61 -46 -164 -86.5t-223 -40.5q-119 0 -212.5 58t-149.5 158 q-59 -99 -154 -157.5t-211 -58.5q-187 0 -313.5 137t-126.5 332zM219 449q0 -147 85.5 -248t211.5 -101q123 0 208 103.5t85 247.5q0 145 -86.5 247.5t-210.5 102.5q-126 0 -209.5 -102t-83.5 -250zM954 518l523 49q-26 107 -92.5 174.5t-163.5 67.5q-109 0 -182 -81.5 t-85 -209.5z" />
<glyph unicode="&#x178;" horiz-adv-x="1118" d="M14 1319l174 16l373 -651h2l381 653l158 -18l-469 -778v-541h-154v541zM281 1540q0 34 25.5 59t60.5 25q36 0 62 -25t26 -59q0 -37 -25.5 -62.5t-62.5 -25.5q-35 0 -60.5 25.5t-25.5 62.5zM664 1540q0 34 24.5 59t59.5 25q36 0 62 -25t26 -59q0 -37 -25.5 -62.5 t-62.5 -25.5q-35 0 -59.5 25.5t-24.5 62.5z" />
<glyph unicode="&#x2c6;" horiz-adv-x="708" d="M59 1096l244 237h109l237 -237l-92 -39l-199 190l-202 -190z" />
<glyph unicode="&#x2dc;" horiz-adv-x="714" d="M88 1081q3 73 44 124.5t106 51.5q49 0 124.5 -37.5t112.5 -37.5q32 0 51.5 21t24.5 54l78 -8q-3 -72 -41 -120t-107 -48q-49 0 -125.5 40t-107.5 40q-34 0 -56.5 -27t-29.5 -63z" />
<glyph unicode="&#x2000;" horiz-adv-x="880" />
<glyph unicode="&#x2001;" horiz-adv-x="1761" />
<glyph unicode="&#x2002;" horiz-adv-x="880" />
<glyph unicode="&#x2003;" horiz-adv-x="1761" />
<glyph unicode="&#x2004;" horiz-adv-x="587" />
<glyph unicode="&#x2005;" horiz-adv-x="440" />
<glyph unicode="&#x2006;" horiz-adv-x="293" />
<glyph unicode="&#x2007;" horiz-adv-x="293" />
<glyph unicode="&#x2008;" horiz-adv-x="220" />
<glyph unicode="&#x2009;" horiz-adv-x="352" />
<glyph unicode="&#x200a;" horiz-adv-x="97" />
<glyph unicode="&#x2010;" horiz-adv-x="638" d="M51 418v127h535v-127h-535z" />
<glyph unicode="&#x2011;" horiz-adv-x="638" d="M51 418v127h535v-127h-535z" />
<glyph unicode="&#x2012;" horiz-adv-x="638" d="M51 418v127h535v-127h-535z" />
<glyph unicode="&#x2013;" horiz-adv-x="1171" d="M74 418v127h1020v-127h-1020z" />
<glyph unicode="&#x2014;" horiz-adv-x="2023" d="M74 418v127h1868v-127h-1868z" />
<glyph unicode="&#x2018;" horiz-adv-x="456" d="M137 1116q0 49 43 133l94 181l62 -27l-39 -96q-16 -33 -16 -68q0 -22 27.5 -56.5t27.5 -72.5t-27.5 -67t-72.5 -29q-41 0 -70 28.5t-29 73.5z" />
<glyph unicode="&#x2019;" horiz-adv-x="456" d="M119 1014l41 98q14 32 14 66q0 22 -27.5 57t-27.5 74q0 36 28 65t72 29q41 0 70.5 -28.5t29.5 -74.5q0 -51 -45 -133l-94 -178z" />
<glyph unicode="&#x201a;" horiz-adv-x="456" d="M119 102q0 37 28 67t72 30q41 0 70.5 -29t29.5 -74q0 -53 -45 -135l-94 -178l-61 24l41 99q14 34 14 65q0 22 -27.5 57.5t-27.5 73.5z" />
<glyph unicode="&#x201c;" horiz-adv-x="774" d="M137 1116q0 49 43 133l94 181l62 -27l-39 -96q-16 -33 -16 -68q0 -22 27.5 -56.5t27.5 -72.5t-27.5 -67t-72.5 -29q-41 0 -70 28.5t-29 73.5zM455 1116q0 49 43 133l94 181l61 -27l-39 -96q-16 -33 -16 -68q0 -22 27.5 -56.5t27.5 -72.5t-27.5 -67t-72.5 -29 q-41 0 -69.5 28.5t-28.5 73.5z" />
<glyph unicode="&#x201d;" horiz-adv-x="774" d="M119 1014l41 98q14 32 14 66q0 22 -27.5 57t-27.5 74q0 36 28 65t72 29q41 0 70.5 -28.5t29.5 -74.5q0 -51 -45 -133l-94 -178zM436 1014l41 98q15 34 15 66q0 22 -28 57t-28 74q0 36 28.5 65t72.5 29q41 0 70.5 -28.5t29.5 -74.5q0 -51 -45 -133l-94 -178z" />
<glyph unicode="&#x201e;" horiz-adv-x="774" d="M119 102q0 37 28 67t72 30q41 0 70.5 -29t29.5 -74q0 -53 -45 -135l-94 -178l-61 24l41 99q14 34 14 65q0 22 -27.5 57.5t-27.5 73.5zM436 102q0 37 28.5 67t72.5 30q41 0 70.5 -29t29.5 -74q0 -53 -45 -135l-94 -178l-62 24l41 99q15 36 15 65q0 22 -28 57.5t-28 73.5z " />
<glyph unicode="&#x2022;" horiz-adv-x="581" d="M78 682q0 87 62 149t149 62q89 0 150 -61.5t61 -149.5t-61 -149.5t-150 -61.5q-86 0 -148.5 61.5t-62.5 149.5z" />
<glyph unicode="&#x2026;" horiz-adv-x="1597" d="M162 96q0 40 30.5 71.5t71.5 31.5q44 0 75.5 -31.5t31.5 -71.5q0 -44 -31.5 -75t-75.5 -31q-42 0 -72 31t-30 75zM694 96q0 40 31 71.5t72 31.5q43 0 74.5 -31.5t31.5 -71.5q0 -44 -31 -75t-75 -31q-42 0 -72.5 31t-30.5 75zM1227 96q0 40 30.5 71.5t71.5 31.5 q44 0 75.5 -31.5t31.5 -71.5q0 -44 -31.5 -75t-75.5 -31q-42 0 -72 31t-30 75z" />
<glyph unicode="&#x202f;" horiz-adv-x="352" />
<glyph unicode="&#x2039;" horiz-adv-x="585" d="M92 446l289 355l108 -62l-239 -293l244 -290l-113 -60z" />
<glyph unicode="&#x203a;" horiz-adv-x="585" d="M92 156l244 290l-240 293l109 62l289 -355l-289 -350z" />
<glyph unicode="&#x205f;" horiz-adv-x="440" />
<glyph unicode="&#x20ac;" d="M-20 444l20 111h135q-6 29 -6 96q0 73 8 125h-157l20 111h158q50 208 187.5 336.5t318.5 128.5q204 0 337 -105l-30 -145q-149 112 -297 112q-124 0 -219.5 -89t-135.5 -238h568l-23 -111h-567q-8 -49 -8 -117q0 -71 6 -104h514l-21 -111h-466q42 -148 140 -238.5 t226 -90.5q162 0 305 116l29 -147q-139 -107 -350 -107q-187 0 -326.5 129.5t-189.5 337.5h-176z" />
<glyph unicode="&#x2122;" horiz-adv-x="1558" d="M10 1317v88h606v-88h-254v-699h-102v699h-250zM682 618l29 787h106l207 -408q26 -53 37 -102q18 64 39 102l211 408h106l33 -787h-102l-21 535q-2 27 -2 78l-219 -449h-90l-213 449v-78l-21 -535h-100z" />
<glyph unicode="&#x25fc;" horiz-adv-x="911" d="M0 0v911h911v-911h-911z" />
<glyph unicode="&#xfb01;" horiz-adv-x="1003" d="M43 782v115h123v174q0 72 21.5 132.5t58.5 101.5t86 69.5t103 42t112 13.5q155 0 287 -60l-23 -125q-144 66 -238 66q-113 0 -188.5 -63.5t-75.5 -188.5v-162h568v-897h-140v782h-428v-782h-143v782h-123z" />
<glyph unicode="&#xfb02;" horiz-adv-x="1017" d="M43 782v115h123v195q0 100 53 179.5t131 119t160 39.5q115 0 225 -27h146v-1180q0 -63 12 -98t47 -35q30 0 55 10l21 -102q-50 -21 -101 -21q-180 0 -180 242v1061q-109 31 -205 31q-86 0 -153.5 -65t-67.5 -165v-184h273v-115h-273v-782h-143v782h-123z" />
</font>
</defs>
</svg>
