<?xml version="1.0" standalone="no"?>
<!DOCTYPE svg PUBLIC "-//W3C//DTD SVG 1.1//EN" "http://www.w3.org/Graphics/SVG/1.1/DTD/svg11.dtd" >
<svg xmlns="http://www.w3.org/2000/svg" xmlns:xlink="http://www.w3.org/1999/xlink" version="1.1">
<metadata></metadata>
<defs>
<font id="elisardtinfantbold" horiz-adv-x="1200" >
<font-face units-per-em="2048" ascent="1638" descent="-410" />
<missing-glyph horiz-adv-x="530" />
<glyph unicode="&#xfb03;" horiz-adv-x="1892" d="M43 721v209h121v139q0 158 121.5 259.5t326.5 101.5q99 0 180.5 -16t188.5 -52q117 68 279 68q103 0 180.5 -15t165.5 -43l-50 -221q-146 49 -258 49q-79 0 -130.5 -39t-51.5 -114v-117h645v-930h-301v721h-344v-721h-305v721h-342v-721h-305v721h-121zM469 930h342v139 q0 63 16 107q-91 24 -176 24q-79 0 -130.5 -39t-51.5 -114v-117z" />
<glyph unicode="&#xfb04;" horiz-adv-x="1906" d="M43 721v209h121v139q0 158 121.5 259.5t326.5 101.5q95 0 173 -14.5t178 -47.5q104 64 249 64q43 0 135.5 -14t127.5 -15h288v-1073q0 -131 60 -131q24 0 47 10l41 -207q-83 -27 -160 -27q-291 0 -291 336v873q-156 16 -200 16q-71 0 -107.5 -33t-36.5 -112v-125h232 v-209h-232v-721h-305v721h-342v-721h-305v721h-121zM469 930h342v160q0 40 10 88q-93 22 -170 22q-79 0 -130.5 -39t-51.5 -114v-117z" />
<glyph horiz-adv-x="0" />
<glyph horiz-adv-x="682" />
<glyph unicode=" "  horiz-adv-x="530" />
<glyph unicode="&#x09;" horiz-adv-x="530" />
<glyph unicode="&#xa0;" horiz-adv-x="530" />
<glyph unicode="!" horiz-adv-x="608" d="M135 1122v205h336v-340q-8 -108 -40 -329t-36 -257h-182q-1 13 -22.5 191.5t-34.5 302.5t-21 227zM141 133q0 68 46.5 116t113.5 48q69 0 116.5 -48t47.5 -116t-47.5 -115t-116.5 -47q-67 0 -113.5 47t-46.5 115z" />
<glyph unicode="&#x22;" horiz-adv-x="815" d="M70 1327h272l-53 -422h-166zM471 1327h274l-55 -422h-164z" />
<glyph unicode="#" horiz-adv-x="1284" d="M61 367v235h205l35 176h-213v236h258l74 393l246 -23l-72 -370h215l76 393l245 -23l-73 -370h162v-236h-205l-35 -176h217v-233h-262l-74 -398l-246 25l72 373h-215l-76 -398l-243 25l69 371h-160zM514 602h215l33 176h-211z" />
<glyph unicode="$" d="M127 72l51 274q80 -49 191 -81t188 -32q83 0 127.5 38t44.5 98q0 42 -24.5 75.5t-65 55t-92.5 45.5t-105.5 45.5t-105.5 56t-92.5 76t-65 107.5t-24.5 149q0 137 85 233.5t222 124.5v172h307v-161q128 -13 252 -70l-45 -254q-182 84 -348 84q-72 0 -111 -31t-39 -76 q0 -47 32.5 -82.5t85 -59.5t115.5 -47.5t126 -56.5t115.5 -77.5t85 -119t32.5 -171.5q0 -135 -77.5 -241.5t-223.5 -149.5v-180h-307v164q-166 10 -334 92z" />
<glyph unicode="%" horiz-adv-x="1581" d="M43 967q0 161 89 266.5t245 105.5q150 0 241 -99.5t91 -268.5q0 -172 -94 -272.5t-238 -100.5q-153 0 -243.5 101.5t-90.5 267.5zM236 43l944 1350l166 -97l-945 -1351zM252 969q0 -72 34 -124t91 -52t89 52t32 124q0 75 -32 125.5t-91 50.5q-57 0 -90 -52t-33 -124z M874 342q0 160 89 264.5t245 104.5q150 0 241 -99.5t91 -265.5q0 -173 -93.5 -274t-238.5 -101q-152 0 -243 102.5t-91 268.5zM1085 346q0 -74 33.5 -127t89.5 -53q57 0 89 52t32 124q0 75 -32.5 127.5t-90.5 52.5q-56 0 -88.5 -52.5t-32.5 -123.5z" />
<glyph unicode="&#x26;" horiz-adv-x="1509" d="M55 365q0 226 299 389q-33 37 -50.5 58t-43 57.5t-37.5 72t-12 70.5q0 112 57 192.5t148 118t205 37.5q72 0 139.5 -20.5t123.5 -59.5t90 -103.5t34 -144.5q0 -94 -64 -171t-178 -148l211 -211q105 123 182 323l279 -43q-29 -101 -100.5 -231t-170.5 -242q26 -24 60 -50 t51.5 -38.5t68 -45.5t60.5 -40l-207 -168q-166 101 -246 162q-101 -80 -192.5 -121t-224.5 -41q-223 0 -352.5 111.5t-129.5 286.5zM383 397q0 -81 53 -130.5t137 -49.5q89 0 207 92q-108 101 -260 260q-137 -85 -137 -172zM514 1026q0 -52 84 -147q64 34 94.5 69t30.5 82 q0 40 -27.5 70t-72.5 30q-50 0 -79.5 -31t-29.5 -73z" />
<glyph unicode="'" horiz-adv-x="407" d="M68 1327h272l-51 -422h-168z" />
<glyph unicode="(" horiz-adv-x="698" d="M74 467q0 524 315 936l270 -68q-131 -192 -197.5 -396.5t-66.5 -471.5q0 -258 65.5 -463.5t192.5 -394.5l-270 -70q-309 410 -309 928z" />
<glyph unicode=")" horiz-adv-x="698" d="M41 1335l270 68q316 -413 316 -936q0 -517 -310 -928l-268 70q126 190 192 395.5t66 462.5q0 267 -67 472t-199 396z" />
<glyph unicode="*" horiz-adv-x="958" d="M59 985l62 184l270 -100l-12 287h196l-12 -285l275 100l59 -186l-279 -78l185 -227l-160 -119l-162 246l-159 -246l-160 115l182 229z" />
<glyph unicode="+" d="M152 385v256h321v317h256v-317h320v-256h-320v-322h-256v322h-321z" />
<glyph unicode="," horiz-adv-x="518" d="M80 -242l49 119q33 84 33 113q0 17 -12 35t-26 32.5t-26 43t-12 63.5q0 69 47.5 119.5t124.5 50.5q70 0 121 -49t51 -133q0 -40 -8.5 -77t-30 -80t-34 -64.5t-42.5 -69.5l-100 -162z" />
<glyph unicode="-" horiz-adv-x="690" d="M55 379v246h580v-246h-580z" />
<glyph unicode="." horiz-adv-x="518" d="M86 158q0 73 49.5 124.5t120.5 51.5q73 0 124.5 -52t51.5 -124q0 -73 -51 -122.5t-125 -49.5q-72 0 -121 49.5t-49 122.5z" />
<glyph unicode="/" horiz-adv-x="794" d="M-47 -152l631 1573l260 -102l-629 -1573z" />
<glyph unicode="0" d="M63 664q0 319 139.5 505.5t393.5 186.5q179 0 301.5 -86.5t181 -240t58.5 -365.5q0 -149 -33.5 -273.5t-99.5 -218t-170 -145.5t-238 -52q-113 0 -203.5 36t-151.5 98.5t-101.5 150.5t-58.5 188t-18 216zM389 664q0 -219 54.5 -326t152.5 -107q211 0 211 433 q0 210 -49.5 321t-161.5 111q-207 0 -207 -432z" />
<glyph unicode="1" d="M444 0v1327h312v-1327h-312z" />
<glyph unicode="2" d="M143 1212q202 140 428 140q130 0 235.5 -44.5t170.5 -135.5t65 -214q0 -67 -20 -131.5t-60.5 -126.5t-79.5 -109t-98 -110q-114 -120 -223 -229h504v-252h-899v190q28 30 152.5 162.5t189.5 204.5q72 82 111 130.5t75.5 114.5t36.5 113q0 80 -57.5 127.5t-145.5 47.5 q-82 0 -161.5 -39t-180.5 -111z" />
<glyph unicode="3" d="M123 72l90 233q152 -84 301 -84q125 0 190.5 55t65.5 134q0 89 -60 144.5t-190 55.5h-94v213h98q106 0 161.5 46t55.5 110q0 61 -49 100t-153 39q-163 0 -293 -53l-82 223q189 72 418 72q110 0 200.5 -28.5t148 -75.5t89 -105.5t31.5 -120.5q0 -94 -65.5 -173.5 t-192.5 -119.5q147 -39 223 -131.5t76 -204.5q0 -79 -37.5 -155.5t-106 -138t-175.5 -99t-234 -37.5q-218 0 -416 101z" />
<glyph unicode="4" d="M70 283v206l4 3l47 106l397 762l268 -119l-370 -711h246v291l317 133v-424h151v-247h-151v-283h-317v283h-592z" />
<glyph unicode="5" d="M100 86l93 231q162 -84 319 -84q48 0 90 12t77 37.5t55 69t20 101.5q0 95 -72 152t-201 57q-46 0 -88 -5t-103 -17t-67 -13l94 700h754l-35 -248h-463l-24 -213q48 6 86 6q64 0 127 -15t122.5 -48.5t105 -81t73 -118.5t27.5 -156q0 -213 -146 -347.5t-401 -134.5 q-235 0 -443 115z" />
<glyph unicode="6" d="M86 477q0 294 184.5 536.5t477.5 364.5l194 -170q-145 -83 -241.5 -158.5t-170.5 -175.5q67 29 129 29q215 0 334 -129.5t119 -329.5q0 -209 -134.5 -341t-365.5 -132q-237 0 -381.5 135t-144.5 371zM399 473q0 -112 57 -184t154 -72q85 0 134 67.5t49 153.5 q0 108 -56.5 179t-142.5 71q-45 0 -90 -17.5t-76 -43.5q-29 -78 -29 -154z" />
<glyph unicode="7" d="M129 1057v270h942v-178l-555 -1169l-334 38l490 1033v6h-543z" />
<glyph unicode="8" d="M96 369q0 113 69 201t167 145q-35 26 -59.5 47.5t-55 57t-47 79.5t-16.5 94q0 68 29.5 131.5t84 115.5t143 83t197.5 31q94 0 171 -22.5t126.5 -59t83 -84t48 -95t14.5 -94.5q0 -48 -17.5 -93.5t-46.5 -80t-56 -58t-57 -42.5q230 -142 230 -344q0 -101 -39.5 -179.5 t-109.5 -127.5t-161 -74t-198 -25q-225 0 -362.5 103.5t-137.5 290.5zM420 385q0 -74 49.5 -120t128.5 -46q80 0 131 44t51 118q0 137 -188 215q-74 -34 -123 -89.5t-49 -121.5zM461 983q0 -53 42.5 -95.5t104.5 -62.5q55 27 94 66t39 88q0 56 -38.5 93.5t-100.5 37.5 q-64 0 -102.5 -37t-38.5 -90z" />
<glyph unicode="9" d="M86 879q0 210 135 341.5t367 131.5q237 0 380.5 -134t143.5 -370q0 -294 -184 -536.5t-477 -364.5l-195 170q145 82 241 157.5t169 176.5q-60 -29 -125 -29q-144 0 -249 62.5t-155.5 164.5t-50.5 230zM406 887q0 -108 56.5 -178t143.5 -70q46 0 90.5 16.5t71.5 42.5 q31 67 31 154q0 112 -56 184t-153 72q-85 0 -134.5 -68t-49.5 -153z" />
<glyph unicode=":" horiz-adv-x="518" d="M86 158q0 73 49.5 124.5t120.5 51.5q73 0 124.5 -52t51.5 -124q0 -73 -51 -122.5t-125 -49.5q-72 0 -121 49.5t-49 122.5zM86 774q0 71 49.5 122.5t120.5 51.5q73 0 124.5 -51.5t51.5 -122.5q0 -73 -51 -123.5t-125 -50.5q-72 0 -121 50t-49 124z" />
<glyph unicode=";" horiz-adv-x="518" d="M80 -242l49 119q33 84 33 113q0 17 -12 35t-26 32.5t-26 43t-12 63.5q0 69 47.5 119.5t124.5 50.5q70 0 121 -49t51 -133q0 -40 -8.5 -77t-30 -80t-34 -64.5t-42.5 -69.5l-100 -162zM86 774q0 71 49.5 122.5t120.5 51.5q73 0 124.5 -51.5t51.5 -122.5q0 -73 -51 -123.5 t-125 -50.5q-72 0 -121 50t-49 124z" />
<glyph unicode="&#x3c;" d="M152 449v172l792 448l111 -219l-566 -315v-3l566 -317l-111 -217z" />
<glyph unicode="=" d="M152 158v256h897v-256h-897zM152 610v256h897v-256h-897z" />
<glyph unicode="&#x3e;" d="M143 217l568 315v3l-568 317l111 217l795 -451v-172l-795 -448z" />
<glyph unicode="?" horiz-adv-x="950" d="M57 1225q72 48 187 91.5t233 43.5q197 0 313.5 -100t116.5 -263q0 -69 -22.5 -123t-60.5 -91.5t-77.5 -67.5t-83 -67.5t-67.5 -74.5q-24 -36 -30.5 -76.5t-6.5 -103.5h-272q0 174 37 252q15 36 47 71.5t65.5 63t65 56.5t51.5 64.5t20 74.5q0 63 -38 103t-107 40 q-89 0 -254 -102zM264 133q0 68 46.5 116t113.5 48q69 0 116.5 -48t47.5 -116t-47.5 -115t-116.5 -47q-67 0 -113.5 47t-46.5 115z" />
<glyph unicode="@" horiz-adv-x="1622" d="M43 504q0 184 67.5 347.5t182.5 280t275 184.5t339 68q192 0 345.5 -81t241 -231.5t87.5 -344.5q0 -150 -40.5 -269.5t-108 -192.5t-150.5 -111.5t-174 -38.5q-89 0 -157 44t-89 132q-9 -18 -61 -50t-101 -32q-123 0 -192.5 87.5t-69.5 225.5q0 204 119 339.5t301 135.5 q41 0 86 -6.5t107.5 -20.5t74.5 -16l-57 -579q-3 -45 14 -72t47 -27q77 0 137.5 63t91 158.5t30.5 200.5q0 227 -129.5 366.5t-364.5 139.5q-182 0 -332.5 -94t-234.5 -251.5t-84 -342.5q0 -233 136.5 -373.5t371.5 -140.5q24 0 47 1.5t45 4.5t37.5 5.5t36.5 8t29 7.5t28 8 t22 6l66 -147q-80 -33 -152.5 -47.5t-173.5 -14.5q-310 0 -502 186t-192 484zM668 551q0 -67 25 -109.5t65 -42.5q45 0 108 47l39 345q-23 18 -86 18q-65 0 -108 -71t-43 -187z" />
<glyph unicode="A" horiz-adv-x="1341" d="M6 4l500 1323h344l479 -1323l-344 -12l-98 291h-447l-98 -291zM512 518h303l-121 350l-26 101h-4l-31 -101z" />
<glyph unicode="B" horiz-adv-x="1247" d="M158 0v1327h534q117 0 209.5 -38t149.5 -118.5t57 -193.5q0 -89 -42.5 -155.5t-111.5 -102.5q95 -36 158.5 -124.5t63.5 -193.5q0 -178 -118.5 -289.5t-312.5 -111.5h-587zM489 236h170q78 0 128.5 50.5t50.5 129.5q0 75 -52 124.5t-124 49.5h-173v-354zM489 780h144 q67 0 109 45t42 121q0 65 -45.5 105.5t-109.5 40.5h-140v-312z" />
<glyph unicode="C" horiz-adv-x="1198" d="M74 670q0 150 51 278t140 217t213 139t267 50q231 0 410 -97l-47 -270q-168 98 -311 98q-75 0 -143.5 -27t-122.5 -77t-86.5 -130t-32.5 -179q0 -107 29 -190.5t80 -134t116 -76t141 -25.5q161 0 336 100l45 -274q-78 -45 -189 -74t-231 -29q-144 0 -266 48t-210.5 137 t-138.5 221.5t-50 294.5z" />
<glyph unicode="D" horiz-adv-x="1394" d="M158 0v1327h518q300 0 472.5 -180.5t172.5 -478.5q0 -159 -46 -285.5t-130 -210t-200.5 -128t-258.5 -44.5h-528zM489 256h134q69 0 129 21.5t111.5 68t81.5 129.5t30 195q0 83 -21 151t-55.5 114t-80 78t-95 46t-100.5 14h-134v-817z" />
<glyph unicode="E" horiz-adv-x="1136" d="M158 0v1327h858v-248h-527v-272h457v-248h-457v-311h564v-248h-895z" />
<glyph unicode="F" horiz-adv-x="1030" d="M158 0v1327h839v-250h-505v-295h436v-247h-436v-535h-334z" />
<glyph unicode="G" horiz-adv-x="1316" d="M74 664q0 146 49 272t141 221t234 149t317 54q209 0 381 -84l-47 -262q-176 90 -322 90q-116 0 -209.5 -51t-150.5 -151.5t-57 -233.5q0 -213 101 -329t265 -116q100 0 152 41v238h-160v213h453v-652q-78 -41 -197.5 -67.5t-245.5 -26.5q-169 0 -304 53.5t-221.5 148 t-132.5 220.5t-46 273z" />
<glyph unicode="H" horiz-adv-x="1462" d="M158 0v1327h331v-500h482v500h329v-1327h-329v565h-479v-565h-334z" />
<glyph unicode="I" horiz-adv-x="649" d="M158 0v1327h334v-1327h-334z" />
<glyph unicode="J" horiz-adv-x="792" d="M-39 39l33 260q16 -14 65 -32.5t95 -18.5q88 0 123.5 43.5t35.5 120.5v915h330v-926q0 -64 -16.5 -124.5t-52 -114.5t-86.5 -94.5t-125 -64t-162 -23.5q-75 0 -149 22.5t-91 36.5z" />
<glyph unicode="K" horiz-adv-x="1316" d="M158 0v1327h331v-532l400 540l364 -18l-475 -576l516 -737l-387 -12l-415 622v-614h-334z" />
<glyph unicode="L" horiz-adv-x="1011" d="M158 0v1327h331v-1079h510v-248h-841z" />
<glyph unicode="M" horiz-adv-x="1732" d="M131 4l53 1323h332l299 -584q30 -58 51 -137h4q33 103 50 137l303 584h327l47 -1323l-329 -8l-8 663q0 89 2 134l-297 -584h-195l-303 586q4 -47 4 -136l-12 -663z" />
<glyph unicode="N" horiz-adv-x="1529" d="M158 0v1327h307l594 -788q-12 98 -12 161v627h323v-1327h-295l-602 793q10 -117 10 -175v-618h-325z" />
<glyph unicode="O" horiz-adv-x="1464" d="M74 664q0 195 80.5 354t232 252.5t346.5 93.5q155 0 281.5 -57t207 -154t124 -222.5t43.5 -266.5q0 -145 -47.5 -273t-132.5 -221.5t-208.5 -148t-267.5 -54.5q-156 0 -283.5 57.5t-208 154.5t-124 221.5t-43.5 263.5zM412 682q0 -66 11 -127t36 -117.5t61.5 -99 t92.5 -67.5t124 -25q80 0 142 34.5t98.5 92.5t55 128.5t18.5 149.5q0 82 -18 157t-55 139.5t-101.5 103.5t-149.5 39q-80 0 -142 -35.5t-99 -94.5t-55.5 -130t-18.5 -148z" />
<glyph unicode="P" horiz-adv-x="1165" d="M158 0v1327h448q109 0 203.5 -25.5t170.5 -76t119.5 -136t43.5 -196.5t-43.5 -200t-118.5 -145.5t-171 -86t-204 -29.5h-114v-432h-334zM489 676h93q98 0 161.5 57t63.5 154q0 83 -50.5 139.5t-140.5 56.5h-127v-407z" />
<glyph unicode="Q" horiz-adv-x="1464" d="M74 664q0 195 80.5 354t232 252.5t346.5 93.5q155 0 281.5 -57t207 -154t124 -222.5t43.5 -266.5q0 -214 -99.5 -383.5t-273.5 -251.5q55 -123 131 -123q58 0 131 82l152 -183q-152 -161 -316 -161q-120 0 -218 85t-148 240h-5q-6 -2 -10 -2q-156 0 -283.5 57.5 t-208 154.5t-124 221.5t-43.5 263.5zM412 682q0 -66 11 -127t36 -117.5t61.5 -99t92.5 -67.5t124 -25q80 0 142 34.5t98.5 92.5t55 128.5t18.5 149.5q0 82 -18 157t-55 139.5t-101.5 103.5t-149.5 39q-80 0 -142 -35.5t-99 -94.5t-55.5 -130t-18.5 -148z" />
<glyph unicode="R" horiz-adv-x="1273" d="M158 0v1327h518q214 0 345.5 -113.5t131.5 -298.5q0 -130 -64.5 -220.5t-168.5 -141.5l315 -549l-379 -10l-242 502h-122v-496h-334zM489 731h140q85 0 137.5 49t52.5 127q0 79 -50.5 128.5t-135.5 49.5h-144v-354z" />
<glyph unicode="S" horiz-adv-x="1073" d="M74 72l51 274q76 -49 188 -81t191 -32q82 0 127 38.5t45 97.5q0 48 -32 84t-82.5 61t-112 49.5t-123 57.5t-112 76.5t-82.5 115.5t-32 166q0 76 25 139.5t68.5 108t102 75.5t125 45.5t138.5 14.5q226 0 406 -84l-45 -254q-182 84 -349 84q-71 0 -110 -31.5t-39 -75.5 q0 -47 32.5 -82.5t85 -59.5t115.5 -47.5t126 -56.5t115.5 -77.5t85 -119t32.5 -171.5q0 -83 -29 -156.5t-85.5 -133.5t-150.5 -95t-214 -35q-246 0 -461 105z" />
<glyph unicode="T" horiz-adv-x="1126" d="M0 1067v260h1122v-260h-401v-1067h-326v1067h-395z" />
<glyph unicode="U" horiz-adv-x="1435" d="M139 537v790h328v-827q0 -109 68.5 -184.5t187.5 -75.5q117 0 183.5 75.5t66.5 186.5v825h325v-790q0 -132 -46 -241t-125 -179.5t-183.5 -109t-222.5 -38.5q-170 0 -301.5 67t-206 196.5t-74.5 304.5z" />
<glyph unicode="V" horiz-adv-x="1331" d="M4 1317l348 20l264 -796l54 -174h2q24 88 53 174l266 796l330 -20l-500 -1317h-332z" />
<glyph unicode="W" horiz-adv-x="1947" d="M14 1317l355 20l176 -813q16 -72 24 -135h2q7 32 35 133l217 805h293l219 -805q4 -17 15.5 -62t17.5 -71h2l31 135l201 813l329 -20l-393 -1317h-360l-189 692q-16 58 -33 142h-2q-19 -94 -34 -142l-195 -692h-365z" />
<glyph unicode="X" horiz-adv-x="1363" d="M14 8l475 676l-438 633l404 20l243 -397l252 397l363 -20l-426 -617l467 -692l-412 -16l-270 450l-297 -450z" />
<glyph unicode="Y" horiz-adv-x="1273" d="M-6 1317l368 20l281 -549h2l301 549l336 -20l-487 -795v-522h-330v522z" />
<glyph unicode="Z" horiz-adv-x="1138" d="M35 0v219l624 846h-583v262h1022v-229l-643 -832h628v-266h-1048z" />
<glyph unicode="[" horiz-adv-x="675" d="M150 -463v1866h514v-219h-222v-1424h222v-223h-514z" />
<glyph unicode="\" horiz-adv-x="792" d="M-49 1321l264 102l627 -1573l-262 -102z" />
<glyph unicode="]" horiz-adv-x="675" d="M12 -242h219v1426h-219v219h510v-1866h-510v221z" />
<glyph unicode="^" d="M27 434l432 895h284l428 -893l-274 -51l-301 684h-2l-303 -688z" />
<glyph unicode="_" horiz-adv-x="1064" d="M0 -129h1065v-178h-1065v178z" />
<glyph unicode="`" horiz-adv-x="708" d="M59 1298l222 154l282 -311l-135 -84z" />
<glyph unicode="a" horiz-adv-x="1171" d="M61 469q0 215 141.5 353.5t364.5 138.5q152 0 255.5 -19.5t219.5 -62.5v-879h-292v66h-5q-40 -33 -103 -59.5t-134 -26.5q-197 0 -322 133.5t-125 355.5zM369 481q0 -111 56.5 -187.5t145.5 -76.5q81 0 168 59v416q-65 41 -159 41q-92 0 -151.5 -70t-59.5 -182z" />
<glyph unicode="b" horiz-adv-x="1165" d="M127 72v1331h301v-516h2q123 74 232 74q189 0 313.5 -135t124.5 -339q0 -221 -136.5 -362t-375.5 -141q-151 0 -233.5 16t-227.5 72zM428 248q61 -39 154 -39q87 0 150 75t63 191t-54.5 185t-138.5 69q-82 0 -174 -55v-426z" />
<glyph unicode="c" horiz-adv-x="917" d="M63 461q0 225 140.5 362.5t371.5 137.5q168 0 299 -64l-47 -248q-127 62 -229 62q-99 0 -163 -63.5t-64 -174.5q0 -105 67.5 -171t171.5 -66q111 0 228 57l39 -252q-76 -36 -142 -51t-160 -15q-228 0 -370 135t-142 351z" />
<glyph unicode="d" horiz-adv-x="1171" d="M61 469q0 213 138 352.5t340 139.5q42 0 105 -18t91 -44h2v504h305v-1403h-299v72h-2q-118 -95 -235 -95q-192 0 -318.5 135.5t-126.5 356.5zM367 481q0 -116 58 -190t146 -74q79 0 166 57v406q-84 51 -159 51q-91 0 -151 -69.5t-60 -180.5z" />
<glyph unicode="e" horiz-adv-x="1062" d="M61 459q0 216 135 359t343 143q116 0 204.5 -39.5t144 -112t86 -167t38.5 -212.5l-637 -43q5 -74 64 -131t155 -57q81 0 174.5 29t149.5 67l75 -201q-216 -119 -432 -119q-228 0 -364 132t-136 352zM369 563l333 23q-8 73 -47.5 122.5t-109.5 49.5q-78 0 -123.5 -56.5 t-52.5 -138.5z" />
<glyph unicode="f" horiz-adv-x="718" d="M43 721v209h121v164q0 151 103.5 243.5t267.5 92.5q84 0 147.5 -15t136.5 -43l-49 -221q-101 49 -176 49q-54 0 -89.5 -30.5t-35.5 -100.5v-139h231v-209h-231v-721h-305v721h-121z" />
<glyph unicode="g" horiz-adv-x="1171" d="M61 469q0 215 141 353.5t363 138.5q150 0 253.5 -19.5t223.5 -62.5v-852q0 -47 -4 -89.5t-18 -94.5t-36.5 -95t-63 -85.5t-94.5 -71t-134 -46.5t-178 -18q-242 0 -428 117l74 200q136 -92 315 -92q81 0 136 18.5t81 52.5t35.5 68.5t9.5 79.5v95h-2q-107 -86 -229 -86 q-196 0 -320.5 133.5t-124.5 355.5zM367 481q0 -111 57.5 -187.5t146.5 -76.5q79 0 166 59v416q-62 41 -157 41q-92 0 -152.5 -70.5t-60.5 -181.5z" />
<glyph unicode="h" horiz-adv-x="1181" d="M127 0v1403h303v-578q171 131 322 131q147 0 224 -83t77 -236v-637h-303v573q0 66 -26 97.5t-81 31.5q-44 0 -104.5 -26t-108.5 -55v-621h-303z" />
<glyph unicode="i" horiz-adv-x="561" d="M119 1229q0 68 46 115t111 47q69 0 116.5 -46.5t47.5 -115.5q0 -67 -47.5 -112.5t-116.5 -45.5q-65 0 -111 45.5t-46 112.5zM129 0v930h301v-930h-301z" />
<glyph unicode="j" horiz-adv-x="561" d="M-137 -430l26 217q85 -41 148 -41q38 0 65 23t27 81v1080h303v-1102q0 -138 -89 -222.5t-239 -84.5q-65 0 -132.5 16t-108.5 33zM119 1229q0 68 46 115t111 47q69 0 116.5 -46.5t47.5 -115.5q0 -67 -47.5 -112.5t-116.5 -45.5q-65 0 -111 45.5t-46 112.5z" />
<glyph unicode="k" horiz-adv-x="1103" d="M127 0v1403h303v-785l279 324l348 -24l-359 -365l404 -547l-361 -14l-297 448h-14v-440h-303z" />
<glyph unicode="l" horiz-adv-x="569" d="M121 311v1092h305v-1073q0 -131 59 -131q24 0 47 10l41 -207q-83 -27 -159 -27q-293 0 -293 336z" />
<glyph unicode="m" horiz-adv-x="1742" d="M127 0v930h297v-105h2q169 136 289 136q202 0 274 -158q2 2 25.5 21.5t29.5 24t29 22.5t34.5 24t34 20t39 19.5t39.5 13t45 10.5t46 3q77 0 137.5 -26.5t97.5 -72.5t56.5 -105t19.5 -126v-631h-303v567q0 142 -107 142q-45 0 -97.5 -26t-90.5 -56q0 -3 1 -16.5t1 -16.5 v-594h-303v567q0 142 -102 142q-80 0 -191 -88v-621h-303z" />
<glyph unicode="n" horiz-adv-x="1181" d="M127 0v930h297l2 -103q174 134 328 134q146 0 223.5 -84t77.5 -238v-639h-303v575q0 68 -25.5 100t-81.5 32q-79 0 -215 -84v-623h-303z" />
<glyph unicode="o" horiz-adv-x="1161" d="M61 467q0 213 144 353.5t373 140.5q227 0 372.5 -141t145.5 -349q0 -218 -142 -357t-376 -139q-231 0 -374 136.5t-143 355.5zM373 455q0 -44 12.5 -86t37.5 -78t66.5 -58t94.5 -22q98 0 150 77t52 193q0 98 -58.5 169t-152.5 71q-97 0 -149.5 -73.5t-52.5 -192.5z" />
<glyph unicode="p" horiz-adv-x="1167" d="M127 -463v1393h301l2 -47q48 35 111.5 56.5t120.5 21.5q188 0 314 -137.5t126 -336.5q0 -230 -138 -371t-354 -141q-40 0 -96.5 19.5t-83.5 40.5v-498h-303zM430 254q24 -19 67.5 -35t84.5 -16q84 0 148.5 81.5t64.5 190.5q0 116 -53 183t-142 67q-85 0 -170 -51v-420z " />
<glyph unicode="q" horiz-adv-x="1171" d="M61 469q0 215 141.5 353.5t364.5 138.5q152 0 255.5 -19.5t219.5 -62.5v-1342h-303v529h-4q-107 -86 -227 -86q-197 0 -322 133.5t-125 355.5zM369 481q0 -111 56.5 -187.5t145.5 -76.5q81 0 168 59v416q-65 41 -159 41q-92 0 -151.5 -70t-59.5 -182z" />
<glyph unicode="r" horiz-adv-x="829" d="M127 0v930h299l2 -113q42 48 123.5 96t161.5 48q55 0 121 -23l-43 -272q-39 24 -125 24q-88 0 -236 -127v-563h-303z" />
<glyph unicode="s" horiz-adv-x="856" d="M66 43l36 221q139 -71 277 -71q60 0 90.5 21t30.5 52q0 29 -23 51.5t-59.5 38.5t-81 32.5t-89 40t-81 54t-59.5 81.5t-23 116q0 89 52 154t135.5 96t187.5 31q79 0 162 -16t141 -46l-41 -201q-124 50 -234 50q-53 0 -83.5 -21.5t-30.5 -54.5q0 -22 23.5 -39t61.5 -30.5 t83.5 -29.5t91 -41t83.5 -58t61.5 -87.5t23.5 -124.5q0 -121 -105 -204t-293 -83q-116 0 -202.5 21t-134.5 47z" />
<glyph unicode="t" horiz-adv-x="821" d="M41 721v172l113 45v182l303 94v-284h264v-209h-264v-404q0 -63 30.5 -87.5t87.5 -24.5q84 0 185 53l39 -221q-131 -62 -307 -62q-151 0 -244.5 81t-93.5 218v447h-113z" />
<glyph unicode="u" horiz-adv-x="1177" d="M123 295v635h299v-570q0 -139 117 -139q76 0 209 86v623h301v-930h-295v102h-4q-162 -131 -314 -131q-146 0 -229.5 86.5t-83.5 237.5z" />
<glyph unicode="v" horiz-adv-x="1036" d="M-2 924l334 16l194 -580h4l213 580l295 -16l-374 -924h-289z" />
<glyph unicode="w" horiz-adv-x="1513" d="M6 924l322 16l143 -547h2l168 537h250l160 -537h4l159 547l291 -16l-315 -924h-270l-172 559h-3l-176 -559h-264z" />
<glyph unicode="x" horiz-adv-x="1036" d="M2 8l328 463l-320 453l338 16l176 -266h4l166 266l322 -16l-322 -445l340 -471l-356 -16l-178 274h-6l-175 -274z" />
<glyph unicode="y" horiz-adv-x="1177" d="M94 -356l74 200q136 -92 315 -92q81 0 136.5 18.5t82 52t36.5 68.5t10 80v127h-5q-157 -127 -307 -127q-146 0 -229.5 86.5t-83.5 237.5v635h299v-570q0 -139 117 -139q76 0 209 86v623h301v-903q0 -47 -4 -89.5t-18 -94.5t-36.5 -95t-63 -85.5t-94 -71t-133.5 -46.5 t-178 -18q-242 0 -428 117z" />
<glyph unicode="z" horiz-adv-x="966" d="M63 0v199l441 503h-414v230h819v-205l-436 -487h447v-240h-857z" />
<glyph unicode="{" horiz-adv-x="727" d="M68 369v202q80 1 114.5 39t32.5 111l-8 278q-5 201 104.5 302.5t345.5 101.5v-203q-88 -12 -122 -58t-31 -141l8 -274q3 -88 -43.5 -158t-120.5 -100v-2q75 -31 121 -98t43 -156l-8 -276q-3 -93 31 -138t122 -55v-205q-236 0 -345.5 101t-104.5 301l8 278q2 74 -32.5 112 t-114.5 38z" />
<glyph unicode="|" horiz-adv-x="591" d="M147 -471v1874h299v-1874h-299z" />
<glyph unicode="}" horiz-adv-x="727" d="M68 -258q88 12 122 58t31 141l-8 274q-3 88 43.5 158t120.5 100v2q-75 31 -121 98t-43 156l8 277q3 93 -31 137.5t-122 54.5v205q236 0 345.5 -101t104.5 -301l-8 -278q-2 -74 32.5 -112t114.5 -38v-202q-80 -1 -114.5 -39t-32.5 -111l8 -278q5 -201 -104.5 -302.5 t-345.5 -101.5v203z" />
<glyph unicode="~" d="M115 397q18 75 38.5 130.5t53 110t80 83.5t108.5 29q54 0 113.5 -21.5t102 -47.5t93 -47.5t89.5 -21.5q26 0 45.5 11.5t33 34.5t21.5 43.5t16 50.5l174 -54q-11 -57 -23.5 -103t-35.5 -97.5t-52 -86t-73.5 -57t-99.5 -22.5q-60 0 -121 22.5t-102 50t-89 50t-86 22.5 q-43 0 -67 -37.5t-47 -111.5z" />
<glyph unicode="&#xa1;" horiz-adv-x="608" d="M133 -63q9 109 42 335t36 250h182q4 -38 17.5 -152t22.5 -193.5t19.5 -188.5t16.5 -189v-260h-336v398zM141 791q0 67 47.5 113t116.5 46q68 0 114 -46t46 -113q0 -69 -46.5 -116.5t-113.5 -47.5q-69 0 -116.5 47.5t-47.5 116.5z" />
<glyph unicode="&#xa2;" horiz-adv-x="909" d="M63 637q0 183 93.5 309t253.5 168v229h272v-213q99 -11 192 -57l-47 -242q-135 66 -229 66q-98 0 -162.5 -67t-64.5 -179q0 -105 68 -172t171 -67q111 0 228 57l39 -252q-99 -48 -195 -59v-178h-270v194q-161 41 -255 165.5t-94 297.5z" />
<glyph unicode="&#xa3;" d="M113 569v183h127q-2 6 -9.5 32t-10.5 37t-8 32t-7 37t-2 32q0 207 142 322.5t378 115.5q194 0 360 -84l-96 -234q-122 66 -221 66q-101 0 -169.5 -51t-68.5 -152q0 -35 29 -153h340v-183h-301q6 -43 6 -86q0 -117 -104 -252h589v-231h-966v184q65 34 120.5 112.5 t55.5 160.5q0 46 -12 112h-172z" />
<glyph unicode="&#xa4;" horiz-adv-x="1554" d="M227 229l123 127q-43 60 -70.5 140.5t-27.5 165.5q0 89 27.5 170.5t70.5 136.5l-121 121l115 118l121 -125q53 45 136.5 73t168.5 28q90 0 172 -28t137 -73l123 125l115 -114l-125 -125q46 -55 76 -136.5t30 -170.5q0 -87 -29 -168t-77 -138l123 -127l-113 -114l-127 129 q-118 -101 -305 -101q-182 0 -305 97l-125 -125zM465 662q0 -135 91.5 -223.5t213.5 -88.5q126 0 219.5 88.5t93.5 223.5q0 136 -93 224.5t-220 88.5q-121 0 -213 -89t-92 -224z" />
<glyph unicode="&#xa5;" d="M10 1317l340 20l250 -571h2l279 571l305 -20l-279 -512h211v-166h-303l-57 -111v-36h360v-168h-360v-324h-322v324h-356v168h356v43l-57 104h-299v166h209z" />
<glyph unicode="&#xa6;" horiz-adv-x="825" d="M252 231h321v-694h-321v694zM252 709v694h321v-694h-321z" />
<glyph unicode="&#xa7;" horiz-adv-x="976" d="M74 639q0 129 94 217q-72 82 -72 188q0 152 109.5 236t306.5 84q157 0 342 -72l-43 -215q-69 27 -149.5 44.5t-133.5 17.5q-63 0 -100 -24.5t-37 -67.5q0 -26 29 -50.5t75 -46.5t102 -47.5t112 -61.5t102 -79.5t75 -109t29 -144.5q0 -124 -81 -211q67 -79 67 -193 q0 -146 -113 -238.5t-325 -92.5q-89 0 -196 22t-183 51l33 234q80 -31 170.5 -53.5t148.5 -22.5q74 0 118 27t44 65t-29 69.5t-75 55.5t-102 49t-112 57t-102 72t-75 101.5t-29 138.5zM336 639q0 -34 31.5 -64t66.5 -47t99 -43t90 -39q30 26 30 64q0 24 -13.5 47t-32 39.5 t-50.5 34.5t-56.5 29.5t-62.5 28.5t-57 26q-45 -30 -45 -76z" />
<glyph unicode="&#xa8;" horiz-adv-x="708" d="M-18 1214q0 63 42.5 105.5t102.5 42.5q63 0 106 -42.5t43 -105.5q0 -61 -43 -103t-106 -42q-60 0 -102.5 42t-42.5 103zM434 1214q0 63 42 105.5t104 42.5q63 0 106 -42.5t43 -105.5q0 -61 -43 -103t-106 -42q-62 0 -104 42t-42 103z" />
<glyph unicode="&#xa9;" horiz-adv-x="1513" d="M57 664q0 198 88 355.5t247.5 247t361.5 89.5q203 0 363.5 -90t249.5 -247.5t89 -354.5q0 -148 -51.5 -276.5t-143 -221t-223 -145t-284.5 -52.5q-152 0 -282.5 53t-221 145t-142 220.5t-51.5 276.5zM217 664q0 -150 67 -274.5t190.5 -198.5t279.5 -74q158 0 282.5 74 t191 198.5t66.5 274.5q0 151 -66 275.5t-190.5 198.5t-283.5 74q-158 0 -281.5 -74t-189.5 -198.5t-66 -275.5zM383 659q0 173 107.5 282.5t277.5 109.5q140 0 252 -64l-35 -166q-94 58 -194 58q-82 0 -136.5 -57.5t-54.5 -151.5q0 -92 57 -151.5t146 -59.5q98 0 192 59 l27 -174q-120 -63 -252 -63q-172 0 -279.5 105.5t-107.5 272.5z" />
<glyph unicode="&#xaa;" horiz-adv-x="622" d="M49 750q0 72 46 107.5t126 47.5q71 10 125 13v14q0 25 -13.5 42t-41.5 17q-64 0 -193 -39l-6 150q102 39 219 39q109 0 170.5 -52.5t61.5 -144.5v-338h-191v47h-2q-64 -59 -133 -59q-75 0 -121.5 41t-46.5 115zM236 764q0 -17 11.5 -29t33.5 -12q17 0 29 5t23 13.5 t15 10.5v71q-55 -5 -80 -14q-32 -14 -32 -45z" />
<glyph unicode="&#xab;" horiz-adv-x="1208" d="M82 465l309 385l217 -154l-202 -231l192 -232l-205 -157zM602 465l309 385l215 -154l-200 -231l194 -232l-207 -157z" />
<glyph unicode="&#xac;" d="M152 473v256h897v-571h-256v315h-641z" />
<glyph unicode="&#xad;" horiz-adv-x="690" d="M55 379v246h580v-246h-580z" />
<glyph unicode="&#xae;" horiz-adv-x="1513" d="M57 664q0 198 88 355.5t247.5 247t361.5 89.5q203 0 363.5 -90t249.5 -247.5t89 -354.5q0 -148 -51.5 -276.5t-143 -221t-223 -145t-284.5 -52.5q-152 0 -282.5 53t-221 145t-142 220.5t-51.5 276.5zM217 664q0 -150 67 -274.5t190.5 -198.5t279.5 -74q158 0 282.5 74 t191 198.5t66.5 274.5q0 151 -66 275.5t-190.5 198.5t-283.5 74q-158 0 -281.5 -74t-189.5 -198.5t-66 -275.5zM465 301v733h305q118 0 191 -63t73 -168q0 -71 -35.5 -123t-93.5 -80l180 -295l-225 -8l-135 270h-68v-266h-192zM657 709h88q45 0 72 26.5t27 65.5 q0 42 -28.5 68t-70.5 26h-88v-186z" />
<glyph unicode="&#xaf;" horiz-adv-x="708" d="M37 1081v224h635v-224h-635z" />
<glyph unicode="&#xb0;" horiz-adv-x="649" d="M51 1073q0 117 78.5 189.5t189.5 72.5q110 0 189.5 -70.5t79.5 -187.5q0 -118 -80 -190t-191 -72q-113 0 -189.5 71.5t-76.5 186.5zM223 1073q0 -44 28 -73t68 -29q42 0 70.5 29.5t28.5 74.5q0 44 -28.5 74.5t-72.5 30.5q-40 0 -67 -30.5t-27 -76.5z" />
<glyph unicode="&#xb1;" d="M152 0v256h897v-256h-897zM152 680v256h321v317h256v-317h320v-256h-320v-322h-256v322h-321z" />
<glyph unicode="&#xb2;" horiz-adv-x="708" d="M90 1270q36 23 64.5 38t78 28.5t103.5 13.5q117 0 195.5 -58.5t78.5 -165.5q0 -69 -30 -119t-99 -120l-121 -121h261v-160h-515v123q174 180 197 205q38 44 55.5 65.5t33.5 50.5t16 50q0 38 -29 60t-74 22q-64 0 -186 -82z" />
<glyph unicode="&#xb3;" horiz-adv-x="708" d="M84 645l55 148q82 -43 168 -43q64 0 96.5 25.5t32.5 60.5q0 43 -27 69.5t-85 26.5h-62v133h64q49 0 73.5 19.5t24.5 48.5q0 69 -102 69t-164 -28l-56 141q102 39 248 39q125 0 200 -55t75 -130q0 -48 -35 -89t-105 -68q77 -27 116.5 -75.5t39.5 -107.5q0 -93 -87.5 -166 t-231.5 -73q-54 0 -101.5 9t-73 18.5t-63.5 27.5z" />
<glyph unicode="&#xb4;" horiz-adv-x="708" d="M145 1141l281 311l221 -154l-368 -241z" />
<glyph unicode="&#xb5;" horiz-adv-x="1177" d="M123 -41v971h301v-494q0 -104 39 -161.5t115 -57.5q57 0 101.5 35t61.5 78q11 28 11 71v529h301v-611q0 -64 20 -89t64 -27l-17 -207q-40 -19 -106 -19q-173 0 -221 160h-7q-28 -62 -91.5 -106.5t-151.5 -44.5q-97 0 -148 63v-90q0 -253 23 -365h-266q-13 37 -21 142 t-8 223z" />
<glyph unicode="&#xb6;" horiz-adv-x="1196" d="M68 915q0 195 136 303.5t363 108.5h582v-164h-137v-1624h-176v1624h-158v-1624h-178v979q-204 4 -318 112.5t-114 284.5z" />
<glyph unicode="&#xb7;" horiz-adv-x="518" d="M86 657q0 73 49.5 125t120.5 52q73 0 124.5 -52.5t51.5 -124.5q0 -73 -51 -122.5t-125 -49.5q-72 0 -121 49.5t-49 122.5z" />
<glyph unicode="&#xb8;" horiz-adv-x="708" d="M135 -422l39 135q70 -32 135 -32q28 0 48 13t20 36q0 32 -35.5 52.5t-120.5 39.5l125 180h150l-72 -111q147 -37 147 -163q0 -51 -22 -88.5t-60.5 -58t-82 -29.5t-93.5 -9q-107 0 -178 35z" />
<glyph unicode="&#xb9;" horiz-adv-x="708" d="M250 606v729h207v-729h-207z" />
<glyph unicode="&#xba;" horiz-adv-x="688" d="M43 866q0 121 82 198t217 77q132 0 216.5 -78t84.5 -195q0 -122 -82 -199t-219 -77q-136 0 -217.5 74.5t-81.5 199.5zM246 856q0 -26 8 -50t32 -43.5t60 -19.5q50 0 73 37t23 97q0 45 -27.5 77.5t-72.5 32.5q-96 0 -96 -131z" />
<glyph unicode="&#xbb;" horiz-adv-x="1208" d="M82 696l215 154l311 -385l-313 -389l-205 157l193 232zM602 696l215 154l311 -385l-313 -389l-205 157l193 232z" />
<glyph unicode="&#xbc;" horiz-adv-x="1683" d="M250 606v729h207v-729h-207zM328 -2l944 1466l166 -96l-944 -1468zM1014 158v137l239 459l168 -84l-186 -359h127v138l201 77v-215h63v-153h-63v-158h-201v158h-348z" />
<glyph unicode="&#xbd;" horiz-adv-x="1683" d="M250 606v729h207v-729h-207zM307 -2l944 1466l166 -96l-944 -1468zM1065 664q36 23 64.5 38t78 28t103.5 13q117 0 195.5 -58t78.5 -165q0 -69 -30 -119t-99 -120l-121 -121h260v-160h-514v123q174 180 197 205q37 42 55 65t33.5 51.5t15.5 49.5q0 38 -28.5 59.5 t-73.5 21.5q-65 0 -186 -81z" />
<glyph unicode="&#xbe;" horiz-adv-x="1683" d="M84 645l55 148q82 -43 168 -43q64 0 96.5 25.5t32.5 60.5q0 43 -27 69.5t-85 26.5h-62v133h64q49 0 73.5 19.5t24.5 48.5q0 69 -102 69t-164 -28l-56 141q102 39 248 39q125 0 200 -55t75 -130q0 -48 -35 -89t-105 -68q77 -27 116.5 -75.5t39.5 -107.5q0 -93 -87.5 -166 t-231.5 -73q-54 0 -101.5 9t-73 18.5t-63.5 27.5zM307 -2l944 1466l166 -96l-944 -1468zM1014 158v137l239 459l168 -84l-186 -359h127v138l201 77v-215h63v-153h-63v-158h-201v158h-348z" />
<glyph unicode="&#xbf;" horiz-adv-x="950" d="M43 -94q0 71 22.5 127t60.5 94.5t77.5 69.5t83 69t67.5 76q16 26 25 59t10.5 59t1.5 68h273q0 -179 -37 -260q-15 -36 -47.5 -72t-65.5 -64t-65 -58t-52 -66t-20 -76q0 -65 38 -107t107 -42q83 0 254 106l117 -215q-71 -49 -186.5 -94t-233.5 -45q-197 0 -313.5 102.5 t-116.5 268.5zM362 791q0 67 47.5 113t116.5 46q68 0 114 -46t46 -113q0 -69 -46.5 -116.5t-113.5 -47.5q-69 0 -116.5 47.5t-47.5 116.5z" />
<glyph unicode="&#xc0;" horiz-adv-x="1341" d="M6 4l500 1323h344l479 -1323l-344 -12l-98 291h-447l-98 -291zM356 1673l222 154l282 -311l-135 -84zM512 518h303l-121 350l-26 101h-4l-31 -101z" />
<glyph unicode="&#xc1;" horiz-adv-x="1341" d="M6 4l500 1323h344l479 -1323l-344 -12l-98 291h-447l-98 -291zM481 1516l281 311l221 -154l-369 -241zM512 518h303l-121 350l-26 101h-4l-31 -101z" />
<glyph unicode="&#xc2;" horiz-adv-x="1341" d="M6 4l500 1323h344l479 -1323l-344 -12l-98 291h-447l-98 -291zM346 1536l275 225h100l274 -225l-149 -104l-174 141h-2l-176 -141zM512 518h303l-121 350l-26 101h-4l-31 -101z" />
<glyph unicode="&#xc3;" horiz-adv-x="1341" d="M6 4l500 1323h344l479 -1323l-344 -12l-98 291h-447l-98 -291zM375 1473q5 105 47.5 169t130.5 64q55 0 128 -36t93 -36q47 0 60 74l131 -18q-7 -106 -49.5 -170t-129.5 -64q-40 0 -86 19t-81 38t-48 19q-21 0 -33 -10.5t-17.5 -24.5t-12.5 -45zM512 518h303l-121 350 l-26 101h-4l-31 -101z" />
<glyph unicode="&#xc4;" horiz-adv-x="1341" d="M6 4l500 1323h344l479 -1323l-344 -12l-98 291h-447l-98 -291zM297 1589q0 63 42.5 105.5t102.5 42.5q63 0 106.5 -42.5t43.5 -105.5q0 -61 -43.5 -103t-106.5 -42q-60 0 -102.5 42t-42.5 103zM512 518h303l-121 350l-26 101h-4l-31 -101zM750 1589q0 63 41.5 105.5 t103.5 42.5q63 0 106 -42.5t43 -105.5q0 -61 -43 -103t-106 -42q-61 0 -103 42t-42 103z" />
<glyph unicode="&#xc5;" horiz-adv-x="1341" d="M6 4l500 1323h344l479 -1323l-344 -12l-98 291h-447l-98 -291zM422 1606q0 102 73.5 161.5t178.5 59.5q104 0 175 -60t71 -161q0 -98 -71.5 -159t-176.5 -61q-107 0 -178.5 61.5t-71.5 158.5zM512 518h303l-121 350l-26 101h-4l-31 -101zM590 1606q0 -37 23 -62.5 t57 -25.5q37 0 59.5 25t22.5 63q0 40 -21.5 65t-60.5 25q-33 0 -56.5 -25.5t-23.5 -64.5z" />
<glyph unicode="&#xc6;" horiz-adv-x="1765" d="M6 4l643 1323h907l17 -250h-500l41 -272h408l12 -246h-387l47 -311h471l14 -248h-802l-35 274h-377l-129 -280zM565 518h256l-47 305q-11 49 -14 111h-4l-37 -94z" />
<glyph unicode="&#xc7;" horiz-adv-x="1198" d="M74 670q0 150 51 278t140 217t213 139t267 50q231 0 410 -97l-47 -270q-168 98 -311 98q-75 0 -143.5 -27t-122.5 -77t-86.5 -130t-32.5 -179q0 -107 29 -190.5t80 -134t116 -76t141 -25.5q161 0 336 100l45 -274q-148 -86 -356 -101l-51 -80q147 -37 147 -163 q0 -51 -22 -88.5t-60.5 -58t-82 -29.5t-93.5 -9q-107 0 -178 35l39 135q70 -32 135 -32q28 0 48 13t20 36q0 32 -35.5 52.5t-120.5 39.5l104 151q-261 27 -420 212t-159 485z" />
<glyph unicode="&#xc8;" horiz-adv-x="1136" d="M158 0v1327h858v-248h-527v-272h457v-248h-457v-311h564v-248h-895zM274 1673l222 154l282 -311l-135 -84z" />
<glyph unicode="&#xc9;" horiz-adv-x="1136" d="M158 0v1327h858v-248h-527v-272h457v-248h-457v-311h564v-248h-895zM399 1516l281 311l221 -154l-369 -241z" />
<glyph unicode="&#xca;" horiz-adv-x="1136" d="M158 0v1327h858v-248h-527v-272h457v-248h-457v-311h564v-248h-895zM244 1536l274 225h100l275 -225l-150 -104l-174 141h-2l-176 -141z" />
<glyph unicode="&#xcb;" horiz-adv-x="1136" d="M158 0v1327h858v-248h-527v-272h457v-248h-457v-311h564v-248h-895zM195 1589q0 63 42.5 105.5t102.5 42.5q63 0 106 -42.5t43 -105.5q0 -61 -43 -103t-106 -42q-60 0 -102.5 42t-42.5 103zM647 1589q0 63 42 105.5t104 42.5q63 0 106 -42.5t43 -105.5q0 -61 -43 -103 t-106 -42q-62 0 -104 42t-42 103z" />
<glyph unicode="&#xcc;" horiz-adv-x="649" d="M10 1673l221 154l283 -311l-135 -84zM158 0v1327h334v-1327h-334z" />
<glyph unicode="&#xcd;" horiz-adv-x="649" d="M135 1516l281 311l221 -154l-369 -241zM158 0v1327h334v-1327h-334z" />
<glyph unicode="&#xce;" horiz-adv-x="649" d="M0 1536l274 225h101l274 -225l-149 -104l-174 141h-2l-177 -141zM158 0v1327h334v-1327h-334z" />
<glyph unicode="&#xcf;" horiz-adv-x="649" d="M-49 1589q0 63 42.5 105.5t102.5 42.5q63 0 106.5 -42.5t43.5 -105.5q0 -61 -43.5 -103t-106.5 -42q-60 0 -102.5 42t-42.5 103zM158 0v1327h334v-1327h-334zM403 1589q0 63 42 105.5t104 42.5q63 0 106 -42.5t43 -105.5q0 -61 -43 -103t-106 -42q-62 0 -104 42t-42 103z " />
<glyph unicode="&#xd0;" horiz-adv-x="1394" d="M4 547v235h154v545h518q300 0 472.5 -180.5t172.5 -478.5q0 -159 -46 -285.5t-130 -210t-200.5 -128t-258.5 -44.5h-528v547h-154zM489 256h134q69 0 129 21.5t111.5 68t81.5 129.5t30 195q0 83 -21 151t-55.5 114t-80 78t-95 46t-100.5 14h-134v-291h238v-235h-238v-291 z" />
<glyph unicode="&#xd1;" horiz-adv-x="1529" d="M158 0v1327h307l594 -788q-12 98 -12 161v627h323v-1327h-295l-602 793q10 -117 10 -175v-618h-325zM469 1473q5 105 47.5 169t130.5 64q55 0 128 -36t93 -36q47 0 60 74l131 -18q-15 -234 -178 -234q-40 0 -86 19t-81 38t-48 19q-30 0 -42 -18t-22 -62z" />
<glyph unicode="&#xd2;" horiz-adv-x="1464" d="M74 664q0 195 80.5 354t232 252.5t346.5 93.5q155 0 281.5 -57t207 -154t124 -222.5t43.5 -266.5q0 -145 -47.5 -273t-132.5 -221.5t-208.5 -148t-267.5 -54.5q-156 0 -283.5 57.5t-208 154.5t-124 221.5t-43.5 263.5zM412 682q0 -66 11 -127t36 -117.5t61.5 -99 t92.5 -67.5t124 -25q80 0 142 34.5t98.5 92.5t55 128.5t18.5 149.5q0 82 -18 157t-55 139.5t-101.5 103.5t-149.5 39q-80 0 -142 -35.5t-99 -94.5t-55.5 -130t-18.5 -148zM418 1673l221 154l283 -311l-136 -84z" />
<glyph unicode="&#xd3;" horiz-adv-x="1464" d="M74 664q0 195 80.5 354t232 252.5t346.5 93.5q155 0 281.5 -57t207 -154t124 -222.5t43.5 -266.5q0 -145 -47.5 -273t-132.5 -221.5t-208.5 -148t-267.5 -54.5q-156 0 -283.5 57.5t-208 154.5t-124 221.5t-43.5 263.5zM412 682q0 -66 11 -127t36 -117.5t61.5 -99 t92.5 -67.5t124 -25q80 0 142 34.5t98.5 92.5t55 128.5t18.5 149.5q0 82 -18 157t-55 139.5t-101.5 103.5t-149.5 39q-80 0 -142 -35.5t-99 -94.5t-55.5 -130t-18.5 -148zM543 1516l280 311l221 -154l-368 -241z" />
<glyph unicode="&#xd4;" horiz-adv-x="1464" d="M74 664q0 195 80.5 354t232 252.5t346.5 93.5q155 0 281.5 -57t207 -154t124 -222.5t43.5 -266.5q0 -145 -47.5 -273t-132.5 -221.5t-208.5 -148t-267.5 -54.5q-156 0 -283.5 57.5t-208 154.5t-124 221.5t-43.5 263.5zM408 1536l274 225h100l275 -225l-150 -104l-174 141 h-2l-176 -141zM412 682q0 -66 11 -127t36 -117.5t61.5 -99t92.5 -67.5t124 -25q80 0 142 34.5t98.5 92.5t55 128.5t18.5 149.5q0 82 -18 157t-55 139.5t-101.5 103.5t-149.5 39q-80 0 -142 -35.5t-99 -94.5t-55.5 -130t-18.5 -148z" />
<glyph unicode="&#xd5;" horiz-adv-x="1464" d="M74 664q0 195 80.5 354t232 252.5t346.5 93.5q155 0 281.5 -57t207 -154t124 -222.5t43.5 -266.5q0 -145 -47.5 -273t-132.5 -221.5t-208.5 -148t-267.5 -54.5q-156 0 -283.5 57.5t-208 154.5t-124 221.5t-43.5 263.5zM412 682q0 -66 11 -127t36 -117.5t61.5 -99 t92.5 -67.5t124 -25q80 0 142 34.5t98.5 92.5t55 128.5t18.5 149.5q0 82 -18 157t-55 139.5t-101.5 103.5t-149.5 39q-80 0 -142 -35.5t-99 -94.5t-55.5 -130t-18.5 -148zM436 1473q5 105 47.5 169t130.5 64q55 0 128.5 -36t93.5 -36q24 0 38 17t21 57l131 -18 q-15 -234 -178 -234q-40 0 -86 19t-81 38t-48 19q-30 0 -42 -18t-22 -62z" />
<glyph unicode="&#xd6;" horiz-adv-x="1464" d="M74 664q0 195 80.5 354t232 252.5t346.5 93.5q155 0 281.5 -57t207 -154t124 -222.5t43.5 -266.5q0 -145 -47.5 -273t-132.5 -221.5t-208.5 -148t-267.5 -54.5q-156 0 -283.5 57.5t-208 154.5t-124 221.5t-43.5 263.5zM358 1589q0 63 43 105.5t103 42.5q63 0 106 -42.5 t43 -105.5q0 -61 -43 -103t-106 -42q-60 0 -103 42t-43 103zM412 682q0 -66 11 -127t36 -117.5t61.5 -99t92.5 -67.5t124 -25q80 0 142 34.5t98.5 92.5t55 128.5t18.5 149.5q0 82 -18 157t-55 139.5t-101.5 103.5t-149.5 39q-80 0 -142 -35.5t-99 -94.5t-55.5 -130 t-18.5 -148zM811 1589q0 63 41.5 105.5t103.5 42.5q63 0 106.5 -42.5t43.5 -105.5q0 -61 -43.5 -103t-106.5 -42q-62 0 -103.5 42t-41.5 103z" />
<glyph unicode="&#xd7;" d="M174 264l248 250l-248 244l182 182q40 -42 122 -124t122 -124l246 244l182 -182l-246 -242l246 -246l-180 -182l-248 248q-40 -42 -122 -125t-122 -125z" />
<glyph unicode="&#xd8;" horiz-adv-x="1464" d="M45 -12l176 215q-147 188 -147 461q0 195 80.5 354t232 252.5t346.5 93.5q211 0 365 -104l159 192l134 -106l-166 -199q164 -194 164 -483q0 -145 -47.5 -273t-132.5 -221.5t-208.5 -148t-267.5 -54.5q-229 0 -393 119l-170 -205zM412 682q0 -121 34 -211l459 557 q-72 62 -178 62q-80 0 -142 -35.5t-99 -94.5t-55.5 -130t-18.5 -148zM537 319q79 -73 200 -73q80 0 142 34.5t98.5 92.5t55 128.5t18.5 149.5q0 127 -43 234z" />
<glyph unicode="&#xd9;" horiz-adv-x="1435" d="M139 537v790h328v-827q0 -109 68.5 -184.5t187.5 -75.5q117 0 183.5 75.5t66.5 186.5v825h325v-790q0 -132 -46 -241t-125 -179.5t-183.5 -109t-222.5 -38.5q-170 0 -301.5 67t-206 196.5t-74.5 304.5zM403 1673l222 154l282 -311l-135 -84z" />
<glyph unicode="&#xda;" horiz-adv-x="1435" d="M139 537v790h328v-827q0 -109 68.5 -184.5t187.5 -75.5q117 0 183.5 75.5t66.5 186.5v825h325v-790q0 -132 -46 -241t-125 -179.5t-183.5 -109t-222.5 -38.5q-170 0 -301.5 67t-206 196.5t-74.5 304.5zM528 1516l281 311l221 -154l-368 -241z" />
<glyph unicode="&#xdb;" horiz-adv-x="1435" d="M139 537v790h328v-827q0 -109 68.5 -184.5t187.5 -75.5q117 0 183.5 75.5t66.5 186.5v825h325v-790q0 -132 -46 -241t-125 -179.5t-183.5 -109t-222.5 -38.5q-170 0 -301.5 67t-206 196.5t-74.5 304.5zM393 1536l275 225h100l274 -225l-149 -104l-174 141h-2l-176 -141z " />
<glyph unicode="&#xdc;" horiz-adv-x="1435" d="M139 537v790h328v-827q0 -109 68.5 -184.5t187.5 -75.5q117 0 183.5 75.5t66.5 186.5v825h325v-790q0 -132 -46 -241t-125 -179.5t-183.5 -109t-222.5 -38.5q-170 0 -301.5 67t-206 196.5t-74.5 304.5zM344 1589q0 63 42.5 105.5t102.5 42.5q63 0 106.5 -42.5 t43.5 -105.5q0 -61 -43.5 -103t-106.5 -42q-60 0 -102.5 42t-42.5 103zM797 1589q0 63 41.5 105.5t103.5 42.5q63 0 106.5 -42.5t43.5 -105.5q0 -61 -43.5 -103t-106.5 -42q-62 0 -103.5 42t-41.5 103z" />
<glyph unicode="&#xdd;" horiz-adv-x="1273" d="M-6 1317l368 20l281 -549h2l301 549l336 -20l-487 -795v-522h-330v522zM446 1516l281 311l221 -154l-368 -241z" />
<glyph unicode="&#xde;" horiz-adv-x="1165" d="M158 0v1327h331v-217h117q110 0 204 -25t170 -75.5t119.5 -136t43.5 -197.5q0 -111 -43.5 -200t-118.5 -145.5t-171 -86t-204 -29.5h-114v-215h-334zM489 459h93q98 0 161.5 57t63.5 154q0 83 -50.5 139.5t-140.5 56.5h-127v-407z" />
<glyph unicode="&#xdf;" horiz-adv-x="1236" d="M137 0v971q0 204 130.5 318t350.5 114q88 0 170 -20t152.5 -60t113 -110t42.5 -160q0 -60 -18.5 -109.5t-45 -80.5t-53.5 -56t-45.5 -49t-18.5 -47q0 -14 15 -29.5t38.5 -32.5t52.5 -38t57.5 -50t52 -63t38.5 -82.5t15 -104.5q0 -130 -111.5 -224.5t-275.5 -94.5 q-82 0 -143.5 15.5t-151.5 55.5l76 203q81 -47 163 -47q64 0 102 33.5t38 91.5q0 35 -28.5 68t-68.5 60.5t-80.5 57t-69 70t-28.5 86.5q0 43 18.5 77t45 58t53 49.5t45 64.5t18.5 89q0 63 -48.5 103t-123.5 40q-174 0 -174 -182v-985h-303z" />
<glyph unicode="&#xe0;" horiz-adv-x="1171" d="M61 469q0 215 141.5 353.5t364.5 138.5q152 0 255.5 -19.5t219.5 -62.5v-879h-292v66h-5q-40 -33 -103 -59.5t-134 -26.5q-197 0 -322 133.5t-125 355.5zM291 1298l221 154l283 -311l-136 -84zM369 481q0 -111 56.5 -187.5t145.5 -76.5q81 0 168 59v416q-65 41 -159 41 q-92 0 -151.5 -70t-59.5 -182z" />
<glyph unicode="&#xe1;" horiz-adv-x="1171" d="M61 469q0 215 141.5 353.5t364.5 138.5q152 0 255.5 -19.5t219.5 -62.5v-879h-292v66h-5q-40 -33 -103 -59.5t-134 -26.5q-197 0 -322 133.5t-125 355.5zM369 481q0 -111 56.5 -187.5t145.5 -76.5q81 0 168 59v416q-65 41 -159 41q-92 0 -151.5 -70t-59.5 -182zM385 1141 l281 311l221 -154l-369 -241z" />
<glyph unicode="&#xe2;" horiz-adv-x="1171" d="M61 469q0 215 141.5 353.5t364.5 138.5q152 0 255.5 -19.5t219.5 -62.5v-879h-292v66h-5q-40 -33 -103 -59.5t-134 -26.5q-197 0 -322 133.5t-125 355.5zM266 1161l275 225h100l274 -225l-149 -104l-174 141h-2l-176 -141zM369 481q0 -111 56.5 -187.5t145.5 -76.5 q81 0 168 59v416q-65 41 -159 41q-92 0 -151.5 -70t-59.5 -182z" />
<glyph unicode="&#xe3;" horiz-adv-x="1171" d="M61 469q0 215 141.5 353.5t364.5 138.5q152 0 255.5 -19.5t219.5 -62.5v-879h-292v66h-5q-40 -33 -103 -59.5t-134 -26.5q-197 0 -322 133.5t-125 355.5zM297 1098q5 105 47.5 169t130.5 64q55 0 128 -35.5t93 -35.5q24 0 38.5 16.5t21.5 56.5l131 -18 q-15 -234 -178 -234q-40 0 -86 19t-81 38t-48 19q-30 0 -42 -18t-22 -62zM369 481q0 -111 56.5 -187.5t145.5 -76.5q81 0 168 59v416q-65 41 -159 41q-92 0 -151.5 -70t-59.5 -182z" />
<glyph unicode="&#xe4;" horiz-adv-x="1171" d="M61 469q0 215 141.5 353.5t364.5 138.5q152 0 255.5 -19.5t219.5 -62.5v-879h-292v66h-5q-40 -33 -103 -59.5t-134 -26.5q-197 0 -322 133.5t-125 355.5zM215 1214q0 63 42.5 105.5t102.5 42.5q63 0 106.5 -42.5t43.5 -105.5q0 -61 -43.5 -103t-106.5 -42 q-60 0 -102.5 42t-42.5 103zM369 481q0 -111 56.5 -187.5t145.5 -76.5q81 0 168 59v416q-65 41 -159 41q-92 0 -151.5 -70t-59.5 -182zM668 1214q0 63 41.5 105.5t103.5 42.5q63 0 106.5 -42.5t43.5 -105.5q0 -61 -43.5 -103t-106.5 -42q-61 0 -103 41.5t-42 103.5z" />
<glyph unicode="&#xe5;" horiz-adv-x="1171" d="M61 469q0 215 141.5 353.5t364.5 138.5q152 0 255.5 -19.5t219.5 -62.5v-879h-292v66h-5q-40 -33 -103 -59.5t-134 -26.5q-197 0 -322 133.5t-125 355.5zM342 1231q0 102 73.5 161.5t178.5 59.5q104 0 175 -60t71 -161q0 -98 -71.5 -158.5t-176.5 -60.5q-107 0 -178.5 61 t-71.5 158zM369 481q0 -111 56.5 -187.5t145.5 -76.5q81 0 168 59v416q-65 41 -159 41q-92 0 -151.5 -70t-59.5 -182zM510 1231q0 -37 23 -62.5t57 -25.5q37 0 59.5 25t22.5 63q0 40 -21.5 65t-60.5 25q-33 0 -56.5 -25.5t-23.5 -64.5z" />
<glyph unicode="&#xe6;" horiz-adv-x="1722" d="M61 469q0 215 141.5 353.5t364.5 138.5q225 0 408 -60q102 60 223 60q430 0 473 -531l-635 -43q3 -75 62 -131.5t164 -56.5q79 0 165 29t150 67l74 -201q-218 -117 -432 -117q-107 0 -177 23h-292v66h-5q-111 -89 -237 -89q-197 0 -322 135t-125 357zM369 481 q0 -111 56.5 -187.5t145.5 -76.5q81 0 168 59v416q-65 41 -159 41q-92 0 -151.5 -70t-59.5 -182zM1028 563l336 23q-10 73 -51 122.5t-111 49.5q-78 0 -122 -56.5t-52 -138.5z" />
<glyph unicode="&#xe7;" horiz-adv-x="917" d="M63 461q0 225 140.5 362.5t371.5 137.5q168 0 299 -64l-47 -248q-127 62 -229 62q-99 0 -163 -63.5t-64 -174.5q0 -105 67.5 -171t171.5 -66q111 0 228 57l39 -252q-116 -53 -224 -61l-55 -89q147 -37 147 -163q0 -51 -22 -88.5t-60.5 -58t-82 -29.5t-93.5 -9 q-107 0 -178 35l39 135q70 -32 135 -32q28 0 48 13t20 36q0 32 -35.5 52.5t-120.5 39.5l109 158q-199 22 -320 153t-121 328z" />
<glyph unicode="&#xe8;" horiz-adv-x="1062" d="M61 459q0 216 135 359t343 143q116 0 204.5 -39.5t144 -112t86 -167t38.5 -212.5l-637 -43q5 -74 64 -131t155 -57q81 0 174.5 29t149.5 67l75 -201q-216 -119 -432 -119q-228 0 -364 132t-136 352zM217 1298l221 154l283 -311l-135 -84zM369 563l333 23 q-8 73 -47.5 122.5t-109.5 49.5q-78 0 -123.5 -56.5t-52.5 -138.5z" />
<glyph unicode="&#xe9;" horiz-adv-x="1062" d="M61 459q0 216 135 359t343 143q116 0 204.5 -39.5t144 -112t86 -167t38.5 -212.5l-637 -43q5 -74 64 -131t155 -57q81 0 174.5 29t149.5 67l75 -201q-216 -119 -432 -119q-228 0 -364 132t-136 352zM342 1141l281 311l221 -154l-369 -241zM369 563l333 23 q-8 73 -47.5 122.5t-109.5 49.5q-78 0 -123.5 -56.5t-52.5 -138.5z" />
<glyph unicode="&#xea;" horiz-adv-x="1062" d="M61 459q0 216 135 359t343 143q116 0 204.5 -39.5t144 -112t86 -167t38.5 -212.5l-637 -43q5 -74 64 -131t155 -57q81 0 174.5 29t149.5 67l75 -201q-216 -119 -432 -119q-228 0 -364 132t-136 352zM207 1161l274 225h101l274 -225l-149 -104l-175 141h-2l-176 -141z M369 563l333 23q-8 73 -47.5 122.5t-109.5 49.5q-78 0 -123.5 -56.5t-52.5 -138.5z" />
<glyph unicode="&#xeb;" horiz-adv-x="1062" d="M61 459q0 216 135 359t343 143q116 0 204.5 -39.5t144 -112t86 -167t38.5 -212.5l-637 -43q5 -74 64 -131t155 -57q81 0 174.5 29t149.5 67l75 -201q-216 -119 -432 -119q-228 0 -364 132t-136 352zM158 1214q0 63 42.5 105.5t102.5 42.5q63 0 106.5 -42.5t43.5 -105.5 q0 -61 -43.5 -103t-106.5 -42q-60 0 -102.5 42t-42.5 103zM369 563l333 23q-8 73 -47.5 122.5t-109.5 49.5q-78 0 -123.5 -56.5t-52.5 -138.5zM610 1214q0 63 42 105.5t104 42.5q63 0 106 -42.5t43 -105.5q0 -61 -43 -103t-106 -42q-62 0 -104 42t-42 103z" />
<glyph unicode="&#xec;" horiz-adv-x="561" d="M-33 1298l221 154l283 -311l-135 -84zM129 0v930h301v-930h-301z" />
<glyph unicode="&#xed;" horiz-adv-x="561" d="M92 1141l281 311l221 -154l-369 -241zM129 0v930h301v-930h-301z" />
<glyph unicode="&#xee;" horiz-adv-x="561" d="M-43 1161l274 225h101l274 -225l-149 -104l-174 141h-2l-177 -141zM129 0v930h301v-930h-301z" />
<glyph unicode="&#xef;" horiz-adv-x="561" d="M-92 1214q0 63 42.5 105.5t102.5 42.5q63 0 106.5 -42.5t43.5 -105.5q0 -61 -43.5 -103t-106.5 -42q-60 0 -102.5 42t-42.5 103zM129 0v930h301v-930h-301zM360 1214q0 63 42 105.5t104 42.5q63 0 106 -42.5t43 -105.5q0 -61 -43 -103t-106 -42q-62 0 -104 42t-42 103z " />
<glyph unicode="&#xf0;" horiz-adv-x="1161" d="M61 467q0 213 144 353.5t373 140.5q8 0 22.5 -3.5t28.5 -5.5l2 2q-50 63 -135 131l-95 -106l-79 72l88 100q-18 13 -57.5 38t-57.5 38l168 178q51 -26 110 -66l86 99l82 -70l-77 -90q195 -144 313.5 -338.5t118.5 -392.5q0 -268 -140 -420t-378 -152q-231 0 -374 136.5 t-143 355.5zM373 453q0 -60 20.5 -112.5t70.5 -91t122 -38.5q97 0 148.5 77.5t51.5 194.5q0 52 -14.5 105.5t-36.5 87.5q-68 45 -160 45q-97 0 -149.5 -74t-52.5 -194z" />
<glyph unicode="&#xf1;" horiz-adv-x="1181" d="M127 0v930h297l2 -103q174 134 328 134q146 0 223.5 -84t77.5 -238v-639h-303v575q0 68 -25.5 100t-81.5 32q-79 0 -215 -84v-623h-303zM295 1098q5 105 47.5 169t130.5 64q55 0 128 -35.5t93 -35.5q24 0 38.5 16.5t21.5 56.5l131 -18q-15 -234 -178 -234q-40 0 -86 19 t-81 38t-48 19q-30 0 -42 -18t-22 -62z" />
<glyph unicode="&#xf2;" horiz-adv-x="1161" d="M61 467q0 213 144 353.5t373 140.5q227 0 372.5 -141t145.5 -349q0 -218 -142 -357t-376 -139q-231 0 -374 136.5t-143 355.5zM266 1298l221 154l283 -311l-135 -84zM373 455q0 -44 12.5 -86t37.5 -78t66.5 -58t94.5 -22q98 0 150 77t52 193q0 98 -58.5 169t-152.5 71 q-97 0 -149.5 -73.5t-52.5 -192.5z" />
<glyph unicode="&#xf3;" horiz-adv-x="1161" d="M61 467q0 213 144 353.5t373 140.5q227 0 372.5 -141t145.5 -349q0 -218 -142 -357t-376 -139q-231 0 -374 136.5t-143 355.5zM373 455q0 -44 12.5 -86t37.5 -78t66.5 -58t94.5 -22q98 0 150 77t52 193q0 98 -58.5 169t-152.5 71q-97 0 -149.5 -73.5t-52.5 -192.5z M391 1141l281 311l221 -154l-369 -241z" />
<glyph unicode="&#xf4;" horiz-adv-x="1161" d="M61 467q0 213 144 353.5t373 140.5q227 0 372.5 -141t145.5 -349q0 -218 -142 -357t-376 -139q-231 0 -374 136.5t-143 355.5zM256 1161l274 225h101l274 -225l-149 -104l-174 141h-2l-177 -141zM373 455q0 -44 12.5 -86t37.5 -78t66.5 -58t94.5 -22q98 0 150 77t52 193 q0 98 -58.5 169t-152.5 71q-97 0 -149.5 -73.5t-52.5 -192.5z" />
<glyph unicode="&#xf5;" horiz-adv-x="1161" d="M61 467q0 213 144 353.5t373 140.5q227 0 372.5 -141t145.5 -349q0 -218 -142 -357t-376 -139q-231 0 -374 136.5t-143 355.5zM285 1098q5 105 47.5 169t130.5 64q55 0 128 -35.5t93 -35.5q24 0 38 16.5t21 56.5l131 -18q-15 -234 -178 -234q-40 0 -86 19t-81 38t-48 19 q-21 0 -33 -10.5t-17.5 -24.5t-12.5 -45zM373 455q0 -44 12.5 -86t37.5 -78t66.5 -58t94.5 -22q98 0 150 77t52 193q0 98 -58.5 169t-152.5 71q-97 0 -149.5 -73.5t-52.5 -192.5z" />
<glyph unicode="&#xf6;" horiz-adv-x="1161" d="M61 467q0 213 144 353.5t373 140.5q227 0 372.5 -141t145.5 -349q0 -218 -142 -357t-376 -139q-231 0 -374 136.5t-143 355.5zM207 1214q0 63 42.5 105.5t102.5 42.5q63 0 106.5 -42.5t43.5 -105.5q0 -61 -43.5 -103t-106.5 -42q-60 0 -102.5 42t-42.5 103zM373 455 q0 -44 12.5 -86t37.5 -78t66.5 -58t94.5 -22q98 0 150 77t52 193q0 98 -58.5 169t-152.5 71q-97 0 -149.5 -73.5t-52.5 -192.5zM659 1214q0 63 42 105.5t104 42.5q63 0 106 -42.5t43 -105.5q0 -61 -43 -103t-106 -42q-62 0 -104 42t-42 103z" />
<glyph unicode="&#xf7;" d="M152 385v256h897v-256h-897zM449 141q0 62 43 107t104 45q64 0 109 -45t45 -107q0 -64 -44.5 -106.5t-109.5 -42.5q-62 0 -104.5 42.5t-42.5 106.5zM449 883q0 63 43 108t104 45q64 0 109 -45t45 -108t-44.5 -105.5t-109.5 -42.5q-62 0 -104.5 42.5t-42.5 105.5z" />
<glyph unicode="&#xf8;" horiz-adv-x="1161" d="M61 467q0 213 144 353.5t373 140.5q169 0 299 -82l127 139l90 -76l-127 -141q62 -63 95.5 -149t33.5 -181q0 -218 -142 -357t-376 -139q-174 0 -302 78l-129 -141l-84 82l125 133q-127 136 -127 340zM373 455q0 -63 18 -105l303 332q-51 39 -119 39q-97 0 -149.5 -73.5 t-52.5 -192.5zM461 252q51 -41 123 -41q98 0 150 77t52 193q0 53 -22 105z" />
<glyph unicode="&#xf9;" horiz-adv-x="1177" d="M123 295v635h299v-570q0 -139 117 -139q76 0 209 86v623h301v-930h-295v102h-4q-162 -131 -314 -131q-146 0 -229.5 86.5t-83.5 237.5zM274 1298l222 154l282 -311l-135 -84z" />
<glyph unicode="&#xfa;" horiz-adv-x="1177" d="M123 295v635h299v-570q0 -139 117 -139q76 0 209 86v623h301v-930h-295v102h-4q-162 -131 -314 -131q-146 0 -229.5 86.5t-83.5 237.5zM399 1141l281 311l221 -154l-369 -241z" />
<glyph unicode="&#xfb;" horiz-adv-x="1177" d="M123 295v635h299v-570q0 -139 117 -139q76 0 209 86v623h301v-930h-295v102h-4q-162 -131 -314 -131q-146 0 -229.5 86.5t-83.5 237.5zM264 1161l275 225h100l274 -225l-149 -104l-174 141h-2l-176 -141z" />
<glyph unicode="&#xfc;" horiz-adv-x="1177" d="M123 295v635h299v-570q0 -139 117 -139q76 0 209 86v623h301v-930h-295v102h-4q-162 -131 -314 -131q-146 0 -229.5 86.5t-83.5 237.5zM215 1214q0 63 42.5 105.5t102.5 42.5q63 0 106.5 -42.5t43.5 -105.5q0 -61 -43.5 -103t-106.5 -42q-60 0 -102.5 42t-42.5 103z M668 1214q0 63 41.5 105.5t103.5 42.5q63 0 106.5 -42.5t43.5 -105.5q0 -61 -43.5 -103t-106.5 -42q-61 0 -103 41.5t-42 103.5z" />
<glyph unicode="&#xfd;" horiz-adv-x="1177" d="M94 -356l74 200q136 -92 315 -92q81 0 136.5 18.5t82 52t36.5 68.5t10 80v127h-5q-157 -127 -307 -127q-146 0 -229.5 86.5t-83.5 237.5v635h299v-570q0 -139 117 -139q76 0 209 86v623h301v-903q0 -47 -4 -89.5t-18 -94.5t-36.5 -95t-63 -85.5t-94 -71t-133.5 -46.5 t-178 -18q-242 0 -428 117zM379 1141l280 311l222 -154l-369 -241z" />
<glyph unicode="&#xfe;" horiz-adv-x="1167" d="M127 -463v1866h303l2 -520q49 35 111 56.5t119 21.5q188 0 314 -137.5t126 -336.5q0 -230 -138 -371t-354 -141q-40 0 -95 19.5t-83 40.5l-2 -498h-303zM430 254q24 -19 67.5 -35t84.5 -16q84 0 148.5 81.5t64.5 190.5q0 116 -53 183t-142 67q-85 0 -170 -51v-420z" />
<glyph unicode="&#xff;" horiz-adv-x="1177" d="M94 -356l74 200q136 -92 315 -92q81 0 136.5 18.5t82 52t36.5 68.5t10 80v127h-5q-157 -127 -307 -127q-146 0 -229.5 86.5t-83.5 237.5v635h299v-570q0 -139 117 -139q76 0 209 86v623h301v-903q0 -47 -4 -89.5t-18 -94.5t-36.5 -95t-63 -85.5t-94 -71t-133.5 -46.5 t-178 -18q-242 0 -428 117zM213 1214q0 63 42.5 105.5t102.5 42.5q63 0 106.5 -42.5t43.5 -105.5q0 -61 -43.5 -103t-106.5 -42q-60 0 -102.5 42t-42.5 103zM666 1214q0 63 41.5 105.5t103.5 42.5q63 0 106.5 -42.5t43.5 -105.5q0 -61 -43.5 -103t-106.5 -42 q-61 0 -103 41.5t-42 103.5z" />
<glyph unicode="&#x152;" horiz-adv-x="2004" d="M74 664q0 149 41.5 275t119.5 220t200 147.5t274 53.5q216 0 340 -131v98h837v-248h-526v-274h452v-248h-452v-309h559v-248h-870v100q-124 -131 -342 -131q-152 0 -273.5 53.5t-199.5 148t-119 220.5t-41 273zM410 664q0 -79 17.5 -151.5t53.5 -134.5t99 -99t145 -37 q119 0 197 77t92 201v289q-12 122 -91 200t-200 78q-66 0 -119.5 -24.5t-89 -65.5t-59.5 -96.5t-34.5 -114.5t-10.5 -122z" />
<glyph unicode="&#x153;" horiz-adv-x="1787" d="M61 467q0 213 144 353.5t373 140.5q224 0 358 -154q56 73 140.5 113.5t187.5 40.5q115 0 202.5 -38.5t143 -111t86.5 -167t41 -214.5l-637 -43q5 -74 63 -131t156 -57q81 0 167 27.5t154 68.5l78 -201q-221 -119 -434 -119q-229 0 -350 146q-133 -146 -356 -146 q-231 0 -374 136.5t-143 355.5zM371 455q0 -44 12.5 -86t37.5 -78t66.5 -58t94.5 -22q98 0 150 77t52 193q0 98 -58 169t-151 71q-98 0 -151 -73t-53 -193zM1092 563l338 23q-10 73 -51 122.5t-111 49.5q-78 0 -123 -56.5t-53 -138.5z" />
<glyph unicode="&#x178;" horiz-adv-x="1273" d="M-6 1317l368 20l281 -549h2l301 549l336 -20l-487 -795v-522h-330v522zM262 1589q0 63 43 105.5t103 42.5q63 0 106 -42.5t43 -105.5q0 -61 -43 -103t-106 -42q-60 0 -103 42t-43 103zM715 1589q0 63 41.5 105.5t103.5 42.5q63 0 106.5 -42.5t43.5 -105.5 q0 -61 -43.5 -103t-106.5 -42q-62 0 -103.5 42t-41.5 103z" />
<glyph unicode="&#x2c6;" horiz-adv-x="708" d="M29 1161l274 225h100l275 -225l-150 -104l-174 141h-2l-176 -141z" />
<glyph unicode="&#x2dc;" horiz-adv-x="708" d="M59 1098q5 104 48 168.5t131 64.5q55 0 128 -35.5t93 -35.5q24 0 38 16.5t21 56.5l131 -18q-15 -234 -178 -234q-40 0 -86 19t-81 38t-48 19q-21 0 -33 -10.5t-17.5 -24.5t-12.5 -45z" />
<glyph unicode="&#x2000;" horiz-adv-x="913" />
<glyph unicode="&#x2001;" horiz-adv-x="1827" />
<glyph unicode="&#x2002;" horiz-adv-x="913" />
<glyph unicode="&#x2003;" horiz-adv-x="1827" />
<glyph unicode="&#x2004;" horiz-adv-x="609" />
<glyph unicode="&#x2005;" horiz-adv-x="456" />
<glyph unicode="&#x2006;" horiz-adv-x="304" />
<glyph unicode="&#x2007;" horiz-adv-x="304" />
<glyph unicode="&#x2008;" horiz-adv-x="228" />
<glyph unicode="&#x2009;" horiz-adv-x="365" />
<glyph unicode="&#x200a;" horiz-adv-x="101" />
<glyph unicode="&#x2010;" horiz-adv-x="690" d="M55 379v246h580v-246h-580z" />
<glyph unicode="&#x2011;" horiz-adv-x="690" d="M55 379v246h580v-246h-580z" />
<glyph unicode="&#x2012;" horiz-adv-x="690" d="M55 379v246h580v-246h-580z" />
<glyph unicode="&#x2013;" horiz-adv-x="1363" d="M72 379v246h1200v-246h-1200z" />
<glyph unicode="&#x2014;" horiz-adv-x="1830" d="M55 379v246h1702v-246h-1702z" />
<glyph unicode="&#x2018;" horiz-adv-x="454" d="M57 1032q0 70 28 132t81 143l98 151l131 -55l-49 -111q-31 -76 -31 -108q0 -16 11.5 -33t24.5 -30.5t24.5 -40.5t11.5 -60q0 -64 -45 -111t-117 -47q-69 0 -118.5 45.5t-49.5 124.5z" />
<glyph unicode="&#x2019;" horiz-adv-x="454" d="M57 862l49 111q29 79 29 108q0 16 -11.5 33t-24.5 30.5t-24.5 40.5t-11.5 60q0 64 46 111t118 47q69 0 118.5 -45.5t49.5 -124.5q0 -49 -18 -100.5t-37.5 -85.5t-54.5 -86l-97 -154z" />
<glyph unicode="&#x201a;" horiz-adv-x="454" d="M57 -227l49 110q29 79 29 109q0 16 -11.5 33t-24.5 30.5t-24.5 40.5t-11.5 60q0 64 45.5 110.5t118.5 46.5q69 0 118.5 -45.5t49.5 -126.5q0 -69 -28.5 -131t-81.5 -141l-97 -152z" />
<glyph unicode="&#x201c;" horiz-adv-x="899" d="M53 1032q0 49 18 101.5t36 85.5t53 88l100 151l127 -55l-47 -111q-31 -76 -31 -108q0 -16 11.5 -33t24.5 -30.5t24.5 -40.5t11.5 -60q0 -64 -45 -111t-117 -47q-69 0 -117.5 45.5t-48.5 124.5zM510 1032q0 49 17.5 101.5t36 86t52.5 87.5l101 151l129 -55l-49 -111 q-29 -71 -29 -108q0 -16 11 -33t25 -30.5t25 -40.5t11 -60q0 -64 -46 -111t-118 -47q-69 0 -117.5 45.5t-48.5 124.5z" />
<glyph unicode="&#x201d;" horiz-adv-x="899" d="M53 862l47 111q29 71 29 108q0 16 -11.5 33t-24.5 30.5t-24.5 40.5t-11.5 60q0 64 46 111t118 47q69 0 117.5 -45.5t48.5 -124.5q0 -49 -17.5 -100.5t-36 -85.5t-52.5 -86l-101 -154zM510 862l49 111q29 79 29 108q0 16 -11 33t-25 30.5t-25 40.5t-11 60q0 64 45 111 t117 47q69 0 118.5 -45.5t49.5 -124.5q0 -49 -17.5 -100.5t-37.5 -86t-54 -85.5l-100 -154z" />
<glyph unicode="&#x201e;" horiz-adv-x="899" d="M53 -227l47 110q29 71 29 109q0 16 -11.5 33t-24.5 30.5t-24.5 40.5t-11.5 60q0 64 45.5 110.5t118.5 46.5q69 0 117.5 -45.5t48.5 -126.5q0 -48 -17 -99.5t-36.5 -86.5t-52.5 -86l-101 -152zM510 -227l49 110q29 79 29 109q0 16 -11 33t-25 30.5t-25 40.5t-11 60 q0 64 45 110.5t117 46.5q69 0 118.5 -45.5t49.5 -126.5q0 -69 -28.5 -131.5t-80.5 -140.5l-100 -152z" />
<glyph unicode="&#x2022;" horiz-adv-x="626" d="M66 674q0 111 71.5 178.5t177.5 67.5t177 -67.5t71 -178.5t-71 -178.5t-177 -67.5t-177.5 67.5t-71.5 178.5z" />
<glyph unicode="&#x2026;" horiz-adv-x="1789" d="M125 158q0 73 49.5 124.5t120.5 51.5q73 0 124.5 -52t51.5 -124q0 -73 -51 -122.5t-125 -49.5q-72 0 -121 49.5t-49 122.5zM725 158q0 73 49.5 124.5t120.5 51.5q73 0 124.5 -52t51.5 -124q0 -73 -51 -122.5t-125 -49.5q-72 0 -121 49.5t-49 122.5zM1317 158 q0 73 49.5 124.5t120.5 51.5q73 0 124.5 -52t51.5 -124q0 -73 -51 -122.5t-125 -49.5q-72 0 -121 49.5t-49 122.5z" />
<glyph unicode="&#x202f;" horiz-adv-x="365" />
<glyph unicode="&#x2039;" horiz-adv-x="688" d="M82 465l309 385l217 -154l-202 -231l192 -232l-205 -157z" />
<glyph unicode="&#x203a;" horiz-adv-x="688" d="M80 229l201 234l-193 231l205 156l313 -387l-311 -387z" />
<glyph unicode="&#x205f;" horiz-adv-x="456" />
<glyph unicode="&#x20ac;" d="M2 387l37 207h117q-2 20 -2 61q0 44 2 64h-154l37 207h158q64 195 218 308.5t367 113.5q188 0 342 -74l-55 -254q-118 59 -252 59q-86 0 -155 -39.5t-113 -113.5h463l-35 -207h-490q-6 -30 -6 -66q0 -39 6 -59h459l-37 -207h-354q45 -69 115.5 -107t158.5 -38 q149 0 265 61l36 -256q-82 -39 -160.5 -57.5t-185.5 -18.5q-211 0 -366.5 111.5t-220.5 304.5h-195z" />
<glyph unicode="&#x2122;" horiz-adv-x="1634" d="M18 1235v168h652v-168h-224v-625h-208v625h-220zM700 610l33 793h197l168 -324q17 -33 28 -82q12 41 37 82l166 324h203l29 -793h-211l-9 373q0 41 2 70l-159 -314h-125l-152 314q4 -50 4 -70l-8 -373h-203z" />
<glyph unicode="&#x25fc;" horiz-adv-x="942" d="M0 0v942h942v-942h-942z" />
<glyph unicode="&#xfb01;" horiz-adv-x="1245" d="M43 721v209h121v139q0 158 121.5 259.5t326.5 101.5q103 0 180.5 -15t165.5 -43l-49 -221q-146 49 -258 49q-79 0 -130.5 -39t-51.5 -114v-117h645v-930h-301v721h-344v-721h-305v721h-121z" />
<glyph unicode="&#xfb02;" horiz-adv-x="1261" d="M43 721v209h121v160q0 86 32.5 152.5t89 107.5t127.5 61.5t152 20.5q43 0 135 -14t127 -15h289v-1073q0 -131 62 -131q24 0 47 10l41 -207q-83 -27 -160 -27q-293 0 -293 336v873q-156 16 -201 16q-70 0 -106.5 -33t-36.5 -112v-125h231v-209h-231v-721h-305v721h-121z " />
</font>
</defs>
</svg>
