<?xml version="1.0" standalone="no"?>
<!DOCTYPE svg PUBLIC "-//W3C//DTD SVG 1.1//EN" "http://www.w3.org/Graphics/SVG/1.1/DTD/svg11.dtd" >
<svg xmlns="http://www.w3.org/2000/svg">
<metadata></metadata>
<defs>
<font id="epicawesomenessmedium" horiz-adv-x="1400" >
<font-face units-per-em="2048" ascent="1638" descent="-410" />
<missing-glyph horiz-adv-x="614" />
<glyph horiz-adv-x="0" />
<glyph unicode="&#xd;" horiz-adv-x="681" />
<glyph unicode=" "  horiz-adv-x="614" />
<glyph unicode="&#x09;" horiz-adv-x="614" />
<glyph unicode="&#xa0;" horiz-adv-x="614" />
<glyph unicode="!" horiz-adv-x="536" d="M313 360q14 37 31 168q14 113 16 181q7 222 7 288q0 91 4 218t4 206q-46 10 -84 11q-38 2 -49 2q-10 -2 -15 -2v-21q-2 -29 0 -76q0 -93 2 -123q7 -66 19 -473l8 -278q0 -17 0.5 -39t1 -34t0.5 -19q0 -9 2 -17q10 -1 25 0q13 1 24 6zM381 1475q7 8 20 8q27 0 27 -27 q0 -93 -4 -229t-4 -230q0 -96 -6 -288q-1 -61 -17 -189q-18 -136 -35 -182q-8 -18 -32 -29q-13 -5 -39 -10q-21 -1 -39 0q-28 5 -39 16l-4 11l-2 2v4v2v8q0 3 -2 27q0 6 -0.5 17.5t-1 33t-0.5 39.5l-8 280q-12 407 -19 469q-2 32 -2 127q-2 49 0 78q0 15 2 29q0 4 2 10 q0 4 2 6q1 7 8 12q16 13 50 17q29 2 57 -2q33 -1 86 -10zM287 188q-26 -7 -41 -36q-14 -26 -6 -52q8 -25 41 -37q41 -12 65 3q19 16 23 40q2 32 -19 56q-21 25 -61 26h-2zM383 205q44 -41 39 -103q-6 -52 -47 -79q-46 -31 -111 -9q-59 18 -76 70q-15 45 9 92q24 46 69 62 q43 16 105 -15q11 -6 12 -18z" />
<glyph unicode="&#x22;" horiz-adv-x="681" d="M72 858h2q93 4 104 29q6 11 4 47l-2 33v55v174v236q-13 3 -49 10q-20 4 -39 4q-8 -2 -10 -2q-2 -6 -2 -10q-2 -25 -6 -68q-7 -98 -8 -207q-2 -123 0 -207q0 -37 2 -73q0 -3 4 -21zM233 1434v-238v-174q0 -31 1 -53q0 -10 0.5 -18.5t1.5 -12.5v-4q2 -45 -9 -68 q-12 -33 -49 -46q-38 -14 -104 -15q-29 -2 -45 20q-7 8 -11 23l-2 10q-1 10 -2 17q-2 38 -2 75q-2 86 0 211q1 109 8 207q7 68 7 72q1 4 2.5 11.5t1.5 10.5q0 2 2 8q5 11 12 17q17 11 45 12q24 0 49 -4q33 -5 60 -12h4q14 0 24 -10q17 -12 9 -33l-1 -2zM408 846h2 q93 4 104 29q6 11 4 47l-2 32v56v174v235q-29 7 -49 11t-39 4q-8 -2 -10 -2q-2 -6 -2 -11q-1 -23 -6 -67q-8 -116 -9 -207q-1 -123 0 -207q0 -38 2 -74q1 -5 3 -12t2 -8zM569 1421v-237v-174q0 -32 1 -54t1 -34q2 -47 -8 -68q-12 -33 -49 -46q-38 -14 -104 -15 q-29 -2 -45 20q-7 8 -11 23q0 1 -1.5 10t-2.5 16q-2 38 -2 76q-2 86 0 211q1 109 8 207q5 46 6 71l3 12t2 11q0 2 2 8q5 11 12 17q17 11 45 12q24 0 49 -4t60 -13h4q14 0 24 -10q16 -11 8 -33z" />
<glyph unicode="#" horiz-adv-x="1214" d="M582 1401h-2h-11h-14q-25 0 -27 24h-2q-15 4 -32 2q0 -2 -2 -8q-10 -30 -15 -53l-39 -158q-28 -109 -47 -159q-12 -36 -24 -58q-18 -32 -41 -37h-33q-15 0 -60 3q-46 3 -53 -1q-23 -1 -37 -10q-12 -8 -14 -26q-1 -10 -10 -29q-6 -12 -6 -16h2q24 -6 102 10q9 1 29 8 q19 4 28 4q11 4 21 4h8q16 0 23 -10q12 -16 4 -33q-3 -4 -11 -14l-2 -2q-2 -2 -4 -2q0 -1 -4 -18.5t-11.5 -54.5t-16.5 -79q-15 -68 -21 -90l-10 -35q-6 -18 -12 -24q-21 -24 -76 -23q-14 0 -46 3q-29 3 -38 5q-43 4 -66 -4q-14 -4 -14 -22q0 -8 -6 -35q8 -2 14 -2 q22 -1 66 0q14 0 24 1t25 1h18h25q4 0 10 -2q14 -1 21 -15q11 -16 6 -45q-1 -7 -5.5 -24.5t-7.5 -28.5q-6 -25 -39 -133q-27 -82 -34 -127q-6 -24 -6 -39q0 -4 2 -6h8h33q7 0 22 -4q3 0 21 -4h14q14 25 31 82q8 29 34 133q7 29 14 56t12 46.5t7 25.5q4 15 15 46q12 27 20 33 q12 9 29 10q16 2 28 2h27h18q5 0 9 1t16 1h18q24 2 29 2h12q13 -2 19 -8q12 -8 14 -27v-20q-1 -17 -10 -56q-13 -50 -43 -147q-43 -141 -43 -143l-12 -41q15 4 26 4q6 0 49 -8q22 -2 25 -2q3 3 4 6q9 19 18 41q24 66 43 129q51 162 62 219v8q-5 23 12 35q12 9 29 10h31 q20 0 75 -6q45 -4 74 -4h14q-6 23 -6 33q0 7 4 34q0 9 -2 15l-16 2q-10 -1 -64 -19q-48 -18 -71 -16q-24 0 -39 12q-17 17 -17 43q0 9 13 66q2 7 11 42.5t15 59.5q11 39 31 101q5 18 12 36q6 18 15 25q18 18 63 18q30 0 74 -4q54 -6 70 -6h22h2v8v17v14q1 14 17 37 q-6 2 -9 2q-24 1 -69 0q-6 0 -40 -2t-36 -2q-18 -2 -29 0h-12q-12 5 -18 12q-7 7 -7 15v4v4l2 2v2v2l7 14l14 47l47 142q27 91 39 145q6 30 6 47q-8 2 -20 2q-1 0 -25 -2h-20h-3t-4 0.5t-5.5 1t-6.5 0.5q-22 2 -26 2h-15v-2q6 -31 4 -47l-49 -209l-31 -129l-8 -41l-4 -12v-4 l-2 -2v-2q-1 -3 -6 -8q-14 -14 -39 -15q-16 -2 -39 0q-16 0 -37 4q-5 0 -10 0.5t-8 1t-4 0.5h-3t-4 -0.5t-5.5 -1t-6.5 -0.5q-16 0 -24 -2q-40 -2 -58 6q-23 12 -28 48q-1 22 6 55q12 50 47 135q46 111 55 137q11 30 15 51q2 14 2 19zM520 420h2h-2zM311 1008q2 1 8 10 q12 19 23 49q16 47 45 156l37 157q14 50 16 56q6 15 8 18q6 15 17 21q23 10 72 2q38 -6 61 -21q3 -1 8 -8q19 -8 25 -27q8 -19 2 -49q-4 -16 -19 -59q-1 -4 -55 -139q-34 -84 -45 -127q-6 -23 -4 -37v-4q10 -2 29 -2q10 2 24 2q22 2 23 2l28 -2q27 -5 35 -5q24 -2 31 -2 q0 2 2 2v3l10 40l31 127l47 211q2 2 -2 25q-8 36 8 53q7 12 21 13h14q11 1 27 0q5 0 14.5 -1.5t13.5 -1.5l13 -2h18q24 2 27 2q12 0 28 -2q18 -1 29 -8t16 -26q2 -8 0 -23q0 -18 -8 -55q-12 -56 -39 -150l-47 -143l-10 -31q2 0 36 2t38 2q50 1 77 0q20 -1 33 -8 q24 -8 29 -29q4 -21 -12 -45q-2 -4 -4.5 -8t-3.5 -6l-1 -2v-8v-19q-1 -32 -18 -47q-10 -7 -29 -12h-32q-20 0 -72 6q-41 4 -70 4q-16 0 -24 -2l-4 -8q-1 -2 -5.5 -13.5t-7.5 -19.5l-28 -98q-16 -54 -27 -101q-10 -41 -10 -53v-2h2q16 -2 55 13q54 18 72 20q53 8 73 -29 q9 -21 5 -45q0 -5 -0.5 -9.5t-0.5 -7.5t-0.5 -5.5t-0.5 -3.5v-2q0 -3 1 -4v-2q1 -1 1.5 -3t0.5 -3q1 -3 3 -11q8 -29 -9 -47q-11 -13 -30 -14q-16 -2 -31 -2q-29 0 -76 4q-56 6 -73 6h-17v-8q-13 -67 -63 -228q-24 -73 -45 -131q-11 -31 -21 -47q-5 -12 -8 -16 q-8 -10 -18 -15q-18 -8 -58 0q-11 2 -21.5 3.5t-14.5 2.5l-5 1q-3 0 -5 -1t-8 -3q-3 -1 -11 -3q-33 -6 -52 13q-6 8 -6 18q-1 4 0 10q0 3 2 19q5 18 15 51q0 2 4.5 17t16 52.5t22.5 73.5q31 100 41 146q9 34 10 45h-19q-10 -2 -18 -2q-12 0 -17 -1t-10 -1h-18h-25h-22h-2 l-6 -10q-1 -5 -5.5 -19.5t-7.5 -24.5q-20 -76 -32 -124q-21 -87 -35 -138q-23 -72 -40 -97q-18 -25 -63 -19q-11 0 -26 4q-3 0 -5.5 0.5t-4.5 1t-4 0.5h-1h-12h-14q-27 0 -43 10q-22 15 -23 47q0 20 6 53q6 35 37 131q33 105 39 132q9 34 10 45v2h-6h-18q-17 0 -26 -1 t-23 -1q-46 -2 -70 0q-20 0 -29 4q-20 1 -28 14q-14 17 -8 49l6 23q0 55 51 73q31 11 86 7q22 -4 38 -6q30 -3 44 -3q29 -2 33 2l4 11q1 7 8 28q1 5 3.5 17t7 32.5t9.5 40.5q30 135 31 140l-31 -6q-91 -21 -127 -13q-28 7 -39 25q-10 18 -4 41q0 2 2 5.5t4.5 9t4.5 9.5 q6 12 6 17q7 39 37 61q24 17 61 21q10 4 64 1q52 -3 55 -3h14h4zM549 571q2 6 10 35l27 107q17 80 28 116q5 21 9 31q-5 0 -33 -2q-49 -4 -78 -4q-5 0 -35 6v-2l-10 -33l-33 -104q-26 -84 -31 -105q-9 -27 -10 -36q0 -3 -2 -5q8 -2 23 -2q10 -1 28 0q6 0 13 0.5t10.5 1 t5.5 0.5q1 0 23 -2q4 0 9.5 -0.5t8 -1t5.5 -0.5h5h27zM680 864q-8 -23 -14 -47l-29 -117l-27 -108l-10 -37l-4 -12l-2 -6q-6 -8 -10 -11q-13 -7 -33 -8h-31q-14 2 -31 2q-4 0 -8 0.5t-6.5 1t-3.5 0.5t-4 -0.5t-9 -1t-12 -0.5q-20 -1 -34 0q-61 1 -72 41q-2 10 -2 19q0 1 1 3 t2 4.5t1 4.5q1 10 10 39q12 46 31 106l33 105l10 32l4 11v4l2 2l4 8q18 18 51 12q9 0 12 -1q1 0 4 -0.5t4 -1.5q2 -1 5 -1q27 0 76 4q44 2 55 2q16 19 33 7q14 -6 14 -23q2 -8 2 -12q0 -15 -12 -21z" />
<glyph unicode="$" horiz-adv-x="1165" d="M532 -193q8 9 9 41l2 37q0 19 2 39q8 53 43 68q24 9 67 10q36 1 52 8q64 26 127 80q58 49 104 121q98 151 53 287q-33 94 -131 170q-97 75 -205 104q-5 2 -53 6q-6 0 -35 4q-3 1 -8 2.5t-6 1.5q-9 3 -18 10q-8 6 -9 15q-2 6 -2 12q-2 10 -2 23q0 26 4 61q0 3 1.5 16.5 l2.5 22.5t3 22t2 16l2 20q0 3 -1 16.5t-3.5 42.5t-4.5 59q-7 89 11 131q23 54 94 33q32 -10 74 -35q54 -32 80 -76q25 -43 36 -108q24 -4 56 -4q34 0 55 6q8 1 10 4q1 88 -51 170t-135 115q-21 9 -82 14q-66 4 -96 17q-35 15 -41 51q-2 19 2 51q2 23 0 31q-1 4 -13 6 q-34 8 -51 6q2 -6 2 -10l8 -25q10 -24 11 -31q11 -47 -17 -71l-14 -6h-2h-2h-2h-6h-21h-18h-4q-67 -15 -146 -68q-80 -55 -123 -113q-51 -69 -51 -202q0 -55 20 -100q20 -44 46 -73q30 -33 74 -58q50 -28 86 -44q31 -14 102 -39q4 0 7 -1q4 -1 14 -3q3 0 9.5 -1.5t10.5 -2.5 q20 -5 26 -8q19 -6 27 -19q7 -12 8 -30v-35q0 -16 -2 -98l-4 -99q-4 -51 -4 -65v-25v-41v-45v-67q-2 -20 -2 -25q0 -4 -2 -10q0 -9 -4 -13q-15 -23 -47 -24h-21h-6h-6q-102 0 -152 49q-41 39 -53 113q-5 24 -6 61v23q-2 28 -2 30q-6 54 -21 70q-5 7 -24 8h-21h-10h-12 q-6 0 -33 4h-6q-1 -10 0 -26q0 -3 2 -31q0 -5 0.5 -11.5t1 -10t0.5 -5.5q0 -106 57 -208q56 -100 152 -140q5 -2 31 -6q13 -4 59 -10q46 -9 55 -10q16 -6 21 -7q6 -2 8 -2q9 -4 14 -12q12 -22 11 -55q-3 -16 -4 -25q0 -3 -5 -22q-1 -23 0 -33q4 -9 15 -14q23 -8 30 -5z M446 1444q2 4 0 12q-1 7 -8 25l-10 28q-12 47 16 68q28 19 97 4q39 -11 51 -43q6 -19 2 -53q-4 -26 -2 -37q2 -8 8 -10q25 -9 80 -13q65 -6 98 -18q98 -39 161 -136t58 -200q-1 -36 -47 -53q-30 -8 -71 -8q-18 0 -56 2q-8 -10 -16 -11q-25 -5 -31 21q-20 4 -31 12 q-23 15 -8 37q11 17 29 12q-21 83 -88 123q-36 22 -59 29q-26 6 -31 -2q-12 -29 -6 -107q10 -105 8 -127v-3t-0.5 -4t-1 -5.5t-0.5 -6.5q0 -1 -1.5 -15t-2.5 -23q-1 -8 -2.5 -22.5t-1.5 -18.5q-5 -42 -5 -55v-10l11 -2q12 -2 20 -3q56 -5 62 -6q121 -34 227 -116 q107 -83 145 -195q56 -158 -57 -332q-44 -70 -115 -133q-71 -59 -141 -88q-22 -10 -70 -12q-37 -1 -49 -6q-5 -1 -10 -27q-2 -16 -2 -33q0 -11 -0.5 -20.5t-1.5 -14.5v-4q-1 -50 -23 -73q-31 -36 -90 -9q-34 15 -45 50q-6 22 -2 55q3 12 4 24q0 3 4 21v14q-2 0 -12 2 q-19 6 -53 11l-60 10q-33 7 -41 10q-109 44 -176 161q-65 114 -65 236q0 1 -0.5 4t-1 8t-0.5 9q-2 30 -2 35q-1 20 0 34q5 28 18 39q20 13 47 9q5 0 15 -2q2 0 6 -1.5t6 -1.5h12h8h29q40 -5 59 -24q26 -29 31 -100q2 -10 2 -18q0 -13 1 -21t1 -19q1 -32 6 -53q7 -56 37 -84 q38 -35 115 -35h6h8h13h6q2 10 2 21v65v47v39v25q0 16 4 69l4 97q2 80 2 96v31v4q-9 2 -20 6l-46 10q-47 16 -102 38q-36 14 -94 48q-60 35 -88 67q-35 40 -56 89q-24 55 -24 121q0 150 63 235q44 63 135 124q89 60 162 77h9h8h20h10zM414 1292q2 19 20 25q25 6 33 -21 l4 -16q7 -10 6 -25q-2 -2 -2 -4q4 -29 4 -92v-63q6 -170 6 -176q0 -3 2 -19q5 -23 5 -24q6 -38 -3 -62q-12 -23 -43 -29q-22 -4 -45 11q-4 3 -10 7q-7 5 -8 5q-2 2 -25 11q-20 8 -30 14q-1 1 -10.5 5.5t-17.5 9.5q-23 14 -30 21q-6 6 -22 26q-12 15 -17 34q-24 79 -14 164 q15 103 76 149q62 49 121 49zM440 840q1 7 0 28q-3 8 -4 25q-4 13 -4 22q0 7 -6 181v73q0 56 -2 70q-48 2 -98 -37q-44 -35 -56 -115q-10 -74 11 -141l9 -18q5 -9 13 -15l14 -12q5 -5 21 -13t19 -9q1 0 4.5 -2t9 -4.5t10.5 -4.5t10 -4.5l8 -4t4 -1.5q4 0 27 -16q6 -2 8 -2h2 zM596 586q-4 -31 8 -150q2 -22 -4 -157q-4 -48 -2 -84q0 -36 4 -43q7 -9 23 -9q19 1 55 21q69 34 96 69q74 92 8 197q-58 93 -178 148q-5 1 -10 8zM610 629q10 2 17 -2q134 -63 202 -168q86 -138 -12 -258q-35 -45 -112 -84q-44 -23 -76 -27q-51 -2 -72 37q-12 18 -12 66 q-2 41 2 88q6 131 4 151q0 5 -3 29q-1 9 -2.5 21.5t-1.5 15.5q-1 4 -1.5 17.5t-0.5 19.5q-1 24 0 40q2 17 6 36q4 16 11 36q12 23 37 12q18 -11 14 -30z" />
<glyph unicode="%" horiz-adv-x="1769" d="M1280 1333q-4 1 -18 8q-45 18 -48 21q-11 6 -12 16q-10 4 -18 6q-2 -8 -6 -14q-18 -30 -64 -82q-43 -49 -61 -78q-32 -48 -76 -145q-53 -113 -78 -154q-55 -91 -203 -379q-174 -340 -313 -512q0 -2 -2 -2l55 -24l31 -12l4 -2l8 14l37 69q68 123 84 146q111 163 272 434 q149 251 240 393q33 50 98 166q39 63 56 101q8 13 14 30zM1133 1397v6q5 23 20 33q16 7 43 0q8 -2 41 -13q19 -7 63 -28q15 -6 17 -23q2 -2 6 -2q6 -6 12 -16q5 -11 0 -23q0 -7 -4 -16q-5 -13 -18 -37q-11 -22 -56 -102q-77 -133 -100 -168l-239 -394q-175 -291 -273 -434 q-18 -25 -82 -143l-39 -70q-6 -12 -14 -22q-2 -7 -6 -11l-4 -4q-8 -6 -17 -6q-11 0 -32 6l-35 15q-21 8 -33 13q-5 2 -9.5 4t-7 3.5t-5 2.5t-3.5 1l-6 2q-2 1 -5.5 2.5t-4.5 1.5q-23 11 -27 31q-1 20 17 37q1 1 2.5 3t2.5 4l1 1q2 2 4 2q122 153 305 504q142 273 207 383 q26 44 74 147q45 100 80 152q19 30 65 82q50 62 60 76zM1384 535q-2 8 5 16q12 16 28 4l13 -8q6 -5 15 -9q2 -1 17 -10q33 -21 45 -45q12 -28 11 -69q0 -2 -0.5 -6t-1 -11.5t-0.5 -13.5q0 -5 -1.5 -15t-1.5 -14q0 -167 -122 -204q-112 -35 -242 53q-50 33 -51 112 q-2 74 39 140q45 74 120 90q58 15 127 -10zM967 459q-11 5 -15 16q-4 20 17 25q36 8 53 22q19 16 43 56q2 4 33 53q39 51 96 69q75 23 199 2q171 -30 237 -165q60 -123 10 -287q-6 -18 -19 -62q-3 -9 -23 -53q-19 -42 -32 -57q-17 -20 -45 -40q-32 -23 -65 -34 q-143 -43 -305 29q-76 34 -133 92q-56 58 -74 131q-6 29 2 78q2 6 10 37l7 30l1 4q0 4 0.5 12t0.5 17q0 11 2 25zM442 1204q-2 10 4 17q12 16 29 4l12 -8q8 -6 16 -10q12 -6 17 -9q33 -21 45 -45q12 -26 10 -70q0 -2 -0.5 -5.5t-1 -11t-0.5 -13.5q-2 -24 -2 -29 q0 -168 -122 -205q-112 -35 -242 53q-49 33 -51 113q-1 73 39 139q45 74 120 90q58 15 127 -10zM4 1131q-10 4 -14 16q-4 20 16 24q34 7 53 23q21 17 43 55q14 23 33 54q39 51 96 69q75 23 199 2q171 -30 238 -166q60 -122 10 -286l-20 -62q-5 -15 -22 -53q-18 -39 -33 -57 q-17 -20 -45 -40q-33 -23 -64 -34q-143 -43 -306 29q-76 34 -133 92q-55 56 -73 131q-6 29 2 78q3 8 10 36l6 31v4q1 4 1.5 12t0.5 17q0 11 2 25zM1425 469q-90 53 -157 37q-60 -15 -97 -74q-34 -51 -32 -115q0 -59 34 -81q114 -77 205 -48q94 28 94 166q0 4 1.5 15t1.5 18 q0 6 0.5 13t1 10.5t0.5 5.5q1 31 -7 51q-6 11 -14 16q0 -4 -4 -8q-10 -18 -27 -6zM1094 520q-8 -8 -25 -16l-22 -17q-27 -17 -37 -32q-4 -5 -4 -23q0 -9 -0.5 -18.5t-1 -14t-0.5 -6.5q0 -3 -1.5 -7.5t-3.5 -12t-4 -13.5q-7 -29 -8 -34q-8 -40 -2 -62q15 -62 63 -111 q51 -53 119 -81q147 -68 277 -27q27 7 52 26t37 32t28 49q12 28 20 50q8 25 18 60q47 148 -6 256q-55 117 -209 144q-115 21 -178 0q-46 -15 -76 -56q-2 -4 -19 -30q-14 -22 -15 -25q2 0 2 -2q12 -17 -4 -29zM483 1139q-90 53 -157 37q-60 -15 -97 -74q-34 -52 -32 -115 q0 -60 34 -82q113 -76 205 -47q94 28 94 166q0 3 2 33q1 8 2 17t1 11q1 32 -7 52q-6 11 -14 16q0 -4 -4 -8q-10 -18 -27 -6zM131 1192q-16 -12 -25 -16l-22 -17q-26 -16 -37 -33q-4 -5 -4 -22q0 -9 -0.5 -18.5t-1 -14t-0.5 -6.5q-1 -6 -8 -33q-7 -28 -8 -35q-8 -40 -2 -61 q16 -64 62 -112q50 -52 120 -81q146 -67 276 -26q29 8 52 25q22 17 37 33q12 14 28 48q13 27 20 50q13 38 19 61q47 148 -6 256q-55 116 -209 143q-115 21 -178 0q-47 -16 -76 -55q-2 -3 -4.5 -7.5t-7.5 -11.5t-8 -12q-15 -23 -15 -24q2 0 2 -2q12 -17 -4 -29z" />
<glyph unicode="&#x26;" horiz-adv-x="1341" d="M487 924q-41 38 -60 99q-19 63 -15 124q5 86 47 131q53 58 139 35q81 -23 111 -92q27 -59 10 -138q-15 -71 -60 -134q-44 -62 -104 -83q-18 -7 -55 0q-5 0 -15 2q-3 0 -8 1.5t-7 2.5q-2 0 -4 0.5t-4 1.5h-1q-27 6 -21 33t33 21zM565 930q36 25 64 68t39 96q12 61 -6 106 q-22 46 -76 61q-55 15 -88 -20q-28 -33 -33 -96q-4 -66 20 -126q24 -58 66 -75q10 -4 14 -14zM471 653q21 12 33 -6q4 -6 170 -203l90 -106l29 -35q7 -7 8 -10q1 -1 3 -4q0 -1 1 -2l2 -2q2 -8 2 -13q0 -25 -27 -49q-25 -21 -55 -37q-67 -35 -168 -57q-103 -24 -190 -16 q-107 12 -156 73q-39 45 -27 140q11 72 54 166q40 85 92 143q63 68 121 63q9 0 17 -8q7 -7 7 -20q0 -10 -6 -17zM688 762q-1 -7 -8 -12l8 -11l76 -80q57 -59 82 -90q29 -36 31 -39l6 29q11 59 22 90q4 15 15 37q12 20 22 29q1 0 3 1t4.5 2t4.5 1q6 2 9 2h20h51q30 -1 51 -6 q3 0 21 -4q4 0 10 -2q7 -4 12 -11q12 -17 11 -47q-1 -12 -11 -53q-11 -47 -45 -131l-49 -123q-7 -19 -14 -41q-2 -6 -2 -8q1 0 13 -16q17 -23 22 -29l73 -86l72 -84q14 -17 23 -31q7 -9 8 -12q6 -11 4 -25q-5 -19 -27 -26q-9 -4 -24 -4h-21h-2q-1 0 -26 -9q-8 -4 -17 -8 t-14.5 -6.5t-7.5 -3.5q-27 -11 -45 -12q-28 -4 -50 8q-20 11 -38 51q-3 7 -15 31q-11 21 -12 28q-16 32 -29 45q-11 12 -18 11q-33 -4 -119 -74q-98 -80 -145 -96q-135 -47 -279 -29q-178 21 -244 135q-39 65 -73 221q0 3 -4 17.5t-7 25.5q-9 39 -11 53q-1 5 -3.5 21.5 t-4.5 27.5q-5 35 -4 56q2 35 5 51q18 82 94 161t158 122q6 4 26 10q6 2 37 10l11 2l-9 9l-24 28q-13 13 -19 21q-62 97 -86 241q-33 183 50 252q84 73 182 92q99 19 188 -8q91 -28 161 -86q74 -62 112 -139t30 -176q-6 -99 -71 -188q-39 -53 -150 -115zM971 668q-3 -3 -4 -6 q-7 -12 -11 -29q-9 -27 -22 -84q-15 -67 -17 -82l-4 -27q-2 -8 -2 -10v-2q-2 -2 -2 -4q-1 -3 -4 -6q-7 -10 -20 -10q-11 0 -19 8l-4 4q-1 3 -3 7t-3 7q-2 11 -6 21l-4 18v6l-2 2q-6 16 -39 56q-2 2 -80 86l-76 79q-5 5 -12 13.5t-10 11.5q-18 -5 -29 12q-15 22 8 37l17 10 l8 5l45 26q14 8 30.5 17.5t19.5 11.5q13 7 35 26q18 15 36 37q52 71 60 157q8 83 -27 152q-34 69 -97 121q-65 54 -141 76q-79 23 -164 5q-88 -18 -160 -79q-57 -49 -30 -200q24 -137 79 -224q0 -1 13 -14l24 -26q22 -22 27 -29q6 -8 8 -10q2 -7 4 -9q4 -12 0 -22 q-5 -8 -10 -12h-2l-4 -4h-4l-5 -2q-5 -2 -8 -3l-34 -8q-29 -8 -35 -10l-17 -4q-70 -39 -142 -112q-69 -70 -81 -138q-3 -12 -5 -41q-2 -23 3 -48q7 -41 8 -44l13 -49q7 -35 10 -45q34 -151 65 -209q53 -91 205 -109q131 -15 256 27q36 12 129 88q95 79 144 86q37 6 67 -27 q19 -24 35 -59q2 -3 13 -29q3 -8 8 -17.5t6 -12.5q12 -24 20 -29q2 -2 12 0q10 1 35 10q5 1 37 14l35 15h10h2h4h2l-10 12q-21 27 -70 82l-73 86q-39 47 -45 61q-4 6 -2 23q0 7 4 18q5 20 16 45l49 125q33 87 43 125q8 29 8 43v6l-2 1l-4 2q-4 0 -21 1.5t-28 2.5h-47h-12z M448 645q-33 1 -77 -47q-44 -50 -84 -131q-37 -77 -46 -150q-9 -70 13 -98q37 -42 121 -53q79 -8 174 14q89 21 153 53q24 14 43 29l7 6v2l-29 33l-90 107q-151 179 -170 204q-15 18 0 35q-5 -4 -15 -4z" />
<glyph unicode="'" horiz-adv-x="419" d="M145 860h2q94 4 105 29q6 11 4 47l-2 35v53v174v236q-13 3 -49 10q-20 4 -39 4q-8 -2 -10 -2q-2 -6 -2 -10q0 -1 -7 -68q-7 -98 -8 -207q-1 -123 0 -207q0 -37 2 -73q0 -3 4 -21zM307 1436v-238v-174q0 -31 1 -53t1 -35q2 -47 -8 -68q-12 -33 -49 -46q-38 -14 -105 -15 q-29 -2 -45 20q-5 6 -10 23l-2 10q-1 10 -2 17q-2 38 -2 75q-2 86 0 211q1 109 8 207q4 45 6 72q1 4 2.5 11.5t1.5 10.5t2 9q4 9 13 16q17 11 45 12q24 0 49 -4q31 -5 59 -12h4q15 0 25 -10q16 -11 8 -33z" />
<glyph unicode="(" horiz-adv-x="724" d="M539 -391q-5 12 -68 139q-53 108 -85 189q-31 79 -48 153q-61 262 -55 496q7 228 92 489q63 197 71 217q26 67 58 115q14 21 20 27q-14 1 -28 -4q-14 -4 -58 -33q-82 -55 -126 -111q-45 -57 -87 -153q-122 -270 -114 -602q7 -329 147 -594q4 -11 21 -48l40 -75l39 -76 q37 -64 66 -100q30 -37 43 -37q5 0 55 6zM596 1419q-22 -4 -49 -43q-26 -40 -51 -102q-12 -32 -72 -215q-80 -252 -87 -475q-8 -224 54 -482q16 -76 46 -150q25 -64 83 -182q51 -102 70 -147q0 1 6 -6q16 -22 4 -43l-12 -10q-3 0 -4 -1t-6 -1q-10 -4 -13 -4q-2 0 -15 -1.5 t-22 -2.5q-13 -2 -29 -3.5t-23 -2.5t-9 -1q-37 1 -84 56q-34 44 -70 108q-17 29 -42 76q-21 41 -39 78q-20 42 -23 47q-142 278 -151 617q-9 343 118 624q45 101 95 167q45 60 139 122q51 33 69 39q40 12 88 -2q7 -1 13 -9q1 0 4 3q26 4 31 -22t-19 -32z" />
<glyph unicode=")" horiz-adv-x="616" d="M115 -414q37 23 82 92q42 65 90 175q79 179 125 333q129 444 -123 975q-17 41 -75 128q-57 85 -79 134h-14h-35h-18l4 -10q27 -50 41 -72l45 -75q25 -41 30 -47q148 -299 160 -707q6 -191 -24 -332q-32 -137 -113 -336q-23 -55 -90 -139q-60 -76 -82 -117h14h8h5h6 q6 0 11 -1t13 -1h17h2zM184 1444q21 -44 74 -125q60 -94 80 -133q257 -549 123 -1016q-46 -160 -125 -338q-51 -116 -94 -182q-58 -91 -107 -115q-8 -2 -14 -2h-8h-21q-8 0 -12 1t-10 1h-4h-13h-18q-11 0 -21 2q-6 0 -12 2q-9 1 -16 10q-15 16 -4 39q0 6 4 11l2 4 q22 48 92 135q59 77 82 127q78 190 108 323q31 141 25 324q-12 395 -156 682q-1 6 -26 45l-45 76q-20 33 -43 74q-11 18 -15 30q-2 10 -2 15q-2 12 4 22q5 9 21 14q1 0 6.5 2t9.5 3q20 2 37 2h35h18q23 2 29 -19q12 -4 16 -14z" />
<glyph unicode="*" horiz-adv-x="778" d="M266 1124q2 -10 -2 -16q-6 -24 -33 -16q-39 -35 -77 -80q-26 -36 -33 -60q-6 -20 2 -32q40 -47 63 -43q21 5 45 43l23 43q18 38 22 43q16 26 25 36q22 23 45 19q6 -1 12 -6l2 -2q3 0 5 -2q3 -2 4 -7l16 -20l49 -57q31 -39 51 -56q4 -4 19 -16l12 8q27 17 27 19l6 2l-4 6 q-6 10 -43 59q-36 51 -45 62q-12 19 -15 26q-4 5 -4 13q-4 12 0 22q5 14 25 25q10 6 29 12l32 8q29 8 35 10q31 11 49 25q12 11 8 27q-11 39 -26 45q-13 4 -43 -9q-20 -7 -31 -14l-33 -18q-47 -25 -71 -21q-41 6 -43 62q0 14 4 73q4 43 -2 62q-6 18 -25 20l-15 2.5t-12 1.5 h-2v-10q-4 -57 -4 -70q0 -31 -1 -51t-1 -47v-18v-4l2 -9q2 -12 -2 -18q-4 -18 -22 -22q-13 -2 -29 4l-24 10q-2 1 -9.5 5t-20 11t-26.5 15q-33 20 -55 28q-16 8 -27 8q-7 -11 -10 -14q-1 -3 -8 -21q-7 -19 -10 -22l-2 -2l4 -4q12 -10 47 -21q37 -10 71 -16l29 -6l4 4 q22 15 37 -6q8 -11 6 -23zM336 999q-7 -7 -12 -20q-5 -7 -23 -41q-22 -42 -25 -47q-38 -61 -79 -68q-57 -11 -115 64q-27 33 -12 82q11 35 43 75q28 35 55 60q-33 6 -64 16q-45 15 -67 31q-17 15 -21 33q-4 19 9 43q1 1 6 12q8 21 10 25q18 39 45 45q21 4 61 -13l60 -30 q46 -28 51 -29q0 13 1 26t1 42v41q0 13 1 26.5t2 26t1 18.5q0 15 2 25q0 4 2 10q2 8 6 14q8 11 21 11q6 2 10 2q5 0 21 -2q3 0 11.5 -1.5t14.5 -2.5h2q51 -8 68 -58q8 -32 4 -82q-4 -55 -4 -67v-11q13 0 37 15l33 18l34 17q48 20 82 8q44 -15 62 -82q12 -48 -25 -78 q-20 -19 -70 -35q-10 -4 -35 -10q-26 -7 -32 -10q-3 -1 -8 -2.5t-6 -1.5l8 -13l43 -59q33 -50 45 -64q3 -7 14 -26q1 -3 2.5 -8t1.5 -6q2 -14 -2 -23q-7 -16 -31 -21l-8 -2l-22 -14q-15 -9 -17 -10q-3 -1 -6 -4q-7 -4 -14 -4q-16 -2 -33 10q-11 7 -26 22q-25 23 -56 60 l-49 59z" />
<glyph unicode="+" horiz-adv-x="1214" d="M1053 555q-3 0 -9 2q-22 2 -47 2q-11 0 -145 -2q-101 -4 -143 -4q-35 -2 -52 0q-10 0 -20 2q-14 2 -21 9q-9 9 -10 22q-2 8 -2 16v45q0 45 6 129l4 88q7 83 7 85q2 42 2 44t2 8q-31 11 -52 17q-26 7 -36 8h-17q-4 -6 -6 -14q-6 -21 -12 -54q-9 -64 -10 -153v-152v-51v-16 q0 -1 -1.5 -3.5t-1.5 -4.5q-1 -10 -10 -17q-6 -4 -14 -6h-6q-6 -2 -17 0q-3 0 -47 2q-13 0 -57 4l-78 4q-85 6 -141 4q-27 0 -51 -2q-7 0 -13 -2l-2 -6q0 -2 -1.5 -17t-2.5 -24v-41q0 -4 2 -10q2 -2 4 -2q25 -4 31 -4q14 -2 23 -2h22h14h29h55q22 0 58 -2q44 0 84 -2 q16 0 30 -2q7 0 13 -2q8 -1 16 -9q14 -12 19 -39q4 -19 4 -49q0 -11 -7 -121q-6 -75 -4 -120q5 -54 19 -68q1 -4 22 -4q3 0 25 2h22q9 0 68 -10l18 -4q-8 57 -12 192q-4 62 -2 119q0 21 2 43q1 22 8 33q22 34 99 45q47 6 137 4q6 0 20 -1l28 -2t28 -1q13 0 26.5 -0.5 t20.5 -1t10 -0.5q44 -2 49 -2q15 0 21 2l4 12q0 3 -2 23q-4 16 -4 22q0 8 4 37v2zM399 399h2h-2zM438 608v45v154q4 87 13 160q4 38 12 61q12 33 33 45q18 8 45 4q18 0 47 -8q38 -11 74 -25q24 -11 14 -34q0 -2 -2 -4q2 -8 2 -13q0 -2 -2 -44q-2 -31 -6 -87l-4 -90 q-7 -96 -7 -125v-41h2q17 -2 48 0q39 0 143 4q134 2 147 2q38 0 54 -4q10 0 20 -2q16 -5 23 -12q14 -16 12 -49q-2 -8 -3 -11t-1 -10v-4v-2q1 -3 1.5 -7t0.5 -9q4 -16 4 -29q0 -48 -37 -63q-19 -6 -39 -7q-8 0 -26 1.5t-27 1.5q-3 0 -10 0.5t-20.5 1t-26.5 0.5l-76 4 q-85 2 -127 -4q-49 -6 -62 -19v-12q-2 -20 -2 -39q-2 -55 2 -117q4 -141 13 -188l4 -8q4 -7 6 -17q2 -17 -12 -28q-7 -7 -17 -7h-6h-16q-4 0 -39 7q-54 10 -60 10h-18q-24 -2 -29 -2q-43 0 -63 20q-24 31 -29 103q-4 36 2 127q6 92 6 116q0 19 -2 39q-2 6 -2 8h-26 q-38 2 -82 2q-54 3 -60 3h-55h-27h-14h-25q-10 0 -24 2q-25 2 -41 6q-26 6 -37 22q-4 6 -6 19q-2 10 -2 18v47q1 26 6 47q0 12 4 19q4 14 12 22q18 9 43 13q30 2 56 2q59 2 145 -4l78 -5q44 -4 59 -4q32 -2 39 -2z" />
<glyph unicode="," horiz-adv-x="489" d="M131 37h2q10 -2 31 2q36 2 39 2q31 0 41 -21q10 -16 4 -51q-6 -29 -21 -57q-30 -61 -75 -76v-20v-31v-23h2h1q1 1 3 2t4.5 2.5t6 4t7.5 4.5q100 51 134 149t7 219q-5 26 -10 39q-6 19 -12 23q-14 10 -49 8q-13 0 -33 -4q-32 -2 -35 -2h-10h-18h-9l-4 -17q-5 -29 -6 -67 q-2 -52 -2 -68q2 -16 2 -18zM197 -12q-2 0 -5.5 -0.5t-10 -1t-11.5 -0.5q-21 -4 -37 -2q-32 0 -43 14q-6 6 -10 16q0 3 -2 11q0 6 -2 28q0 17 2 73q2 43 6 71q5 19 6 28q1 2 2.5 6t1.5 5q4 11 10 16q7 4 25 6q10 2 21 2h16h12q2 0 5.5 0.5t10.5 1t13 0.5q21 4 37 4 q52 2 80 -16q18 -13 34 -49q8 -23 13 -45q28 -134 -11 -251q-40 -117 -159 -179q-27 -12 -29 -13q-33 -12 -53 4q-14 10 -19 33q-2 20 -2 35v31v20v8q-2 8 -2 13q0 26 27 26t55 54q13 24 17 43q2 6 2 8z" />
<glyph unicode="-" horiz-adv-x="673" d="M510 479q6 24 2 76q-1 19 -6 70q-151 -17 -213 -17q-29 0 -82 6q-45 4 -78 4q-1 0 -7 0.5t-19 1.5t-27 1t-23 -3q-3 0 -4 -6q-3 -7 -8 -43q-6 -59 6 -71q13 -13 76 -13q16 0 137 9q88 10 144 6q6 0 28 -6q26 -6 39 -11q20 -4 35 -4zM557 643q8 -83 8 -84q6 -81 -10 -113 q-6 -13 -25 -18q-14 -2 -22 -2q-16 0 -43 6q-6 1 -41 10q-16 4 -21 4q-44 4 -135 -4q-101 -10 -141 -10q-86 0 -113 27q-33 30 -22 114q5 43 12 60q10 26 33 37q15 4 45 4q15 0 27.5 -0.5t18.5 -1.5h5q29 0 82 -6q47 -4 78 -4q66 0 217 16q6 8 16 8q20 2 27 -14q6 -7 6 -17 q0 -4 -2 -12z" />
<glyph unicode="." horiz-adv-x="468" d="M268 217q1 3 4 6q12 16 29 4q51 -39 58 -94q8 -56 -25 -94q-32 -42 -85 -53q-52 -10 -114 20q-35 21 -33 72q0 43 29 84q29 42 78 55q29 8 59 0zM299 160q-43 26 -80 16q-31 -7 -55 -39q-21 -29 -21 -61q-2 -26 13 -33q47 -25 85 -17t60 37q35 46 8 95q-4 0 -10 2z" />
<glyph unicode="/" horiz-adv-x="708" d="M545 1395q-1 0 -6.5 1.5t-8.5 2.5q-44 7 -47 10q-10 1 -16 14h-14h-9l-20 -36q-5 -11 -35 -93q-36 -104 -84 -268l-51 -186l-49 -181q-9 -33 -18 -65l-9 -33l-53 -184q-19 -65 -54 -161q-36 -98 -75 -177l-2 -2h1q1 0 2.5 -0.5t4 -1t4.5 -0.5q14 -2 17 -2q22 -5 36 -6 q18 -2 29 0l4 2q7 17 8 57q5 54 15 78q53 138 172 473l166 461q16 40 55 168q18 55 31 102q3 12 6 27zM575 1442q3 0 5 -2q10 -4 14 -10q6 -6 6 -17v-6q0 -4 -2 -14q-1 -11 -8 -37q-14 -54 -31 -105q-43 -138 -57 -174l-166 -459l-172 -475q-5 -15 -10 -61q-1 -51 -13 -76 q-11 -25 -41 -31q-15 -4 -45 -2q-10 1 -43 7q-1 0 -7.5 1.5t-10.5 2.5t-9 2h-3q-1 0 -7 2q-6 0 -12 2q-23 5 -29 24q-6 16 5 37q1 1 3 4q2 2 3 4q2 2 2 4q81 161 178 510q5 16 27 101l49 182l53 184q51 176 84 271q20 56 39 98q21 43 35 57q16 11 41 11q20 0 41 -4l24 -6 q16 -4 24 -5q3 0 5.5 -0.5t4 -1t3 -0.5h2.5q14 -4 18 -18z" />
<glyph unicode="0" horiz-adv-x="1110" d="M842 1276q0 2 2 4q21 16 39 -2q77 -84 104 -260q27 -170 6 -377q-22 -209 -75 -369q-57 -168 -140 -247q-65 -59 -171 -82t-193 -2q-173 44 -273 145q-92 91 -133 250q-39 157 -2 471q39 329 125 453q89 121 283 159q195 39 323 -43q48 -31 105 -100zM670 1130 q-84 64 -187 64q-119 0 -188 -147q-68 -142 -68 -347q1 -205 74 -352q74 -155 197 -162q52 -4 125 43q67 43 94 99q27 51 33 188q6 132 -11 293q-17 172 -53 276q-1 2 -16 45zM713 1161q5 -6 6 -12l16 -45q40 -123 58 -289q16 -156 10 -301q-7 -147 -37 -211 q-34 -66 -115 -119q-85 -55 -157 -51q-154 11 -242 193q-76 155 -76 374q-2 219 70 369q85 178 237 178q59 0 105 -14q-14 11 -6 29q11 24 34 14q56 -24 97 -115zM866 1157q-3 3 -46 59q-45 58 -59 72q-28 28 -52 43q-113 70 -284 36q-173 -35 -249 -140q-80 -108 -117 -426 q-37 -306 2 -453q39 -146 117 -225q91 -90 248 -129q76 -21 168 0t147 72q75 67 127 225q54 162 72 354q30 319 -43 504q-19 -8 -31 8z" />
<glyph unicode="1" horiz-adv-x="808" d="M639 1380h-4q-8 4 -31 2q-19 0 -39 -4q-21 -21 -49 -71q-56 -89 -96 -119q-50 -38 -150 -62q-57 -14 -63 -14q-26 -7 -33 -12q-3 -13 -4 -19q-4 -18 -6 -53q-2 -40 -2 -53v-2q13 0 37 6q13 4 51 13q11 3 30 7.5t27 6.5q75 18 113 14q32 -5 49 -16q23 -19 25 -50 q2 -118 1 -140q-1 -21 -8 -139q-7 -120 -8 -136q-2 -62 1 -116q1 -27 12 -138q9 -95 10 -119q0 -11 -1 -20q-1 -5 -1.5 -15.5t-0.5 -15.5q-1 -12 -1 -29q-2 -24 0 -39v-8h2h30q5 0 35 2q6 0 12.5 0.5t10 1t4.5 0.5h8q9 0 16 -1t19 -1h6q0 1 -1 3t-1 3q-6 45 -6 95t3 112 t3 90v107q0 130 1 217t1 235v334v109q0 16 -2 30v4zM606 1436q27 2 41 -2q31 -8 43 -31l2 -10v-4v-11q2 -14 2 -30v-111v-334q0 -148 -1 -235t-1 -217v-107q0 -34 -3 -99t-3 -97t6 -93v-2q0 -1 1.5 -4.5t2.5 -5.5q10 -23 0 -39q-4 -10 -14 -14q-2 0 -8 -2h-12h-27 q-12 0 -19 1t-16 1h-8q-1 0 -4 -0.5t-8.5 -1t-10.5 -0.5q-30 -2 -34 -2q-24 -2 -39 0q-26 1 -39 14q-12 13 -13 43q-2 18 0 47q0 6 2 30q0 5 1.5 14t1.5 13v15q0 1 -11 117q-9 91 -11 142q-3 56 -1 122q1 22 8 137q5 77 7 136q1 21 -1 134q0 10 -4 11q-6 5 -20 6 q-33 2 -97 -13q-30 -6 -57 -14q-38 -11 -51 -12q-30 -8 -47 -8q-26 -4 -41 6q-7 6 -12 14v6l-2 8v21q0 13 2 57q1 38 6 60q1 13 6 24q5 18 14 23q15 13 56 24q2 0 65 17q91 21 129 49q37 29 82 106l35 54q-2 2 -2 6q-2 11 5 19q8 10 17 11q1 0 15 2q3 2 12.5 10.5t15.5 12.5 q22 15 37 -8q2 -2 2 -6z" />
<glyph unicode="2" horiz-adv-x="1105" d="M242 197q2 0 4 -2h22q16 0 47 4q190 19 336 26q131 8 205 4q45 -1 76 -8q37 -7 53 -26q8 -11 12 -31v-29q0 -4 -2 -26v-17v-16q2 -24 2 -29v-31q-5 -23 -14 -32q-8 -10 -18 -11q-1 0 -8 -1.5t-11 -2.5q-24 -2 -49 -2q-59 -2 -135 2q-208 6 -227 4q-15 0 -58 -7 q-21 -3 -108 -14q-31 -4 -113 -11q-108 -8 -166 -2q-38 4 -61 12q-35 17 -41 45q-21 104 41 268q63 178 194 285q28 25 82 57l121 66l106 61q194 118 209 225q17 122 -49 187q-59 59 -155 49q-104 -8 -186 -93q-83 -86 -99 -229q-1 -10 -10 -19q-7 -7 -19 -5q-20 1 -24 22 q-24 2 -86 0h-56q-12 0 -22 2q-2 0 -8 2q-11 1 -19 11q-7 15 -6 37q1 12 6 36q12 43 31 93q40 113 63 151l41 64q16 24 42 53q27 30 61 53q78 52 182 68q106 16 203 -8q106 -22 187 -84q81 -61 114 -158q45 -135 6 -297q-41 -163 -139 -264q-42 -44 -127 -107 q-26 -19 -48.5 -35.5t-33.5 -24.5l-12 -9q-25 -18 -84 -54q-90 -58 -127 -84q-76 -53 -105 -86q-16 -18 -18 -30zM55 924h2h56q70 2 92 -2q28 145 123 229q92 86 202 96q124 12 199 -63q84 -84 66 -234q-17 -131 -236 -262q-31 -19 -108 -63l-115 -64q-49 -28 -80 -53 q-118 -99 -178 -260q-55 -151 -37 -242l8 -6q16 -7 45 -8q54 -6 158 2q91 8 113 10q24 3 65 8.5t43 5.5q14 2 26.5 4t20.5 3.5t10 1.5q21 2 234 -4q86 -5 131 -3q12 0 45 3h4v22q0 16 -1 27t-1 20q0 10 1 21t1 24v21q0 2 -2 4q-6 5 -20 6q-30 7 -68 8q-69 4 -199 -4 q-127 -6 -336 -27q-33 -4 -49 -4q-12 0 -32 2q-21 1 -33 15q-23 25 -13 57q5 20 31 49q32 37 113 94q64 44 131 86l40 26t28.5 18.5t9.5 5.5q30 24 96 72q77 56 121 100q86 90 123 238t-2 270q-28 79 -99 133q-68 52 -163 73q-92 21 -185 6q-96 -15 -162 -59 q-59 -38 -127 -153q-18 -31 -59 -142q-22 -61 -27 -86q-5 -12 -6 -22z" />
<glyph unicode="3" horiz-adv-x="1120" d="M788 735q107 -35 162 -112q46 -63 58 -155q12 -90 -7 -179q-16 -93 -60 -173q-43 -78 -105 -122q-29 -19 -61 -29q-29 -9 -91 -17q-53 -7 -59 -7q-261 -45 -394 4q-180 63 -243 307q-18 73 -19 82q-7 32 -8 51q0 28 8 47q5 8 15 14l12 5q4 2 27 8q42 9 69 14q14 2 38 5.5 t32 4.5q12 1 24 4h9h6h4q6 -1 12 -6q18 -16 16 -51q0 -24 3 -27q68 -243 266 -243q39 0 102 24q62 25 92 52q65 63 66 167q0 104 -70 154q-46 32 -174 33h-49h-43q-17 0 -33 2q-19 1 -31 10q-9 6 -14 23q0 1 -1 5t-2 7.5t-1 7.5q0 9 2 47q0 22 4 47q0 7 0.5 13.5t1.5 9.5v4 v2l-2 8q-4 24 12 39q4 4 13 6q4 0 6 2h14q10 -2 29 -2q2 -2 12 -2q9 0 15 -2h12q56 7 133 39q68 28 108 70q54 57 17 133q-34 70 -113 110q-73 40 -178 7q-107 -30 -141 -103q-11 -22 -33 -104q-14 -48 -14 -54q-4 -12 -9 -18q-1 -2 -2.5 -5.5t-1.5 -4.5q-8 -12 -18 -13 q-20 -4 -45 13q-16 8 -17 8q-12 4 -16 14h-33q-14 -2 -26 -2h-21h-16h-8h-4q-11 5 -15 10q-8 8 -6 23v12q2 12 6 29l2.5 10t1.5 9q2 12 2 16l2 6q11 115 86 199q76 85 191 135q108 46 227 57q117 10 217 -20q80 -24 139 -88q56 -60 81 -142q24 -77 16 -163q-7 -84 -51 -152 q-29 -43 -109 -94zM59 961q31 0 39 2q67 1 101 -7l6 27q22 85 35 115q45 92 174 129q127 39 219 -8q91 -49 135 -138q52 -108 -27 -192q-43 -45 -123 -81q-81 -37 -147 -44h-25q-5 2 -14 3q-7 1 -14 1h-13v-2q0 -2 -0.5 -6t-1 -12t-0.5 -15q-4 -24 -4 -43q-2 -36 -2 -41 q0 -2 2 -4q10 -2 29 -2h41h51q145 -1 201 -41q94 -66 94 -201q-1 -125 -82 -202q-36 -36 -108 -64q-75 -29 -123 -29q-240 0 -320 281q-2 14 -2 45h-10q-32 -5 -68 -12q-39 -6 -67 -12l-19 -7q-2 -8 -2 -16q2 -17 6 -41q0 -5 21 -80q55 -214 209 -270q118 -44 366 0 q2 0 52 7t52 7q16 1 44 10q22 7 43 21q51 35 89 104q37 68 54 156q35 187 -41 291q-55 73 -153 100q-2 2 -4 2h-13q-26 6 -32 29q-1 14 6 24l8 9q1 1 4 3t6 4.5t6 4.5l49 31q71 46 93 80q37 56 43 130q6 73 -15 139q-22 69 -68 121q-47 53 -116 76q-86 27 -197 18t-209 -52 q-104 -46 -171 -122t-74 -169l-1 -5q-1 -5 -4 -17.5t-6 -24.5z" />
<glyph unicode="4" horiz-adv-x="1140" d="M971 504q-6 4 -29 2q-18 0 -65 -10q-49 -10 -72 -9q-19 0 -35 11q-15 14 -20 37q-6 37 2 112q10 90 10 103q2 75 16 288q15 224 15 344v2q-13 0 -23 1t-18 1q-41 2 -52 -4q-43 -18 -122 -112q-64 -76 -156 -211q-35 -49 -98 -148l-99 -157q-52 -82 -57 -92 q-14 -25 -49 -68q-28 -33 -53 -70q-50 -79 -29 -131q6 -2 10 -2q21 -6 57 -6q47 -5 175 0q131 4 184 4q36 0 72 -2q32 -1 51 -10q19 -11 26 -37q6 -18 6 -45q2 -37 -6 -111q-6 -82 -6 -106q-2 -23 0 -35q2 -2 2 -4h2q5 0 33 2l64 8q1 0 4 -0.5t8.5 -1t11.5 -0.5q32 -2 37 -2 q19 -2 31 0v23q2 44 2 88q-1 34 -3 89q-1 36 -1 60v2l-2 8q-5 23 10 37q7 5 24 10q21 3 25 3q30 2 61 2h31h27h4q-8 24 -8 34q0 1 0.5 5t1 10.5t0.5 13.5q2 32 2 35v33q0 4 -2 6zM559 330q-15 3 -29 4q-36 2 -67 2q-53 0 -184 -4q-129 -5 -179 0q-40 2 -63 6q-36 7 -47 31 q-35 84 30 184q19 30 56 76q35 41 47 61q2 3 9 14.5t20.5 33t27.5 44.5l99 158l98 148q85 125 160 217q90 104 143 127q21 10 74 8q52 -4 61 -2q14 2 21 -5q9 -9 10 -18q0 -11 -4 -18q4 -5 4 -15q0 -120 -15 -345q-14 -214 -16 -287q0 -18 -10 -109q-8 -65 -2 -98v-2l6 -2 q13 0 55 8q56 12 74 12q48 5 72 -16q11 -11 16 -41q2 -15 0 -39q0 -5 -2 -37q-2 -24 -2 -25l6 -24q10 -33 -6 -51l-14 -11h-4q-3 0 -9 -2h-20h-29h-31q-29 0 -57 -2h-8v-6q0 -24 1 -59t1 -90q2 -57 0 -90v-31q-2 -10 -2 -12q-1 -1 -3.5 -8.5t-4.5 -10.5q-9 -9 -23 -10 q-8 -2 -16 -2q-15 -2 -39 0q-5 0 -37 2q-5 0 -10 0.5t-7 1.5h-3h-11l-22 -4q-20 -2 -25 -2q-21 -4 -39 -4q-8 0 -16 2q-15 1 -23 8q-11 11 -16 39q-4 13 -2 45q0 18 8 108q6 68 4 105q0 22 -4 31q0 4 -2 6zM608 1071q2 -6 2 -10t2 -62q1 -42 6 -107q5 -68 9 -112 q4 -91 4 -164l-2.5 -37.5t-1.5 -23.5q-4 -27 -13 -45q-6 -10 -18 -16q-1 0 -8.5 -2t-12.5 -3q-18 -4 -49 -6q-59 -4 -135 0q-73 1 -131 13q-31 5 -45 10q-15 6 -18 8q-17 12 -17 27q-1 26 27 47q17 16 20 16l78 98l84 109q29 36 71 95q38 54 68 116q22 45 47 113q7 24 33 16 q25 -8 17 -33q-6 -21 -17 -47zM571 543q2 8 2 18q0 5 2 25t3 33q0 47 -5 159q-1 22 -12 195q-35 -64 -68 -112q-33 -47 -69 -95l-82 -102l-74 -93q-9 -11 -20 -20q18 -4 22 -4q54 -8 124 -11q79 -3 128 1q28 0 43 4z" />
<glyph unicode="5" horiz-adv-x="1097" d="M94 141q5 -8 21 -22q11 -9 38 -27q26 -16 29 -20q89 -62 275 -62q245 0 346 76q116 90 123 317q0 1 1 10t3 31t4 43q4 44 -2 74q-27 130 -117 203q-89 74 -221 90q-122 16 -168 0q-4 -2 -66 -39q-28 -17 -45 -24q-28 -12 -43 -11q-19 4 -30 23q-5 8 -9 22v15q0 2 1.5 7.5 t1.5 6.5q0 18 4 39l20 113q17 93 21 110q7 26 8 37q1 2 2.5 5.5t1.5 4.5v6q1 1 3.5 5t4.5 6q7 7 23 12q8 5 22 6q61 4 66 4q49 4 178 4q186 2 188 2q63 1 101 9q-2 28 -2 71q0 25 -3 49v15q-2 0 -12 2q-22 2 -47 2q-43 -4 -53 -4q-8 0 -17 -0.5t-13.5 -1t-6.5 -0.5 q-32 0 -272 -15q-139 -8 -164 -10q-34 -4 -56 -6q-1 0 -3 -1t-3 -1l-2 -8l-12 -58l-18 -88q-1 -5 -4.5 -18.5t-10 -40t-12.5 -51.5l-43 -170q-26 -108 -35 -162q-7 -39 -8 -57v-15q6 -2 10 -2q24 -4 62 -6q31 -4 63 -4q11 0 21 2h2l47 49q39 45 90 66q81 32 165 23 q83 -9 144 -52t108 -110q46 -65 52 -146q6 -79 -21 -162q-37 -95 -84 -141q-85 -85 -241 -86q-157 0 -240 86q-19 19 -29 53l-3.5 10.5t-6.5 22t-8 27.5q-6 28 -16 47q-6 12 -11 12q-23 6 -84 -2q-26 -1 -47 -10q-4 0 -6 -2q0 -10 4 -21q2 -11 7.5 -33t7.5 -32q6 -24 16 -68 q6 -21 8 -25q0 -4 2 -4zM287 836l6 4q30 15 39 20q64 37 78 43q56 21 192 4q149 -18 250 -103q103 -87 133 -231q6 -40 2 -90q-2 -23 -4 -43t-3 -28l-1 -9q-7 -257 -145 -360q-115 -86 -377 -86q-201 0 -303 70l-23 16q-6 4 -30 19q-9 5 -26 21q-18 16 -24 26q-6 6 -10 20 q-2 4 -8 27q-13 48 -17 69q-8 30 -16 66q-1 6 -2.5 14t-1.5 10q-2 6 -2 9v2v10q6 26 43 41q23 8 59 12q71 8 103 2q29 -6 47 -41q8 -18 18 -57q4 -14 8.5 -27.5l6.5 -19.5t2 -8q7 -26 16 -35q69 -70 203 -69q136 2 205 69q37 37 71 125q27 66 18 136q-9 72 -45 124 q-36 53 -92 92q-56 40 -122 44q-70 5 -138 -19q-36 -15 -71 -52q-47 -53 -58 -61q-5 -4 -14 -4q-8 -2 -12 -2q-14 -2 -25 -2q-32 0 -67 4q-39 2 -66 6l-25 6l-12 4q-9 5 -14 17q-6 15 -4 47q1 19 8 63q5 28 37 166l43 168q10 41 24 106q0 4 19 93l12 55l4 18q0 1 1 3t1 3 q0 3 2 5v4q5 7 8 8q6 6 19 8q1 0 5 1t7.5 2t7.5 1q22 2 56 6l166 11q224 14 276 14q1 0 5 0.5t12 1t16 0.5q10 0 20.5 1t20.5 2t14 1q27 0 57 -2q35 -6 50 -23q5 -8 6 -22q2 -10 2 -23q2 -20 2 -51q0 -73 4 -86q11 -25 -16 -33q-8 -2 -13 -2q-33 -8 -127 -12q-14 0 -38 -0.5 t-69.5 -1t-80.5 -0.5q-106 0 -176 -2q-38 -1 -60 -6q-10 -2 -12 -2v-2q-2 -6 -8 -37q-12 -52 -23 -109q-7 -44 -18 -110q-5 -23 -6 -37v-12z" />
<glyph unicode="6" horiz-adv-x="1126" d="M956 1044l-4 7q-1 2 -3.5 7.5t-3.5 9.5q-3 8 -9 18q-4 7 -4 12q-43 120 -109 180q-62 58 -186 80q-123 23 -203 -6q-94 -34 -173 -92q-82 -59 -120 -130q-32 -62 -49 -195q-16 -125 -14 -288q5 -158 25 -287q20 -127 57 -198q34 -60 104 -103q72 -44 219 -79 q152 -37 226 -19q35 7 100 72q87 87 125 229q37 138 12 285q-23 141 -104 241q-153 188 -461 41q-51 -24 -90 -84q-14 -22 -23 -40l-6 -13q0 -1 -1 -3t-1 -3l-4 -4q-2 -4 -6 -6q-14 -7 -29 0q-5 4 -10 12q-2 6 -2 8q-2 6 -2 11q-2 16 -2 28q0 38 4 82q6 111 14 137 q33 112 139 211q128 117 242 90q63 -17 129 -90q54 -57 84 -125v-2q17 -2 39 0q18 0 53 4q38 2 47 2zM260 795q44 57 96 84q346 166 527 -58q87 -106 114 -264q27 -157 -13 -309q-41 -155 -138 -252q-73 -73 -125 -88q-84 -21 -250 18q-154 38 -235 88q-82 51 -121 123 q-83 150 -90 510q-6 364 71 508q40 79 132 145q93 67 186 101q95 34 233 10q141 -27 213 -92q75 -68 121 -205q3 -2 4 -7l6 -15l10 -19q2 -4 5 -11t5 -11.5t3 -8.5q1 -3 2.5 -8t1.5 -6q2 -14 -2 -20q-12 -25 -41 -19q-2 0 -5 1q-4 1 -5 1q-8 0 -52 -2q-36 -4 -55 -4 q-75 -5 -115 16q-25 12 -14 35q6 16 21 17q-21 39 -58 77q-52 61 -100 72q-89 23 -193 -76q-98 -92 -127 -188q-4 -15 -10 -125q-2 -14 -2 -18zM747 588q-8 2 -16 8l-35 47q-41 34 -102 68q-13 6 -14 18q-21 4 -68 4q-79 0 -131 -59q-54 -62 -72 -152q-18 -94 5 -174 q24 -83 83 -117q149 -90 260 -6q48 37 79 104t32 148q2 34 0 58q-1 23 -14 45q0 2 -7 8zM735 680q41 -37 64 -72q17 -29 22 -68q5 -38 0 -63q-1 -92 -37 -172q-35 -79 -94 -123q-65 -48 -145 -50t-176 54q-76 45 -103 144q-29 99 -8 202q22 109 86 181q66 73 168 73t152 -30 q31 -22 61 -62z" />
<glyph unicode="7" horiz-adv-x="1148" d="M981 1362q-10 2 -20 2q-33 4 -93 6q-102 1 -286 0q-117 0 -294 -3t-204 -3q2 -46 2 -64q5 -44 6 -67q2 -14 2 -16q2 0 11.5 -2t15.5 -3q27 -2 80 0q12 0 221 11q45 2 95.5 4.5t79 4t42.5 1.5q40 0 76 -2q7 -1 16 -2.5t10 -1.5q19 -5 27 -17q10 -16 0 -43q-5 -16 -18 -32 q-26 -36 -64 -76l-70 -76q-37 -41 -41 -47q-294 -519 -294 -860l-1 -4q0 -4 -1.5 -13t-2.5 -18v-2h11q5 0 15.5 -1t21.5 -2t22 -1h62h8q0 2 2 22l4 31q1 11 4 23l74 249q108 370 260 590q27 38 123 150q75 87 102 147q2 6 2 21q2 18 0 41q-1 32 -6 53zM715 1178h-4 q-32 2 -72 2q-13 0 -83 -4t-132 -7q-174 -9 -223 -10q-53 -2 -82 0q-41 2 -56 12q-9 4 -14 15l-4 12q-5 10 -6 27l-1 27q-2 28 -3 46q-4 55 -4 121q0 27 26 27q27 0 27 -27v-2q25 0 203 3t295 3q184 1 288 0q62 -2 95 -6q4 0 30 -4q2 -1 13 -4q13 -5 18 -14q9 -20 14 -84 q2 -24 0 -45q0 -27 -6 -39q-29 -66 -110 -162q-107 -125 -119 -143q-149 -211 -256 -578l-74 -250v-12l-4 -31q0 -6 -4 -31q-2 -10 -2 -14q-4 -11 -10 -16q-5 -6 -11 -8h-4h-4h-8h-20h-64l-37.5 2.5t-23.5 1.5q-11 0 -25 2q-2 0 -8 2q-4 0 -6 2q-10 6 -13 10q-12 19 -8 47 q2 5 3 13q1 6 1 14q0 352 303 885q7 16 48 59l69 76q49 55 60 69z" />
<glyph unicode="8" horiz-adv-x="1128" d="M715 1157q11 -14 22 -31q27 -47 27 -122q0 -92 -67 -142q-65 -49 -156 -49q-85 0 -162 44q-75 43 -98 124q-35 131 43 215q68 75 180 76q112 2 180 -72q19 -19 31 -43zM696 557q-88 53 -161 74q-124 37 -195 -15q-44 -29 -68 -89t-24 -132t24 -129q24 -56 70 -84 q34 -18 131 -18q140 0 203 39q79 47 74 182q-1 102 -54 172zM766 543q36 -71 37 -156q4 -166 -98 -229q-77 -47 -232 -47q-113 0 -156 26q-62 34 -93 106q-29 68 -29 152q0 85 29 155q30 73 83 112q92 63 242 20q63 -18 135 -57q17 6 29 -4q4 -4 11.5 -13t8.5 -10l27 -16 q23 -15 8 -37zM762 719l-10 -4q-22 -10 -34 13q-12 24 13 36l2 2l2 2q7 14 27 12q149 82 149 244q0 149 -95 253q-94 103 -236 132q-141 29 -266 -30t-177 -201q-84 -226 92 -363h2q2 -2 9 -4q26 -15 22 -41q-5 -21 -24 -27q-7 -4 -23 -6q-12 0 -14 -2q-81 -90 -116 -194 q-36 -106 -13 -215q23 -110 112 -187q78 -71 166 -100q87 -29 201 -29q157 0 217 27q100 45 160 184q60 135 33 250q-30 145 -199 248zM182 786q-92 78 -116 187q-23 107 22 225q29 79 86 141q56 61 123 90t144 39q76 10 149 -8q158 -30 266 -147q109 -118 109 -289 q0 -178 -150 -274q164 -113 199 -267q29 -130 -37 -282q-68 -161 -189 -213q-70 -31 -237 -31q-122 0 -218 32q-98 33 -186 109q-102 92 -128 218q-25 124 16 244q40 116 127 214q7 7 20 12zM674 991q21 78 -4 135q-15 17 -52 41q-14 10 -12 27q-44 27 -102 25 q-89 0 -142 -58q-57 -63 -28 -168q15 -58 74 -92q61 -35 133 -35q59 0 103 24q45 25 61 68h-11q-26 7 -20 33z" />
<glyph unicode="9" horiz-adv-x="1165" d="M743 1085q2 -2 5 -2q47 -53 59 -102q8 -37 4 -117q-5 -97 -70 -174q-66 -78 -159 -112q-65 -22 -125 -23q-62 -2 -123 28q-62 30 -105 87q-54 80 -61 171q-8 95 22 176q30 82 86 146q95 103 207 107q131 5 228 -127q14 -19 32 -58zM754 549q-42 -64 -95 -92 q-83 -43 -198 -46q-113 -3 -222 38q-108 41 -169 116q-57 68 -86 271q-28 195 -4 286q25 82 124 181q67 67 168 106q100 39 199 39q179 0 310 -89q129 -88 202 -241q66 -141 75 -309t-42 -320q0 -2 -3 -10t-5 -16l-33 -105q-7 -19 -37 -95q-22 -56 -46 -93q-19 -29 -56 -78 q-33 -43 -73 -72q-33 -24 -91 -52q-49 -24 -115 -40q-166 -37 -297 17q-111 45 -171 133t-64 209v30q1 33 20 48q16 9 59 14h27h23l24 6q27 6 45 -6q25 -16 41 -55q3 -7 10 -35l11 -31q27 -81 75 -102q168 -69 295 135q71 116 99 258zM80 322q-2 -6 -2 -9v-26 q6 -210 203 -293q113 -46 264 -12q60 13 104 34q52 25 82 46q37 26 66 66q36 50 50 72q19 29 43 88q24 58 36 93l34 106l7 19q45 140 37 300q-7 157 -70 290q-67 138 -182 218q-117 81 -281 81q-86 0 -179 -35q-92 -34 -151 -94q-90 -91 -108 -160q-23 -79 4 -262 q27 -188 74 -246q79 -99 245 -127q166 -27 279 35q58 29 117 149q7 9 14 13q6 20 27 20q26 0 26 -26q0 -85 -32 -198t-87 -202q-66 -107 -157 -153q-92 -47 -203 -2q-74 29 -107 135q-1 8 -9 30q-2 5 -4.5 13t-4 12.5l-2.5 7.5q-8 24 -14 29q-3 0 -11 -2q-28 -6 -34 -6h-19 h-26q-14 -1 -29 -4zM733 971q-3 7 -9.5 23.5t-9.5 24.5q-12 30 -21 51q-11 26 -23 40q-83 112 -185 107q-89 -1 -168 -91q-77 -85 -94 -202t51 -222q51 -70 131 -88q82 -18 158 15q82 28 136 94q55 67 59 145q2 62 0 86q-17 0 -25 17z" />
<glyph unicode=":" horiz-adv-x="520" d="M319 1047q1 2 5 6q12 16 28 4q52 -39 59 -94t-26 -95q-32 -42 -85 -53q-50 -10 -114 21q-33 20 -32 71q0 44 28 84q30 44 78 56q29 8 59 0zM307 227q1 3 4 6q12 17 29 5q50 -39 58 -95t-25 -94q-32 -42 -85 -53q-52 -10 -114 20q-34 21 -33 72q0 43 29 84q29 42 78 55 q29 8 59 0zM350 989q-44 27 -80 17q-31 -7 -55 -39q-20 -27 -20 -62q-2 -26 12 -33q47 -25 85 -17q37 7 60 38q35 45 8 94q-4 0 -10 2zM338 170q-43 26 -80 16q-31 -7 -55 -39q-21 -29 -21 -61q-2 -26 13 -33q47 -25 85 -17q37 7 60 38q35 45 8 94q-4 0 -10 2z" />
<glyph unicode=";" horiz-adv-x="548" d="M303 1047q1 3 4 6q12 16 29 4q51 -39 58 -94q8 -56 -25 -95q-32 -42 -85 -53q-50 -10 -114 21q-34 21 -33 71q0 43 29 84q30 44 78 56q29 8 59 0zM201 193q0 -7 -2 -17q-8 -36 -10 -67q-3 -39 -3 -68v-23h11q2 0 32 5q32 6 47 -5q27 -17 17 -59q-3 -11 -8 -41 q-5 -22 -15 -47q-17 -35 -39 -47q-12 -5 -28 -6v-19q-2 -24 -2 -28q0 -13 2 -23h2q6 1 20 10q103 47 141 148t11 219q-2 12 -5 25t-3 14q-5 16 -15 22q-13 11 -47 11q-3 0 -35 -2l-32 -2h-29h-10zM240 -31q-29 -4 -43 -4q-36 0 -54 23q-2 2 -4.5 7l-3.5 7v12q-2 14 -2 27 q0 36 4 73q6 60 8 70q1 14 7 27l4 12q6 10 12 15q8 5 22 6q10 2 21 2h29q2 0 5.5 0.5t10.5 1t12 0.5q32 2 39 2q50 0 80 -19q21 -16 31 -49l12 -45q28 -133 -15 -251q-43 -117 -165 -177q-9 -4 -31 -12q-34 -8 -51 6q-13 9 -18 35q-3 24 -3 33q0 4 1.5 14.5t1.5 17.5v19 q0 4 2 12q-2 6 -2 8q0 11 8 19t18 8q24 0 31 4q9 5 14 18t10 37q4 27 9 41zM334 989q-44 27 -80 17q-31 -7 -55 -39q-21 -29 -21 -62q-2 -26 12 -33q47 -25 85 -17t61 38q35 45 8 94q-4 0 -10 2z" />
<glyph unicode="&#x3c;" horiz-adv-x="1257" d="M1087 866v4q-8 29 -8 97v37q-5 -1 -20 -7q-37 -13 -98 -39q-22 -9 -164 -77q-106 -51 -299 -111q-254 -77 -301 -96q-18 -8 -57 -20q-51 -16 -63 -22q-27 -13 -44 -24q-8 -6 -13 -20q-8 -21 -12 -51q-10 -56 -4 -82l4 -4q7 -5 25 -17q26 -16 88 -45q137 -65 264 -117 q289 -120 457 -182q4 -1 28 -11q23 -10 29 -11q53 -21 76 -27q41 -12 65 -12l19 4q7 18 14 53q5 21 6 33v10q-4 4 -24 16q-23 14 -68 33q-83 37 -207 80q-222 76 -362 117q-6 0 -58 14q-45 13 -88 27q-54 17 -71 26q-4 2 -27 15q-23 18 -18 41q5 14 14 20q2 2 10 8l25 13 q10 5 71 34q107 47 125 52q48 13 125 32q71 17 121 35q30 11 125 58q80 43 131 61q20 7 51 14l23 6q33 9 35 9q60 17 75 26zM244 489q22 -6 47 -16q23 -5 87 -23q53 -15 56 -18q155 -45 367 -117q146 -52 211 -79q48 -22 73 -37q38 -21 48 -41q8 -13 8 -41q-2 -20 -6 -43 q-11 -47 -23 -70q-18 -37 -72 -37q-32 0 -82 15q-41 12 -81 28q-11 7 -29 13q-6 2 -12 4.5t-9.5 4t-5.5 1.5q-174 64 -459 182q-156 66 -270 119q-61 30 -90 49q-22 11 -31 20q-15 11 -22 25q-17 40 -2 121q6 36 16 61q15 35 33 47q22 15 55 30q30 14 72 26l53 18 q57 22 303 98q195 61 293 109q155 73 164 76q55 25 104 43q28 9 41 10q28 4 43 -8q8 -7 13 -19q2 -6 2 -8q2 -10 2 -18v-47q0 -54 4 -70q4 -7 4 -18v-2q0 -1 2 -11q2 -25 -14 -39q-28 -25 -111 -47q-9 -1 -35 -8l-22 -6l-45 -12q-30 -11 -125 -58q-80 -43 -131 -61 q-51 -20 -127 -37q-27 -7 -52.5 -13.5t-45 -11.5t-25.5 -6q-17 -6 -115 -49z" />
<glyph unicode="=" horiz-adv-x="1218" d="M1057 653q0 5 2 13q0 9 -2 59q-1 34 -8 72q-187 -17 -392 -11q-250 7 -272 7l-180 10q-64 4 -101 4h-34h-4q0 -1 -2 -6.5t-3 -9.5q-7 -26 -8 -58q-1 -35 0 -57q0 -9 2 -17q16 -2 31 -2q40 -2 82 -2q102 0 238 4q393 15 415 15q15 0 60 -6q22 -3 47 -7t30 -4q45 -6 72 -6 q13 0 27 2zM1102 813l8 -84q2 -52 2 -65q-1 -6 -2.5 -14.5t-1.5 -10.5q-5 -22 -16 -29q-16 -12 -62 -12q-33 2 -78 6q-5 0 -15.5 1.5t-29.5 4t-35 4.5q-47 7 -51 7q-21 0 -413 -15q-139 -4 -240 -4q-40 0 -86 2q-37 1 -53 8q-15 7 -23 27q-4 12 -6 29q-4 28 0 69q1 35 8 66 q5 20 8 26q7 16 21 23q8 7 29 8h38q45 0 105 -4l70 -4q24 -3 69 -5q18 -1 37 -1q57 0 272 -6q211 -6 394 12q7 6 14 8q17 2 27 -8q12 -6 14 -23q0 -9 -4 -16zM1051 229q0 5 2 13q0 9 -2 59q-1 26 -9 72q-187 -17 -391 -11q-250 7 -272 7l-180 10q-64 4 -101 4h-35h-4l-4 -16 q-7 -26 -8 -58q-1 -35 0 -57q0 -8 2 -16q24 -3 31 -3q40 -2 82 -2q67 0 237 5q367 14 416 14q14 0 59 -6q21 -3 47 -7t31 -4q45 -6 72 -6q13 0 27 2zM1096 389l8 -84q2 -52 2 -65q-1 -6 -2.5 -14.5t-1.5 -10.5q-5 -21 -17 -29q-17 -12 -61 -12q-33 2 -78 6q-5 0 -15.5 1.5 t-29.5 4t-35 4.5q-47 7 -51 7q-23 0 -414 -15q-139 -4 -239 -4q-40 0 -86 2q-37 1 -53 8q-15 7 -23 27q-4 12 -6 29q-4 28 0 69q1 35 8 66q6 20 8 26q7 16 21 23q8 7 28 8h39q45 0 105 -4l69 -6q42 -1 70 -3q18 -1 37 -1q57 0 272 -6q210 -6 393 12q6 6 15 8q17 2 26 -8 q14 -7 15 -23q0 -9 -4 -16z" />
<glyph unicode="&#x3e;" horiz-adv-x="1253" d="M6 172v-4q8 -26 8 -96v-37q11 2 21 6q30 9 96 41l70 31q50 24 61 30l33 17q23 11 86 33l176 57l166 55q179 63 244 88q51 22 77 37l25 16q9 19 14 76q5 50 0 68l-4 4q-9 7 -24 14q-26 16 -88 45q-105 52 -267 119q-315 131 -456 178q-1 0 -58 23q-45 17 -75 24 q-44 13 -66 13q-12 0 -18 -6q-9 -21 -13 -52q-4 -19 -4 -32l-2 -11q2 -2 23 -16q24 -15 69 -33q71 -31 207 -76q132 -46 363 -116l63 -17q75 -21 84 -24q54 -18 70 -25q7 -3 26 -14q23 -19 19 -41q-5 -14 -12 -21q-1 -1 -3 -2.5t-4.5 -3t-3.5 -2.5q-19 -11 -26 -14 q-29 -15 -72 -35q-95 -43 -123 -51q-22 -9 -123 -34q-106 -27 -162 -52q-16 -7 -104 -53q-73 -37 -113 -52q-23 -8 -51 -14l-3 -1q-2 0 -8 -1.5t-12 -2.5q-22 -5 -32 -9q-58 -15 -74 -27zM844 553l-45 14q-33 12 -85 26q-15 4 -30 8.5t-22 6.5t-9 2q-200 58 -366 115 q-136 46 -211 80q-47 18 -76 35q-34 22 -45 41q-7 15 -6 41q0 21 4 41q7 47 20 71q18 37 72 37q36 0 82 -14q38 -12 80 -27q54 -22 57 -22q107 -35 459 -181q185 -76 270 -118q57 -25 92 -48q22 -11 31 -20q16 -12 23 -25q12 -28 6 -100q-6 -62 -19 -94q-10 -22 -51 -45 q-29 -16 -86 -39q-81 -35 -246 -90l-170 -56l-170 -57q-60 -21 -84 -33q-4 0 -29 -14q-21 -12 -65 -31l-67 -32q-63 -29 -105 -41q-5 -2 -20 -6.5t-21 -6.5q-28 -4 -45 11q-11 8 -12 24q-2 10 -2 21v45q0 53 -4 69q-4 7 -4 19v2l-2 10q-2 25 14 39q29 26 106 47q11 4 34 9 t24 5q25 5 45 13q39 15 104 49l109 55q40 18 92 33l111 29l90 24q18 5 114 49q35 17 58 29z" />
<glyph unicode="?" horiz-adv-x="1122" d="M315 973q-6 -22 -28 -21q-13 2 -21 13q-35 -6 -69 -7q-15 -1 -39 -2.5t-29 -1.5h-23h-6h-6q-2 0 -4 2q-4 1 -10 7q-16 12 -17 36q-2 17 0 41q5 43 21 99q15 53 33 96q19 48 32 63q151 181 480 193q67 1 182 -62q119 -66 168 -180q49 -112 33 -230t-80 -233 q-29 -55 -113 -124q-82 -66 -106 -103q-11 -16 -49 -125q-17 -51 -29 -74l-10 -26q-10 -16 -19 -23q-17 -10 -49 -2q-7 0 -16 4l-9 2q-6 0 -11 1t-21 1h-23q-9 1 -22.5 3t-16.5 2q-27 5 -37 20q-7 11 -8 29q-1 15 0 32q1 26 13 76q8 41 18 78q10 34 18 51q78 131 131 180 l54 43q4 3 61 54q19 17 47 49q73 84 43 176q-30 90 -100 122q-69 31 -152 7q-75 -23 -131 -82q-59 -62 -76 -143q8 -8 9 -13q4 -17 -13 -28zM117 1008h10q4 0 27.5 1.5t38.5 2.5q44 1 73 6q18 101 87 173t159 99q102 29 189 -11q89 -41 126 -153q41 -119 -51 -227 q-18 -24 -51 -53l-66 -55q-35 -28 -49 -43q-51 -45 -123 -168q-5 -6 -12 -39q-11 -33 -18 -72q-10 -55 -11 -70v-24q3 0 3 -2q14 -2 30 -2h21q17 0 25 -1q3 0 5.5 -0.5t4.5 -0.5t3.5 -0.5t2.5 -0.5q5 -2 14 -3q12 -5 14 -5q6 -2 9 -2q2 4 8 23q8 20 26 70q39 114 56 137 q31 46 118 117q75 63 101 106q58 104 72 215q14 108 -29 204q-43 97 -144 154q-100 55 -157 54q-306 -11 -439 -172q-6 -10 -24 -52q-21 -50 -31 -90q-17 -54 -18 -88v-28zM553 186q-35 2 -55 -10q-25 -12 -31 -43q-6 -32 8 -58q16 -29 37 -36q60 -12 85 -2q26 11 34 35 q6 26 -11 56q-18 32 -63 54zM614 211q42 -29 61 -73q17 -41 5 -83q-15 -49 -65 -67q-51 -19 -119 2q-45 12 -68 59t-12 94q11 56 55 80q49 28 123 10q19 -5 20 -22z" />
<glyph unicode="@" horiz-adv-x="1900" d="M1571 223q-15 -27 -25 -33q-18 -13 -50 -31q-35 -20 -47 -25q-18 -8 -53 -22q-13 -5 -29.5 -12t-18.5 -8q-137 -59 -312 -65t-313 43q-142 47 -247 162q-105 116 -153 256q-48 142 -32 296q17 158 104 281q63 83 153 153q94 72 187 111q40 16 91 24q49 7 111 9q35 1 85 4 q260 29 428 -59q200 -106 238 -361q24 -181 -58 -342q-94 -188 -274 -188h-17q-22 -2 -24 -2q-40 0 -58 18q-19 19 -20 57q-2 29 6 74q12 78 47 193l64 198q24 82 30 117q-39 6 -43 6q-36 2 -41 2h-2l-2 -4l-14 -47q-6 -28 -14 -47q0 -4 -4 -18l-2 -7l-5 -4q-6 -8 -16 -12 q-28 -6 -51 25q-3 3 -14 20q-6 12 -17 23q-50 64 -143 86q-89 22 -182 -31q-92 -53 -160 -156t-86 -211t22 -190q53 -97 162 -141q111 -45 197 12q89 62 121 100l2 8q2 2 4 9l2 8q6 16 12 24q19 19 41 9q21 -8 23 -31q1 -10 0 -25q-2 -6 -3.5 -12t-2.5 -9l-1 -3 q1 -24 25 -52q22 -26 47 -34q51 -17 117 -21q66 -5 110 10q78 33 172 215q89 173 99 277q23 221 -119 385q-90 104 -344 172q-248 68 -395 39q-125 -24 -334 -131q-81 -44 -103 -58q-36 -20 -77 -58q-43 -39 -70 -87q-68 -125 -104 -292q-36 -164 -5 -288q51 -216 237 -372 t411 -195q426 -73 706 144q22 18 66 67v2q-2 4 -17 25q-14 16 -18 20zM1223 1012l8 30l14 48l4 16q2 2 2 4q2 2 2 4v2q1 4 7 6q10 10 24 11h19q7 0 45 -2q3 0 12.5 -2t15.5 -3l29 -4h12q27 0 27 -26q0 -10 -4 -15q-4 -39 -35 -143l-64 -199q-36 -124 -47 -184q-6 -39 -6 -63 q2 -19 6 -23q2 -2 21 -2q4 0 20 2h21q147 0 227 160q75 145 51 309q-33 227 -209 322q-157 80 -399 53q-24 -3 -90 -5q-52 -1 -100 -8q-46 -6 -80 -20q-87 -35 -174 -103q-91 -71 -142 -145q-81 -110 -96 -255q-15 -139 30 -271q43 -129 140 -236q95 -106 225 -151 q131 -45 296 -39q166 6 292 61q35 16 49 21q24 9 51 20q15 6 43 22q33 18 43 27q3 2 13 19q17 30 41 31q9 1 22 -7q12 -6 17 -10q13 -13 25 -29q18 -24 22 -32q4 -10 6 -17q4 -14 0 -24q-7 -18 -11 -25q-7 -11 -20 -24q-3 -3 -7 -7.5t-6.5 -7t-4.5 -3.5q-2 -2 -9 -7.5 t-12 -9.5l-16 -10q-300 -232 -748 -156q-237 40 -437 208q-198 167 -255 400q-31 134 6 309q38 179 111 308q29 55 78 101q48 45 85 67q15 9 107 59q213 108 350 135q157 28 418 -41q271 -72 371 -190q155 -178 131 -422q-12 -116 -104 -297q-102 -200 -199 -240 q-59 -20 -135 -15q-74 5 -129 25q-34 11 -64 42q-31 32 -41 69q-38 -42 -121 -98q-109 -74 -245 -17q-125 51 -187 166q-49 104 -28 225t92 230q77 113 182 175q106 63 217 36q112 -28 174 -107q1 -1 8 -10t11 -16zM1159 748q8 -8 8 -19q0 -110 -66 -194t-155 -105 q-99 -22 -160 43q-65 70 -57 225q8 133 87 224q80 92 173 104q107 12 154 -78q37 -75 16 -200zM1092 686q44 159 4 238q-30 57 -101 49q-72 -7 -139 -86q-68 -79 -74 -193q-8 -129 43 -184q41 -44 109 -29q54 12 103 61q50 50 67 115q-17 11 -12 29z" />
<glyph unicode="A" d="M606 1479h2v-2h10q19 -3 74 -4q49 -1 86 -19q20 -10 10 -31q-2 -5 -6 -6q37 -73 70 -184q53 -177 63 -205q66 -167 138 -369l118 -331q0 -2 4 -9.5t12.5 -26t16.5 -36.5l51 -111q28 -69 35 -106q4 -23 2 -43q-6 -28 -30 -35q-26 -7 -115 -8q-39 -1 -66 0q-14 0 -24 2 q-16 0 -24 5q-6 4 -11 17l-2.5 5t-3 7t-2.5 7q-4 16 -15 51q-10 41 -19 77.5t-13 53t-4 17.5q-22 85 -48 143q-12 28 -24 45q-11 12 -17 12q-28 3 -96 4q-100 6 -176 7q-89 4 -168 4h-55h-8q-2 -24 -6 -31q-14 -22 -91 -227q-33 -86 -51 -129q-11 -27 -20 -46 q-6 -11 -10 -16q-5 -6 -13 -12l-12 -4h-6h-12q-25 4 -31 4l-31 4q-4 0 -8 0.5t-6 0.5l-2 1h-17q-22 -2 -26 -2q-13 0 -27 2q-22 5 -29 14q-6 6 -6 17v8q3 10 4 14q4 13 17 39q2 4 51 117q78 176 98 231l31 109q23 76 37 110q14 32 43 82q25 42 37 74l43 148q14 47 55 175 q22 68 53 142q48 120 109 235q2 2 2 5l2 8q7 22 29 24q10 1 18 -6q8 -6 8 -14q2 -6 2 -8zM1247 4v2q2 10 -2 25q-5 31 -31 98l-49 107q-32 68 -35 75l-118 332q-72 202 -138 369q-15 41 -65 207q-39 129 -78 198l-2 6q-2 0 -15 1.5t-22 2.5q-36 1 -82 5q-1 0 -3 1t-3 1h-10 q-3 1 -8 2.5t-6 1.5q-59 -112 -103 -219q-24 -61 -51 -144q-22 -67 -54 -173q-32 -107 -46 -144q-11 -36 -39 -86q-31 -53 -41 -74q-11 -28 -35 -106q-18 -63 -33 -109q-20 -59 -98 -238l-51 -114l-13 -31q8 -2 13 -2q2 0 24 2h19l22 -2l31 -4q6 0 31 -4h2l4 8q12 24 20 43 q22 53 51 127q76 202 91 231q2 2 2 15q2 25 16 35l10 6h4h6h17h55q79 0 170 -4q74 -1 176 -7q72 -1 99 -4q25 -5 47 -28q10 -14 30 -56q26 -57 52 -149l36 -148q4 -21 13 -49q0 -2 1 -4.5t2 -4.5t1 -3h22q24 -2 64 0q76 1 100 6zM838 600v2q-7 26 -21 64q-12 39 -65 192 q-104 292 -105 295l-104 -264l-68 -187q-12 -40 -18 -63q-5 -11 -6 -18v-5h2h16q101 -8 207 -12q71 -4 125 -4h37zM625 1221l-4 12q-6 23 16 29q23 6 29 -17q16 -59 127 -373q49 -131 67 -194q14 -38 21 -64q4 -13 4 -20v-10q0 -12 -6 -19q-6 -6 -19 -8q-8 -2 -16 -2h-43 q-56 0 -127 4q-108 5 -209 12h-8h-19q-12 1 -20 13q-9 9 -13 24q-2 8 3 21q0 9 4 22l22 68q18 54 68 184l121 314q0 2 2 4z" />
<glyph unicode="B" horiz-adv-x="1343" d="M111 -6h8q31 -4 108 -4q85 2 115 -2q143 -16 350 8q231 28 326 92q11 7 37 33q27 27 43 37q2 1 6 3.5t12.5 6.5t16.5 8q13 6 22 17q4 4 4 10q0 8 0.5 15.5t0.5 11.5l1 3q21 89 27 141q6 50 -2 120q-7 67 -41 131q-15 31 -49 60q-33 29 -66 42l-24 6q-24 5 -29 8h-4 q-2 0 -10 2q-8 0 -15 5q-10 7 -10 18q-2 12 6 20q17 17 47 23q6 2 49 6q53 6 68 27q76 101 55 270q-24 198 -233 260q-33 10 -73 18q-34 7 -89 10q-20 1 -45.5 3t-29.5 2q-25 2 -89 3q-44 1 -74 1q-202 6 -307 -12q-19 -2 -39 4q-6 1 -16 0q-6 -5 -27 -21l-12 -12l-6 -8 l-4 -4q-2 -8 0 -25q12 -185 4 -551q-8 -392 -2 -547q0 -7 -8 -133q-2 -60 -2 -71v-35zM1044 770l3 -2q38 -12 78 -49q41 -38 61 -74q35 -70 44 -145q9 -78 2 -130q-7 -49 -26 -145q-2 -6 -2 -8v-8v-8q-2 -25 -16 -41q-14 -14 -35 -25q-7 -3 -14.5 -6.5t-11.5 -5.5t-5 -2 q-11 -6 -37 -33q-27 -27 -43 -37q-104 -70 -344 -100q-213 -24 -360 -8q-30 4 -111 2q-79 0 -112 4h-6q-8 2 -11 2q-20 4 -26 21q-6 18 -6 57q0 13 2 73q8 126 8 131q-6 155 2 549q8 365 -4 545v8v8v9q-1 3 -4 6q-10 21 10 31q5 1 12 8v10q-2 23 21 25q7 0 14 -5 q19 14 29 15q25 8 43 2q9 -4 16 -2q108 18 315 12q30 0 74 -1q65 -1 91 -3q5 0 31.5 -2t46.5 -3q55 -3 92 -10q34 -6 77 -20q237 -69 266 -299q22 -184 -63 -303q-28 -36 -101 -43zM315 1206q0 -21 11 -73q18 -89 18 -121q0 -14 -4 -41q0 -10 -4 -53q-2 -33 2 -48l4 -16 q47 -40 134 -44q89 -5 177 19q88 22 170 69q76 43 109 93q33 51 -6 117q-49 83 -185 104q-45 8 -76 10q-42 3 -91 3q-40 0 -72 2q-11 1 -60 10q-32 8 -49 8q-27 0 -78 -39zM309 1257q46 32 84 33q20 0 62 -8q36 -10 51 -10q24 -2 68 -2q50 0 94 -3q31 -2 82 -10 q156 -24 213 -124q21 -37 26 -81q4 -41 -20 -85q-38 -60 -121 -108q-88 -50 -182 -73q-89 -26 -193 -20q-100 6 -160 51q-16 14 -20 47q-4 19 -2 56l6 55q0 7 0.5 16t1 14t0.5 7q0 24 -18 110q-12 59 -11 92q0 5 2 13q0 4 2 18q6 22 29 17q5 -4 6 -5zM320 188q6 -4 20 -10 q19 -5 53 -10q67 -8 158 -8q199 0 262 21q65 21 114 71q50 50 68 106q43 133 -86 211q-82 48 -297 66q-161 14 -282 2l-2 -2q-13 -7 -15 -19q-1 -21 13 -63q20 -50 20 -80q0 -9 -18 -156q-7 -70 -8 -92v-28v-9zM383 686q108 4 231 -6q229 -21 320 -74q76 -45 104 -120 q27 -72 0 -140q-22 -68 -80 -126q-57 -57 -129 -81t-278 -24q-94 0 -164 8q-36 6 -61 12q-31 11 -43 27q-8 14 -9 31v36q0 6 9 93q18 146 18 151q0 21 -16 66q-18 52 -17 82q1 13 8 26q-2 2 -2 4q-4 22 19 27q16 2 24 2q24 11 29 16q16 16 31 -2q5 -5 6 -8z" />
<glyph unicode="C" horiz-adv-x="1454" d="M1276 487h-2q0 4 -4 5q-1 0 -4.5 1.5t-5.5 2.5q-14 5 -48 10q-24 4 -51 2q-15 -1 -24 -4q-10 -10 -21 -45q-7 -18 -14 -45q-8 -33 -12 -43q-41 -129 -99 -160q-199 -104 -393 -86q-237 24 -303 242q-35 122 -48 262q-12 129 16 276q27 143 99 250q89 136 285 164 q188 27 320 -64q40 -28 69 -71q31 -46 45 -79q2 -6 35 -87q8 -2 14 -2q27 -5 78 -10q66 -7 74 -7h18q0 5 -2 13q-2 9 -6 20q-5 18 -6 19q-45 156 -168 284q-125 128 -278 152q-175 29 -400 -88q-150 -77 -235 -170q-10 -13 -19 -39q-4 -11 -9 -24l-7.5 -19.5t-3.5 -9.5 q-242 -419 -29 -824l27 -53l29 -55q7 -16 26 -45q11 -17 37 -49q96 -105 340 -134q236 -27 373 39q176 84 276 318q21 51 27 80q10 48 4 73zM1067 1020q-55 149 -125 199q-114 79 -289 55q-177 -27 -254 -143q-68 -101 -92 -236q-27 -133 -16 -263q11 -131 49 -253 q55 -188 262 -209q181 -17 369 82q42 22 76 133q1 3 3 8.5t5 15t6 17.5l12 47q17 47 35 64q14 15 49 16q33 2 62 -2q36 -5 57 -14q35 -12 41 -35q13 -39 -2 -99q-7 -40 -29 -86q-105 -247 -297 -342q-149 -71 -399 -43q-259 30 -367 150q-16 17 -41 53q-15 21 -30 48 q-11 20 -29 58q-7 15 -16.5 33t-10.5 19q-223 427 29 864q7 12 18 47t29 53q90 100 248 183q236 122 428 92q166 -27 300 -164q133 -136 183 -305l4 -16q1 -3 3.5 -11t4.5 -12q0 -3 1.5 -13.5t1.5 -15.5q0 -17 -11 -30q-8 -10 -16 -11h-10h-29q-12 1 -76 7q-54 6 -80 10 q-41 6 -51 10q-20 6 -12 29q1 5 6 10z" />
<glyph unicode="D" horiz-adv-x="1431" d="M369 162q6 -2 8 -2q7 0 45 2q71 6 141 18q179 29 228 49q54 23 145 123q80 90 105 217q25 126 -5 250q-27 129 -100 234q-74 107 -174 164q-137 77 -412 24q-18 -80 -8 -213l6 -80l8 -92q2 -54 2 -74q0 -77 10 -292q9 -193 9 -291q0 -6 -6 -33q-2 -2 -2 -4zM344 1286 q286 55 438 -29q112 -63 191 -178q78 -113 108 -252q33 -128 4 -266q-27 -139 -116 -237q-101 -110 -162 -136q-45 -19 -236 -53q-72 -12 -145 -18q-44 -2 -53 -2q-3 0 -21 4q-14 4 -20 12q-12 18 -6 45q6 21 6 23q0 99 -9 292q-10 215 -10 291q0 20 -2 74l-8 90 q-5 50 -6 78q-8 137 8 215q-9 7 -10 14q-5 21 18 27h4q8 13 23 8q2 -2 4 -2zM127 1442q26 -76 20 -193q0 -9 -8 -94q-4 -51 -4 -92q0 -110 17 -354q16 -230 16 -359q0 -22 -4 -78l-10 -127q-1 -20 -3.5 -46.5t-4 -43t-1.5 -28.5v-33l9 4q2 0 4.5 1.5t7 3.5t8.5 3 q3 1 6.5 2.5t5.5 2.5l4 2t3 1q67 16 174 6q6 -1 21 -2.5t24 -2.5q6 -1 41 -5q41 -4 79 -4q472 0 693 281q28 34 35 104q4 24 6 66q1 36 4 59q67 631 -412 852q-128 60 -338 55q-45 0 -178 -8t-178 -8q-23 0 -23 23q0 22 23 22q38 0 174 8q113 8 182 8q218 4 359 -59 q508 -234 436 -897q-3 -23 -4 -59q-2 -41 -6 -68q-11 -84 -43 -127q-236 -297 -730 -297q-35 0 -86 6q-10 0 -38 3q-9 1 -24 2.5t-21 2.5q-98 10 -158 -6q-3 0 -12 -4q-19 -8 -23 -10q-19 -7 -27 -8q-23 -2 -34 8q-5 2 -7 8q-2 2 -2 4v8q-2 6 -2 13q2 20 2 41q0 3 9 121 l10 126q4 55 4 74q0 125 -16 355q-17 244 -17 358q0 43 4 96q8 83 8 92q6 108 -16 179q-7 20 13 27q22 8 28 -15z" />
<glyph unicode="E" horiz-adv-x="1353" d="M1178 1436h-31q-15 0 -113 -2q-120 -5 -340 -15q-495 -18 -526 -20q0 -134 -4 -261q-7 -224 -8 -245l-11 -266q-7 -193 -10 -250q0 -13 -3 -44q-3 -35 -9 -79l-8 -80q-6 -72 -6 -115q0 -19 2 -39l2 -12q4 -6 24 -10q27 -6 70 -6q84 -2 205 8q106 7 207 20l143 15 q30 2 98 -2q96 -1 146 -4q95 -2 137 2q30 0 45 4q6 0 12 2v10q0 20 -4 41l-2.5 15t-3 16t-2.5 12q-1 2 -2.5 5.5t-1.5 4.5l-6 2h-27q-10 -2 -27 -2q-4 0 -7.5 -0.5t-5.5 -1t-4 -0.5h-3q-81 0 -208 7q-137 8 -205 9q-65 1 -202 -14q-53 -7 -96 -6q-33 0 -55 6q-33 11 -41 35 q-16 42 -10 133q0 13 6 68q2 52 2 57q0 1 -2 39q-4 33 -4 53q-5 73 12 103q24 41 102 51q60 8 150 2q116 -12 152 -16q90 -11 108 -11q17 0 168 13q88 8 102 10q9 1 33 4q4 0 4 2q3 3 4 16q4 17 -8 56q-5 13 -14 28q-2 2 -3.5 4.5t-2.5 4.5l-2 2q-12 4 -50 6q-31 4 -92 4 q-44 0 -247 -6q-170 -5 -238 -8q-44 0 -82 2h-27q-2 1 -5.5 2.5t-4.5 1.5q-8 2 -14 6q-8 11 -12 26v9l-2 4l-1 2q-10 52 -12 203q0 74 4 118q4 61 15 82q6 9 14 13q6 2 10 2q18 4 21 4q51 3 71 4q85 4 209 6q283 4 357 -2l10 -2q11 -3 36 -9.5t52 -13.5q34 -9 47 -10 q17 -2 23 2v2q3 16 4 25q4 27 4 75q0 34 -2 74q-1 6 -4 19zM367 838q4 0 20 -2h78q91 4 237 8q201 6 250 6q62 0 97 -4q40 -1 61 -10q15 -6 31 -29q10 -14 16 -37q17 -47 12 -78q-6 -34 -20 -45q-5 -5 -8 -6h-6q-11 -3 -13 -4q-30 -4 -34 -4q-9 -1 -103 -10 q-153 -13 -172 -13q-23 0 -113 11q-50 6 -151 16q-84 6 -139 -2q-55 -7 -68 -31q-12 -17 -8 -76q0 -18 4 -51q2 -40 2 -43q0 -25 -4 -61q-4 -49 -4 -66q-4 -79 6 -114q2 -5 12 -9q15 -4 43 -4q41 -2 88 6q140 15 209 14q73 -2 209 -9q127 -7 205 -7l16 2q19 0 29 2h31 q16 -1 28 -8q10 -6 15 -16q0 -1 8 -21q5 -17 10 -48q4 -24 4 -48v-20q-5 -17 -12 -23q-9 -9 -37 -14q-19 -4 -51 -4q-41 -4 -141 -2q-50 3 -146 4q-67 4 -92 2q-18 0 -143 -15q-101 -13 -209 -20q-125 -10 -209 -8q-47 0 -76 6q-36 7 -53 27q-9 14 -10 34q-2 24 -2 45 q0 41 8 119q2 35 6 80l8 78q4 25 4 41q3 52 10 250l11 266q1 21 8 245q4 127 4 261q-10 0 -16 6q-7 7 -7 16q0 10 7 17q6 6 16 6v16q0 23 22 23q23 0 23 -23v-6v-10q50 1 524 20q220 10 340 15q98 2 113 2h35h10q4 0 10 -2q9 -4 14 -15q6 -6 7 -12q4 -27 4 -29q4 -31 4 -80 q0 -50 -4 -81q-2 -19 -6 -31q-6 -21 -17 -27q-17 -12 -53 -10q-13 1 -55 10l-37 10q-15 4 -33 11q-11 4 -20 4q-72 6 -353 2q-119 -1 -207 -6q-30 -1 -67 -4q-6 0 -14 -2q-6 -21 -7 -56q-4 -44 -4 -116q1 -141 13 -195v-8z" />
<glyph unicode="F" horiz-adv-x="1277" d="M354 840q13 -9 31 -13q30 -8 78 -8q74 -1 225 17l75 10q18 2 47.5 5.5t37.5 4.5q38 5 65 6q54 6 84 6q45 -2 62 -16q22 -16 12 -53q0 -6 -2 -12t-3 -7t-1 -4q0 -11 4 -31q1 -6 2 -13.5t1.5 -11.5t1.5 -8.5t1 -6.5q2 -30 -6 -48q-10 -28 -43 -32q-61 -9 -116 -9 q-25 0 -77 1.5t-61 1.5q-74 2 -113 0q-6 0 -24 -0.5t-49.5 -1.5t-63.5 -1q-112 -1 -172 -6q0 -3 2 -34.5t7 -109.5t10 -161q8 -137 4 -198q-5 -103 -35 -138q-7 -9 -16 -10q-6 -2 -11 -2q-17 -3 -24 -4q-5 0 -29 -1.5t-39 -2.5q-52 -2 -67 -2h-27q-4 0 -10 2q-9 0 -15 6 q-12 11 -14 29q-1 10 0 22q0 3 2 19l2 8q2 58 2 92q0 70 -1 110t-1 93q0 123 -7 453q-7 344 -1 544v31v33q0 47 8 69q6 15 27 21q11 5 28 6q30 7 82 8q77 4 246 2q102 0 258 -3t176 -3q22 0 51 -10q25 -9 55 -20q24 -9 52 -6t53 28h2h11q28 1 36 -23q8 -22 -6 -49l-4 -8 l-3 -6l-1 -2q0 -1 0.5 -4.5t1 -10.5t0.5 -14q2 -40 2 -49q1 -28 0 -49q-5 -32 -20 -43q-6 -6 -17 -6q-9 -3 -10 -3h-27h-90q-12 0 -99 2.5t-163 4.5q-225 7 -260 8h-88q-6 0 -12 -2q6 -21 6 -33q0 -33 -4 -78t-4 -76q0 -2 -0.5 -7.5t-1 -16t-0.5 -19.5l-7 -71q-4 -41 -4 -68 q-2 -14 -2 -18zM301 8q13 24 18 101q4 61 -4 192q0 6 -1.5 24.5t-4 49t-4.5 63.5q-8 118 -7 127q1 10 1 94q1 9 10 18q7 7 21 5q14 -1 20 -16q148 4 170 4q30 0 63 0.5t50.5 1t25.5 0.5q44 2 116 0q96 -2 133 -2q57 0 110 8h2q4 5 2 22q-1 4 -6 37q-4 24 -4 39q0 9 8 35 q-2 0 -10.5 1.5t-14.5 2.5q-32 0 -77 -4q-11 -2 -35.5 -4.5t-29.5 -3.5q-9 -1 -37.5 -4.5t-45.5 -5.5q-35 -4 -76 -11q-146 -18 -231 -16q-56 0 -92 10q-47 11 -64 37q-5 6 -6 10v4v2v3v8q0 2 2 22q0 27 4 68l6 71q0 9 0.5 18.5t1 14t0.5 6.5q0 33 4 80q5 58 5 74l-7 25 q-7 33 9 51l12 8h6q6 2 10 2q5 0 29 2h88q39 -1 262 -8l262 -6h88h21v6q2 15 0 39q0 7 -2 45q0 8 -0.5 16t-1 12.5t-0.5 6.5q0 17 10 34q-106 9 -203 9q-20 0 -176 3t-258 3q-169 2 -244 -2q-50 -1 -77 -6q-3 -1 -8.5 -2.5t-6.5 -1.5q-2 -20 -2 -41v-33v-31q-6 -202 1 -545 q7 -329 7 -452q0 -54 1 -95t1 -111q0 -35 -2 -93q0 -1 -2 -15q-2 -10 -2 -14h13q14 0 64 2l37.5 2.5t27.5 1.5z" />
<glyph unicode="G" horiz-adv-x="1499" d="M1143 528q-3 -12 -5 -30q-1 -12 2 -41q1 -9 5 -37q5 -84 -51 -158q-79 -106 -221 -150t-283 -10q-146 33 -232 142q-95 119 -135 245q-8 24 -11 51t-3 48q0 31 1 52t1 42q0 102 20 192q21 93 65 183q43 87 107 151q63 63 159 98q93 34 208 23q87 -7 169 -68 q76 -56 140 -141q13 -19 41 -69q17 -30 31 -41q29 4 35 4q5 0 67 2q38 0 60 2h2q0 1 -1 3t-2 4.5t-1 4.5l-2 6q0 1 -1 3t-1 3q-33 148 -136 260q-102 111 -241 121q-25 1 -88 13q-73 10 -92 12q-105 15 -166 -2q-147 -45 -261 -153q-113 -107 -173 -250t-75 -297 q-15 -155 28 -307q43 -151 143 -269q111 -131 289 -177q177 -46 337 17q114 47 218 129l16 23q21 30 49 26q9 -1 16 -8q1 -1 6 -7q3 -3 5 -11q2 -4 10 -25q7 -20 13.5 -39t8.5 -27l3 -8q18 -49 30 -67l4 -4q3 4 11 10q22 12 34 12q15 0 23 -8l2 2q4 0 4 6q7 22 12 142 q2 114 0 256q0 138 -8 245q-6 66 -8 80q-1 8 -4 21l-6 2q-20 2 -41 2q-39 4 -119 4h-86h-74h-43q-28 0 -133 -6q-48 -2 -76 -6h-6q2 -5 8 -13q7 -14 7 -16q4 -13 4 -37q-3 -11 -4 -39q0 -4 -1.5 -15t-1.5 -16v-2h3q92 15 348 15h2h6h20q18 0 25 -4q24 -8 29 -27 q2 -12 -2 -20q-1 -3 -7 -11q-3 -4 -10 -18l-12 -19zM1141 119q-9 -13 -19 -21q-109 -87 -229 -137q-177 -71 -373 -20q-193 51 -315 196q-106 124 -152 285q-50 165 -32 329q18 168 80 315q63 151 186 266q125 117 280 163q72 23 191 6q7 -1 92 -14q65 -9 84 -10 q159 -12 274 -138q115 -125 152 -284v-2l2 -6q0 -2 4 -17q4 -11 6 -20v-13q-1 -11 -10 -20q-6 -7 -14 -8q-6 -2 -11 -2q-10 -2 -22 -2q-20 -2 -62 -2q-14 0 -35 -1.5t-28 -1.5q-23 -1 -37 -4q-6 -2 -8 -2q-10 0 -15 4q-30 21 -57 66q-29 55 -35 63q-58 75 -129 128 q-74 55 -143 61q-121 12 -221 -35q-98 -46 -158 -135q-59 -87 -91 -197t-32 -227q0 -26 -1 -46t-1 -47q0 -17 3 -41q3 -28 7 -42q40 -123 127 -230q77 -92 204 -122q130 -31 253 8q126 39 197 133q44 57 39 121q0 8 -3 27q-4 26 -4 33q0 20 1 33q1 18 8 36q0 5 8 16l10 17 h-6h-8h-2q-252 0 -340 -15q-16 -2 -21 -2q-20 1 -32 17q-11 14 -11 38q0 7 2 39q4 27 4 35v19q-2 0 -4 6q-7 14 -10 18q-7 13 -8 23q-6 17 2 32q2 7 6 10t6 3h2q2 2 6 2q2 2 9 2q14 2 26 2q30 4 80 6q105 6 135 6h43h74h86q83 0 123 -4q28 0 43 -4q8 0 16 -2q13 -2 19 -8 q9 -5 16 -25q1 -11 6 -28q3 -16 8 -89q9 -126 9 -247q1 -141 0 -258q-4 -122 -13 -156q-7 -27 -32 -39q-21 -10 -39 -8q-10 2 -15 6v-2q-11 -23 -28 -27q-22 -4 -41 13q-13 13 -23 28q-16 28 -33 76q0 5 -26 74z" />
<glyph unicode="H" horiz-adv-x="1378" d="M1008 637q2 -2 4 0h-4zM973 877v4q4 58 4 69q1 72 0 207q0 65 -1 112t-1 97v70v20q2 6 2 8v4q7 12 10 15q22 19 55 4l25 -10q40 -2 78 -2q13 0 24 1t31 1h25q2 0 8 -2q4 0 10 -2q9 -1 17 -7l8 -12v-4v-6q0 -2 2 -12v-41v-119q-1 -147 -4 -195q-5 -53 0 -133 q4 -100 4 -137q0 -529 -15 -737l1 -4q0 -5 0.5 -14.5t0.5 -20.5q4 -40 -4 -58q-5 -9 -16 -14l-12 -4q-10 -2 -23 -2q-33 -2 -61 2q-40 2 -64 12q-41 12 -49 41q-7 31 -8 137q-3 86 -4 215q0 146 -4 201q0 12 -4 66q0 4 -2 10q-15 5 -29 6q-36 2 -72 2q-32 0 -131 -4 q-19 0 -44 -1q-36 -1 -89 -3q-68 -2 -96 -2q-112 -6 -135 -8q-9 0 -48 -4h-8q-4 -7 -6 -19q-2 -13 -8 -74q-7 -75 -8 -215q-1 -152 -4 -221q-2 -52 -6 -82q-4 -38 -15 -53q-15 -21 -51 -25q-24 -5 -59 0q-31 4 -58 11q-34 11 -45 22q-5 5 -10 17q-2 8 -2 14q-2 20 -2 37 q-2 46 -2 96q0 60 1 100t1 64q0 55 -12 156q-14 132 -15 163q-2 104 -2 166q0 124 1 196t1 167l-2 65q-1 66 0 109q0 63 6 102q4 19 11 39q11 25 28 31q31 9 92 4q63 -6 80 -4l23 8q37 12 55 -10l6 -10v-2v-7q2 -2 2 -12q2 -20 2 -39q4 -49 6 -117q8 -182 7 -196 q0 -4 -11 -60q-8 -45 -12 -63q-10 -72 2 -111l4 -4v2q8 -2 19 -2q9 0 63 2q67 0 195 4q160 5 205 5q105 1 133 0h6zM1217 1423h-7q-9 0 -55 -2q-73 -6 -94 -10q-12 -2 -20 5q-10 8 -11 18h-2v-68q0 -50 1 -97t1 -110q2 -137 0 -211q0 -5 -4 -74q-1 -6 -2.5 -14t-1.5 -10 q-1 -2 -2.5 -5.5t-1.5 -4.5q-4 -10 -12 -15q-16 -8 -33 -4q-6 0 -8 2h-2q-27 1 -127 0q-79 0 -207 -4t-193 -4q-58 -2 -65 -2q-13 0 -21 2h-8q-4 0 -10 2q-26 11 -33 37q-19 49 -4 133q1 21 12 66q7 48 8 55q1 21 -6 188q-2 70 -6 119q0 13 -2 29q-19 -8 -29 -8 q-21 -2 -88 4q-43 4 -67 -2q-5 -10 -6 -27q-7 -40 -7 -94q-2 -43 0 -108q0 -12 0.5 -23t1 -18.5t1 -13t0.5 -8.5v-3q0 -23 -2 -167q-1 -72 -1 -195q0 -8 3 -167q1 -39 14 -157q12 -111 12 -162q0 -24 -1 -64t-1 -100q0 -48 2 -94q0 -17 2 -31v-4q7 -2 17 -6q25 -7 51 -8 t47 0q6 0 14 2q0 2 1 7t2 10.5t1 10.5q4 28 6 78q4 131 5 221q5 178 8 218q5 54 10 79q8 28 8 29q6 17 19 25q6 5 16 6q8 2 16 2q45 4 50 4q22 2 137 8q28 0 96 2q53 2 89 3q25 1 46 1q96 4 131 4q38 0 78 -2q42 -5 57 -14q9 -6 13 -14q0 -1 1.5 -5t2.5 -6q0 -2 1.5 -10 t2.5 -14q4 -57 4 -70q4 -55 4 -203q1 -127 4 -213q1 -97 6 -124q1 -1 6 -3t9 -4q23 -7 51 -8q24 -4 53 -2h8q0 5 -2 21q0 11 -0.5 22.5t-1 17t-0.5 7.5q15 207 15 733q0 10 -5 135q-4 84 0 139q4 75 5 191v119v32z" />
<glyph unicode="I" horiz-adv-x="561" d="M381 1497q26 -1 49 -6q9 -1 17 -11q8 -9 6 -20q-1 -8 -12 -17q-8 -7 -19 -5l-33 4q-10 -107 -10 -273q1 -47 3 -150q1 -69 1 -159q0 -81 7 -201q7 -129 9 -182q0 -2 0.5 -8t1 -18t0.5 -24q1 -42 3 -104q1 -22 2.5 -60t1.5 -52q2 -102 0 -162q0 -29 -2 -57q0 -7 -3 -19 q-1 -14 -8 -22q-9 -9 -22 -10q-1 0 -8 -1.5t-11 -2.5q-7 0 -39 2q-26 3 -39 4q-5 0 -10 0.5t-8 0.5l-2 1q-1 0 -3.5 -0.5t-6.5 -1t-8 -0.5h-29q-19 -2 -31 0q-20 1 -32 12q-10 9 -15 33q-2 22 -2 39q-1 37 0 100q1 15 5 68q5 58 5 65q0 8 0.5 16t1 12.5t0.5 6.5 q15 235 15 860v309q0 1 -2 11q-6 27 14 38q23 13 51 3q6 -2 11.5 -4.5t8.5 -3.5l3 -1q31 -2 58 -4t38 -3l12 -1q7 4 17 4q8 0 14 -6zM352 -10v6q2 24 2 53q1 60 0 160q-1 49 -3 113q-1 58 -3 103q0 12 -0.5 24.5t-1 19t-0.5 8.5q-2 53 -9 182q-7 120 -7 201q0 90 -1 159 q-1 103 -3 150q0 168 10 279q-42 4 -54 4q-10 0 -20.5 0.5t-16 1t-7.5 0.5q-11 0 -29 8v-307q0 -643 -14 -864q0 -2 -0.5 -6t-1 -12.5t-0.5 -15.5q-1 -10 -3 -31.5t-3 -32.5q-4 -53 -5 -68q-2 -61 0 -96q0 -17 2 -31v-2h2q8 -2 21 0q15 0 26 1t23 1q2 0 5.5 -0.5t10 -1 t11.5 -0.5q8 0 36 -4q28 -2 33 -2z" />
<glyph unicode="J" horiz-adv-x="991" d="M831 1464q6 2 11 2q10 0 17 -9q7 -8 7 -19v-4v-17q0 -3 0.5 -8.5t1 -16t0.5 -18.5v-51l2 -10v-15l2 -2v-8q9 -86 9 -106q10 -379 -13 -635q-22 -214 -63 -342q-55 -166 -148 -219q-64 -38 -156 -53q-95 -15 -186 -5q-95 11 -178 57q-79 43 -117 117q-25 52 -36 222l-2 24 l-7 35q-1 22 0 37q1 22 13 39q5 9 22 14q17 3 23 4q30 2 53 2q11 -1 28.5 -2.5t22.5 -1.5q3 0 21 -4q14 -4 22 -12q16 -17 8 -51q0 -5 -0.5 -10t-1.5 -8v-3q18 -94 64 -170q56 -89 127 -90q36 -1 83 26q46 27 75 62q38 46 55 178q14 102 12 287q-1 110 -14 314l-13 210 q0 8 -5 70t-5 97q0 40 8 77q8 29 23 37q22 12 43 -2q4 -4 8 -7l8 -8q5 -4 9 -4q4 -1 30 0h60h57q12 2 20 0zM29 424v-8q-2 -11 0 -29q3 -24 4 -33q4 -19 4 -26q11 -156 33 -201q57 -121 252 -145q86 -11 170 3q85 14 141 46q75 44 121 190q40 126 61 332q23 243 12 629 q0 25 -8 108q0 2 -1.5 12.5t-2.5 16.5q-4 47 -4 92h-55h-62q-31 -2 -39 0q-16 4 -30 14q-7 -54 -7 -68q0 -5 6 -75q5 -60 5 -78q0 -14 12 -208q13 -204 14 -316q2 -187 -12 -293q-18 -147 -68 -205q-33 -42 -91 -77q-54 -33 -107 -31q-101 5 -172 114q-51 82 -72 191 q-2 12 4 39v2q-6 2 -8 2q-6 0 -21 1.5t-24 2.5q-21 0 -45 -2h-10z" />
<glyph unicode="K" horiz-adv-x="1441" d="M1257 1411q-24 1 -63 6q-66 6 -158 12q-3 0 -6 3q-51 -115 -239 -287l-103 -90l-110 -103q-49 -44 -76 -78l-105 -114l-49 -51q-8 -7 -18 -17q-3 -1 -7 -5q-3 -3 -8 -3q-11 -4 -18 0q-12 4 -16 14q-1 2 -2 5t-1 5q-2 6 -2 13q-2 11 0 29q0 5 1.5 14.5t1.5 13.5v15 q0 15 16 329q7 148 8 195v63q0 11 -2 19v2q-6 2 -14 2q-6 -1 -23 -3q-11 -1 -26 -1l-17 2q-22 2 -28 2h-15v-2v-15v-10v-4q-1 -42 -14 -123q-16 -93 -17 -116q-16 -154 -16 -416q0 -334 -2 -418q0 -34 -4 -94l-6 -105v-80q26 6 69 5q2 0 5.5 -0.5t10.5 -1t13 -0.5 q7 0 18 -1.5t15 -1.5h39q-2 8 -2 15q0 1 -1.5 23.5l-2.5 37.5q-2 96 -2 168q1 39 2.5 98.5t1.5 67.5q0 11 1 22t2 21.5t1 15.5q1 6 4 19q1 13 8 20q11 15 31 15q1 0 3 1t3 1q19 11 45 47l25 33l24 30l2 2q1 2 2.5 4.5t3.5 4.5l15 22q12 17 18 23q15 15 31 16q18 2 33 -12 q8 -8 20 -23q18 -24 39 -61l39 -66q18 -33 24 -39q99 -137 211 -276q85 -107 127 -150q61 -68 90 -84q13 -6 58 -2q12 0 39 4q32 2 37 2q2 0 22 -2l-35 56q-40 64 -67 100l-250 338q-101 140 -143 205q-20 33 -43 74q-3 6 -7.5 14.5t-5.5 11.5q-8 22 -2 33q1 5 8 12l9 8 l22 19q32 29 33 31q29 34 59 75q39 51 66 78q52 56 157 144q108 89 150 139q3 4 25 22l30 25zM330 768l28 29l103 114q26 29 80 80l114 105l101 88q190 176 231 282q11 25 35 15q2 0 4 -2q5 4 14 4q47 -3 158 -13q58 -7 80 -8l25 -6q5 0 11 -2q5 -2 7 -4q12 -8 12 -20 t-8 -25q-8 -14 -10 -16l-33 -27l-31 -27q-13 -9 -16 -12q-47 -55 -156 -147t-155 -140q-24 -26 -60 -73q-44 -61 -61 -80q-10 -10 -39 -35l-21 -17q1 -4 9 -14q11 -24 41 -72q36 -56 141 -202l248 -336q22 -29 71 -105q27 -40 39 -63l11 -25q2 -10 2 -14q1 -15 -7 -23 q-17 -20 -51 -14q-8 0 -12 1q-1 0 -4.5 0.5t-4.5 1.5q-2 1 -5 1q-1 0 -31 -2q-29 -4 -41 -4q-63 -5 -86 10q-37 18 -105 92q-55 59 -131 154q-120 151 -213 277l-26 45l-37 63q-24 41 -37 57q-6 8 -8 9q-2 -4 -8 -11q0 -1 -1.5 -3l-3 -4t-4 -5.5t-4.5 -7.5l-12 -19 q-2 -2 -22 -26l-25 -33q-34 -45 -61 -61q-7 -6 -21 -6q-2 -6 -2 -9q0 -4 -1 -14t-2 -20.5t-1 -20.5t-1.5 -68t-2.5 -96q0 -70 2 -166q0 -2 4 -57q0 -13 2 -21l4 -4q9 -7 10 -12q10 -16 0 -33q-10 -16 -28 -14q-10 0 -17 4l-8 4q-16 2 -53 2q-3 0 -35 2q-6 0 -13.5 0.5 t-11.5 1t-6 0.5q-35 2 -47 -2l-4 -2q-16 -20 -37 -16q-14 4 -20 16q-4 5 -6 15q0 2 -1 8l-2 12t-1 12q-2 30 0 88l6 103q4 61 4 94q2 84 2 418q0 263 16 420q9 60 19 120q11 72 12 115v6v11v12v18q0 5 2 11v4q1 7 8 14q8 6 21 8h12h29q7 0 27 -2q4 0 8.5 -0.5t7.5 -1.5h2h16 q12 1 27 4q46 0 63 -31q5 -6 6 -20q2 -10 2 -23v-67q-1 -47 -8 -195q-16 -311 -16 -327v-19z" />
<glyph unicode="L" horiz-adv-x="1185" d="M92 39q2 14 2 39v78q0 25 -0.5 48.5t-0.5 38.5t-0.5 27t-0.5 18v5q0 3 -1 65.5t-3 214.5t-4 322q-4 263 -4 354q0 83 4 119q0 19 2 39q1 21 8 29q11 17 37 22q12 4 35 2q5 0 33 -2q4 0 8 -0.5t6.5 -1t3.5 -0.5q65 0 109 2h2q2 0 4 2q1 0 3 1t3 1q14 2 18 2q10 -2 19 -10 q7 -7 8 -18q2 -24 -27 -47l-10 -11v-2q1 -17 2 -34.5t2 -26.5t1 -13q1 -11 -5 -75q-6 -62 -6 -70q-5 -94 -7 -218q-1 -71 1 -264q2 -200 2 -218q0 -8 -0.5 -29.5t-1 -63t-0.5 -81.5v-84v-2q17 7 26 8q121 12 334 0q240 -17 330 -12q2 0 5 1q4 1 5 1q30 6 41 -19q6 -15 0 -33 q-3 -8 -12 -20l-10 -17l-2 -2v-2v-18q0 -2 6 -45q4 -27 4 -47v-21q-5 -18 -17 -26q-10 -6 -22 -4q-4 0 -14 2q-7 1 -25 8q-6 2 -11.5 4.5t-9 4t-4.5 1.5l-10 2q-253 -10 -309 -10q-26 0 -55 -1t-108 -1q-48 0 -118 -2q-86 0 -168 2h-57q-16 2 -20 2q-5 0 -7 2q-2 0 -4.5 1 t-4.5 2t-3 1q-20 12 -22 31q-4 16 6 33q1 3 12 14q0 2 2 2zM1010 139q-89 -2 -320 13q-207 12 -325 0l-19 -11q-31 -17 -53 -2q-4 3 -10 11l-2 6v2v2v4v8v27v84q0 40 0.5 81.5t1 63t0.5 29.5q0 14 -2 218q-2 197 -1 267q2 125 7 219q0 5 2 23t3 30q3 34 3 50v4q-6 78 -4 108 q-1 15 6 25l2 2h-82q-2 0 -5 0.5t-9 1t-10 0.5q-28 2 -29 2q-15 2 -23 0l-2 -2v-4q-2 -16 -2 -35q-4 -36 -4 -119q0 -89 4 -352q2 -170 4 -322t3 -214.5t1 -65.5v-5q0 -6 0.5 -18t0.5 -27t0.5 -38.5t0.5 -48.5v-78q0 -40 -6 -55q-1 -7 -10 -19h4h55q82 -2 168 -2q70 2 118 2 q79 0 108 1t55 1q53 0 309 10q9 0 27 -6q2 0 10 -3t16 -5l7 -2q0 12 -4 31q-2 13 -3.5 24.5t-2.5 16.5l-1 6q-1 28 0 39q2 4 13 20v2z" />
<glyph unicode="M" horiz-adv-x="1654" d="M1268 958q-32 -94 -72 -198q-13 -35 -29 -88l-53 -164l-59 -174q-58 -167 -94 -248q-22 -50 -43 -84q-11 -19 -21 -29q-16 -14 -31 -16q-45 -6 -96 -6q-72 0 -100 18q-7 5 -8 8t-5 7q0 1 -1 3t-2 4.5t-1 4.5q-6 12 -12 33q-8 22 -31 94l-20 65q-12 43 -18 61q-7 19 -9 30 q-26 72 -92 219q-72 160 -96 221q-28 78 -37 108q0 -17 1.5 -55.5t2.5 -60.5q10 -286 4 -492q-4 -95 -4 -125q-6 -65 -8 -76q-1 -6 -2.5 -16t-1.5 -12q-6 -18 -15 -27q-21 -16 -63 -12q-2 0 -7 1l-10 2t-10 1q-3 0 -5.5 0.5t-4.5 1t-3.5 0.5h-2.5h-8q-8 0 -15 -1t-18 -1h-27 q-18 1 -30 10q-13 11 -19 35q-4 18 -6 47q-7 49 -8 121v207v766q0 10 -2 106t-2 107q0 3 -1 4l-2 8l-3 12q-6 33 12 51q22 17 51 11q8 0 12 -1q2 0 5.5 -0.5t4.5 -1.5q2 -1 7 -1q6 0 112 12q39 4 68 4q16 2 27 0q17 0 24 -4l10 -10q2 -2 2 -4q1 -3 7 -11q3 -7 10 -28l39 -99 l108 -299q154 -430 174 -499l45 -166q5 46 60 205q18 55 31 98l61 192l66 207l100 293q22 61 39 98q8 18 14 31q11 17 21 23q4 4 10 4h6h8q3 0 23 -2q8 -2 20 -2q2 -2 4 -2h4q8 0 107 6q39 4 65 4q13 0 27 -2q18 0 25 -6q6 -5 12 -15l4 -12q4 -27 4 -29q4 -28 6 -86 q4 -89 4 -254q0 -111 -1 -177t-1 -165v-84q0 -19 4 -63l11 -139q7 -77 12 -146q4 -55 8.5 -124.5t5.5 -86.5q2 -62 2 -73t-2 -25q0 -2 -2 -10q-2 -10 -6 -15q-9 -9 -27 -14q-2 0 -10 -2h-6q-49 -7 -127 -8q-36 0 -72 2q-17 1 -28 6q-24 8 -29 27q-4 15 -2 59q0 40 4 84 q0 11 7 87q1 15 2.5 28.5t1.5 19.5l1 6q15 174 15 645v19v24zM276 4h3q3 17 4 23q5 27 6 71q0 28 4 121q6 217 -4 490q-12 364 -51 454q-8 19 8 31l-4 10q-6 27 20 33q27 6 33 -20q82 -356 129 -478q31 -78 94 -219q70 -155 94 -225l11 -29l18 -61l21 -66l28 -94 q4 -9 12 -31v-2q22 -8 70 -8q44 0 84 6q2 0 2 2q6 6 14 19q19 31 39 75q41 94 95 246l59 174l53 166q16 53 29 88q14 34 33 88l37 107q28 80 32 90q15 43 21 72q0 6 2 14q0 17 2 33q2 10 2 12q4 11 10 16q12 12 27 11q13 -1 20 -15q2 -8 2 -12q2 -9 -2 -22q0 -10 -4 -22 t-4 -17l-2 -5q-2 -38 -2 -67v-148q0 -485 -14 -649l-1 -6q0 -6 -1.5 -19.5t-2.5 -28.5q-1 -12 -4 -43t-4 -44q-4 -44 -4 -80v-37q6 -2 13 -2q30 -2 65 -2q75 1 119 8h8v15q0 9 -2 69q-2 20 -6.5 90t-7.5 119q-2 26 -6.5 74.5t-6.5 71.5l-10 139q-4 45 -4 67v84q0 97 1 164 t1 178q0 164 -4 252q-1 55 -6 82q0 7 -2 17h-15q-27 0 -63 -4q-28 -2 -56.5 -3.5t-42 -2.5t-16.5 -1h-1q-1 0 -2.5 0.5t-4 1t-4.5 0.5q-4 0 -8.5 0.5t-7 1t-4.5 0.5t-5 1t-5.5 1.5t-4.5 0.5q-2 -4 -12 -27q-13 -29 -37 -94l-98 -291l-66 -207l-61 -193q-7 -23 -14 -43.5 t-12.5 -35.5t-6.5 -19q-1 -3 -14 -45l-17 -49q-8 -19 -14 -42q-8 -30 -11 -49q-3 -21 -3 -42v-2v-8v-13v-12v-14q0 -15 -2 -35q0 -6 -2 -14q-1 -5 -7 -11q-9 -13 -24 -12q-11 2 -19 8q-1 3 -4 6q-4 6 -6 13q-3 7 -10 28q-9 25 -27 88l-47 170q-17 66 -170 494l-110 299 l-37 98q-6 14 -11 23q0 3 -8 1q-5 -1 -10 -1q-27 0 -63 -4q-30 -3 -61 -6.5t-43.5 -5t-14.5 -1.5l-4 1q-5 1 -14 2.5t-19 3.5h-2q6 -24 6 -35t2 -107t2 -106v-766v-205q2 -74 6 -119q5 -24 6 -39q2 -2 2 -4h21l47 2l20 -2q15 -4 25 -4q14 -1 18 0z" />
<glyph unicode="N" horiz-adv-x="1411" d="M1196 12q4 31 4 33q0 8 1 27t2 37.5t1 37.5v175q0 137 7 365q8 261 8 368q0 22 -9 141q-10 87 -8 147q1 50 8 70h-18q-13 0 -27 -2q-73 -2 -108 2q-1 0 -17 2q-4 1 -10.5 2.5t-7.5 1.5h-4q-2 -6 -2 -12q-1 -27 0 -76q6 -117 18 -233q6 -76 25 -243q16 -138 16 -150 q8 -90 6 -226q-1 -67 -6 -106q-6 -33 -8 -39q-2 -11 -6 -17q-6 -13 -25 -18q-10 0 -14 1q-7 2 -8 3l-4 2l-6 6q-4 4 -7 8q0 1 -16 25l-49 76q-70 116 -96 164q-53 97 -207 350q-143 235 -201 340q-1 2 -14 29l-21 45l-18 41l-2 6h-19h-75q-35 0 -55 -1t-48 -1h-24 q-10 0 -37 6v-6q0 -9 2 -31q4 -49 4 -155q0 -88 2 -134q5 -157 9 -443q1 -85 2.5 -164t3 -136t1.5 -74q0 -29 11 -147l10 -91q0 -10 2 -18h12q8 0 34 -3t36 -3q30 -2 37 -2h4v8q2 28 2 59q0 12 -2 64q0 11 -0.5 21.5t-1 15.5t-0.5 6q0 77 -7 343q-6 228 -6 343v74v92 q0 37 2 69q2 20 2 23q1 6 7 14q6 14 24 19q8 0 11 -1q2 0 5 -1t5 -2l2 -2l4 -4l3 -3q1 -1 3 -4l8 -12l31 -49l123 -193q53 -83 207 -301q147 -209 204 -309q16 -30 62 -129q39 -87 51 -104q2 0 4 -2q13 -3 21 -4q33 -7 65 -11q38 -2 66 0h16zM1282 1415q-13 -18 -14 -27 q-3 -25 -4 -45q-2 -51 6 -141q10 -107 10 -147q0 -140 -7 -368t-7 -365v-175q0 -5 -4 -106q-1 -9 -3 -22.5t-2 -16.5l-4 -16q-6 -14 -10 -19q-12 -9 -31 -14q-16 -2 -28 -2q-33 -1 -76 0q-49 5 -74 10q-20 5 -30 10q-19 6 -27 19q-13 19 -59 119q-37 84 -60 124 q-69 119 -201 304q-151 210 -211 303l-114 182v-4v-92v-74q0 -115 6 -343t6 -343q0 -1 0.5 -6t1 -15t0.5 -21q2 -50 2 -65q0 -33 -2 -65q-2 -16 -6 -27q-6 -20 -21 -28q-14 -9 -38 -9q-9 0 -41 2l-13 2q-13 2 -23 3q-6 0 -13.5 0.5t-11 1t-5.5 0.5h-6q-6 -2 -10 -2 q-26 -2 -41 12q-10 8 -11 18q-4 11 -4 13t-1 8l-2 12t-1 12q-2 13 -10 92q-10 109 -10 152q0 17 -1.5 74t-3 136t-2.5 163q-3 209 -10 444q-2 44 -2 132q0 106 -4 153q-2 24 -2 31v24v8v6q0 12 10 19q21 18 58 14q8 -2 13 -3l10 -2q2 -1 8 -1h24q28 0 48 1t52 1h78h27 q4 0 10 -2h6q9 -2 15 -8q3 -1 8 -8q0 -1 1 -3t1 -3q2 -2 8 -17l21 -43l18 -43q12 -25 12 -26l201 -338q137 -225 207 -353q33 -57 96 -159l31 -50q0 6 1 20.5l2 29t1 28.5q2 131 -6 219q0 2 -17 149q-16 142 -24 245q-14 136 -19 233q-2 53 0 84q0 2 4 29q4 19 13 28 q14 14 35 15q4 0 26 -2q18 -4 21 -4l8 -2q33 -4 102 -2q84 4 109 4q31 0 31 -31q0 -21 -19 -29z" />
<glyph unicode="O" horiz-adv-x="1564" d="M1282 1120l-6 13q-30 67 -51 90q-16 18 -39 30q-36 19 -58 35q-130 111 -231 141q-108 33 -270 3q-123 -22 -238 -76q-112 -51 -174 -125q-99 -121 -140 -291q-40 -167 -19 -336q21 -165 94 -309q42 -81 76 -129q36 -51 83 -80q269 -166 502 -131q233 34 430 276 q55 71 94 156q42 91 56 170q4 20 4 52q0 36 -1 50q-3 40 -5 57q-1 9 -3 21t-3 20.5t-1 14.5q-15 167 -59 254q-26 48 -41 94zM1196 950q-21 -2 -29 17q-9 16 -47 75q-9 9 -16 23l-4 4q-100 126 -235 169q-134 42 -290 -24q-17 -8 -45 -18q-24 -9 -46 -18q-14 -6 -31 -23 q-208 -198 -152 -590q2 -20 2 -33q0 -6 0.5 -12t1 -9t0.5 -5q2 -25 12 -43l45 -78q13 -19 45 -61q33 -42 56 -58q102 -67 242 -96q155 -30 241 18q58 34 121 136q62 101 102 229q37 118 45 224q8 109 -18 173zM1167 1081l25 -24q30 -27 47 -53q31 -53 37 -132q6 -81 -7 -164 q-13 -84 -42 -173q-43 -136 -110 -248t-142 -152q-107 -62 -283 -24q-155 30 -262 106q-8 5 -24 17q-14 11 -25 24l-18 21q-2 2 -9 11t-12 16q-14 21 -18 26l-17 28q-10 18 -15 25q-8 12 -16 26q-12 21 -12 23q-15 26 -20 68q0 2 -0.5 5.5t-1 10t-0.5 12.5q0 13 -2 27 q-27 186 10 354q38 171 162 289q19 19 43 31q22 11 56 24q32 12 40 17q122 57 236 44q115 -13 212 -74q95 -60 168 -161zM1151 1364q69 -38 106 -71q37 -34 54 -70q3 -5 26 -72l2 -8q22 -44 50 -66q24 -18 6 -43q-1 -4 -6 -6q43 -93 55 -252q1 -12 6 -52q2 -19 5 -60 q1 -15 1 -57q0 -37 -4 -62q-17 -90 -60 -184q-41 -89 -102 -166q-213 -263 -471 -302q-253 -39 -543 140q-39 23 -77 69q-37 45 -57 78q-14 23 -46 86q-77 149 -101 330q-24 180 19 358q43 180 152 314q72 88 195 143t253 82q174 33 301 -6q98 -30 216 -119q10 1 20 -4z" />
<glyph unicode="P" horiz-adv-x="1372" d="M373 838q8 -6 14 -7q14 -5 47 -10q59 -8 139 -8q85 0 146 4q68 6 86 12q53 20 98 59q42 36 53 87q12 45 5 74q-6 22 -39 63q-102 119 -193 137q-59 14 -172 2q-145 -16 -180 -16q-9 -90 -10 -203q0 -67 2 -137q0 -2 4 -45v-12zM356 1290q8 6 19 6q15 0 176 17 q120 12 190 -2q112 -24 226 -158q42 -51 53 -88q13 -47 -2 -107q-17 -63 -72 -113q-54 -49 -121 -73q-26 -10 -100 -16q-65 -4 -152 -4q-85 0 -149 8q-34 6 -57 12q-31 12 -43 29q-9 14 -13 41q-4 44 -4 51q-2 74 -2 139q5 178 12 234q1 12 13 20q10 7 22 6q2 0 4 -2z M389 565q-3 -38 -8 -229v-37q0 -39 1 -66t1 -71q1 -66 0 -103q0 -19 -2 -39q-2 -10 -2 -14q-5 -14 -10 -20q-12 -10 -37 -15q-16 -2 -33 -2h-33h-18l-3 -1q-3 0 -8 -0.5t-11 -0.5q-26 -2 -34 -2h-34q-7 0 -17 2q-11 1 -19 9q-6 6 -13 20q0 2 -2 6.5t-3 7.5q-4 15 -6 39 q-2 18 -8 105q-4 89 -4 172q0 146 12 596q11 354 11 360q5 79 6 121q0 7 1 14.5t2 14.5t1 10q2 19 6 26q7 14 22 21q10 1 25 6q19 4 59 4q51 4 170 2q211 -5 289 -14q24 -3 84 -8q52 -4 98 -12q25 -4 82 -18q56 -14 97 -35q38 -20 77 -54q59 -51 94 -134q36 -86 42 -167 q12 -163 -72 -274q-85 -112 -234 -173q-127 -52 -288 -64q-158 -12 -281 17zM319 33q3 21 3 28q2 35 0 101q0 17 -2 71q-1 27 -1 68v35q5 190 11 285q0 13 10 20q11 8 22 8q23 -2 27 -22h10q118 -29 266 -19t271 62q132 52 205 149q72 95 61 236q-6 68 -37 145 q-30 73 -78 115q-29 26 -65 45t-84 29l-74 16q-23 6 -94 12q-26 2 -55 5t-33 3q-84 10 -283 15q-102 1 -163 0q-36 -2 -54 -6h-4q0 -5 -2 -35q-1 -41 -6 -119q0 -36 -10 -360q-13 -486 -13 -594q0 -58 5 -168q6 -85 8 -101q0 -4 4 -30h26q7 0 35 2l19 2h22h31q12 0 22 2z " />
<glyph unicode="Q" horiz-adv-x="1593" d="M817 348q1 4 12 19l23 36q19 27 31 37q23 25 47 23q22 -1 57 -29q4 -4 10.5 -10t19.5 -17.5t23 -21.5l33 -29q71 119 95 276q24 154 -14 308q-38 155 -136 250q-68 70 -250 70q-180 0 -289 -80q-76 -55 -110 -113q-16 -26 -62 -147q-59 -162 -41 -311q18 -144 103 -257 q83 -106 216 -151q132 -45 294 -6q-5 4 -21 14q-5 4 -31 18q-10 5 -32 21q-17 10 -27 18q-3 2 -10 15q-7 15 -6 28q6 22 26 29q8 6 25 8q2 0 10 2h4zM840 291l51 -31q40 -25 57 -45q16 -24 4 -49q-11 -19 -39 -25q-185 -51 -340 -2q-156 49 -251 176q-96 123 -117 287 t45 338q52 136 65 158q38 65 127 131q125 92 326 92q206 0 295 -86q108 -111 150 -280q42 -171 16 -336q-27 -168 -107 -299q1 0 5 -1.5t6 -1.5q12 -5 19 -14q7 -10 4 -22q-3 -13 -13 -20q-9 -7 -23 -5q-17 5 -37 16q-16 -6 -28 3q-13 10 -13 26q-18 15 -45 39 q-40 39 -50 46q-11 8 -19 13l-2 -2q-12 -8 -23 -28q-3 -3 -22 -35q-16 -24 -21 -29q-8 -8 -20 -14zM1313 -76l14 15l14 16t11 13t6 7l-4 13q-12 17 -47 45q-52 43 -62 55q-39 41 -33 76q1 6 7 16l6 6l10 11l29 26q46 42 49 47q135 196 106 533q-17 191 -108 338q-5 9 -29 39 l-2 4q-14 0 -25 12q-13 17 -50 72q-37 54 -57 78q-26 30 -56 53q-86 62 -214 83q-130 21 -260 -1q-137 -21 -247 -80q-113 -60 -174 -148q-64 -91 -107 -303q-43 -199 -31 -329q10 -110 99 -295q192 -396 702 -367q34 1 135 49q71 31 72 31q14 6 29 12t28 4q22 -2 60 -28 l65 -52l58 -47zM1257 1339q-2 -21 35 -71q1 -2 37 -49q26 -31 35 -45q99 -159 117 -367q30 -360 -119 -573q-16 -19 -57 -58l-27 -24l-2 -2q2 -8 14 -19q7 -10 56 -51q40 -32 57 -57q33 -46 4 -84q-7 -10 -35 -41q-5 -5 -12 -13.5t-10 -11.5l-11 -10q-3 -3 -5 -4 q-1 0 -3 -1.5t-4 -2.5q-10 -2 -16 -2l-13 4q-2 2 -4 2l-8 6l-18 16l-58 47q-10 7 -23 17.5t-22 17.5t-16 12q-20 14 -31 19q-2 0 -4 -2q-4 -1 -22 -8l-70 -33q-109 -52 -158 -53q-549 -30 -760 399q-95 194 -106 319q-12 140 31 347q47 226 118 327q68 97 194 164 q124 66 269 88q135 24 278 0q139 -23 240 -94q39 -27 80 -80q11 8 23 6q13 -2 20 -12q8 -11 6 -23z" />
<glyph unicode="R" horiz-adv-x="1441" d="M389 580q-4 -27 -4 -29q-2 -38 -2 -78q-2 -51 -1 -113q1 -52 1 -94q1 -133 -6 -200q-5 -48 -15 -76q-15 -40 -40 -51q-20 -8 -48 -7l-16 2h-12q-5 0 -15 -2q-14 0 -16 -2q-27 -1 -47 7q-17 8 -27 28q-5 13 -10 35q-8 33 -14 86q-1 34 -6 87q-1 14 -2.5 29t-2 21t-0.5 8 q-9 105 -10 188q-1 97 3 197q2 44 12 187l14 196q7 106 12 185q0 5 -6 155q-4 48 -2 91q0 48 12 69q4 9 17 14q1 0 4.5 2t5.5 3q10 2 18 2q4 0 14.5 1l21 2t20.5 1q27 0 161 -2q200 -6 277 -15q21 -5 91 -12q62 -7 110 -14q33 -5 96 -20q54 -13 102 -32q229 -88 250 -317 q15 -168 -31 -260q-23 -48 -110 -104l-64 -41l19 -15q60 -44 78 -90q24 -63 51 -313q12 -117 12 -189q0 -45 -4 -69q-6 -35 -23 -51q-24 -19 -67 -19q-5 0 -29 2h-20l-2 -1q-2 0 -6.5 -0.5t-8.5 -0.5q-28 -2 -30 -2q-24 -2 -33 -2q-24 0 -35 10q-24 18 -29 64q-2 36 2 80 q0 4 2 15t4.5 30.5t5.5 40.5q10 78 11 114q8 122 -21 194t-112 87q-45 10 -277 4q-100 -1 -166 -8l-53 -6q-2 -2 -4 -2zM1214 25q0 1 2 6.5t3 9.5q4 20 4 59q0 60 -13 183q-27 243 -47 299q-10 28 -57 61q-15 11 -33 21v2q-23 -16 -41 2q-21 22 0 45q2 2 4.5 4t5.5 4.5 t5 3.5q3 3 4 6l6 8v2q11 25 37 19l61 39q71 46 90 82q35 74 23 227q-17 191 -211 264q-43 17 -95 29q-53 12 -92 18q-74 12 -106 16q-76 10 -92 11q-62 8 -271 14q-132 2 -157 2q-44 -2 -51 -2q-3 -30 -3 -33q-2 -30 3 -86q6 -151 6 -161q-3 -56 -14 -188q-10 -129 -14 -195 q0 -9 -4 -76.5t-6 -106.5q-4 -99 -3 -193q1 -80 10 -185q0 -4 3 -57q3 -59 7 -87q6 -51 12 -78q1 -12 7 -22h12h2q2 1 5.5 1.5t6.5 0.5q16 2 21 2h18h6q8 -2 11 -2q10 0 18 2q3 4 8 14q5 19 10 62q8 74 7 194q0 42 -1 94q-1 62 1 113q0 42 2 82q5 41 12 59q8 15 24 21 q7 4 23 6q12 3 57 8q22 1 170 8q236 6 291 -4q203 -38 182 -346q-1 -39 -11 -116q-2 -19 -5 -40t-4.5 -32t-1.5 -15q-4 -39 -2 -69q2 -16 2 -17h4h25q24 5 26 5q24 2 25 2q12 0 24 -1t25 -1q16 0 24 2zM367 797h4h71h113q34 0 68 -1t71 -1l64 4q41 1 67 8q36 9 58 15 q31 8 58 26q24 16 46 39q60 57 60 123q-1 56 -48 118q-46 59 -116 95q-72 37 -138 39q-64 1 -196 -5q-178 -8 -195 -8q17 -164 17 -379q0 -1 -0.5 -4t-1 -8t-0.5 -10q0 -19 -2 -33v-18zM324 1296q11 15 26 15q16 0 197 8q117 6 198 4q81 -1 165 -46q85 -45 137 -110 q60 -76 61 -155q0 -93 -76 -170q-31 -31 -73 -52q-46 -23 -73 -32q-33 -11 -89 -17q-43 -5 -80 -7q-22 -1 -88 0q-44 1 -74 1h-20h-43h-50h-71h-23h-4h-2h-2h-2h-2h-4q-7 2 -15 10t-10 21q-2 10 -2 16v35q2 16 2 35q0 5 0.5 9t0.5 7l1 2q0 228 -18 392q-1 14 6 23q8 9 20 11 h7z" />
<glyph unicode="S" horiz-adv-x="1331" d="M1151 1010q-8 18 -8 28q-15 251 -201 379q-88 59 -232 77q-141 18 -247 -17q-70 -23 -144 -82q-69 -55 -126 -133q-120 -171 -87 -322q21 -101 152 -164q73 -35 293 -92q215 -56 297 -102q149 -83 156 -222q8 -130 -115 -215q-107 -75 -260 -77q-105 -2 -187 30 q-84 34 -150 118q-64 82 -75 204q-48 16 -76 8q-24 -6 -30 -39q-8 -40 6 -92q16 -60 41 -107q49 -89 152 -149q104 -60 231 -78q128 -17 244 10q117 27 196 95q61 55 106 198q78 261 -28 379q-76 84 -295 133q-7 1 -18.5 3.5t-32.5 7t-37 7.5q-56 11 -98 21q-27 6 -81 23 t-83 32q-81 40 -119 107q-41 75 -25 182q18 122 174 166q123 35 240 6q83 -21 156 -88q74 -68 108 -145q0 -1 2 -8t5.5 -19t7.5 -26q6 -21 8 -25v-2h6h12q8 -1 125 -8q28 -2 37 -2zM279 412q18 -144 116 -214q99 -71 233 -69q133 1 227 68q93 66 87 159q-6 106 -123 172 q-83 45 -282 97q-222 56 -306 96q-157 77 -186 207q-39 175 98 368q60 84 140 146q80 65 159 92q117 41 275 21q157 -19 258 -89q213 -144 229 -424q0 -2 10 -18q17 -34 7 -57q-5 -9 -15 -15q-3 -1 -6 -4h-8h-6h-19q-11 0 -57 2q-105 6 -125 8h-8h-10q-20 1 -37 15 q-11 8 -17 28q-1 3 -10 29q-11 44 -12 45q-28 66 -92 124q-62 56 -131 73q-99 27 -207 -4q-117 -33 -129 -115q-15 -86 16 -143q29 -50 94 -84q20 -10 75 -29q35 -12 75 -20l96 -21q67 -13 88 -18q239 -52 328 -152q131 -146 41 -436q-46 -161 -123 -227q-91 -80 -221 -110 q-131 -30 -269 -9q-136 18 -254 85q-117 67 -174 173q-76 135 -53 239q15 68 72 86q58 17 149 -22q29 -12 17 -41q-5 -8 -10 -12z" />
<glyph unicode="T" horiz-adv-x="1318" d="M504 25q3 0 10.5 -2t13.5 -3q27 -1 70 0h43q22 78 16 203q-1 33 -9 114t-9 124q-2 69 0 149q1 44 7 180q1 25 2.5 58t3 55t1.5 37q0 25 -4 150q0 18 -0.5 39t-1 32.5t-0.5 16.5v30q0 7 2 13v4q2 8 6 14q7 8 21 14q1 0 6 1.5t8 2.5q21 6 43 7q34 5 113 10q142 8 192 8 q2 0 5.5 -0.5t10.5 -1t13 -0.5q22 -1 43 -4q30 -2 35 -2v10v37q0 1 2 25q0 6 0.5 13t1 11t0.5 6v27q-1 0 -4 1l-6 2t-6 1q-23 5 -74 10q-98 14 -129 15q-228 14 -477 22q-187 6 -287 2q-65 0 -96 -4q-6 -1 -14.5 -2.5t-10.5 -1.5v-21q0 -6 0.5 -13t1 -11t0.5 -6 q-1 -21 -6 -33q-8 -20 -14 -59q-2 -28 -2 -35v-4q2 0 10 -2q15 -4 45 -4q55 -2 131 2q108 6 133 6q23 0 51 -2q26 -1 43 -13q11 -9 15 -16q1 -5 6 -16q2 -6 8 -37q10 -53 16 -105q14 -138 15 -178q0 -47 -1 -96q-1 -27 -1.5 -91.5t-0.5 -97.5q-1 -114 -3 -198q0 -185 4 -281 q2 -62 6 -92q0 -10 2 -20zM709 1198v-20q0 -4 0.5 -14.5t1 -31t0.5 -40.5q4 -128 4 -152q0 -15 -1.5 -37.5t-3 -55.5t-2.5 -58q-8 -175 -8 -178q-1 -79 0 -150q0 -26 9 -121q9 -99 10 -113q6 -120 -12 -202h20q31 0 31 -31t-31 -31q-3 0 -10 -0.5t-20 -1t-25 -0.5 q-60 -2 -74 -2q-45 -2 -74 0q-44 5 -61 16q-12 8 -17 31q-4 12 -6 31q-5 33 -6 98q-4 100 -4 283q2 86 3 198q0 33 0.5 96.5t1.5 90.5q1 49 1 98q-1 50 -14 170q-6 49 -14 100q-4 20 -9 31v2h-10q-22 2 -45 2t-131 -6q-78 -4 -135 -2q-35 0 -55 4q-28 6 -43 21 q-17 15 -17 47q0 21 4 45q7 64 17 74l2 10q0 2 -0.5 5t-1 9t-0.5 12q0 17 2 31q2 23 12 35q10 10 31 16q15 5 35 6q42 5 100 5q101 4 291 -2q214 -7 479 -23q43 -1 133 -14q38 -5 78 -13q19 -2 29 -6l12 -4q12 -6 16 -16q8 -13 8 -35v-33q0 -1 -2 -31q0 -4 -0.5 -7.5 t-1 -5.5t-0.5 -4v-3v-39q0 -13 -2 -27q-2 -10 -2 -14q-4 -12 -12 -18q-8 -8 -16 -9q-6 -2 -9 -2h-18q-5 0 -43 2q-31 4 -43 5q-6 0 -11.5 0.5t-8.5 0.5l-3 1q-31 0 -188 -9q-90 -5 -111 -8q-18 -4 -30 -6z" />
<glyph unicode="U" horiz-adv-x="1409" d="M283 1450q2 -5 8 0h-2h-6zM166 1440v-2q0 -2 -0.5 -5.5t-1 -10t-0.5 -11.5l-8 -80q-3 -34 -6.5 -69.5t-5 -50t-1.5 -17.5q-16 -136 -22 -253t-5 -249q2 -146 27 -262q27 -124 76 -223q51 -100 168 -160q115 -59 261 -65q142 -6 265 41q124 47 181 141q105 170 135 594 q23 304 2 624l-10 2q-37 10 -52 13q-23 4 -43 6v-10q-2 -16 -8 -93q-14 -140 -14 -155q-6 -57 -6 -223q2 -213 -2 -287q-7 -167 -41 -275q-40 -138 -125 -194q-101 -71 -287 -76q-172 -4 -264 127q-73 105 -96 297q-13 156 -12 229q2 89 9 218q7 120 7 167q0 18 1 41t1 68 v80q0 5 -4 106q-1 7 -3 17l-1 10q-2 -2 -5 -2q-32 -8 -43 -8q-1 0 -4.5 0.5t-9.5 1t-12 0.5h-25q-10 0 -16 -2zM1286 1417q6 -7 6 -16q21 -337 -2 -649q-30 -436 -143 -621q-69 -110 -207 -165q-136 -54 -294 -46q-154 7 -290 76q-133 66 -190 182q-54 111 -82 238 q-28 130 -30 276q-1 138 5 255q6 101 23 255q2 8 12 135l8 80q0 5 0.5 11.5t1 10t0.5 5.5t1 3.5t1 2.5l1 2v4l2 6q15 40 71 41h33q5 0 10 -0.5t7 -0.5l3 -1q5 0 27 6q30 7 51 0q16 -7 23 -20q4 -15 4 -17q5 -17 6 -40q4 -40 6 -113v-80q0 -45 -1 -68t-1 -41q0 -53 -7 -172 q-6 -104 -8 -212q-1 -86 9 -222q22 -177 86 -268q76 -106 215 -102q166 5 254 63q65 44 98 164q32 105 39 260q4 73 2 283q0 168 6 231q0 4 15 154q6 74 8 92q2 28 2 31q2 8 2 10v4q0 2 2 4q1 6 8 14q6 4 17 6h6h8q4 0 18 -2q7 -1 25 -4.5t29 -5.5q32 -6 53 -12 q31 -7 37 -10q9 -4 14 -17z" />
<glyph unicode="V" horiz-adv-x="1437" d="M735 0l13 37l38 131l66 221q116 392 371 1030q-28 4 -52 6q-48 5 -69 5h-25h-2l-2 -3q-6 -7 -12 -24q-10 -20 -35 -86q-33 -85 -90 -264l-59 -189l-54 -176q-5 -17 -12 -39t-10.5 -34t-5.5 -19q-31 -91 -50 -153q-35 -117 -40 -130q-13 -39 -19 -63v-2v-6v-4 q2 -15 -2 -21q-2 -12 -12 -18t-23 -6q-13 1 -24 12l-9 12q-4 7 -16 31q-16 28 -39 84l-26 59l-23 55q-13 27 -14 29q-12 25 -23 62q-19 63 -29 98l-28 106q-4 19 -15 64t-17 68q-15 62 -32 126q-49 193 -84 295q-22 65 -39 101q-17 34 -26 39q-6 4 -27 6q-22 4 -53 2 q-27 0 -43 -6q-1 0 -3 -1t-3 -1q-7 -66 33 -211q35 -129 108 -314q50 -133 127 -311q27 -63 100 -242l76 -200l41 -107q6 -17 14 -33q8 2 13 2q65 2 139 -14zM639 307l8 27q12 34 41 130q24 78 49 152q8 24 29 93l53 176l58 186q57 175 90 266q23 60 39 93q6 13 16 30 q11 18 22 23q11 7 29 8h29q35 0 76 -4q30 -5 74 -9q13 -1 25 -2.5t17 -1.5l6 -1q14 -1 23 -12q7 -9 6 -22q-2 -14 -11 -22t-22 -6q-2 0 -10 2q-267 -671 -377 -1040l-63 -221l-39 -134q-6 -16 -14 -43q-2 -4 -4.5 -8.5t-2.5 -5.5t-1 -3t-1 -3q-4 -7 -12 -12q-18 -15 -43 -4 q-9 2 -10 3t-4 1q-68 16 -127 14l-10 -2q-22 -6 -39 6q-9 7 -13 14l-6 13q-10 25 -14 37l-43 110l-76 201q-24 63 -100 239q-73 171 -127 312q-74 187 -111 319q-45 165 -35 240q6 32 47 47q23 10 62 10q38 2 63 -2q38 -5 52 -14q26 -18 49 -66q20 -39 43 -106 q36 -108 84 -299l32 -129l33 -129l27 -107q20 -76 26 -93q11 -33 23 -58q0 -2 1.5 -5.5t4 -10.5t4.5 -13l25 -53l26 -62z" />
<glyph unicode="W" horiz-adv-x="1984" d="M1442 25q0 1 1 3t2 4.5t1 4.5q5 37 8 45q18 41 47 98q33 63 43 94q25 73 40 143q19 91 34 185l22 152q58 325 142 653q-72 -6 -135 6q-4 -7 -13 -14v-15q-10 -50 -20 -120q-4 -24 -12 -66.5t-11 -58.5q-5 -24 -38 -140q-31 -109 -37 -176q-6 -51 -39 -189 q-8 -33 -16.5 -68t-12.5 -50t-4 -18l-27 -115l-16 -70q-5 -18 -8 -24q-1 -2 -4 -9q0 -1 -2 -3.5t-3 -4.5q-6 -8 -16 -12q-29 -6 -47 21q-1 6 -6 12q-4 5 -4 8q-18 30 -35 75q-18 48 -25 75q-10 40 -20 85q-10 46 -19 70q-2 7 -4.5 20t-7 34t-8.5 40l-39 172l-41 181 q-44 190 -63 258q-14 46 -29 86l-10 24l-2 4q-7 5 -19 5q-14 4 -41 2q-46 0 -74 -7q-12 -5 -24 -34q-17 -37 -35 -99q-13 -44 -31 -126q-15 -67 -22 -107q-29 -106 -82 -258l-90 -254q-55 -178 -55 -185l-2 -4l-1 -1q0 -4 1 -9q2 -10 2 -16q0 -18 -5 -31q-8 -25 -34 -29 q-12 -1 -25 7q-5 5 -7 8q-4 6 -7 10l-11 27l-26 79q-27 83 -47 158q-96 391 -125 574q-1 13 -8 59q-2 10 -5.5 32t-4.5 31q-3 21 -11 58q-5 21 -16 57q-7 13 -16 18q-10 5 -27 5q-14 0 -47 -4t-56 -2q-5 0 -14 4l-12 4q0 -5 2 -13q6 -37 18 -100q27 -118 39 -168 q189 -646 250 -833q0 -1 18 -66l23 -86q16 -52 29 -82q6 -17 12 -24q26 -2 65 2q13 0 23 1q14 1 22 3q32 2 41 2q3 0 17 -2l2 2q3 5 10 24q14 40 29 90q25 83 67 267q19 76 43 188l37 178q14 60 23 97q32 118 53 217l14 65l4 17v6v2q3 0 3 2t2 4q0 2 2 4q9 14 26 12 q13 -2 21 -10q2 -2 2 -4q2 0 2 -2l2 -2v-2l2 -2l2 -6l8 -27l29 -80q43 -122 55 -184q26 -120 113 -457q57 -220 73 -278q13 -44 31 -93q7 -20 8 -24h7q27 4 38 4q8 0 37 -6q30 -5 51 -6q25 -4 46 -4q4 0 10 2zM1593 1483q19 13 45 -2l9 -4q71 -19 151 -7l8 29q1 12 14 19 q12 6 23 3q13 -3 19 -15t2 -23l-2 -8q10 -6 12 -17q4 -9 -2 -21q-5 -11 -19 -16l-6 -2q-81 -313 -145 -678q-7 -39 -24 -148q-22 -138 -33 -190q-17 -75 -43 -149q-11 -32 -46 -102q-26 -53 -45 -95q-2 -5 -6 -28q-5 -35 -20 -52q-16 -14 -51 -16q-27 0 -56 4q-17 1 -51 8 q-25 4 -33 4l-3 -1q-3 0 -8.5 -0.5t-12.5 -0.5q-29 -6 -51 7q-9 7 -13 14q-2 2 -8 12l-12 31q-14 40 -29 94q-39 136 -76 281q-85 327 -114 460q-11 56 -54 177l-4 12q-18 -81 -47 -203q-6 -19 -22 -96l-39 -176l-41 -189q-35 -146 -70 -268q-16 -59 -31 -96l-14 -33 q-13 -20 -20 -25q-16 -12 -39 -8q-5 0 -11 2h-2q-4 0 -36 -2q-1 0 -21 -2t-22 -2q-63 -6 -93 0q-14 5 -30 27q-13 20 -19 33q-10 28 -28 88q-4 13 -13 45.5t-12 42.5q-13 44 -16 61q-79 241 -250 838q-18 56 -41 172q-15 63 -21 102q-1 10 -4 37v16q2 17 13 25q9 9 22 10h12 q10 -1 25 -6q9 0 20 -4l7 -2q12 -1 40 0q41 6 52 6q36 0 57 -10q31 -17 45 -53q15 -42 22 -75q10 -45 17 -104q6 -52 10 -71q29 -174 125 -565q10 -46 43 -156l6 -12q5 20 26 84q20 61 23 69q14 50 89 258q60 165 79 254q11 41 25 104q15 71 32 131q15 54 36 105 q24 57 65 68q31 10 90 10q32 2 51 -2q31 -5 45 -16q11 -8 19 -25q8 -13 14 -33q14 -30 31 -90q23 -80 65 -260q21 -99 40 -180q11 -46 38 -171q14 -64 23 -93q9 -46 15 -67q11 -41 18 -71q5 -24 18 -62q9 -27 25 -63l8 37l24 113l35 141q32 123 37 180q7 63 41 186t35 134 q9 34 22 121q8 58 21 125v4q0 1 -1 3t-2 4.5t-1 4.5l-2 6q-4 15 -4 29q5 29 30 35z" />
<glyph unicode="X" horiz-adv-x="1382" d="M1206 16l-32 54q-12 20 -27 41l-25 36q-13 18 -14 21q-58 87 -201 311l-121 191l-41 63l-10 19q-1 3 -4 6q0 2 -1 3t-1 3q-2 6 -2 10q0 10 4 17q0 1 1.5 4.5t2.5 5.5q11 13 15 22q21 28 49 70l151 207l240 319q-6 1 -21 2.5t-24 2.5q-28 3 -37 3q-75 8 -92 -12 q-9 -13 -23 -39q-18 -34 -30 -51q-8 -8 -41 -47l-45 -55l-37 -47l-45 -54l-37 -49q-17 -24 -37 -57l-35 -53q0 -1 -2 -3q0 -2 -1 -2l-2 -9q-1 -5 -3 -13q-15 -37 -45 -43q-21 -5 -39 16q-7 8 -14 23q-12 21 -17 31q-117 260 -223 421q-2 1 -15 22l-20 32q-18 24 -29 30 l-28 -2q-20 -1 -64 -8q-76 -12 -110 -20h-4q9 -21 10 -23q12 -23 17 -32q14 -22 14 -23q14 -25 40 -85q25 -58 46 -98q21 -41 45 -75q26 -38 77 -105q54 -69 78 -110q8 -14 45 -60q4 -6 10 -13.5t9.5 -12t5.5 -8.5q14 -21 16 -35q2 -24 -16 -66q-17 -38 -43 -84 q-44 -84 -133 -223l-92 -147l-97 -156q-22 -35 -47 -80l-2 -4q138 -24 215 59q16 18 27 34q15 23 27 44l22 43q2 5 10.5 22.5t14.5 31.5q4 9 22 51q10 22 41 63q34 46 37 51q45 73 88 172l2 4q2 10 2 11q10 32 40 32q31 0 38 -32l2 -13q15 -28 68 -98q47 -63 69 -108 q52 -103 113 -205q40 -69 74 -107q34 -42 47 -43q17 -4 59 2q60 6 70 6h22q24 -2 31 -2h12zM625 977q6 15 8 18l35 54q16 25 41 57l36 51l46 55q10 13 22.5 29.5t15.5 20.5q2 3 9.5 11.5t16 19.5t17.5 22l41 51q9 9 25 39q18 35 33 51q37 43 141 33q111 -7 123 -6 q13 2 22 -5q10 -7 15 -20q4 -21 -12 -31q1 -12 -7 -24l-254 -340l-149 -205q-14 -19 -49 -70l-8 -14l6 -10l39 -62l120 -190l199 -311l2 -3q2 -2 5.5 -7.5t6.5 -10.5l29 -37l27 -41q29 -48 37 -63l10 -27q6 -27 -8 -41q-7 -7 -21 -12q-10 -2 -16 -2q-20 -2 -35 -2 q-7 0 -35 2h-18q-7 0 -64 -6q-51 -6 -73 -2q-40 6 -86 63q-34 40 -80 115q-64 106 -113 209q-20 37 -66 100l-57 82q-39 -89 -80 -153q-7 -11 -41 -56q-25 -31 -32 -51q-8 -14 -24 -50q-7 -16 -16 -35t-10 -21q-9 -19 -24 -47q-16 -29 -31 -50q-17 -23 -31 -39 q-101 -110 -276 -77q-23 5 -33 10q-24 12 -22 37q0 12 10 26q8 17 10 19q13 29 45 80l100 161l93 146q80 127 131 219q12 22 41 80q9 25 10 33q-1 3 -6 8l-23 33q-45 56 -49 63q-24 43 -74 107l-77 104q-30 43 -50 82t-49 103q-27 60 -39 81q0 6 -10 23q-16 28 -18 32 q-13 24 -17 39q-8 27 -2 43q8 23 37 29h10q1 0 3 1t3 1q2 0 44 7.5t69 11.5l68 10q39 2 51 -2q31 -8 61 -53l21 -31q14 -24 14 -25q108 -159 232 -430z" />
<glyph unicode="Y" horiz-adv-x="1431" d="M1264 1442v-2v2zM645 799q6 10 8 12q72 95 163 272q93 182 122 230l20 37l19 43q17 34 31 55h-19q-31 0 -31 31q0 30 31 30q101 0 170 -6q68 -5 101 -14q20 -5 38 -14q27 -15 27 -39q0 -15 -2 -15q-2 -2 -2 -4l-4 -8l-12 -18l-39 -56l-62 -90q-5 -7 -65 -90l-74 -102 l-59 -86q-51 -75 -68 -102q-28 -45 -53 -91l-60 -104q-9 -21 -34 -49q-19 -22 -25 -37q-3 -4 -8 -35q-2 -38 -2 -74q0 -43 6 -201q6 -157 6 -194q2 -44 0 -66t-2 -24q-5 -21 -14 -27q-4 -4 -11 -6q-8 -2 -10 -2h-2h-12q-3 0 -23 2l-12 3q-2 0 -5 0.5t-4 1.5q-2 1 -7 1h-5 q-6 2 -18 2q-19 0 -29 2q-48 6 -63 45q-8 22 -8 66v51q-6 51 -6 135v135q-6 154 -52 240q-64 115 -204 289q-158 198 -218 293q-27 43 -61 131q-19 50 -25 78q-4 19 -4 34q1 28 23 39q23 15 86 10q10 -1 27 -3q4 0 13 -0.5t12 -1.5q6 -1 18 -1q1 0 28 6q29 6 51 -2 q24 -11 56 -53q23 -30 61 -92q48 -82 139 -254l125 -248zM1075 1432q-22 -20 -43 -66l-18 -43q-13 -25 -23 -43q-18 -30 -119 -223t-170 -283l-1 -2q-1 -2 -2 -2q-1 -2 -3 -9q-1 -3 -2.5 -7t-1.5 -6q-6 -17 -14 -25q-17 -19 -41 -14q-8 1 -14 8l-5 4q-1 1 -3 4l-1 3 q-2 3 -4 5q-3 5 -12 23l-41 82l-123 245q-94 177 -139 252q-35 56 -57 86q-22 27 -31 33q-2 2 -14 0q-32 -8 -41 -8l-74 6q-33 1 -43 0q2 -6 2 -8q6 -29 22 -70q31 -76 58 -121q46 -75 213 -286q140 -175 209 -299q53 -94 59 -267v-137q0 -80 6 -127v-61q0 -34 4 -43 q2 -2 15 -4q8 -2 22 -2q15 0 29 -2h2q1 -1 4 -2t4 -1l9 -3q3 -1 12 -1h2q2 21 0 62q0 8 -7 192q-6 157 -6 203q0 53 4 80q1 34 11 57q14 22 34 47q24 28 29 39q23 50 59 107l56 92q21 37 67 104l62 89l74 102q60 84 65 90l62 88l36 53l2 4q-1 0 -4.5 1.5t-5.5 1.5 q-33 8 -90 12q-29 4 -72 4q-1 -8 -8 -14z" />
<glyph unicode="Z" horiz-adv-x="1382" d="M793 1264h-7q-105 -4 -127 -4q-1 0 -13.5 -1t-41 -2.5t-59.5 -3.5q-88 -4 -185 -6q-106 -4 -182 -2q-31 0 -63 2q-4 1 -12 2.5t-11 1.5q-10 1 -24 11q-15 16 -21 47q-4 20 -4 53q0 28 4 84q2 24 27 29q-2 6 -2 10q0 31 30 31q29 0 111.5 -1.5t132.5 -1.5q216 -2 244 -2 q269 0 344 5q116 7 151 10q80 2 95 2h34q10 -2 15 -2q11 -4 20 -13q17 -17 17 -51q0 -22 -4 -51q-1 -13 -2.5 -25t-1.5 -17l-1 -5q-2 -22 -2 -23l5 -4q13 -17 14 -32q2 -23 -12 -48q-5 -9 -27 -36q-1 -1 -29 -31q-9 -9 -18 -21q-270 -384 -633 -749q-35 -33 -113 -133 q-61 -79 -80 -99h134q6 0 350 21q150 7 203 8h69q9 -1 25 -4q14 -1 26 -10q16 -11 17 -37q1 -15 0 -35q0 -2 -0.5 -6t-1 -11.5t-0.5 -13.5v-14l2 -10q4 -14 6 -23q2 -22 2 -26q-2 -23 -14 -35q-6 -6 -13 -8q-2 -2 -4 -2h-6l-8 -2h-29q-66 -3 -96 -3h-291h-205h-188h-90 q-15 0 -27 -1q-7 -1 -24 -1.5t-25 -0.5q-30 -2 -51 -3q-66 -2 -76 -2h-29q-19 2 -26 6q-17 8 -25 31q0 2 -2 10q0 7 -2 7q-7 37 -8 73q0 51 10 78q15 34 60 84q56 66 59 70l534 721q81 109 175 215zM109 1442q-5 -68 -5 -80q0 -23 5 -41q0 -6 2 -12h10q30 -2 59 -2 q72 -2 178 2q99 4 185 6q108 6 116 6q21 0 125 4q50 2 56 2h16h6h2h6q2 -3 7 -4q9 -5 14 -18q8 -26 -16 -48q-2 -2 -6 -4l-3 -2q-2 -2 -4 -2q-94 -104 -194 -237l-535 -721q-9 -14 -63 -74q-36 -39 -47 -67q-7 -18 -7 -52q1 -28 9 -59v-8h20q12 0 74 2q10 0 52 2q31 1 51 3 q13 1 28 1h90h188h205h291q50 0 94 2h13v2q0 1 -2 6.5t-3 9.5q-4 13 -4 19v26q0 5 0.5 10.5t1 9t0.5 6v3.5v21q-6 2 -8 2h-67q-10 0 -199 -9q-330 -20 -354 -20h-138h-57q-16 2 -18 2h-7h-4q-1 0 -3 1t-3 1q-16 6 -18 27q-1 21 14 32q8 6 19 11l8 2q27 24 104 121 q79 102 117 141q365 362 629 741q19 24 22 27q19 19 27 29q14 15 20 26q1 2 2.5 5.5t1.5 4.5q-13 16 -14 25q-6 18 -2 47q0 2 6 49q2 38 2 43v4h-24q-14 0 -90 -2q-10 0 -30 -1.5t-55.5 -4t-66.5 -4.5q-56 -4 -348 -4q-29 0 -243 2t-240 2q2 -8 2 -12z" />
<glyph unicode="[" horiz-adv-x="612" d="M430 1432q0 6 -2 8q-11 24 14 35q24 10 35 -15q2 -6 8 -28q17 -5 19 -23t-12 -25q0 -8 2 -18q0 -28 -5 -55q-5 -33 -18 -47q-12 -12 -29 -13q-16 -2 -28 -2q-30 0 -70 4q-16 2 -31 3.5t-22 2.5t-8 1h-9q0 -2 -1.5 -15t-2.5 -22q-2 -46 -6 -119q-4 -119 -4 -197 q0 -99 3 -295q3 -197 3 -295v-307q0 -94 2 -184q0 -31 2 -59v-3h15l71 9l74 6q15 0 31 -2q17 -1 31 -10q12 -12 12 -37q-2 -14 -6 -31q-2 -11 -6 -27l-5 -12q0 -4 -1 -7t-1 -13v-19q0 -5 -1 -10l-2 -10t-1 -7q-1 -19 -12 -30q-8 -7 -20 -8h-15q-6 0 -28 2q-14 0 -29 4l-15 2 q-21 3 -58 5q-17 1 -40.5 3t-30.5 2q-63 6 -75 8q-41 5 -54 10q-22 12 -30 41q-10 27 -8 101q0 54 6 137l14 145q10 84 10 93q8 87 -5 231q-14 151 -15 188q-2 90 -2 145q0 108 1 170t1 144q0 14 -3 89t-3 124q-2 87 2 125q2 29 6 47q6 26 18 37q9 9 33 14q21 6 43 7 q104 4 111 4h116q28 -2 31 -2zM432 1303q4 5 4 18q4 16 4 43q-2 10 -2 16q-15 -2 -39 0h-114q-12 0 -109 -4q-9 -1 -22 -2.5t-15 -1.5q-1 0 -3 -1t-3 -1q-2 -2 -2 -10q-5 -15 -6 -39q-4 -38 -2 -121q0 -46 3 -123t3 -90q0 -82 -1 -144t-1 -169q0 -54 2 -146q0 -37 14 -183 q15 -154 7 -241q0 -1 -1 -10.5t-4 -33.5l-6 -48l-14 -145q-6 -79 -6 -133q-2 -65 4 -84q2 -8 6 -8q4 -4 35 -9q30 -2 74 -6l71 -6q41 -4 58 -4q4 0 19 -3t26 -3q14 -2 18 -2q2 8 2 14l2 45q2 4 6 21l6 22q0 2 1 5t1.5 5.5t0.5 4.5h-17l-69 -7l-74 -8h-31q-17 1 -29 10l-8 13 q-2 2 -2 5q0 1 -2 7v18q-2 30 -2 62q-2 90 -2 184v307q0 99 -3 295t-3 295q0 80 4 199q5 77 6 121q0 2 4 41q2 14 2 16q1 9 8 16q8 10 19 11q6 2 12 2h25q3 0 63 -6q39 -4 64 -4h18z" />
<glyph unicode="\" horiz-adv-x="749" d="M588 14q-6 45 -78 228q-93 237 -100 264q-58 177 -136 373l-124 297l-103 239q-11 -1 -39 -3q-19 -1 -41 -1q-50 -2 -55 -2h-10v-4q0 -15 6 -39q11 -41 47 -121q21 -45 63 -127q25 -48 43 -84q0 -1 52 -106q29 -60 47 -115q4 -9 55 -171q60 -190 86 -263q58 -162 94 -246 q23 -48 43 -82q16 -29 27 -33q5 -4 27 -6q24 -4 51 -4q28 0 43 6h2zM37 1466q5 9 12 13q24 10 35 -15l113 -264l127 -301q71 -175 135 -377l102 -260q75 -192 80 -252q2 -35 -39 -47q-25 -7 -59 -8q-33 0 -58 4q-34 5 -45 10q-22 12 -47 54q-21 35 -45 90q-40 85 -96 249 l-88 265q-37 116 -53 170q-7 21 -48 106q-41 84 -51 111q-7 19 -41 80q-41 78 -63 129q-33 71 -51 129q-9 36 -9 53q0 32 19 49l10 6h4h4h6q8 2 19 2q5 0 55 2z" />
<glyph unicode="]" horiz-adv-x="555" d="M350 1401h-2q-25 4 -31 4q-40 4 -104 6h-78q-44 0 -67 -1t-41 -1q-11 0 -17 6q0 -4 2 -26t2 -23q4 -26 10 -36q4 -6 25 -11q19 -4 98 -10h7h18h21q6 0 8 -2q9 0 16 -7q15 -11 21 -32q2 -20 2 -35v-29q0 -5 -0.5 -10t-1.5 -8v-2q0 -122 20 -318q10 -97 10 -207 q0 -124 -4 -201q-4 -87 -12 -213q-9 -152 -10 -198q0 -36 4 -131q6 -87 -4 -135q-4 -24 -23 -39q-15 -11 -35 -12q-22 -4 -71 6q-43 6 -58 6q-14 -1 -16 -8q-2 -10 -2 -25v-39v-4q-2 -6 -3 -11t-1 -15v-5q2 0 15 -1.5t22 -2.5q56 -4 135 -4q86 -2 135 4q22 1 41 7q1 0 3 1 t3 1q8 36 4 100q-4 29 -4 34q-2 28 -2 29q-2 50 -2 60q14 447 8 653q-1 67 -14 221q-16 156 -17 228v49q0 55 -1 92t-1 98q0 11 -4 137q0 9 -4 48v12zM184 1255h-12h-16h-6h-7q-71 5 -104 11q-41 8 -59 32q-13 20 -19 62q-7 73 -10 90q-2 11 5 19q9 11 17 12q12 2 20 -5 q10 -8 11 -18v-8q8 12 23 12q18 0 41 1t67 1h78q70 -2 109 -6q25 -1 40 -6q11 -2 17 -6q12 -6 18 -16q4 -10 6 -35q0 -3 2 -20t3 -29q4 -137 4 -142v-98q0 -65 1 -90t1 -51q1 -67 14 -222q14 -141 16 -227q6 -208 -8 -653q0 -10 2 -56q0 -1 2 -29t2 -34q6 -86 -8 -127 q-5 -14 -18 -23q-1 0 -21 -8q-9 -2 -51 -8q-49 -6 -139 -4q-81 0 -137 4q-9 0 -48 4q-14 2 -16 2q-6 2 -8 2q-8 4 -14 13q-5 7 -5 12v6v8q0 3 1.5 10.5t1.5 12.5q0 8 1 13q0 2 0.5 5.5t1.5 5.5q1 3 1 6v29q0 27 6 43q12 41 61 45q19 0 72 -8q38 -6 55 -4q6 0 8 2q2 0 2 4 q9 54 5 125q-5 120 -5 133q1 26 11 202q8 130 12 211q4 76 4 195q0 110 -10 207q-21 206 -21 322q0 1 0.5 4t1 8t0.5 10v27q0 12 -2 22z" />
<glyph unicode="^" horiz-adv-x="1040" d="M59 616q11 13 17 29l14 39q3 8 16 37l177 377q12 28 61 186q27 82 35 109q8 24 14 37q4 7 6 14q3 3 4 6q5 6 11 8q10 6 26 6h9h6q37 0 67 -2q52 -1 74 -14q5 -1 12 -10q1 -1 2.5 -3t3 -4.5t2.5 -3.5l15 -30q22 -41 43 -94q40 -92 112 -279q71 -187 103 -283l33 -102 q6 -29 8 -35q4 -14 2 -26q-6 -31 -41 -39q-15 -4 -49 -2q-19 2 -47 6q-24 4 -29 4q-28 1 -51 35q-14 21 -25 53q-5 16 -15 53q-8 31 -16 47q-37 80 -73 166q-9 21 -49 143q-20 62 -43 119q-18 -37 -35 -86l-60 -157q0 -1 -39 -86q-25 -56 -38 -103q-33 -113 -64 -149 q-40 -40 -145 -47q-23 -2 -35 0q-38 7 -43 43q-1 20 16 34q5 4 8 4zM104 588h5q86 6 110 33q22 22 49 122q12 42 45 113q30 66 37 84l60 158q41 103 65 155q13 24 36 12q24 -12 13 -36l-6 -10q7 -4 14 -13q29 -61 54 -145q34 -104 49 -139q30 -73 74 -166q5 -11 18 -55 q13 -47 14 -50q6 -23 19 -41l10 -10q8 0 33 -4q28 -5 43 -6q21 -2 33 0l-2 4q-1 6 -7 31l-32 98q-33 104 -103 283q-68 180 -110 276q-20 50 -41 92q-7 14 -15 25v2q-1 0 -11 2q-2 0 -7.5 1.5t-9.5 2.5q-14 2 -23 2q-24 2 -63 2h-11h-2l-3 -9q0 -1 -1 -3t-1.5 -4.5 t-1.5 -4.5q-4 -10 -5 -14q-16 -46 -35 -108q-56 -175 -63 -191l-176 -381q-7 -11 -13 -30l-20 -43q-6 -16 -19 -35zM569 1401q-2 2 -2 4q0 -4 2 -4z" />
<glyph unicode="_" horiz-adv-x="1239" d="M-41 -170q0 -1 -1 -3t-1 -3q0 -17 4 -37q1 -16 8 -39q35 0 201 8t233 8h299l199 -2q102 -2 115 -2q19 0 39 2h4q10 11 16 54q0 5 1 7t1 6q0 3 2 5q-1 0 -10 1.5t-16 2.5q-83 4 -92 4q-107 2 -273 -4q-125 -5 -287 -12q-178 -8 -182 -8q-3 0 -10 0.5t-20.5 1t-26.5 0.5 q-3 0 -27 2t-35 3t-30 1q-17 0 -88 4h-23zM-84 -266q-1 6 -3.5 21.5t-4.5 23.5q-4 24 -4 45q1 30 14 47q5 4 21 10h12q16 2 31 2q85 -4 90 -4q20 -2 30 -2q11 0 35 -2t27 -2q12 0 25 -0.5t20 -1t10 -0.5t182 8q168 7 285 12q184 6 277 5q52 -1 96 -7q2 0 33 -4q16 -5 28 -14 q13 -16 13 -39q-4 -12 -5 -25q-11 -68 -38 -90q-4 -4 -11 -6q-2 0 -8 -2h-14q-20 -2 -39 -2q-15 0 -119 2q-36 0 -70 0.5t-56 0.5t-38.5 0.5t-24.5 0.5h-8h-299q-66 0 -229 -8t-209 -8q-5 -5 -10 -6q-17 -2 -27 8q-14 7 -14 24q0 5 2 13z" />
<glyph unicode="`" horiz-adv-x="522" d="M254 1188h8q17 0 41 4q30 6 41 8q-15 27 -39 64q-33 52 -53 90q-3 5 -19 55q-8 21 -10 25h-22q-18 -1 -80 -7q-52 -5 -76 -10l2 -2q11 -13 53 -53l60 -53q29 -25 41 -37q13 -13 35 -53l16 -27zM381 1143q-7 0 -27 -4q-35 -6 -43 -6q-39 -7 -45 -7h-18q-16 0 -25 7 q-9 6 -22 26q-1 2 -3.5 5.5t-7 10.5t-8.5 13q-25 42 -26 43q-2 2 -6.5 6l-13.5 12t-17 15l-60 53q-27 25 -57 57q-13 13 -20 25q-13 19 -13 33q0 17 17 28q3 4 14 8q11 5 31 9q33 6 84 12q47 5 84 6h32h13q11 -1 20 -10q10 -10 17 -27l10 -31q14 -41 14 -45q18 -35 52 -86 q40 -61 55 -92q5 -13 -2 -28q0 -10 -9 -23q-7 -10 -20 -10z" />
<glyph unicode="a" horiz-adv-x="1175" d="M127 737q4 0 6 2q26 7 54 10q37 5 53 9v10q22 121 112 175q91 55 197 40q105 -17 172 -92q67 -76 43 -186q-8 -33 -45 -60q-27 -21 -74 -39q-62 -23 -205 -57q-173 -42 -213 -55q-101 -33 -135 -68q-28 -29 -29 -106q-4 -62 11 -130q30 -159 166 -206q130 -44 282 28 q14 6 88 54q62 40 103 51q13 4 26 4q23 -2 35 -17q13 -16 14 -45v-18q0 -8 3 -23q1 -46 16 -61q5 -5 31 -6q35 -2 69 2q41 5 70 12q23 6 27 8v7q2 20 2 36v39l-2 15q-2 6 -11 8q-1 0 -3 1t-4.5 2t-4.5 1q-14 4 -23 6q-30 12 -49 37q-19 26 -24 82q-4 37 -2 258 q2 173 -13 260q-22 127 -86 195q-77 80 -223 90q-134 7 -231 -8q-94 -15 -162 -84q-5 -4 -16 -33q-13 -41 -19 -72q-6 -39 -6 -68v-8zM692 471q-116 -6 -227 -37q-79 -22 -131 -53q-49 -30 -55 -68q-11 -56 22 -90q34 -36 96 -43q63 -10 126 9q61 19 91 61q35 47 58 141 q20 70 20 80zM768 502q0 -10 -6 -17q-12 -34 -31 -108q-29 -113 -67 -164q-41 -58 -120 -82t-155 -12q-85 12 -131 61q-57 58 -41 146q12 62 84 108q61 37 148 60q125 36 266 41q4 10 10 20q12 27 40 13t13 -42zM289 709q-33 -12 -46 -14q-23 -4 -56 -9q-34 -5 -42 -8h-2 q-3 -2 -10 -4q-23 -8 -41 4q-16 10 -22 33q-4 13 -4 34q0 30 8 80q7 38 20 80q16 44 29 58q82 82 189 100q110 18 253 8q173 -12 264 -108q79 -83 101 -228q16 -90 14 -270q-2 -218 2 -254q4 -35 15 -51q7 -9 18 -13q10 -3 16 -4q19 -6 23 -8q31 -12 43 -41q4 -10 6 -35v-43 q0 -21 -2 -45q-1 -4 -2.5 -10.5t-1.5 -7.5q-5 -17 -10 -23q-15 -14 -60 -26q-43 -9 -80 -13q-38 -4 -80 -2q-47 5 -65 23q-36 31 -37 104q-2 8 -2 21v20q-26 -7 -84 -43q-75 -49 -96 -59q-175 -80 -326 -29q-170 57 -209 252q-15 72 -10 144q1 100 45 145q44 47 160 84 q47 16 219 57q139 34 197 56q44 18 61 30q16 12 18 23q18 80 -30 136q-50 57 -133 69q-84 12 -153 -30t-85 -136q3 -3 4 -6q4 -11 -1 -25q-4 -11 -15 -16z" />
<glyph unicode="b" horiz-adv-x="1132" d="M199 51v2q-1 15 0 35q0 3 2 33q0 3 0.5 7t1 6.5t0.5 5v3.5v2q0 4 -1 7t-1 8q-2 12 0 20q5 20 20 25q14 4 29 -6q22 -12 29 -49q5 -17 6 -17q69 -70 197 -88q132 -18 223 16q75 23 145 138q69 108 95 233q27 129 14 248q-14 123 -80 226q-68 105 -187 161q-84 43 -209 8 q-16 -6 -26 -10q-17 -7 -27 -13q-12 -8 -24 -18l-25 -18q-10 -8 -20 -18q-13 -13 -17 -16t-16 -15l-13 -13v-4l-6 -20q-2 -16 -6 -23l-4 -10l-2 -6q-3 -3 -4 -6q-11 -8 -23 -8q-22 0 -32 18q-6 9 -7 20v13v6q-6 52 -9 120q-3 60 -1 109l2 123q0 21 0.5 47.5t1 41t0.5 22.5 q-25 11 -51 16q-21 5 -33 0q-2 0 -2 -2q-12 -47 -8 -135q0 -13 4 -64t4 -84v-761q0 -18 -1 -36q-1 -25 -3 -70q-1 -16 -2.5 -42t-1.5 -31q-2 -88 -2 -102q2 -30 2 -35q10 -2 21 -2h24q4 0 8 0.5t7 1t5 0.5h3zM260 57q2 -1 5.5 -2.5t4.5 -1.5q11 -5 17 -12q8 -12 6 -25 q-4 -28 -33 -34q-15 -2 -29 2l-20 4q-2 0 -5 1q-4 1 -5 1h-3q-3 -1 -8 -1.5t-10 -0.5h-31q-19 0 -32 4q-26 5 -37 20q-6 6 -8 19q0 4 -2 14q0 7 -2 39q0 16 2 106q0 5 1.5 31t2.5 42q2 42 3 69q1 18 1 35v761q0 33 -4 81t-4 65q-4 96 8 153q11 38 49 48q23 6 59 -2 q11 -1 41 -11q8 19 29 19q31 0 31 -31v-18q12 -17 2 -35l-2 -2q0 -25 -3 -116q-3 -92 -3 -147q0 -63 4 -112q63 81 182 115q145 40 254 -11q134 -66 210 -184t90 -253q13 -133 -17 -271q-29 -133 -101 -250q-84 -133 -178 -162q-69 -22 -152 -24q-86 -5 -170 19 q-87 24 -143 73q-2 -8 0 -15zM627 915q8 27 34 23q105 -12 162 -162q49 -133 39 -295q-12 -178 -94 -282q-101 -130 -270 -109q-158 21 -240 189q-73 150 -51 325q27 190 149 275q110 77 271 36zM692 827q-187 80 -301 0q-101 -69 -123 -231q-21 -158 45 -291 q67 -138 193 -153q135 -16 213 84q71 91 82 249q10 146 -35 269q-17 45 -43 77q-14 -10 -31 -4z" />
<glyph unicode="c" horiz-adv-x="1062" d="M883 698q0 15 -4 31q0 2 -2 11.5t-3 15.5q-1 7 -2.5 16t-1.5 10q0 3 -0.5 6t-1.5 5v2q-24 220 -176 276q-139 49 -352 -35q-130 -51 -168 -102q-63 -85 -96 -215q-33 -131 -29 -264q6 -143 55 -254q51 -113 142 -174q30 -21 71 -30q37 -8 65 -10q16 -1 87 -1 q196 0 303 104q96 92 119 256h-5q-6 1 -18 1.5t-26 0.5q-52 2 -70 -2q-4 -1 -22 -27q-18 -28 -39 -71q-67 -119 -127 -146q-116 -49 -207 -4q-76 40 -123 144q-38 82 -53 192q-15 105 -4 195q11 96 49 174q39 85 112 125q86 47 197 2q96 -40 152 -121q3 -3 32 -64 q3 -6 15 -28l6 -6q5 -4 39 -4q16 -2 30 -2h21q8 0 26 -5zM952 369q-18 -208 -139 -324q-127 -121 -346 -121h-25h-26h-25q-22 0 -26 1q-5 1 -25 3q-17 1 -28 5q-17 5 -24 7q-12 2 -27 8q-4 2 -23 11l-27 14q-106 68 -162 198q-55 127 -63 280q-6 149 30 284q37 139 107 236 q47 66 192 123q237 92 398 34q189 -67 217 -325q0 -2 2 -14q0 -2 1 -6.5l2 -9t1 -8.5q1 -6 2.5 -15.5t1.5 -12.5q4 -24 6 -39v-16q0 -11 -2 -21q-16 -34 -63 -26q-1 1 -21 6q-4 1 -9 2h-3h-23q-14 0 -30 2q-44 0 -62 8q-15 7 -31 31q-8 9 -20 35l-27 53q-44 65 -125 100 q-86 35 -145 2q-54 -29 -88 -100q-34 -74 -41 -153q-8 -81 4 -179q12 -95 47 -174q39 -84 96 -114q66 -33 154 6q43 18 96 119q23 41 43 73q28 45 58 51q32 11 90 7q11 0 24.5 -0.5t20.5 -1t10 -0.5q11 12 27 12q13 0 20 -10q8 -11 8 -23v-4q0 -4 -2 -14z" />
<glyph unicode="d" horiz-adv-x="1110" d="M752 776q6 4 14 6q13 2 22 -5q12 -8 13 -21q23 -136 -15 -315q-38 -181 -118 -283q-38 -49 -90 -67q-48 -17 -101 -9q-47 7 -98 35q-73 41 -124 101q-56 65 -73 126q-47 184 29 350q40 88 107 143q67 56 161 68q64 8 132 -16q66 -23 112 -72q17 -19 29 -41zM887 0v14 q1 30 6 92q8 140 14 289q5 104 10.5 222.5t8 172t2.5 72.5q0 15 6 129t6 191q2 109 -4 172q-5 47 -10 71h-13q-28 1 -39 4q-38 0 -49 -4l-2 -8q-1 -5 -10 -39q-8 -45 -12 -121q-10 -116 -10 -213q0 -3 1 -5l2 -10l3 -15q7 -43 -23 -60q-10 -5 -24 -4q-2 1 -6 2.5t-5 1.5 q-4 2 -22 13l-62 32q-99 54 -123 60q-117 33 -282 -76q-84 -57 -138 -175q-55 -120 -65 -259q-12 -139 23 -265t112 -194q87 -77 185 -106q95 -28 204 2q76 25 109 45q50 29 65 67v2q0 3 -1 6t-1 7q0 12 5 20q6 17 20 21q16 4 29 -7q16 -10 20 -30q1 -11 0 -27 q-3 -12 -4 -24q-1 -6 -4 -23q-2 -25 2 -33q2 -7 12 -8q13 -4 45 -4q9 0 19 2zM731 1028q-2 14 -2 16q0 97 10 218q5 66 15 127q5 32 12 49q7 26 25 37q23 18 86 16q14 -2 36 -2q3 4 11 10q27 16 43 -10l8 -17q1 -2 2.5 -5.5t1.5 -4.5q12 -38 18 -102q6 -67 4 -180 q0 -74 -6 -190q-6 -115 -6 -128q-1 -47 -20 -471q-3 -80 -15 -287l-6 -94v-26q-2 -6 -2 -9v-4v-4q-1 -5 -8 -12q-6 -7 -21 -12l-16 -4q-30 -3 -33 -3q-34 0 -57 5q-42 7 -57 47q-4 7 -4 16q-17 -14 -41 -27q-37 -21 -117 -49q-84 -31 -165 -19q-86 13 -153 46 q-66 32 -133 90q-90 79 -129 217q-38 137 -26 293q12 154 71 282q59 129 160 195q186 125 332 84q35 -7 135 -63zM737 590q-9 19 -26 106q-11 56 -33 80q-33 34 -87 54q-55 20 -104 14q-150 -18 -219 -174q-68 -150 -24 -310q12 -52 58 -104q49 -56 106 -84q134 -73 210 23 q51 66 84 171q32 102 43 214q-2 2 -8 10z" />
<glyph unicode="e" horiz-adv-x="1116" d="M285 625q24 12 41 12q40 0 125 4q90 4 164 1q73 -3 130 -17q-27 107 -79 163q-72 76 -189 60q-83 -12 -127 -47q-4 -4 -20 -33q-8 -18 -29 -70q-11 -37 -16 -65v-8zM930 481v6q2 10 2 13q27 157 6 241q-10 42 -66 125l-20 27q-4 6 -19 31q-2 3 -8.5 11t-9.5 13 q-4 5 -10.5 14.5t-9.5 12.5l-21 20q-16 16 -24 21q-114 82 -272 64q-159 -18 -259 -115q-126 -123 -176 -347q-33 -143 2 -280q38 -139 127 -234t213 -124t281 28q125 50 157 82q22 24 41 63q20 41 25 62l24 80q-4 1 -19 3.5t-22 4.5q-30 2 -38 2l-13 -4q-4 -5 -12 -25 q-11 -26 -25 -40q-82 -96 -162 -134q-86 -40 -198 -24q-118 18 -174 102q-25 36 -49 131q-13 50 -17 80q-4 46 13 70q7 12 28 16q12 4 31 6q27 4 86 4q85 0 244 -4q204 -4 243 -6q44 0 82 2q16 2 19 2zM246 420v-23q6 -38 14 -71q23 -86 39 -113q44 -62 133 -74 q92 -15 165 21q71 35 142 116q6 8 13 25q12 29 24 41q17 19 51 23q22 4 54 -2q52 -6 88 -23q28 -15 16 -41q-5 -8 -10 -12q-5 -14 -7 -24q-4 -19 -6 -24l-8 -24q-7 -21 -9 -26q-5 -13 -8 -24q-3 -14 -10 -27q-1 -2 -5.5 -10t-7.5 -13q-9 -18 -13 -25q-2 -4 -15 -21 q-6 -8 -18 -20q-13 -13 -21 -19q-18 -13 -28 -18l-24 -16q-12 -7 -29 -14q-26 -11 -27 -11l-26 -12q-21 -6 -23 -8q-177 -64 -317 -31q-142 33 -246 143q-99 105 -140 259q-40 149 -5 309q53 243 196 379q113 110 293 131q177 21 315 -76q13 -9 29 -25l9 -9t9 -8.5t7 -7.5 q4 -4 11.5 -14t12.5 -16l21 -27q2 -4 19 -30q13 -20 18 -25q61 -89 77 -149q21 -94 -6 -262q0 -1 -2 -9v-14q-5 -25 -18 -35q-7 -7 -29 -12q-27 -4 -29 -4q-40 -2 -86 -2q-39 2 -245 6q-159 4 -242 4q-55 0 -80 -4q-8 0 -16 -2zM743 561q-59 17 -121 20q-70 3 -164 -1 q-110 -5 -132 -5q-1 0 -23 -8q-37 -16 -61 2q-17 13 -19 37q-1 15 0 35q5 33 21 78q22 59 30 76q22 40 35 51q55 48 160 63q150 21 242 -78q74 -80 102 -229q2 -12 -5 -23q-8 -12 -20 -14t-18 2q-12 -7 -27 -6z" />
<glyph unicode="f" horiz-adv-x="636" d="M459 999h-17h-24q-28 0 -58 2q-5 1 -14 3t-12 2q-16 6 -27 18q-9 12 -10 29v30q1 12 7 74q4 36 11 76q5 18 9 29q6 19 16 26q24 24 84 25q5 0 11.5 0.5t10 1t5.5 0.5l6 2q1 1 3 15q1 9 1 40q0 9 -0.5 18.5t-1 14t-0.5 6.5h-10q-128 16 -189 -25q-43 -28 -55 -96 q-3 -13 -8 -131q-1 -30 -9 -59q-10 -37 -34 -53q-23 -12 -35 -15q-18 -5 -34 -7q-9 -1 -30 -1h-20q-11 0 -15 -4q-6 -11 -4 -49v-15v-16l-2 -8v-10q0 -2 17 0q7 0 22 4q16 4 27 4q44 6 67 -19q29 -24 29 -88q0 -120 -2 -166q-3 -47 -16 -356q-8 -204 -8 -215v-70q8 0 65 7 q57 6 66 8q10 2 14 2v8q5 23 6 61q4 176 4 183q0 98 -1 134t-1 111v66q0 149 -10 223v2q0 4 -2 6q-1 4 -2.5 12t-1.5 11q-2 20 -2 22q-2 6 0 13q-2 12 8 22q24 28 67 27q13 0 29 -4q20 -2 23 -2q16 0 24 8q16 16 23 63zM524 1446q-4 -10 -2 -72q0 -25 -2 -47q-1 -30 -14 -47 q-16 -20 -41 -25q-26 -3 -39 -4q-36 0 -43 -6v-4q-5 -8 -6 -22q-7 -29 -12 -69q-6 -58 -7 -69v-18h11q22 -2 49 -2h28h23h20q5 0 11 -2q14 -1 20 -12q15 -18 4 -46q-2 -7 -4 -10q-11 -69 -41 -98q-27 -27 -69 -27q-13 0 -29 4q-22 2 -23 2q-6 0 -12 -2q0 -2 2 -10q0 -1 1 -5 t2 -7.5t1 -7.5l2 -13q11 -86 11 -231v-66q0 -75 1 -112t1 -133q-1 -46 -3 -111t-2 -76q-2 -40 -6 -63q-1 -6 -2.5 -14.5t-1.5 -10.5q-1 -13 -10 -22q-7 -7 -16 -11q-6 -2 -11 -2q-8 -1 -24 -6q-5 -1 -70 -8q-38 -5 -65 -6h-25h-10h-4q-12 2 -19 10q-2 2 -8 12v7q0 2 -2 8v22 v74q0 15 1.5 43.5t3 79.5t3.5 92q12 290 17 359q2 44 2 161q0 36 -9 45q-4 1 -18 0q-7 0 -22 -4q-16 -4 -29 -4q-44 -6 -68 21q-18 18 -16 53q0 11 1 18t1 15q-4 57 14 86q17 27 60 32q20 2 34 2q9 0 33 3q11 1 25 10q3 1 8 14q5 17 6 49q5 123 8 140q18 91 82 135 q80 53 232 35q5 0 10 -5q12 27 39 17q13 -5 17 -16q5 -13 1 -23z" />
<glyph unicode="g" horiz-adv-x="1079" d="M117 -145q7 -67 38 -134q30 -65 74 -102q55 -43 147 -51q93 -8 185 20q95 27 175 78q78 50 112 109q30 57 48 114q17 53 20 127q4 89 3 114q-1 37 -11 134q-10 98 -11 129q-24 378 4 617q-3 0 -72 6l-14 -2q-4 -4 -4 -27q0 -3 1 -5q0 -1 0.5 -2.5l1 -3t0.5 -3.5l3 -12 q6 -37 -18 -54q-10 -6 -23 -4q-9 0 -14 4q-5 3 -19 13l-16 12l-4 4h-2q-82 61 -181 94t-175 6q-116 -44 -190 -164q-75 -121 -97 -278q-21 -158 16 -298t127 -216q147 -123 328 -51q78 30 102 51q0 2 4 5q5 3 11 11q1 2 3.5 5t4.5 5.5t4 4.5q8 10 20 22q15 14 31 14 q19 0 33 -14q8 -8 14 -20q35 -79 -16 -222q-49 -135 -121 -184q-37 -26 -154 -33q-62 -4 -134 23q-71 27 -101 80q-9 16 -19 47q-8 25 -14 31q-5 5 -20 6q-17 4 -43 2q-22 -1 -35 -8h-2zM760 975q-2 10 -2 12q0 46 20 66q18 18 53 16q2 0 10.5 -1.5t14.5 -2.5q20 -2 24 -2 q12 0 20 1q15 2 22 5q23 10 34 -14q4 -12 -2 -23q2 -8 2 -12q-33 -237 -6 -623q0 -7 12 -126q8 -84 10 -138q1 -40 -2 -121q-3 -72 -23 -137q-20 -64 -54 -125q-38 -70 -126 -128q-86 -56 -192 -85q-95 -30 -204 -22q-108 7 -174 63q-57 47 -91 121q-36 79 -43 154 q-4 32 31 49q24 13 55 14q34 2 58 -2q31 -6 47 -23q15 -15 27 -49q3 -10 6.5 -18.5t5.5 -13t2 -5.5q23 -39 79 -60q58 -21 107 -17q105 8 129 24q56 38 99 158q43 115 20 178l-12 -12q-30 -37 -33 -37q-29 -24 -115 -59q-212 -84 -381 59q-104 85 -145 241q-40 153 -16 320 q23 171 105 304q83 135 216 181q90 35 203 -3q112 -37 203 -101q0 -3 4 -4zM704 698q-16 13 -37 36q-16 18 -40 48l-29 35q-62 70 -137 64q-11 0 -19 -3q-2 -1 -18 -10l-19 -10l-7 -5q-7 -5 -12 -9q-9 -7 -19 -17q-100 -69 -141 -194q-40 -122 -9 -253q30 -127 121 -206 q28 -22 96 -29q95 -10 172 56q76 65 115 174q30 87 26 174q-4 88 -43 149zM762 707q36 -70 38 -168q1 -93 -30 -181q-43 -122 -132 -200t-208 -66q-87 7 -125 41q-104 88 -139 233t10 285q45 141 158 221q1 0 3.5 2t6.5 5l8 6l25 16q10 8 22 14q21 11 29 13q16 5 29 6 q102 6 180 -80q0 -2 53 -66q5 -1 10 -6q26 -23 45 -47l5 -4q14 -7 12 -24z" />
<glyph unicode="h" horiz-adv-x="1081" d="M946 -8q-8 -18 -28 -17l-13 5q-8 -2 -25.5 -5.5t-25.5 -5.5q-34 -7 -51 -8q-33 -2 -47 8q-18 12 -17 39q0 2 1 5q1 4 1 5v2q-2 68 0 116q0 14 2 36t4.5 57.5t4.5 61.5q9 120 10 168q6 152 -8 233q-17 102 -58 133q-47 35 -107 35t-112 -29q-96 -53 -137 -131 q-39 -78 -45 -188q-4 -52 4 -209q7 -144 0 -213v-24q0 -8 -0.5 -15t-1 -11t-0.5 -5q0 -48 -12 -66q-6 -12 -25 -18q-18 -4 -22 -4q-20 -4 -58 -4q-21 0 -57 2q-20 2 -23 2q-15 5 -22 10q-12 8 -17 31q-4 13 -4 35q-2 41 2 86q4 29 9 86q6 47 6 53q6 167 26 872v39q0 45 1 69 t3 68q4 54 13 99q6 24 12 39q11 21 31 28q12 4 45 6q27 2 57 0q10 0 53 -4q16 -2 23 -6q5 -1 10 -6q14 -7 12 -25t-20 -26q-2 -2 -6 -2q0 -7 -2 -37q0 -7 -0.5 -22t-1 -43.5t-0.5 -53.5q-4 -168 -4 -201v-2q-1 -2 -1.5 -5.5t-0.5 -6.5q2 0 5 2l6 3q7 3 9 5q34 18 88 41 q32 14 87 25q50 10 104 2q76 -12 146 -49q74 -39 112 -94q85 -128 92 -476q6 -233 -21 -456q4 -4 6 -11q4 -18 -12 -28zM795 14h4q7 1 45 9q5 1 24 4.5t31 5.5q27 220 21 454q-8 333 -84 447q-28 45 -93 77q-63 31 -129 42q-59 10 -114 -6q-49 -15 -131 -58 q-11 -6 -22 -11.5t-16 -7.5l-5 -3q0 -2 -2 -4v-2q-1 -9 -7 -17q-12 -18 -32 -14q-14 5 -19 16q-2 6 -2 8v7v10q0 6 2 30q1 7 3 20q0 3 0.5 5.5t0.5 4.5t0.5 4t0.5 3q1 4 1 9q0 31 4 196q1 32 3 76t2 45v41q0 2 2 8q-14 2 -23 2q-29 2 -53 0q-15 0 -29 -2v-2q-5 -9 -10 -27 q-5 -29 -10 -92q-2 -32 -3 -67q-1 -25 -1 -68v-37q-16 -553 -27 -872q0 -12 -6 -58q-7 -64 -8 -86q-4 -44 -2 -79q0 -15 2 -25q8 -2 14 -2q32 -2 53 -2q23 0 51 2q8 2 11 2q2 16 2 37q0 1 0.5 5t1 11t0.5 15v26q8 66 0 207q-8 160 -4 215q6 117 53 210q46 90 158 151 q55 36 136 36q78 0 140 -47q57 -44 78 -166q14 -83 8 -243q-1 -63 -8 -164q-7 -99 -12 -165q-4 -66 0 -103v-11z" />
<glyph unicode="i" horiz-adv-x="436" d="M287 1059q25 -13 10 -35q-2 -7 -6 -14v-19v-16q0 -15 -10 -25q-5 -32 -5 -69q-2 -89 9 -234q3 -21 22 -246q12 -135 12 -186q0 -42 -8 -133q-5 -54 -10 -78q-2 -19 -6 -31q-5 -6 -6 -12q-5 -9 -17 -14q-6 -2 -12 -2h-6h-16q-21 0 -48 4q-64 4 -77 4q-3 0 -5 -1 q-1 -1 -4.5 -1.5t-5.5 -0.5l-12 -3q-41 -8 -53 22q-8 21 8 41q5 6 6 6q5 18 6 39q2 30 1 61q-1 27 -1 46q0 174 1 314t1 315v30q0 32 -1 46q-1 13 1 55q0 50 4 77q1 16 7 31q5 20 14 29q6 4 20 10q18 4 21 4q18 5 51 10q42 6 53 7h23q13 0 22 -7q13 -8 17 -24zM246 -2l4 16 q2 12 8 74q8 88 8 127q0 43 -12 180l-23 248q-10 136 -8 240q0 89 15 135v18h-9q-20 -1 -49 -6q-43 -7 -47 -8q-3 0 -6 -1l-6 -2t-4 -1v-2q-3 -17 -4 -23q-4 -25 -4 -73q-2 -39 -1 -54t1 -47v-28q0 -175 -1 -315q-2 -280 -2 -314l2 -34q1 -17 1 -42q0 -8 -4 -40 q-3 -28 -7 -42q10 2 15 2q9 0 82 -6q40 -2 45 -2h6zM211 1460q5 4 14 4q65 0 92 -49q20 -39 2 -96q-18 -51 -65 -83t-107 -17q-47 12 -66 61t-7 96q17 54 65 76q31 13 72 8zM254 1397q-60 21 -94 6q-27 -12 -35 -41q-8 -33 3 -58q12 -28 32 -32q37 -10 66 10t44 55 q10 33 0 54l-4 4q-4 0 -12 2z" />
<glyph unicode="j" horiz-adv-x="436" d="M295 1051q14 0 22 -13q15 -25 -8 -37q-6 -4 -14 -6v-12q2 -9 -4 -16v-17q0 -43 4 -104q0 -10 1.5 -35t2.5 -39q1 -28 5 -73q3 -35 3 -37q19 -294 15 -537q-4 -181 -21 -303q-21 -154 -63 -203q-49 -61 -134 -82q-83 -21 -163 -4q-22 6 -33 16q-13 16 -14 33q0 10 4 25 q2 16 2 18v21v37v36q0 9 2 17q2 6 2 8q5 9 14 14q13 8 33 4q5 -1 26 -8q28 -10 50 -8q20 0 36 25q26 37 33 118q17 168 -6 541q-23 367 -2 549q0 10 -4 39q-1 7 -4 24v11q0 8 2 16q6 15 24 21q7 4 23 6q21 4 56 4q36 0 57 -4q13 -1 24 -6q16 -6 23 -19q4 -6 6 -14v-6z M-53 -414h6q68 -15 137 3q70 18 107 63q33 40 51 176q15 110 20 297q4 252 -14 532q0 6 -3 39q-4 43 -5 72q-1 14 -2.5 39t-1.5 35q-4 61 -4 108q0 19 2 41q0 7 2 15v8v8v20h-9q-23 5 -48 5q-6 0 -48 -3q-2 -2 -4 -2q3 -9 4 -18q6 -37 4 -49q-21 -180 2 -541q24 -385 7 -549 q-10 -97 -41 -145q-30 -45 -80 -47q-29 -2 -68 10l-8 4v-24v-37v-25q0 -9 -4 -24q-2 -8 -2 -11zM211 1460q5 4 14 4q65 0 92 -49q20 -39 2 -96q-18 -51 -65 -83t-107 -17q-47 12 -66 61t-7 96q17 54 65 76q31 13 72 8zM254 1397q-60 21 -94 6q-27 -12 -35 -41q-8 -33 3 -58 q12 -28 32 -32q37 -10 66 10t44 55q10 33 0 54l-4 4q-4 0 -12 2z" />
<glyph unicode="k" horiz-adv-x="1091" d="M270 1407h-18q-16 0 -27 -1t-20 -1q-21 0 -27 20q-22 2 -28 2q-3 0 -5 -2q-4 -18 -4 -22q-2 -12 -8 -86q-6 -95 -6 -146q0 -59 -12 -184q-14 -146 -15 -178q-6 -192 4 -467q4 -92 5 -213q2 -98 2 -104v-25q8 0 13 1t23 1q4 0 9 0.5t8 1t4 0.5h3t4 -0.5t5.5 -1t7.5 -0.5 h25q12 -2 20 0h3q0 1 1 3l2.5 5t2.5 6q4 18 6 47q2 60 -2 134q0 7 -2 69q-1 22 -4 68v53q0 27 6 39q7 18 37 41l20 14q3 2 6 4.5t5 4.5t3 2q0 2 15 18q17 25 39 29q15 1 32 -11q9 -7 21 -20q18 -23 37 -57q14 -21 33 -59q18 -36 20 -38q22 -38 127 -196l80 -115 q13 -20 29 -39l8 -12q8 -4 45 -2q1 0 33 2q4 0 9.5 0.5t8 1t5.5 0.5h5q1 0 21 -2h22q11 0 19 2q-5 2 -13 8q-13 9 -20 18q-188 218 -375 590v2q-2 0 -6 6q-14 19 -6 40q8 20 35 22h4q15 11 65 61l119 121l113 121l28 35q-32 13 -69 20q-30 8 -41 9q-4 0 -9 0.5t-8 1t-4 0.5 q-5 -3 -30 -23q-32 -30 -56 -55q-38 -39 -137 -160l-127 -154l-43 -53q-8 -8 -16 -14q-5 -5 -8 -6q-8 -6 -19 -6q-21 1 -31 22q-5 9 -10 29q-5 24 -6 67q-2 30 -2 117q0 4 0.5 12.5t1 23.5t0.5 28q1 47 6 131l4 135q4 113 4 194v64v6zM377 481l-2 -2q-14 -19 -25 -28 q-8 -8 -16 -13q-4 -3 -7.5 -6t-7 -5t-4.5 -3q-19 -12 -20 -18q-2 -6 -2 -21v-49q3 -52 4 -69q2 -62 2 -68q4 -76 2 -140q-6 -47 -8 -55q-8 -31 -23 -43q-11 -11 -30 -12q-12 -2 -29 0h-27q-4 0 -8 0.5t-6 0.5l-2 1l-2 -1q-2 0 -5.5 -0.5t-6.5 -0.5h-27q-22 -2 -27 -2 q-16 1 -28 8q-7 5 -11 12q0 2 -2 4v4v5l-2 10v33q0 8 -2 104q-1 152 -4 215q-10 274 -4 467q1 47 14 184q13 123 13 178q0 54 6 150q6 72 8 88q2 21 6 33l4 12q4 9 13 16q13 10 36 11q7 0 37 -2q12 0 33 -3t27 -3q12 0 20 -13h15q18 -1 30 -10q9 -7 10 -16q3 -3 3 -9 q2 -10 2 -22v-66q0 -54 -5 -196l-4 -137q-4 -79 -6 -128q0 -12 -0.5 -27t-1 -23.5t-0.5 -12.5v-113q1 -32 6 -53l35 43l127 156q78 96 139 162q21 23 60 57q29 27 49 33q17 6 43 2q17 -1 49 -8q46 -12 80 -27l6 -2q2 -1 5.5 -2.5t4.5 -1.5q21 -10 25 -31q0 -4 -2 -14 q0 -1 -2 -5q-1 -2 -4 -5q-1 -1 -5 -6.5t-6 -8.5l-36 -43l-113 -121l-121 -123q-57 -57 -76 -69q-2 0 -4 -2q184 -366 367 -578q2 0 10 -8l23 -16q14 -16 16 -35q2 -24 -20 -41q-15 -14 -58 -14q-2 0 -24 2h-17l-24 -2q-32 -2 -35 -2q-52 -2 -72 10q-11 5 -26 24l-29 41 l-82 117q-101 151 -127 197q-1 3 -23 39l-30 59q-18 29 -33 49q-5 5 -6 8z" />
<glyph unicode="l" horiz-adv-x="423" d="M111 35v-2v2zM242 49q0 7 2 37q5 51 6 133q8 195 8 283q0 105 1 188t1 189q0 32 3 159t0 208q-3 82 -15 155l-60 12q-39 7 -57 8h-4v-24q-2 -50 -2 -103q0 -120 2 -174q0 -38 4 -101t4 -101v-103q-2 -71 -22 -244t-21 -237q-2 -46 8 -109q12 -97 13 -116v-21 q-2 -24 -2 -25q-2 -16 -2 -18q6 0 28 2q3 0 23 2q5 1 25 3q8 1 16 1q6 0 35 -4h6zM301 1397q12 -77 15 -159q3 -83 0 -206t-3 -153q0 -106 -1 -189t-1 -188q0 -90 -8 -285q-1 -77 -6 -133q-1 -18 -4 -43v-14q-2 -6 -3 -8t-1 -5q-5 -6 -13 -12q-18 -8 -45 -6q-6 2 -15 3 q-6 1 -15 1h-13l-20 -4q-16 -2 -25 -2q-32 -2 -39 -2q-8 0 -16 2q-14 1 -22 12q-8 8 -9 17q0 4 -2 14q0 5 2 29q0 2 0.5 5t1 9t0.5 12v17q-1 29 -12 108q-10 68 -8 117q2 86 22 244q20 175 21 237v103q0 39 -4 100t-4 102q-2 58 -2 174q0 53 2 105v35q0 4 2 12v4q0 4 2 6 q1 5 8 10q7 7 16 7q6 2 11 2q4 0 24 -2q6 0 60 -9q21 -2 39 -6q-5 25 20 31q27 6 33 -21q1 -4 2.5 -11.5t1.5 -10.5q2 -2 4 -2q25 -11 14 -35q-1 -7 -10 -12z" />
<glyph unicode="m" horiz-adv-x="1628" d="M256 1067l4 12q11 25 35 15q25 -11 14 -35l-2 -8q2 -6 2 -11q0 -10 -8 -18q0 -9 -2 -25q6 6 10 7q12 6 69 30q74 31 80 33q25 8 70 18q49 11 93 11q87 0 149 -86q16 -23 21 -31l16 -25q9 -13 16 -20q2 0 6 4q12 6 35 29q33 31 41 37q67 52 174 72q108 20 189 -1 q199 -50 239 -364q13 -109 13 -250q-2 -38 -2 -76v-70v-59q0 -23 4 -135q0 -44 -2 -84q0 -15 -2 -31q-2 -10 -2 -12q-4 -11 -11 -17q-11 -11 -39 -16q-15 -1 -39 0q-4 0 -36 2q-5 0 -9.5 0.5t-7 1t-5 0.5h-3.5l-23 -6q-32 -6 -49 8q-11 10 -16 33q-2 20 -2 39q0 28 8 106 q25 224 31 301q10 184 -19 289q-33 119 -120 125q-94 6 -146 -37q-45 -38 -67 -112q-9 -36 -13 -61q-5 -32 -6 -70q-2 -39 -3 -63q-2 -24 0 -71q1 -31 1 -61q0 -48 -6 -147q-4 -84 -4 -144q0 -10 1 -24t1 -35v-37q-1 -4 -2.5 -10.5t-1.5 -7.5q-2 -13 -10 -21 q-15 -12 -46 -12q-25 -2 -49 2q-11 1 -47 6q-21 4 -28 4h-7q-1 0 -7 -2t-11 -2q-30 -6 -47 12q-14 11 -14 45q0 20 4 45q2 17 6 45q4 21 4 29q16 217 16 367q0 120 -12 200q-12 90 -37 121q-7 10 -38 27q-30 17 -46 18q-19 5 -49 -6q-51 -16 -63 -18q-146 -21 -170 -246 q-11 -33 -4 -202q2 -50 4 -93.5t3 -61.5l1 -18q0 -66 -7 -143q-6 -49 -14 -82q-6 -20 -14 -33q-11 -19 -31 -24q-25 -6 -82 2q-30 5 -45 10q-28 7 -39 24q-20 28 -18 103q1 44 14 133l14 88q13 67 16 87q5 38 5 52q2 84 2 383v121v72q2 22 2 24v8v3v2v2q0 2 2 4q1 5 8 10 q5 5 10 6h3h2h2h2h6h6h10l56 -2q16 0 31 -0.5t22.5 -1t9.5 -0.5zM1464 14q2 10 2 25q2 40 2 80q-4 126 -4 137v59v70q0 40 2 76q0 147 -12 243q-34 279 -199 318q-74 18 -165 1q-98 -19 -152 -60q-12 -12 -37 -33q-22 -25 -43 -37q-14 -7 -18 -8q-17 -8 -31 -2q-24 7 -47 43 q-5 5 -16 23q-15 25 -19 30q-45 63 -106 63q-42 0 -82 -9q-48 -11 -63 -16q-30 -11 -75 -30l-71 -33q-4 0 -15 -20q-2 -3 -8.5 -10.5t-9.5 -10.5q-17 -14 -39 -6q-11 1 -16 17q-2 2 -2 6v8v16q0 3 1 11l2 16t1 16l4 17l-56 2l-53 2q0 -4 -2 -6v-72v-121q0 -299 -2 -383 q0 -22 -6 -59l-14 -90q-10 -54 -15 -86q-13 -83 -14 -127q0 -56 10 -72l10 -2q17 -7 35 -8q37 -6 62 -4v2q3 3 8 18q6 26 12 74q6 63 6 137q0 36 -4 107q-3 44 -5 134q-1 49 5 140q29 266 215 293q11 0 56 16q43 15 73 9q26 -5 62 -25q37 -21 55 -41q34 -40 49 -147 q13 -89 13 -207q0 -139 -17 -371q0 -9 -4 -33q-6 -28 -6 -43q-4 -21 -4 -39v-4q24 4 33 4q12 0 36 -4l45 -6q23 -4 41 -2h9v2v31q0 22 -1 36t-1 25q0 49 6 148q4 85 4 143q0 28 -1 59q-2 47 0 73q1 24 3 67q1 30 7 75q4 29 13 66q27 95 86 141q68 55 183 47q125 -8 168 -163 q30 -113 20 -306q-5 -79 -31 -305q-8 -78 -8 -102v-27l2 2q27 6 35 6q1 0 29 -2q32 -2 34 -2q21 -1 31 0h4z" />
<glyph unicode="n" horiz-adv-x="1087" d="M311 983l8 8q50 50 86 66q61 26 187 26q227 0 321 -184q66 -129 66 -371q0 -141 -10 -297q-7 -101 -19 -174q-6 -38 -14 -63q-6 -16 -10 -23q-7 -13 -23 -18q-7 -4 -33 -4q-30 -2 -49 -2q-29 -2 -47 0q-10 0 -18 2q-5 0 -11 2q-7 1 -14 8q-10 11 -10 35q-1 15 0 37 l14 110q30 234 35 308q12 189 -22 292q-39 123 -144 129q-66 4 -151 -53q-97 -66 -113 -135q-10 -33 -10 -154q0 -69 1 -124t1 -113q0 -147 -6 -225q-4 -37 -15 -84q-11 -42 -32 -56q-5 -4 -15 -4q-6 -2 -8 -2h-20h-31q-11 0 -27 -1q-25 -2 -37 0q-21 3 -32 5q-22 5 -35 10 q-30 17 -41 62q-6 30 -2 76q1 19 8 73q6 41 6 53q0 3 0.5 13.5t1 30.5t0.5 41l6 180q1 38 2.5 103t1.5 91q9 253 9 277q4 53 4 90q2 24 2 27q2 8 2 10q0 3 1 4t1 4q1 5 8 10q2 2 7 4.5l7 3.5q1 0 13 3q12 2 30 6q5 0 19 2q7 1 17 3q5 1 11 1q40 8 48 8q24 2 30 2q11 2 17 0 q12 -1 20 -8l8 -14v-3v-4v-6v-20v-60v-14zM883 2q0 1 1.5 4.5t2.5 5.5q5 15 10 54q10 61 18 170q11 170 11 292q0 227 -62 346q-78 156 -272 156q-115 0 -166 -22q-25 -11 -68 -54q-32 -32 -47 -43v-12q0 -27 -26 -27q-15 0 -23 13q-14 1 -22 14q-11 25 12 37q4 0 6 2v59v60 v2q-4 0 -14 -2l-5 -1q-5 -1 -17 -3t-25 -4q-5 0 -10 -1q-3 -1 -9 -1.5t-9 -0.5q-5 -1 -12 -2l-7 -2q-9 -1 -25 -4q0 -2 -2 -16q-3 -70 -4 -90q-1 -76 -8 -277q0 -27 -2 -92t-3 -102l-6 -178q0 -22 -0.5 -42.5t-1 -30.5t-0.5 -13q0 -15 -6 -60q-8 -48 -8 -69q-4 -38 2 -62 q4 -17 12 -22q14 -8 24 -9q18 -2 21 -2h33h29h31h16q2 4 8 23q7 27 12 74q7 89 7 221q0 3 -2 113q-1 55 -1 124q0 124 11 166q22 88 137 168q97 68 184 62q140 -11 191 -166q36 -109 24 -314q-6 -96 -35 -311q-13 -81 -14 -106v-27h2q18 -2 45 0h45q14 2 17 2z" />
<glyph unicode="o" horiz-adv-x="1105" d="M778 641q-20 0 -24 18q-33 105 -97 168q-2 1 -9 5.5t-11 6.5q-11 5 -12 15q-19 16 -39 23q-129 60 -224 -31q-87 -84 -110 -254q-15 -110 6 -212q21 -101 82 -177q62 -76 158 -94q100 -21 178 65q74 83 102 223q27 130 0 244zM690 868q102 -67 136 -202q34 -133 5 -279 q-33 -158 -116 -248q-99 -108 -226 -84q-117 22 -189 113q-72 90 -95 202q-23 111 -6 228q27 188 127 287q122 114 280 41q44 -21 84 -58zM924 705q-8 27 -12 41q-7 26 -9 38q-22 77 -53 115q-70 85 -168 122q-101 38 -201 31q-103 -8 -209 -48q-1 0 -4.5 -2t-5.5 -3 q-69 -28 -96 -59q-71 -88 -109 -222q-37 -131 -26 -259q7 -120 77 -238t168 -190q68 -49 143 -69q73 -20 151 -2q80 18 151 77q117 96 177 257q60 162 44 318q-2 16 -12 62q-5 17 -6 31zM975 743v-28q0 -2 16 -45q5 -12 0 -23q1 -6 2.5 -16t1.5 -15q17 -170 -48 -342 q-64 -172 -193 -278q-79 -67 -173 -87q-92 -19 -176 2q-79 20 -159 77q-112 80 -185 207q-74 128 -84 260q-10 131 29 278q39 143 119 240q17 21 43 39q20 13 37 20q7 6 47 21q115 46 227 53q111 6 222 -36q112 -43 190 -138q41 -50 63 -133l9 -31q12 -8 12 -25z" />
<glyph unicode="p" horiz-adv-x="1142" d="M801 668q-4 -4 -8 -4q-27 -8 -33 16q-11 30 -27 59q-38 33 -133 92q-20 14 -8 35q-101 27 -178 -53q-83 -86 -107 -242q-22 -158 35 -288q58 -130 184 -154q48 -10 109 37q57 45 110 131q48 82 73 163q26 85 16 128q-7 39 -33 80zM776 774q90 -80 111 -174 q12 -59 -17 -153q-29 -96 -79 -179q-58 -92 -123 -143q-79 -64 -150 -49q-110 21 -175 103q-67 84 -85 186q-18 104 -2 213q24 175 119 272q111 114 258 59q81 -30 143 -135zM287 72v-4v-19q-5 -41 0 -211q4 -152 -11 -209q-6 -23 -38 -39q-19 -9 -52 -16q-32 -7 -55 -8 q-31 0 -47 6q-18 7 -29 33q-5 14 -10 43q-6 40 -6 108q0 89 8 183q9 84 14 214q5 128 5 199q0 31 -1.5 107t-1.5 113q-2 182 -2 204q0 2 -8 133q-6 93 4 142q4 14 19 24q7 5 22 10q25 12 54 19q27 7 55 12q16 2 22 2q17 2 23 -2q21 -8 29 -41q4 -18 6 -47v-14l20 8 q52 27 72 33q72 25 178 27q101 1 180 -29q37 -16 73 -51q37 -35 52 -56l49 -63q75 -106 106 -246q30 -137 9 -269q-22 -136 -102 -247q-83 -115 -215 -174q-95 -37 -187 -22q-88 15 -172 71q-22 14 -61 72zM225 -354q12 51 8 190q-4 172 0 217v4v11v30q1 18 7 33 q11 29 36 29q10 0 17 -6q3 0 4 -3q2 -4 4 -6t8 -12l25 -35q33 -50 45 -57q75 -52 151 -64t158 19q156 69 233 223q77 153 60 325t-115 306q-27 40 -45 64q-23 29 -46 50q-33 29 -58 40q-65 27 -159 25q-97 -2 -163 -23q-10 -4 -65 -31q-28 -16 -43 -21q0 -10 -8 -18t-19 -8 q-20 0 -24 18q-10 8 -11 15q-6 18 8 28v37q-1 9 -2.5 22t-1.5 15l-2 2q-2 0 -12 -2q-17 -1 -49 -10q-17 -4 -47 -17q-2 0 -13 -4q-6 -30 0 -119q2 -35 4.5 -69t3.5 -49.5t1 -18.5q0 -114 1 -205q0 -38 0.5 -114t1.5 -107q1 -84 -3 -202t-15 -214q-8 -94 -8 -178 q0 -62 6 -100q1 -20 6 -31q2 -2 2 -4q10 -2 23 -2q21 1 45 6q18 4 41 15q5 1 10 6z" />
<glyph unicode="q" horiz-adv-x="1101" d="M672 758q-9 17 -25 39q-61 99 -141 116q-65 15 -125 -41l-29 -22q-11 -10 -24 -23l-21 -22q-13 -13 -20 -27q-62 -102 -45 -289q18 -186 102 -270q34 -33 105 -45q70 -12 86 -8q37 7 77 61q38 51 72 138q28 76 43 151q14 73 6 117q-5 29 -59 94q-12 15 -2 31zM788 606 q2 -113 -55 -262q-35 -90 -78 -147q-51 -72 -108 -84q-26 -4 -107 8q-88 15 -133 61q-99 96 -117 303q-21 202 52 322q14 20 24 32q15 18 25 25l28 27q6 6 14.5 13t10.5 9q81 75 174 54q100 -22 174 -142q23 -38 56 -96q30 -57 51 -84q15 -23 -6 -39h-5zM942 -408q0 4 -1 6 q-1 1 -9 13q-14 17 -19 33q-12 52 0 151q15 117 15 139q0 63 -5 165q-1 27 -15 214q-10 133 -11 191q-21 343 14 528q-32 0 -71 4q-21 3 -47 4l10 -45q9 -41 10 -49q0 -14 -2 -24q-8 -25 -29 -27q-27 -4 -49 27q-11 20 -14 20q-3 3 -35 33l-37 33l-35 25q-25 18 -39 26 q-17 10 -38 16q-186 53 -322 -94q-123 -130 -156 -338q-18 -102 -2 -222q17 -122 66 -218q114 -226 344 -209q144 10 199 67l2 5q3 3 6 4l6 8q10 11 27 28q26 23 36 27q33 15 54 -8q18 -21 6 -55q-6 -22 -6 -25q0 -84 -31 -391q-4 -27 -4 -41v-21q8 -2 18 -2h25q5 0 10 0.5 t8 1t4 0.5q13 0 30 -1t42 -1q17 0 37 2h8zM750 987q-2 12 -11 47q-1 4 -2.5 12t-1.5 11q0 15 6 26q6 10 13 11q1 0 3 1t3 1h6h6q2 0 18 -2h21q2 0 33 -4q88 -6 110 -3q12 2 20 -5q10 -8 11 -17q5 -23 -18 -29q-38 -180 -17 -530q1 -35 12 -190q11 -146 14 -216 q5 -102 5 -166q0 -34 -14 -147q-11 -86 0 -131q0 -3 8 -14q13 -15 18 -33q6 -35 -12 -53q-12 -12 -41 -17q-22 -2 -43 -2q-25 0 -42 1t-30 1q-1 0 -3.5 -0.5t-6.5 -1t-8 -0.5h-29q-15 0 -31 2q-19 4 -32 17q-7 8 -8 18v14v27q3 25 4 43q30 297 30 387q0 12 4 27l-4 -4 l-24 -25q-1 -3 -6 -8l-7 -6l-4 -4q-68 -72 -231 -84q-139 -11 -237 55t-158 182q-53 106 -71 236q-18 127 1 237q34 222 170 367q159 169 377 106q26 -7 44 -16q22 -11 46 -29q35 -26 37 -28q26 -22 40 -36q28 -27 32 -28z" />
<glyph unicode="r" horiz-adv-x="747" d="M586 1028h-6h-15h-6h-6q-82 0 -136 -27q-55 -28 -95 -94v-4q0 -1 -1 -3q-2 -4 -2 -6q0 -5 -2 -7q-2 -18 -6 -25q-15 -20 -37 -16q-24 5 -30 28q-2 10 0 27q2 1 3 9q1 5 1 10q0 2 1 5q1 4 1 5q0 11 -8 53q-4 30 -6 51q-10 0 -18.5 0.5t-12.5 1.5h-4q-46 2 -56 -2 q-2 -2 -2 -8q-2 -11 0 -35q4 -32 2 -51q-39 -340 -39 -602q0 -66 5 -166q1 -60 6 -98q0 -2 4 -29q8 -2 14 -2q21 -4 55 -4h52q6 0 12 2q2 6 2 12q2 32 2 70q0 61 -6 213q-8 216 -8 227q-2 117 6 152q30 115 158 162q18 7 98 28q43 11 76 25v6q4 29 4 41q2 32 2 39q0 4 -2 12 zM588 1026h2h-2zM299 969q85 112 254 112h4h6h21q13 0 22 -4q18 -6 25 -18q9 -17 10 -41q0 -9 -2 -45q0 -12 -4 -43q-2 -28 -2 -29q0 -27 -27 -27l-12 3q-32 -10 -74 -23q-64 -18 -96 -29q-98 -34 -121 -123q-7 -28 -6 -139q0 -6 8 -225q6 -153 6 -215q0 -38 -2 -74 q-1 -7 -2.5 -16t-1.5 -10q-5 -19 -14 -25q-6 -5 -23 -10q-6 0 -22 -2h-58q-13 1 -33 2.5t-24 1.5q-33 5 -43 10q-11 5 -16 18q-3 10 -4 15q0 1 -2 13.5t-3 21.5q-5 39 -6 102q-4 81 -4 168q0 264 39 606q2 14 -2 41q-5 35 0 53q8 30 29 41q23 15 86 11q20 -1 38 -2.5 t25 -1.5l8 -1q14 0 21 -7q8 -8 8 -17q2 -20 -16 -27l6 -41q4 -20 4 -24z" />
<glyph unicode="s" horiz-adv-x="1052" d="M70 305q1 -12 9 -54q10 -54 11 -58q11 -44 13 -51q9 -31 20 -50q16 -27 26 -41q17 -23 37 -39l25 -16q14 -9 29 -13q11 -3 25 -10q8 -4 30 -7q26 -4 27 -4t30 -2q16 -1 29 -1h37h33q217 0 335 82q140 97 97 297q-27 129 -109 190q-64 47 -180 68q-8 1 -21.5 3t-36 5 t-42.5 6q-65 10 -97 17q-110 24 -149 90q-39 65 0 131q29 50 104 88q67 35 141 47q75 12 128 -6q93 -34 116 -129q6 -20 11 -45q7 -35 10 -43q18 -1 57 -8l35 -4q-16 98 -44 154q-27 54 -101 99q-137 84 -283 66q-147 -18 -248 -139q-82 -98 -82 -215q0 -97 96 -154 q66 -41 228 -84q188 -49 237 -76q119 -60 109 -161q-4 -48 -51 -86q-26 -20 -76 -46q-130 -70 -240 -43q-118 30 -186 162q-3 12 -6 23q0 1 -6 28q-1 4 -2.5 9t-3 8.5t-1.5 5.5v2h-2q-2 0 -22 2h-25h-20q-28 2 -45 2h-6zM16 295l-4 8q-13 25 2 43q4 5 15 10q1 0 3 1t3 1h14 h29q17 0 47 -2h18h25q2 0 29 -4q18 -1 30 -10q3 -4 9 -14q2 -8 6 -13q1 -9 6 -28q6 -23 6 -25l4 -12q56 -111 150 -135q90 -23 202 37q50 28 68 41q30 23 31 49q6 66 -80 110q-57 27 -226 72q-170 46 -243 90q-121 73 -121 199q0 136 94 248q116 136 281 157q169 23 319 -71 q27 -17 47 -41q22 -27 38 -55q15 -27 29 -58q13 -30 21 -57l15 -48q4 -13 11 -30q4 -10 9 -6l4 -9q13 -25 -2 -43q-3 -3 -9 -7q-4 -3 -7 -3h-4h-8q-3 0 -19 2q-8 0 -24 3t-27 3q-17 5 -31 6l-8 -12q-22 -15 -39 6l-4 9q-3 0 -12 -3q-27 -6 -33 21t20 33h2q-5 17 -9 43 q-1 8 -2.5 15.5t-3 13t-1.5 6.5q-16 65 -86 92q-33 15 -99 3q-68 -12 -124 -42q-61 -30 -84 -70q-22 -37 0 -74q28 -46 117 -67q37 -7 90 -14q74 -10 102 -17q128 -22 203 -76q101 -74 131 -221q47 -237 -121 -354q-131 -90 -364 -90h-33h-35q-16 0 -32 1q-6 0 -13.5 0.5 t-12.5 1t-9 0.5q-24 3 -31 4q-19 3 -35 9l-31 12q-16 5 -34 16q-12 7 -31 21q-33 25 -53 52q-22 29 -36 71q-22 63 -22 64q-7 23 -15 75q-6 40 -12 62z" />
<glyph unicode="t" horiz-adv-x="630" d="M467 1044q-9 3 -14 3q-9 0 -47 -7q-42 -8 -56 -8q-37 -1 -55 17l-8 12v4v4v10v33q3 67 4 94q2 58 6 115q-65 4 -98 -4q-20 -4 -25 -17q-5 -14 -4 -63q2 -78 0 -123q0 -7 -0.5 -13.5t-1 -10.5t-0.5 -5q-2 -16 -2 -20q0 -2 -2 -8q0 -8 -4 -13q-7 -11 -27 -18q-9 -4 -24 -4 q-23 -2 -60 0q-2 0 -7.5 0.5t-17.5 1t-24 0.5q0 -10 4 -23q8 -59 8 -65v-10q0 -10 -1 -17t-1 -18v-8l21 10l24 12q40 15 64 -4q26 -20 26 -78v-159q0 -4 -0.5 -14.5t-1 -30.5t-0.5 -39q-2 -77 -3 -130q-1 -36 1 -151q5 -130 19 -201q12 -43 20 -61q11 -17 17 -17 q27 -6 58 -6q17 0 75 2t65 2q6 0 31 -4h12q4 1 4 27q0 1 -2 29t-2 29q0 11 4 24q-28 -9 -43 -10q-85 -12 -118 49l-3.5 10.5t-3.5 11.5q0 5 -2 29q-2 12 -8 86q-6 101 -9 244q-3 141 -3 243q0 40 2 84q0 13 2 27q0 4 2 10q0 9 4 13q16 23 57 28q24 2 62 -2q40 -4 57 -4 q15 0 25 2q2 6 2 8q3 12 5 40q1 17 -1 40q0 6 -2 12zM113 1075q2 8 2 15q0 1 0.5 4.5t1 10t0.5 13.5q1 44 0 117q-1 61 6 84q15 41 65 51q36 9 113 4q6 18 27 17q8 0 17 -9q7 -7 7 -20l-8 -158q0 -5 -4 -94v-25h8q7 0 47 7q33 8 58 8q36 0 57 -21q5 -7 10 -22q0 -5 2 -19 q1 -22 0 -49q0 -28 -4 -47q-4 -11 -6 -20q-6 -15 -16 -21q-21 -12 -60 -12q-20 0 -61 4q-30 4 -51 2q-11 0 -15 -4q-2 -14 -2 -25q-2 -38 -2 -82q0 -98 3 -239q3 -142 9 -242q5 -54 9 -86q0 -10 2 -24l2 -7q12 -27 61 -20q8 1 45 10q6 1 19 4q16 1 26 -4q29 -15 19 -53 q0 -3 -4 -13q-2 -7 -3 -8t-1 -4l2 -22q2 -30 2 -35q0 -56 -33 -74q-18 -8 -43 -4q-7 0 -12 1t-13 1q-1 0 -61 -2t-81 -2q-37 0 -65 6q-32 6 -53 45q-15 25 -26 76q-16 78 -21 209q-2 115 -1 152q1 57 3 131q0 19 0.5 39t1 30.5t0.5 14.5v159q0 30 -4 35q-2 0 -12 -2l-21 -10 q-17 -10 -22 -10q-39 -19 -58 -9q-11 6 -16 17q0 2 -2 8v12v29q0 11 1 18t1 17v8q0 1 -8 57q-4 22 -6 35v14q0 11 2 21q6 8 16 12q1 1 6 3q3 1 11 1q2 0 18 -2q8 0 21 -1t32 -1q33 -1 51 0h11z" />
<glyph unicode="u" horiz-adv-x="1062" d="M766 33h8q10 0 17 -4q4 0 18 2q41 1 72 8q13 2 20 6q4 27 -6 104l-6 46l-8 49q-2 28 -2 32q-13 202 -13 500q0 22 1 53t1 80v78q0 13 -2 23l-6 2q-15 5 -43 12l-41 10q0 -4 2 -14v-29q0 -4 0.5 -8t1 -6.5t0.5 -3.5q0 -37 3 -154q1 -41 3 -100.5t2 -79.5q5 -247 -16 -322 q-30 -102 -128 -165q-99 -64 -204 -46q-119 21 -166 181q-32 111 -32 313q1 53 14 307q4 71 4 105q0 14 -2 28v2h-6h-31q-3 0 -35 -2q-6 0 -12 -0.5t-9 -1t-5 -0.5q-10 0 -33 6q0 -4 -2 -14q-4 -69 -4 -82q-2 -128 -2 -250q1 -339 12 -411q12 -105 55 -170q52 -82 189 -103 q132 -22 227 29q43 21 88 88q0 2 2 4q5 6 6 10q16 25 39 19q17 -5 23 -23q0 -1 1.5 -7.5t2.5 -10.5q2 -20 2 -39v-37v-14zM713 72q-42 -55 -86 -78q-111 -57 -260 -33q-158 24 -226 127q-48 71 -63 191q-8 77 -12 419q0 124 2 252q2 56 6 86q0 13 2 27l4 12q2 8 10 15 q17 14 47 8q8 -2 11 -3q1 0 4 -1q3 0 4 -1t4 -1h3.5t5 0.5t6.5 1t7 0.5q36 2 37 2h37q26 -1 39 -13q9 -9 14 -32q4 -13 4 -39q0 -40 -4 -109q-13 -253 -14 -303q0 -189 31 -299q39 -126 122 -141q88 -15 168 38q81 53 103 136q21 66 16 305q0 18 -2 77t-3 102q-3 119 -3 155 v16q-2 22 -2 29q-2 18 0 29v14q1 11 10 20q7 6 19 6q1 0 3.5 1.5t4.5 1.5q1 0 8 -2t12 -3q13 -1 47 -10q27 -6 48 -12q11 -5 16 -6l8 -4q5 -1 10 -6q4 -7 6 -17q0 -1 1 -3.5t1.5 -4.5t0.5 -4q2 -14 2 -29v-80q0 -49 -1 -80t-1 -53q0 -312 12 -495q0 -7 2 -35l8 -45 q4 -27 6 -45q12 -92 4 -131q-6 -19 -28 -29q-6 -2 -33 -8q-43 -10 -78 -11q-36 -4 -59 -2h-4q-6 0 -11 5q-13 6 -14 20v2q-11 6 -12 21v10v14v25z" />
<glyph unicode="v" horiz-adv-x="1083" d="M514 18l4 11q6 13 12 34q8 24 33 105l33 113q10 32 25 73q28 67 65 162l72 182l67 156l78 172q-23 -2 -53 2q-51 6 -68 -2q-5 -1 -16 -18q-10 -16 -23 -50q-21 -48 -49 -149l-26 -104l-29 -109q-10 -35 -20 -64q-71 -181 -82 -235l-2 -14l-7 -29q0 -2 -4 -29l-4 -12v-6 l-4 -6q-6 -7 -14 -8q-15 -6 -27 4q-3 1 -10 8q-7 9 -14 20q-13 20 -31 62q-33 75 -51 133q-9 38 -99 346q-40 136 -63 205q-16 47 -25 67l-6 19l-2 2q-14 2 -35 2q-16 -3 -28 -4q-28 -2 -29 -2h-21q-4 0 -9.5 0.5t-8 1t-5.5 0.5h-5h-19q2 -6 2 -10q3 -13 19 -76 q28 -104 39 -127l69 -144q50 -101 82 -176q9 -23 37 -118q24 -82 47 -168q26 -86 56 -156q12 -32 24 -49l12 -17q12 -4 64 -2q19 0 39 2q8 2 10 2zM479 285l2 6q0 5 0.5 9t0.5 6l1 3q17 72 86 244q7 22 18 58q1 3 27 105q7 26 29 107q27 99 51 156q15 35 27 57q17 28 37 39 q28 14 98 6q55 -6 72 4q14 6 28 -4h5q23 -12 12 -37q-46 -90 -86 -181q-12 -28 -37 -84t-35 -79l-78 -194l-67 -172q-9 -21 -23 -70l-33 -110q-23 -81 -32 -107q-2 -7 -15 -39q-6 -18 -12 -24q-11 -14 -41 -19q-19 -4 -47 -4q-60 -1 -82 6q-19 5 -41 37q-14 20 -29 57 q-26 63 -55 160l-49 170q-24 89 -35 113q-33 77 -82 175q-39 78 -69 144q-14 31 -41 133q-17 71 -19 80q-4 16 -4 29q-2 10 -2 12q2 16 12 23q7 6 17 8q8 2 14 2h33l28 -2h19q1 0 4 0.5t8 1t10 0.5q2 0 33 4q51 2 70 -12q9 -7 16 -21q4 -6 10 -22q7 -18 25 -72 q24 -69 64 -207q80 -273 100 -348q12 -48 47 -123z" />
<glyph unicode="w" horiz-adv-x="1540" d="M1368 1001q-15 -10 -33 3q-4 3 -16 8q-18 7 -37 12q-26 7 -37 8h-8v-2q-1 -27 -6 -39q-73 -153 -114 -295q-46 -160 -89 -368v-4q-2 -16 -2 -21q0 -4 -1 -7.5t-2 -7.5t-1 -5q-7 -22 -27 -27q-13 -2 -20 4q-4 1 -7 6q-2 3 -7 8l-11 21q-9 20 -22 61q-31 93 -41 156 q-14 82 -64 293q-28 111 -45 170q-3 10 -20 57q-1 2 -3.5 7.5t-4.5 7.5q-10 2 -19 2q-28 2 -51 2q-21 0 -53 -2q-14 -2 -19 -2q0 -6 -4 -13q-12 -32 -20 -63q-37 -121 -56 -195q-74 -280 -82 -323q-1 -6 -6 -43q-6 -62 -6 -72q-8 -58 -10 -70q-1 -7 -4 -24l-4 -13 q-6 -12 -19 -14q-13 -4 -26 4q-8 6 -11 10q-6 6 -12 21q-8 15 -26 57q-16 43 -37 109q-11 36 -17 74q-2 12 -9 61.5t-13 86.5q-13 85 -19 136q-23 139 -37 199q-8 41 -18 65l-10 19q0 2 -8 2h-21q-10 -2 -24 -2q-22 -2 -23 -2l-2 1q-3 0 -7 0.5t-9 0.5h-27q-8 0 -14 2v-12 q1 -21 8 -78q11 -101 16 -125l10 -62l13 -67q4 -27 12 -55q23 -73 98 -263q73 -185 97 -266q2 -4 8 -29q1 -4 2 -9.5t1.5 -8t1.5 -5.5t1 -5q7 -26 16 -39q15 -4 17 -4q21 -6 48 -9q24 -3 48 -1h10q4 10 4 14q7 25 17 72l49 221q41 192 55 239q28 118 47 158l4 10l8 27 q5 19 9 29q1 2 2.5 5.5t1.5 4.5q1 3 4 6q7 10 20 12q17 2 33 -14q7 -8 14 -23q14 -27 29 -65q24 -72 45 -150l72 -288l47 -170q13 -42 18 -58q1 -3 2.5 -6.5t3 -5.5t1.5 -4l2 -2l10 -2q3 0 16.5 -1.5l22.5 -2.5q49 0 65 6q7 0 17 16q9 14 28 53q30 68 58 172q19 66 49 191 l31 121q11 40 44 120q34 83 44 115q0 6 8 25l16 47q3 10 10 26t9 23q12 34 18 57zM981 367q42 200 87 354q41 141 114 295q2 0 2 18q2 33 22 45q15 11 45 6q13 -1 45 -10l29 -8q6 25 31 20q3 0 5 -1t5 -1q8 0 18 -2q32 -6 43 -24q7 -8 5 -21q0 -2 -1.5 -6t-1.5 -6 q-1 -10 -6 -27q-6 -23 -24 -71q-5 -18 -17 -51l-18 -46l-8 -24q-11 -38 -43 -119q-31 -80 -41 -117q-6 -7 -32 -119q-25 -104 -50 -192q-32 -111 -62 -176q-19 -46 -32 -64q-22 -31 -43 -38q-31 -7 -82 -7q-11 1 -27.5 3t-19.5 2q-31 6 -41 18q-7 7 -11 16q0 1 -8 21 q-1 3 -8 23.5t-12 35.5l-47 172l-74 291q-21 84 -43 143q-4 12 -14 37l-5 -14q-5 -17 -6 -21q-16 -29 -45 -145q-18 -70 -55 -238l-47 -221l-19 -73q-2 -16 -6 -23q0 -4 -2 -10l-8 -12q-8 -7 -24 -11h-23q-29 -2 -55 2q-40 6 -56 9q-11 4 -20 6q-16 6 -23 12q-16 21 -28 63 q0 1 -2 11.5t-4 19.5q-2 7 -4.5 15.5t-2.5 9.5q-29 88 -98 262q-68 174 -96 266q-11 31 -17 62q-7 37 -12 70q-8 47 -10 57q-5 24 -16 131q-9 71 -9 79q-2 22 -2 27q0 4 2 12v7q1 6 9 12q7 9 18 10h14q11 2 29 0q5 0 29 -2h14l16 2q19 0 27 2h29q17 -1 28 -6q20 -11 35 -49 q13 -29 23 -72q15 -66 37 -205q2 -14 8.5 -60.5t10.5 -76.5q3 -24 7.5 -56t7.5 -52.5t5 -34.5q7 -44 14 -68q19 -55 39 -104l4 -15q0 3 1.5 12l2.5 15q0 10 6 72q5 40 6 47q10 50 84 327q50 181 55 199l23 66q7 18 8 20l4 8q6 8 15 13q7 3 41 8q36 2 57 2q25 0 55 -2 q20 -2 25 -2q18 -7 20 -8q10 -8 17 -19l10 -20q8 -17 20 -62q16 -51 47 -174q50 -198 66 -297q10 -59 39 -145z" />
<glyph unicode="x" horiz-adv-x="1056" d="M879 20q-11 19 -41 54q-53 58 -56 63q-116 154 -196 336l-2 2q-1 2 -4.5 6t-6.5 8q-16 20 -16 39q0 26 16 62q12 28 39 69q39 63 119 162l117 146q32 38 37 49q-8 0 -74 8q-61 6 -78 0q-18 -8 -53 -59q-22 -37 -66 -117q-39 -73 -65 -119q-12 -20 -29 -41 q-20 -21 -39 -26q-11 -1 -26 6q-15 12 -17 14q-14 14 -32 41q-28 46 -74 125l-74 129q-41 67 -47 74q-7 6 -35 6h-31q-4 0 -9.5 -0.5t-8 -1t-5.5 -0.5h-5h-3t-4 0.5t-5.5 1t-6.5 0.5h-24q-10 2 -15 2v-4q7 -18 29 -60q43 -72 115 -176l123 -176l41 -59q3 -5 7 -12t5 -9l4 -8 q5 -13 0 -25q-7 -13 -27 -20q-10 -2 -20 -2h-10q-16 -19 -45 -62l-131 -204q-76 -118 -117 -207q-7 -11 -15 -23l-6 -8q33 -8 82 -14q40 -2 53 -2q17 -2 23 0q3 1 8 8q22 28 29 37l82 114l55 82l53 78q14 20 29 41v2q5 6 6 10q16 25 39 19l12 -8q1 0 3 -2q0 -1 1 -2l2 -2 l7 -9l20 -32l66 -97q96 -143 106 -157q40 -47 135 -54q36 -2 56 4zM475 719l4 4q7 8 25 35q3 4 63 114q44 83 70 121q39 64 76 80q27 12 104 4q66 -8 72 -8q12 4 22 0q17 -2 23 -16q14 -10 14 -27q0 -9 -4 -16q0 -5 -4 -9q-1 -1 -3 -4t-4.5 -6t-4.5 -6q-10 -17 -39 -51 l-117 -146q-76 -95 -115 -157q-25 -39 -36 -64t-11 -35q0 -2 6 -10q14 -19 19 -28q78 -177 188 -324l54 -61q37 -41 53 -72q15 -22 0 -43q-8 -17 -31 -23q-26 -10 -80 -8q-119 11 -172 74q-11 12 -110 162l-64 96l-10 14l-29 -43l-51 -73l-51 -76l-82 -115q-3 -4 -31 -39 q-8 -10 -12 -14q-8 -8 -17 -10q-16 -6 -45 -5q-20 0 -57 5q-59 6 -96 14q-27 8 -35 29q-8 19 2 38q13 21 14 23q2 3 4.5 6.5t4.5 6t2 3.5q48 100 120 211l132 205q31 51 55 72q9 9 28 14l-36 51l-123 176q-75 108 -117 181q-28 50 -33 69q-6 18 -6 31q0 22 14 33q6 6 17 8 q4 0 14 2q5 0 27 -2q4 0 26 -2h15l24 2h35q47 0 72 -23q17 -15 55 -83l76 -132q43 -77 72 -118q21 -32 24 -35z" />
<glyph unicode="y" horiz-adv-x="1075" d="M100 -399h17q13 0 23 1t20 1q116 0 178 28q70 34 130 123q59 89 97 258l29 142q17 84 35 141q11 43 30 94l43 115l37 96q3 9 21 49l39 92l41 99q36 84 55 139q7 19 14 47q0 2 1 4.5t2 4.5t1 3q-2 0 -22 2q-10 0 -45 4h-43h-10q-5 -8 -9 -24q-9 -26 -18 -57 q-2 -8 -7.5 -29t-8.5 -31q-7 -34 -13 -49q-58 -189 -202 -535q-7 -17 -21 -71l-10 -39q0 -2 -1 -4.5t-2 -4.5t-1 -3q0 -5 -1 -6t-1 -3t-2 -4l-9 -8q-23 -12 -43 2q-10 6 -22 25q-16 23 -33 71q-21 62 -37 129q-2 18 -16 72l-29 131l-33 133q-30 121 -55 191l-24 67 q-12 24 -19 29q-4 4 -26 10q-30 7 -58 10q-33 3 -59 3q-20 -2 -23 -2q6 -6 8 -13q21 -38 39 -123q17 -85 29 -116q16 -45 76 -144q59 -97 80 -147q44 -99 93 -252q53 -163 73 -252q24 -118 -23 -190q-39 -60 -123 -84q-50 -15 -129 -21q-10 0 -19.5 -0.5t-14 -1t-5.5 -0.5 l4 -16q6 -45 6 -49q0 -8 -4 -35v-2zM459 246l4 14q16 66 22 80q150 360 203 530l12 48q3 15 15 57q11 39 18 63q11 31 25 45q9 9 22 13q10 2 21 2h47q3 0 15 -1.5l20 -2.5q7 6 18 6h14q12 0 19 -4q25 -8 33 -41q2 -16 -4 -41q-1 -3 -19 -53q-22 -64 -55 -142l-41 -96 l-37 -92l-23 -51q-2 -6 -7.5 -21.5t-12.5 -34t-14 -37.5l-43 -112q-18 -49 -33 -96q-13 -44 -31 -136q-8 -37 -16 -73t-11.5 -51.5t-3.5 -18.5q-39 -177 -104 -274q-69 -104 -154 -144q-72 -33 -198 -33h-17q-20 -2 -24 -2h-29q-22 5 -33 15q-15 18 -10 49q0 4 2 12l2 8v7 l-6 40q0 2 -4 29v10q0 14 4 19q6 11 23 16q14 4 18 4q2 0 7.5 0.5t16 1t21.5 0.5q67 6 117 19q64 21 92 61q35 53 14 150q-22 102 -70 248q-45 139 -91 247q-20 44 -78 142q-57 97 -78 149q-14 34 -31 127q-15 74 -31 105l-4 2q-20 12 -22 30q-2 34 28 52q18 10 54 12 q30 0 66 -3q28 -2 65 -12q36 -7 51 -21q14 -12 29 -46q9 -17 28 -72q36 -114 56 -196q9 -33 32 -134l31 -131q10 -48 17 -71q18 -79 34 -125q4 -11 11 -27.5t8 -17.5z" />
<glyph unicode="z" horiz-adv-x="1032" d="M860 1036q-4 0 -14 2q-71 4 -80 4q-86 2 -250 0q-20 0 -144 -2t-128 -2q-142 -2 -183 0h-4v-12v-31v-32q0 -36 6 -54q4 -15 13 -20q22 -12 86 -12q53 -2 139 6q83 8 145 14q94 8 115 8l10 2l17 4q16 1 26 0q23 -5 29 -26q8 -34 -29 -58q-3 -2 -9 -5t-9 -5q-9 -5 -14 -10 q-22 -20 -66 -72q-47 -57 -70 -80q-54 -56 -147 -194q-91 -137 -154 -203q-17 -17 -32 -31q-32 -27 -37 -32q-42 -36 -47 -60v-2q0 -4 -1 -7t-1 -11q0 -13 2 -45q0 -6 4 -43v-11h12q9 0 59 2l48 5q17 1 42 5q19 3 23 3q62 2 82 1q6 0 49.5 -1.5t81.5 -3.5q88 -4 150 -4 q135 -4 208 0q57 6 68 8q3 1 14 4v2q0 4 -2 20q0 1 -2 9.5t-4 15.5q-4 13 -4 22v25v33q-2 22 -2 24q-4 0 -6 -2q-8 -1 -35 -10q-61 -19 -74 -22q-90 -14 -239 -29q-90 -10 -146 -12h-51q-4 1 -18 4q-17 2 -23 12q-25 31 2 82q20 36 53 76q27 30 66 69l39 41q16 21 102 117 l140 156q100 119 131 159q27 36 45 62q14 22 16 33q4 15 4 63v39q-2 8 -2 12zM551 852q-26 0 -98 -8q-31 -3 -59.5 -5.5t-44.5 -4.5t-29 -3.5t-15 -1.5q-90 -7 -145 -6q-73 0 -109 17q-29 15 -39 55q-8 26 -8 66v34v31q0 32 -4 41q-11 24 14 35q24 10 35 -15q8 5 17 5 q37 -1 176 0q7 0 129 2t143 2q168 2 252 0q13 0 86 -4q14 -1 27 -7q2 0 4.5 -1t4.5 -2t3 -1q12 -6 16 -16q3 -6 8 -35v-45q0 -55 -4 -76q-6 -23 -24 -49l-47 -65q-36 -48 -136 -162l-137 -156l-102 -115q-6 -8 -43 -45q-45 -47 -62 -67q-30 -36 -47 -66q-6 -11 -6 -20h2h45 q36 1 142 10q165 17 237 31q7 0 64 20l41 13q26 6 41 0q12 -5 20 -17q1 -2 8 -18q0 -3 1 -10t2 -14.5t1 -14.5v-35v-20q0 -4 4 -15q5 -20 5 -26q4 -15 4 -29q1 -16 -7 -33q-6 -12 -22 -18q-13 -7 -29 -8q-33 -7 -75 -11q-76 -4 -211 0q-59 2 -154 6l-127 5q-11 0 -38.5 -1.5 t-39.5 -1.5q-1 0 -4 -0.5t-8.5 -1t-10.5 -0.5q-8 -1 -43 -5q-33 -4 -46 -5q-54 -2 -66 -2q-18 0 -27 4q-20 4 -28 17q-4 6 -6 18q-2 8 -2 18q0 3 -2 20t-3 28q-2 32 -2 47q0 22 2 32q10 38 64 86q14 14 39 35q20 16 31 27q54 56 147 197q93 138 154 200q26 30 63 76 q46 54 72 80q3 3 6 4z" />
<glyph unicode="{" horiz-adv-x="745" d="M575 -299q-2 2 -10 0q-27 -2 -41 4q-55 20 -109 71q-53 50 -71 107q-18 51 -18 123t6 121q12 145 -23 213q-29 50 -64 75q-37 27 -102 50h-4q-6 0 -10 1t-12 1q-34 4 -45 29q-10 24 14 45q13 9 29 16q5 3 26 10l13 6q65 45 102 79q39 36 61 85q37 72 29 230q-6 50 -4 127 q1 73 23 127q11 33 32 56q23 24 38 32q15 7 42 18q33 15 43 25q15 12 17 37q0 10 8 16v20q-2 8 -2 23l-45 -16q-20 -8 -37.5 -15.5t-31 -13t-15.5 -6.5q-133 -72 -174 -203q-42 -134 -27 -313l6 -41q4 -25 4 -39q6 -56 -1 -89q-8 -35 -56 -61q-31 -17 -88 -35 q-2 0 -6.5 -1.5t-14 -4t-18.5 -5.5q-30 -8 -47 -15q-35 -11 -43 -21q-2 -6 -2 -12v-14v-15q0 -6 -8 -36q0 -5 -2 -7l2 -2l24 -8q52 -20 82 -33q125 -57 162 -163q10 -25 13 -55q3 -24 1 -64q0 -5 -4 -58l-12 -65q-2 -13 -3.5 -25t-3 -20t-1.5 -10q-17 -70 -9 -137 q7 -63 50 -111q11 -13 65 -33q58 -24 125 -41q80 -20 119 -25q32 -2 37 -2q2 18 0 39q-2 18 -6 25q0 4 -3 4zM156 516q2 0 4 -2q69 -23 117 -57t77 -92q46 -81 31 -242v-17q-12 -146 8 -206q17 -46 60 -86q47 -44 92 -60h16q26 2 41 -4q16 -7 27 -35q7 -18 8 -39 q5 -45 -6 -69q-8 -23 -41 -25q-18 -2 -49 0q-50 6 -127 27q-65 16 -131 41q-66 27 -86 47q-36 43 -51 94q-15 54 -14 96q2 50 11 103q0 5 4 24.5t7 34.5q10 57 10 63q4 47 4 49q2 34 -1 55q-3 23 -9 46q-30 83 -135 133q-26 11 -76 29l-31 12q-19 8 -25 19q-12 20 -4 49 l6 24v13v20q1 26 15 45q18 18 65 35q42 11 50 14l18 6t13.5 5t6.5 2q60 19 80 30q28 15 29 25q6 25 0 72q0 14 -4 39l-6 43q-10 79 -3 162q8 92 27 156q22 75 73 139q55 69 132 108q22 13 88 39q29 12 55 20q14 4 23 6h10q13 0 21 -6q7 -5 8 -12q2 -2 2 -6v-6q2 -2 2 -15 q-2 -24 0 -35q0 -21 3 -36t7 -19q16 -21 -2 -39q-17 -12 -33 -2q-5 -7 -16 -18q-18 -17 -57 -33l-37 -18q-10 -5 -27 -22q-14 -14 -22 -36q-18 -53 -19 -113q-2 -69 4 -122q8 -172 -32 -256q-20 -38 -54 -76q-31 -35 -59 -57q-36 -28 -72 -52q-4 -4 -20 -10z" />
<glyph unicode="|" horiz-adv-x="428" d="M94 39h10q23 -2 58 0l76 8q-12 355 -5 549q13 327 13 371q0 25 14 245q6 100 6 138q2 29 0 47q0 8 -2 18q-5 1 -16 6q-23 10 -55 15q-35 5 -56 0q-6 -1 -16 -4q-4 -12 -2 -48q4 -48 4 -65q-12 -172 -8 -471q6 -354 4 -475q0 -3 -23 -185q-7 -69 -8 -96q0 -35 6 -53z M250 -4q-29 -4 -84 -10q-39 -2 -66 0q-15 0 -24 4q-23 5 -29 20q-12 27 -12 82q1 34 8 103q6 50 12 96t9 64l2 18q1 88 -5 475q-4 290 9 475q0 13 -4 57q-5 48 6 72q12 30 57 37q27 4 70 -2q41 -5 67 -14q7 -3 25 -13q16 -10 22 -22q4 -12 6 -37q1 -21 0 -53q0 -40 -6 -140 q-14 -218 -14 -241q0 -78 -12 -375q-8 -204 4 -547q7 -5 8 -12q2 -15 -8 -25q-5 -18 -25 -18q-8 0 -16 6z" />
<glyph unicode="}" horiz-adv-x="800" d="M49 1423v-28q-2 -7 -6 -13q8 -2 10 -2q7 0 26 -4q18 -4 31 -6q7 -1 29 -9t33 -16q12 -9 27 -27q14 -17 22 -40q20 -51 28 -102q9 -58 8 -104q-2 -51 -3 -103q-4 -67 0 -147q4 -79 27 -136q16 -41 54 -68q39 -28 87 -40q46 -14 59 -15l8 2q9 0 17 -2q20 -4 24 -22t-12 -33 q-5 -4 -16 -10q-32 -13 -39 -15q-15 -6 -39 -12l-18 -6q-42 -17 -64 -45q-22 -27 -45 -82q-35 -79 -14 -238q11 -91 12 -116q2 -64 -21 -97q-67 -101 -124 -133q-11 -3 -60 -28q-35 -15 -76 -41q-13 -8 -8 -37q4 -27 14 -27q16 -1 34 0q14 1 38 8q15 4 33 11q2 1 15.5 5.5 t24.5 8.5q27 10 38 12q88 33 127 94q38 61 49 156q5 53 0 182q-2 123 6 185q18 133 139 182q23 10 43 16q8 2 35 11q27 8 29 16q16 37 2 57q-14 15 -62 37q-1 0 -26 12l-37 13q-16 7 -32 16q-22 13 -34 23t-26 26q-16 17 -23 35q-38 84 -26 252q0 1 0.5 4.5t1 10t0.5 13.5 q1 23 3 28q0 1 2 26q1 14 1 29v24q0 20 -1 26q-1 3 -1.5 10.5t-0.5 11.5q-2 18 -4 26q-1 3 -3 10.5t-3 11.5q-30 100 -98 147q-66 45 -182 62l-4 2h-5q-5 0 -8 1t-10 1h-6zM416 524h-6q-58 16 -109 53q-49 35 -70 89q-25 68 -29 152q-5 95 -1 153q8 198 -29 286 q-5 13 -15 26q-3 4 -16 17q-8 8 -21 12q-10 3 -22 6q-2 0 -10.5 1.5t-16.5 3.5q-19 4 -26 4q-58 11 -74 47q-18 40 13 127q8 27 33 18q27 -9 16 -34l-2 -6h8q2 0 22 -2q7 0 10 -1q1 0 4 -1t5 -1q3 -1 6 -1h4q124 -18 206 -74t116 -172q6 -17 9 -33q2 -9 4 -30q1 -5 1.5 -16 t0.5 -17q1 -14 1 -30q0 -18 -1 -34l-2 -30q-1 -4 -3 -32q0 -8 -0.5 -15.5t-1.5 -11.5v-3q-12 -152 22 -227q5 -11 17 -24q7 -8 17 -18q8 -8 27 -17q5 -2 11 -5t9.5 -4.5t5.5 -2.5q1 -1 6.5 -2.5t12 -4.5t14.5 -6l14 -6t11 -5t5 -2q61 -27 82 -55q33 -43 6 -109 q-12 -28 -59 -45l-37 -12q-18 -6 -39 -14q-92 -38 -107 -142q-8 -57 -6 -176q4 -127 -2 -188q-21 -226 -211 -293q-11 -3 -34 -13q-24 -10 -42 -16l-39 -10q-28 -9 -46 -10q-21 -2 -42 0q-29 2 -44 23q-14 20 -19 49q-7 63 33 90q39 25 82 45l55 26q49 27 106 115 q13 23 13 68q0 1 -13 110q-21 172 19 264q28 63 55 98q28 36 82 58q18 6 25 8zM477 545l6 4q-5 0 -6 -4z" />
<glyph unicode="~" horiz-adv-x="1275" d="M1028 674v-19q-15 -83 -57 -125q-46 -48 -129 -49q-42 -2 -81 9q-51 14 -69 22l-74 37l-61 29q-61 29 -180 45q-151 22 -223 -60q-17 -19 -35 -47q-21 -37 -25 -45q-1 -3 -11.5 -24.5t-19.5 -40.5l-28 -66h8q6 0 35 -4h14q17 11 29 41q2 11 9 34q9 29 13 38q21 50 58 71 q47 24 125 12q68 -12 180 -75q113 -62 166 -74q164 -39 268 10q110 52 162 207q5 17 10 51q4 16 4 29v2h-2q-24 0 -40 -1q-28 -2 -40 -5q-4 0 -6 -2zM-16 354q10 27 28 67q25 55 33 71q3 6 7.5 14t11 19.5t10.5 19.5q19 29 39 53q92 105 272 78q124 -17 193 -49 q13 -5 66 -32q46 -24 69 -33q24 -10 59 -18q38 -9 70 -9q62 1 92 32q30 30 41 97v2v8q-2 24 8 35q7 8 21 14q1 0 7.5 1.5t10.5 2.5q21 5 48 6q36 2 46 2q16 -2 21 -2q17 -5 24 -16q8 -13 8 -37q0 -17 -4 -37q-6 -32 -14 -59q-56 -177 -188 -238q-121 -57 -304 -16 q-62 15 -178 82q-104 57 -164 67q-61 11 -90 -6q-18 -10 -34 -43q-6 -15 -11 -35q-7 -26 -12 -37q-18 -49 -53 -67q-16 -10 -45 -8q-2 1 -6.5 2t-6.5 1q-4 1 -10 1h-6h-47q-29 5 -51 30q-16 21 2 39q18 17 37 -2z" />
<glyph unicode="&#xa1;" horiz-adv-x="550" d="M338 719l8 4q27 4 33 -21q17 -84 24 -217q4 -57 7 -106t5.5 -78.5t2.5 -30.5q1 -9 8 -68q6 -48 9 -78q4 -38 5 -72q2 -56 2 -75v-22v-29v-37q0 -82 -4 -129q-6 -76 -22 -118q-27 -66 -78 -64q-2 0 -5.5 -0.5t-10.5 -1t-13 -0.5q-40 -2 -45 -2q-32 -2 -47 2q-31 5 -43 21 q-9 9 -10 26v31q0 39 4 90q6 112 20 264l27 277q12 135 12 166q0 138 -2 178v6l-4 10q-2 8 -2 14q-8 34 8 54q12 13 35 14q12 2 31 0q14 -1 45 -8zM330 666q-32 7 -41 8q-13 2 -21 0q2 -2 2 -4q2 -10 4.5 -19t3.5 -13l1 -5q2 -46 2 -182q0 -21 -13 -172l-26 -275 q-17 -175 -21 -262q-4 -51 -4 -88v-25l8 -2q12 -2 37 0q3 0 41 2q8 0 16 0.5t12.5 1t6.5 0.5q17 0 29 31q13 30 18 102q4 45 4 125v37v29v22q2 48 -1 85q-3 42 -12 117q-3 22 -5.5 41.5t-4 32t-1.5 13.5q-5 38 -15 215q-8 118 -18 185h-2z" />
<glyph unicode="&#xa2;" horiz-adv-x="1118" d="M950 715q0 2 -2 18q-15 80 -52 129q-38 50 -118 103l-8 3q-8 4 -16 7q-27 12 -37 24q-6 12 -6 29q0 7 2 27q9 40 14 61q0 1 2 7.5t3 11.5q2 8 6 22t5 19q7 33 7 38q0 3 2 9q-8 -2 -11 -2q-18 0 -30 -7l-4 -10q-2 -16 -2 -45q0 -19 -3 -55q-7 -37 -36 -49q-22 -10 -84 -2 q-51 6 -66 4q-68 -11 -139 -49q-87 -44 -154 -129q-65 -82 -101 -187q-33 -97 -41 -210q-7 -109 30 -203q24 -65 62 -120q41 -59 85 -93q1 0 4 -2q5 -3 8 -5l27 -10q12 -6 27 -14q17 -11 24 -25q6 -11 4 -30q-2 -14 -6 -31q-8 -30 -22 -72l-23 -67q-2 -14 -2 -17h4 q35 -6 49 8q15 12 23 43q1 10 6 33q6 29 8 35q15 45 43 61q14 7 37 7q6 0 18.5 -1.5t18.5 -1.5q8 0 37 -4l24 -2q118 0 224 62q103 62 143 166q12 30 18 67q8 39 4 51l-8 5q-15 5 -37 6q-30 2 -39 2l-12 -2l-4 -9q-6 -25 -12 -32q-63 -103 -111 -148q-79 -82 -174 -82h-6 q-6 0 -10 -1q-8 -2 -11 -3q-28 -4 -47 8q-13 7 -18 29q-2 16 -2 31q1 29 12 78q16 76 60 223l47 151q21 64 47 156q10 37 18 78v6v8v13q-2 35 23 47q27 17 61 -4q20 -11 43 -39q44 -49 55 -84q6 -9 7 -35v-10l14 -2q18 -4 76 4q13 1 22 4zM299 -12l-2 2q-4 2 -23 10l-26 12 q-16 6 -23 13q-53 39 -95 103q-46 70 -69 134q-40 100 -33 220q8 124 44 230q38 112 111 202q76 94 169 143q81 41 156 53q21 1 82 -6q43 -4 55 0q3 2 4 10q2 16 2 45q0 31 2 53q6 37 33 52q20 10 53 10q30 1 41 4q12 2 20 -4q9 -6 11 -19q2 -17 -12 -26q4 -5 4 -15 q0 -14 -8 -51l-3 -9l-3 -9q-3 -11 -6 -24q-1 -5 -3 -12l-2 -7q-2 -8 -14 -55v-17l10 -6q6 -3 14 -6t12.5 -5t6.5 -3q87 -56 133 -116q44 -58 61 -153q6 -42 -8 -59q-16 -19 -57 -25q-69 -8 -92 -4q-31 6 -43 19q-16 16 -17 43q0 3 -0.5 6.5t-0.5 5.5t-0.5 4t-0.5 3v2v1 q-8 26 -45 66q-17 20 -33 28q-2 0 -2 3v-35q-5 -31 -19 -82q-15 -55 -48 -162q-39 -125 -47 -149q-44 -153 -58 -218q-10 -45 -12 -69v-13h6q9 1 18 2.5t13 1.5l4 1q72 0 137 65q48 46 103 139q1 1 6 21q8 26 22 37q17 9 43 10q12 0 48 -2q25 -1 45 -8q31 -11 41 -27 q14 -27 2 -90q-7 -38 -23 -78q-46 -120 -166 -190t-250 -70q-2 0 -30 2q-29 4 -35 4q-28 2 -33 2l-12 -2q-11 -5 -17 -26l-6 -31q-7 -28 -8 -35q-12 -47 -37 -70q-34 -30 -94 -22h-6q-8 2 -10 2q-22 5 -29 20q-8 12 -6 31q2 14 6 31l22 70q17 47 21 67q5 15 6 25v2zM381 184 q0 1 1.5 6.5t2.5 8.5q4 19 4 28q11 74 49 199q47 151 56 190q10 40 20 70q16 56 21 72q18 67 16 114q-174 -1 -234 -137q-46 -105 -28 -307q6 -65 43 -162q21 -53 39 -74q7 -7 10 -8zM602 897q8 -63 -16 -154q-1 -4 -21 -71q-12 -33 -18 -68q-7 -30 -58 -194 q-40 -119 -47 -191q0 -1 -2 -11.5t-4 -19.5q0 -4 -1 -7.5t-2 -7.5t-1 -5q-1 -2 -2.5 -5.5t-1.5 -4.5q-5 -11 -10 -15q-22 -18 -49 -12q-19 6 -37 27q-26 31 -49 90q-42 107 -48 176q-21 214 33 334q76 168 287 168q10 0 16 -6q26 1 31 -23z" />
<glyph unicode="&#xa3;" horiz-adv-x="1163" d="M700 690h-2q-20 2 -37 2q-34 1 -112 0q-77 -4 -115 -2h-43l-16 4q-14 5 -19 10q-18 18 -39 74q-13 34 -30 111q-15 64 -21 112q-8 61 -2 86q22 94 123 160q147 95 283 -20q65 -54 172 -228q2 -2 2 -6q29 -4 58 -6q36 -2 46 -2l19 4q14 7 8 49q-5 40 -37 109 q-29 60 -59 106q-32 50 -50 66q-44 42 -124 59q-83 17 -154 13q-73 -5 -150 -21q-142 -29 -243 -137q-111 -117 -78 -246q8 -34 67 -129q38 -57 41 -63l13 -25q4 -7 4 -14q2 -13 -4 -23q-15 -24 -58 -20q-9 0 -24 4q-9 1 -25 4q-25 2 -35 -4t-12 -29q0 -4 -3 -14t-3 -17 l-2 -6q21 -7 31 -6q8 1 34 6q33 7 43 8q58 8 91 -14q43 -30 51 -110q15 -138 -47 -238q-62 -99 -185 -191q13 -16 33 -55q0 -4 6 -19q7 -17 10 -20v-2v6h3q2 0 22 2q16 1 72 13q120 26 137 26q1 0 7.5 0.5t21 2t29.5 2.5q63 5 64 5q16 -3 62 -4q49 -6 129 -34 q94 -33 125 -39q131 -33 203 49q17 22 18 24q4 6 2 29q-1 16 -27 45q-27 30 -40 31q-4 0 -14 -6q-26 -18 -35 -19q-60 -21 -195 -26q-55 -2 -158 24q-91 24 -141 17q-13 -1 -67 -25q-56 -27 -82 -27h-6q-12 2 -19 13q-10 16 2 31q1 4 6 6l2 1q2 1 4.5 2.5t4.5 2.5l10 4 q74 71 147 217q49 94 33 178l-2 6q-12 18 -6 35q6 18 31 29q18 6 40 12q43 7 105 8h98h4q-2 12 4 37v2zM143 766l-2 2q-2 4 -6.5 11t-13.5 22.5t-17 27.5q-66 102 -77 146q-38 158 92 295q113 118 270 153q86 18 158 22q78 5 170 -15q93 -20 149 -70q22 -22 57 -76t64 -115 q34 -74 41 -123q10 -72 -29 -102q-16 -10 -47 -12q-11 0 -55 2q-51 4 -90 12q-27 6 -21 33q2 2 2 4q-92 151 -153 203q-105 90 -219 16q-83 -54 -99 -127q-4 -16 2 -67q5 -42 20 -107q13 -57 30 -104q16 -43 20 -52l8 -2h37q38 -2 113 2q79 1 114 0q24 0 46 -2l16 -4 q11 -1 18 -10q19 -19 13 -53l-4 -19l2 -4q18 -21 6 -43q-4 -6 -10 -10q-1 0 -7 -2h-2h-4h-4h-8h-14h-19h-96q-55 -1 -96 -8q-16 -2 -23 -6l4 -13q18 -101 -37 -213q-46 -88 -96 -157q25 9 37 10q63 8 162 -19q100 -24 145 -22q124 5 178 22q4 4 23 15q25 16 47 14 q35 -2 76 -49q40 -44 41 -76q2 -35 -6 -53q-5 -14 -27 -37q-92 -109 -256 -70q-29 7 -129 41q-78 27 -121 33q-48 2 -55 3q-4 1 -58 -4q-55 -5 -59 -5t-131 -25q-28 -6 -74 -14q-24 -2 -30 -2h-13q-9 1 -18 10q-19 18 -37 56q-14 30 -25 45q0 -2 -6 2q-22 15 -22 35 q0 25 26 32l6 2q118 89 174 175q57 87 42 210q-6 53 -29 70q-16 10 -53 6l-37 -8q-29 -5 -41 -6q-56 -6 -82 26q-8 11 -8 29q0 5 2 21q0 1 1.5 7.5t2.5 10.5l2 6q6 51 41 72q23 15 63 10q27 -4 29 -4q6 -1 16 -4z" />
<glyph unicode="&#xa4;" horiz-adv-x="1128" d="M965 295q-5 5 -9 12q-3 4 -8.5 10t-15 16t-17.5 19q-37 40 -43 49q-24 34 -22 58q5 30 31 78q23 41 24 61q6 77 -22 176q-37 129 -39 168q-2 31 22 57q10 11 41 33q23 18 31 28q8 9 6 15q0 6 -22 27q-20 20 -31 37l-12 -15l-41 -39q-27 -23 -47 -34q-31 -19 -56 -11 q-17 4 -43 31q-16 17 -24 21q-154 49 -328 -13q-1 -1 -4 -3q-2 -2 -4 -3l-21 -16q-19 -15 -22 -17q-17 -12 -35 -10q-24 5 -53 35q-8 8 -19 23q-12 12 -20 22q-18 18 -29 23q-10 1 -22 -9q-29 -29 -25 -43q1 -10 29 -32q1 0 4.5 -2.5t11 -8t14.5 -10.5q21 -14 29 -22 q42 -35 31 -76q-7 -30 -55 -92q-32 -45 -37 -78q-6 -52 26 -160l23 -76q7 -21 8 -28q4 -14 2 -27q-6 -36 -55 -74q-39 -31 -49 -41q0 -4 2 -12q7 -20 20 -38q18 -25 29 -36l12 -10l10 8q11 11 27 37q7 10 14 21t11 17l6 9q23 29 43 33h14q2 -2 4 -2q3 -3 8 -4q3 -1 21 -8 l65 -31q42 -19 70 -29q31 -14 45 -14q139 -11 262 65l4 7q12 16 31 18q17 2 33 -10q8 -6 22 -23q20 -26 39 -57l31 -55l2 -4q15 8 33 24l32 29zM731 635q2 10 2 84q0 19 1 31t1 27q0 5 -2 23q-1 12 -6 23q-18 45 -78 69q-58 23 -136 17q-75 -6 -135 -38q-58 -31 -75 -78 q-45 -127 6 -213q44 -75 140 -93q82 -16 163 22q80 38 119 126zM745 555q-51 -74 -137 -105t-168 -16q-120 22 -176 119q-64 107 -10 256q22 67 95 106q75 41 161 48q84 6 162 -23q75 -28 104 -96q6 -15 9 -34q3 -20 3 -33q0 -20 -1 -33t-1 -25v-2v-2q24 -6 19 -31 q-7 -33 -23 -68q-6 -28 -22 -51q-7 -8 -15 -10zM936 1174q0 -12 22 -33q34 -34 39 -58q5 -30 -18 -59q-13 -13 -41 -35q-28 -21 -33 -26q-8 -8 -8 -17q1 -36 37 -158q32 -107 24 -194q-5 -37 -30 -84q-24 -43 -25 -55v-2q0 -3 3 -8q4 -6 9 -11q11 -16 39 -45q30 -32 43 -48 q11 -14 17 -26q7 -16 6 -30q-2 -9 -6 -15q-3 -3 -4 -6l-15 -14q-20 -20 -34 -31q-26 -20 -39 -29q-12 -9 -17 -10q-5 -4 -10 -4q-7 -4 -17 -1t-16 11q-4 1 -6 9q-6 8 -12 20l-31 53q-20 36 -33 52l-8 8q-8 -10 -12 -13q-139 -84 -295 -73q-23 2 -60 16l-73 31l-66 31l-16 8 q-1 -1 -2.5 -3t-3 -4.5t-2.5 -3.5q-5 -6 -29 -43q-18 -30 -33 -45q-26 -26 -53 -24q-20 1 -45 26q-17 17 -35 43q-21 31 -27 50q-12 34 0 55q10 16 62 57q36 29 37 41v6q-1 8 -8 27l-23 76q-35 120 -29 178q4 46 50 104q38 51 43 74q4 9 -13 25l-24 18l-12 8t-9.5 6.5 t-6 4.5t-3.5 2q-43 33 -49 63q-11 45 39 92q35 35 73 23q26 -7 56 -39q12 -15 20 -23q5 -7 11 -14l6 -8q14 -14 18 -17l2 2l19 13l20 16q16 13 25 14q190 68 360 13q20 -6 47 -33q15 -16 21 -16q5 0 12 4l37 30l41 37q24 24 35 31q11 6 22 2q6 2 8 2q12 0 20 -7q9 -7 9 -17z " />
<glyph unicode="&#xa5;" horiz-adv-x="1239" d="M958 492q8 57 -22 69q-27 14 -100 2q-4 0 -12.5 -1.5t-23.5 -4t-28 -4.5q-48 -9 -59 -10q-36 -2 -54 6q-32 12 -34 45q0 13 8 31q5 15 14 28l15 25q2 5 5 10l3 5q0 1 1.5 4.5t4.5 10t6 13.5q9 24 18 43q10 24 23 43q17 25 35 31q9 4 28 4q14 0 33 -4q6 0 33 -4l43 -7 q45 -5 68 0q18 5 20 11q15 50 2 69q-6 8 -31 8q-7 0 -63 -8q-24 -2 -31 -2q-27 1 -35 21q-6 7 -4 18q0 2 2 10q2 7 8 15q6 14 25 41q10 15 82 116q122 175 141 213l4 4q-20 0 -65 -4q-49 -6 -78 -2l-2 1q-2 0 -5.5 0.5t-6.5 0.5q-10 2 -15 2h-8q0 -15 -4 -24 q-21 -40 -74 -107q-55 -69 -71 -96q-15 -35 -37 -84l-58 -133q-39 -91 -57 -129q-22 -42 -24 -45q-16 -24 -27 -31q-20 -15 -43 -4q-14 4 -29 21l-3 6q-3 3 -4 5q-3 5 -9 13l-4 8l-4 7q-45 68 -84 142q-50 94 -91 184q-47 102 -71 147q-7 19 -16 39q-4 10 -10 21.5t-7 14.5 q-18 41 -35 58q0 2 -2 2t-22 2q-27 2 -68 0q-15 -1 -38 -2.5t-29 -1.5l-5 -2l23 -49q25 -48 82 -148l84 -143l29 -47l8 -15q1 -3 3 -5q1 -1 1 -3t2 -4q2 -9 -2 -18q-13 -24 -33 -31q-16 -9 -39 -4q-12 4 -57 22q-14 6 -23 4q-8 -13 -8 -57q0 -2 -6 -37v-6q8 -2 25 0 q6 0 73 6q48 6 82 4q49 -6 72 -35q5 -10 35 -55q24 -38 35 -51q10 -12 20 -25t10 -14q17 -23 19 -27q6 -10 8 -12q4 -14 0 -24q-6 -21 -37 -29q-18 -4 -47 -6q-37 -1 -125 0q-28 0 -56.5 0.5t-43.5 1t-21 0.5h-27q16 -22 17 -35v-35v-14h4q16 -2 33 -2q25 0 102 8 q85 8 109 8q32 2 47 -2q23 -1 39 -14q4 -3 10 -13q2 -6 2 -10q2 -8 2 -18q2 -24 2 -53q1 -37 0 -154v-154l2.5 -32.5t1.5 -20.5q0 -6 2 -12q10 -2 21 -2q10 2 28 2q24 2 25 2q10 0 29 -4q25 -5 32 -6q30 -5 41 0q0 1 1 3t2 4.5t1 4.5q6 23 7 51q0 48 -11 158 q-11 104 -16 162q-1 38 0 59q0 11 2 25q4 14 12 22q7 9 21 10q1 0 7.5 1.5t10.5 2.5h45q34 -3 58 -4q10 0 61 -4q81 -2 113 2q23 5 30 8zM524 739q2 5 8 13l23 41l57 125l56 133q30 70 41 88q17 36 75 106q51 62 66 96l2 7q0 21 10 31q10 11 29 16h24q5 0 19 -2l10 -2 q27 -1 70 0q55 6 73 6q27 0 27 -27q0 -10 -6 -16q2 0 8 -2q23 -12 12 -37q-18 -33 -147 -219q-55 -77 -80 -115l-12 -20q50 8 65 8q54 0 76 -33q24 -38 2 -115q-11 -38 -61 -45q-29 -6 -80 0q-19 0 -46 4t-32 4q-16 4 -29 4h-8q-4 -4 -10 -12q-7 -11 -18 -35l-17 -39 q-3 -8 -6 -15l-4.5 -10.5t-1.5 -4.5q-3 -5 -12 -23l-15 -22q-9 -18 -12 -23l-2 -6q6 -4 29 -2q10 1 55 8q52 11 65 12q88 15 131 -6q69 -31 54 -127q-4 -26 -31 -41q-17 -7 -49 -12q-38 -6 -121 -4q-51 4 -61 4q-24 1 -58 4h-39h-4v-10q-2 -18 0 -53q0 -4 2 -23t6.5 -57.5 t8.5 -79.5q10 -103 10 -164q-2 -39 -6 -63q-7 -34 -31 -45q-22 -15 -74 -7q-10 0 -35 5q-16 4 -24 4h-17q-12 -1 -28 -4q-17 0 -33 2q-26 5 -37 20q-5 6 -6 18q-3 17 -4 23q-4 55 -4 57v156q2 115 0 150q0 27 -2 51v6q-2 0 -8 2q-12 2 -37 0q-22 0 -105 -8t-108 -8 q-29 0 -45 4q-26 5 -37 20q-6 6 -6 16q-2 6 -2 9v20v14v11v2q0 1 -11 18q-21 30 -10 53q6 14 23 19l16 4q22 2 45 2q6 0 21.5 -0.5t44.5 -1t57 -0.5q89 -2 119 0q12 0 26 2l-6 10q0 1 -10 14t-20 25q-18 23 -39 55q-30 45 -35 52q-5 9 -33 14q-27 2 -70 -4q-69 -6 -77 -6 q-48 -2 -66 16t-12 51q0 9 1 13q0 2 0.5 5t1.5 4q1 2 1 7q0 75 31 100q26 20 71 2l49 -18q2 -2 5 -2v2l-29 47l-84 143q-42 73 -84 150q-20 41 -25 57q-6 13 -8 21q-2 18 2 28q6 10 19 15q1 0 4.5 1.5t5.5 2.5q4 0 24 2q30 4 72 6q44 2 74 0q6 -1 16.5 -2.5t12.5 -1.5 q19 -2 26 -12q23 -23 47 -76q7 -12 18 -37q15 -33 17 -37l70 -149q54 -113 90 -182q41 -78 82 -138l8 -14l12 -19z" />
<glyph unicode="&#xa7;" horiz-adv-x="1132" d="M815 166q46 24 92 96q43 69 60 131q14 43 -15 137q-34 109 -107 173q-71 62 -188 116q-2 0 -8.5 3t-22 10.5t-28.5 13.5q-47 21 -68 32q-14 7 -56 31q-38 22 -59 41q-18 16 -42 45q-23 27 -41 60q-43 90 -4 162q34 63 114 90q45 14 100 12q48 -1 98 -31q49 -29 73 -78 q14 -30 12 -123h33q12 0 33 3h63h8q-4 20 -4 30q0 97 -73 176q-72 78 -183 117q-104 37 -207 19q-101 -18 -149 -93q-43 -65 -60 -150q-18 -89 0 -157q3 -9 35 -55l23 -31q7 -9 8 -12q1 -1 3 -5q1 -2 1 -5q2 -8 2 -15q-5 -19 -22 -26q-7 -4 -21 -6q-2 0 -6 -1q-2 -2 -4 -2 h-2q-110 -133 -142 -210q-55 -128 25 -213q30 -32 74 -64q45 -34 76 -51l100 -53l94 -52q118 -68 188 -134q74 -70 101 -165q15 -54 -16 -104q-30 -49 -82 -82q-52 -31 -108 -38t-108 20q-53 29 -83 118l-37 107q-24 -7 -76 -8q-51 0 -74 -13h-2v-4l8 -18q7 -18 8 -29 q7 -83 21 -123q16 -49 68 -102q22 -25 79 -45q54 -20 132 -31q164 -24 229 10q93 46 184 201q31 59 21 130t-52 128q0 2 -8 10l-22 23q-21 20 -23 24q-1 2 -3.5 7.5t-4.5 7.5q-6 14 0 26q8 19 27 21q2 0 16 -2h2zM840 119l20 -21l17 -16q46 -65 58 -153q12 -86 -28 -167 q-100 -165 -205 -221q-80 -41 -262 -14q-76 12 -141 35q-72 24 -102 57q-58 64 -76 121q-14 38 -25 137q0 5 -4 12q-9 22 -10 25q-6 18 0 35q6 21 29 33q29 14 96 16q54 1 78 10q12 6 24 -2q10 -6 13 -10q9 -15 19 -39q8 -18 19 -55q12 -35 13 -39q23 -69 57 -90 q30 -17 76 -12q43 4 87 31q40 25 62 60q21 35 11 68q-21 81 -86 141q-66 61 -177 123l-92 49q-77 43 -102 58q-42 26 -83 55q-46 33 -81 68q-101 111 -33 270q37 87 152 225q11 13 28 17l-14 20q-36 51 -41 70q-23 85 -2 183q21 100 66 169q42 65 112 94q73 30 150 29 q75 -1 155 -29q125 -41 209 -132q84 -92 84 -210q0 -3 1 -5q1 -1 1.5 -4t0.5 -4q1 -3 1 -11q6 -31 -10 -49l-14 -9h-4q-2 0 -8 -2h-23h-65q-29 0 -55 -0.5t-37.5 -1t-12.5 -0.5q-11 0 -19 7q-10 8 -10 18q-2 18 15 26q0 83 -8 101q-24 52 -86 72t-119 -3q-60 -18 -84 -63 q-24 -50 6 -113q13 -27 24 -42q16 -21 36 -38q3 -3 36 -29q15 -12 47 -28l47 -25l56 -24q36 -19 53 -25q122 -56 203 -127q79 -68 118 -194q35 -108 19 -166q-21 -72 -70 -148q-52 -84 -110 -114zM666 270q59 16 89 37q31 22 42 68q22 97 -93 192q-45 38 -125 86 q-85 51 -92 56q-3 0 -71 61q-28 23 -37 27q-16 10 -23 10q-21 1 -43 -21q-23 -25 -41 -69q-39 -97 -18 -148q11 -26 43 -55q29 -26 56 -42q22 -13 73 -36q33 -16 45 -24l37 -23q16 -11 45 -33l37 -24q12 -12 40 -34zM702 225q0 -8 -6 -14q-16 -20 -37 -4l-61 47l-66 53 l-61 41q-39 25 -70 39l-73 39q-30 17 -68 49q-39 34 -55 74q-28 71 18 188q21 53 51 86q41 41 86 37q21 -2 48 -18q15 -10 40 -33q8 -5 27 -22q17 -15 25 -21l16 -12q11 -8 62 -39l86 -54q42 -26 75 -53q139 -117 111 -246q-22 -99 -148 -137z" />
<glyph unicode="&#xa9;" horiz-adv-x="1519" d="M1010 584q-1 0 -3 1t-3 1q-6 3 -22 7q-14 3 -24 3l-8 2q-9 -5 -14 -16q-5 -9 -16 -45q-23 -76 -56 -99q-109 -75 -243 -45q-66 16 -111 58q-46 43 -61 110q-50 227 38 377q43 72 108 99q68 28 134 14q64 -15 121 -59q55 -43 84 -107q31 -7 45 -8q25 -5 35 -5h8q0 4 -1 6 q-2 3 -3 10q-2 10 -2 13q-19 37 -47 72q-64 79 -107 110q-29 20 -92 31q-126 24 -227 -37q-103 -62 -158 -178q-57 -109 -47 -242q10 -132 90 -231q52 -63 140 -87q86 -24 180 -5q89 18 160 73q68 53 89 136q0 2 1.5 4t3 5.5t2.5 6.5q4 9 4 14q2 8 2 11zM887 877 q-24 51 -70 86q-44 32 -96 43q-127 27 -193 -88q-79 -139 -34 -349q22 -106 137 -133q114 -27 209 39q15 11 37 76q11 35 18 51q17 30 39 37q9 4 29 2q15 0 30 -4q20 -5 29 -10q19 -8 25 -19q12 -18 4 -47q0 -7 -4 -16q-5 -12 -5 -15q-24 -93 -104 -157q-79 -63 -182 -84 q-102 -21 -201 6q-98 28 -160 102q-91 111 -102 258q-11 148 51 265q61 129 176 198t258 41q76 -16 109 -39q49 -35 117 -119q35 -43 53 -81q22 -51 -2 -78q-12 -15 -41 -15q-19 0 -43 4q-6 1 -21.5 4t-19.5 4l-27 5q-22 4 -18 26q0 5 2 7zM831 1419q-1 4 -89 2 q-25 0 -47.5 -0.5t-33.5 -1t-12 -0.5q-252 0 -417 -149q-167 -150 -216 -377q-50 -225 36 -438q86 -214 294 -328q18 -8 55 -32q32 -20 58 -35q23 -13 51 -19q142 -37 270 -18q128 18 229 83q103 66 178 160q77 97 119 212q44 119 51 241q7 119 -25 240q-32 120 -113 223 q-83 106 -205 174q-24 12 -51 21q-39 13 -62 19q-28 7 -57 17q-8 2 -13 6zM952 1436q52 -16 86 -35q135 -74 224 -188q86 -111 121 -239q35 -126 27 -258q-8 -133 -54 -257q-46 -123 -127 -227q-78 -100 -192 -171q-111 -69 -248 -90q-134 -21 -291 17q-34 8 -62 24 q-33 18 -65 39q-43 28 -49 31q-117 62 -200 158q-83 97 -123 203q-39 103 -51 229q-12 119 17 233q23 111 82 216q56 100 142 180q84 78 204 125t256 47q35 0 67 1t77 1q15 0 69 -6q39 -4 74 -17q12 -4 16 -16zM1094 258q8 -15 -2 -29q-66 -88 -183 -124t-252 -21 q-127 10 -243 61q-117 51 -185 131q-120 138 -155 325q-35 189 24 362q62 175 207 294q101 82 227 103q126 23 242 -10t222 -101q107 -69 182 -157q2 -2 5.5 -6.5t4.5 -6.5q31 -36 50 -62q19 -25 39 -64q22 -42 32 -81q40 -190 -90 -446q-31 -58 -80 -121q-19 -22 -45 -47z M1010 266q35 8 86 74q42 49 73 111q125 241 86 409q-8 39 -28 75q-24 43 -35 56l-55 68q-73 87 -170 147q-98 61 -206 91q-109 30 -220 11q-114 -20 -203 -91q-129 -106 -187 -271q-57 -163 -25 -335t144 -302q60 -68 166 -114q111 -48 228 -60q218 -21 342 80q-13 6 -17 18 q-6 25 21 33z" />
<glyph unicode="&#xab;" horiz-adv-x="1069" d="M852 281q5 11 10 34q3 10 8 47q4 28 9 39q0 5 4 9q-7 3 -25 12q-29 14 -72 41q-33 18 -67 41q-17 12 -23 18l-8 6q-9 12 -10 21q-2 11 8 22q2 5 8 11q3 3 11.5 10t13.5 12l74 60l75 61q33 26 39 35v2q2 8 2 18q0 27 -4 51q-5 27 -10 37l-47 -30l-107 -78l-104 -78 l-35 -29l-14 -12q-10 -14 -8 -59q0 -7 2 -45t2 -39v-3t-0.5 -4t-1 -5.5t-0.5 -6.5v-26q-2 -20 -2 -23q7 -1 28 -8l31 -8q7 -2 15.5 -4t9.5 -2q48 -26 180 -119q1 -3 8 -8zM741 553l9 -4q27 -20 63 -41l72 -41q29 -16 37 -16q26 -6 20 -33q-5 -12 -14 -17q5 -8 0 -16 q0 -10 -4 -31q-1 -8 -3.5 -19t-4 -18t-1.5 -12q-7 -33 -18 -51q-17 -32 -45 -33q-18 -2 -35 17q-5 6 -6 6q-124 92 -172 114q0 3 -14 4l-29 9q-23 7 -31 10q-2 0 -4.5 1t-4.5 2t-3 1q-4 0 -6 2q-5 1 -10 6q-8 10 -9 19q0 4 -2 14q0 5 2 29q0 4 2 26v17q0 2 -2 34 q-2 40 -2 48q-1 66 21 94q4 6 20 20l37 29l107 80l106 78q50 36 68 43q21 8 39 -4q10 -7 18 -23q10 -21 16 -57q5 -33 5 -62q-2 -20 -2 -24q-1 -11 -9 -25q-12 -14 -49 -45l-78 -61l-71 -60zM401 272q7 13 11 35q3 10 8 47q5 32 8 39q0 4 4 8q-4 2 -11.5 6.5t-12.5 6.5 q-29 14 -72 41q-39 22 -68 41q-13 9 -22 18q-1 1 -3 2.5t-3 2.5l-2 1q-10 14 -11 21q-1 10 9 22q1 3 8 10q13 13 24 23l74 59l76 62q33 26 39 35v2q2 8 2 18q0 27 -4 51q-5 24 -11 37l-47 -31l-106 -77l-105 -78l-34 -29l-15 -12q-10 -14 -8 -60q0 -7 2 -45t2 -39t-0.5 -3.5 t-1 -6.5t-0.5 -8v-27q-2 -20 -2 -22q9 -1 29 -8l30 -8q7 -2 15.5 -4.5t9.5 -2.5q54 -28 180 -118q1 -4 8 -9zM291 545l8 -4q27 -20 63 -41l72 -41q31 -17 37 -17q27 -6 21 -32q-5 -11 -15 -17q5 -8 0 -16q0 -10 -4 -31q-7 -39 -8 -49q-7 -30 -19 -51q-17 -32 -45 -33 q-18 -1 -34 16q-5 7 -7 7q-124 92 -172 114q0 3 -14 4l-29 8q-13 4 -30 11q-3 1 -13 4q-4 0 -6 2q-5 1 -10 6q-7 8 -8 18q0 5 -2 15q0 4 2 28q0 5 2 27v16q0 3 -2 35q-2 40 -2 47q-2 68 20 95q2 3 21 20l37 29l106 80l107 77q52 37 67 43q21 8 39 -4q12 -9 19 -22 q9 -20 16 -58q4 -27 4 -61q-2 -20 -2 -25q-1 -12 -8 -24q-12 -14 -49 -45l-78 -62l-72 -59z" />
<glyph unicode="&#xad;" horiz-adv-x="673" d="M510 479q6 24 2 76q-1 19 -6 70q-151 -17 -213 -17q-29 0 -82 6q-45 4 -78 4q-1 0 -7 0.5t-19 1.5t-27 1t-23 -3q-3 0 -4 -6q-3 -7 -8 -43q-6 -59 6 -71q13 -13 76 -13q16 0 137 9q88 10 144 6q6 0 28 -6q26 -6 39 -11q20 -4 35 -4zM557 643q8 -83 8 -84q6 -81 -10 -113 q-6 -13 -25 -18q-14 -2 -22 -2q-16 0 -43 6q-6 1 -41 10q-16 4 -21 4q-44 4 -135 -4q-101 -10 -141 -10q-86 0 -113 27q-33 30 -22 114q5 43 12 60q10 26 33 37q15 4 45 4q15 0 27.5 -0.5t18.5 -1.5h5q29 0 82 -6q47 -4 78 -4q66 0 217 16q6 8 16 8q20 2 27 -14q6 -7 6 -17 q0 -4 -2 -12z" />
<glyph unicode="&#xae;" horiz-adv-x="1519" d="M831 1419q-1 4 -89 2q-25 0 -47.5 -0.5t-33.5 -1t-12 -0.5q-252 0 -417 -149q-167 -150 -216 -377q-50 -225 36 -438q86 -214 294 -328q18 -8 55 -32q32 -20 58 -35q23 -13 51 -19q142 -37 270 -18q128 18 229 83q103 66 178 160q77 97 119 212q44 119 51 241 q7 119 -25 240q-32 120 -113 223q-83 106 -205 174q-24 12 -51 21q-39 13 -62 19q-28 7 -57 17q-8 2 -13 6zM952 1436q52 -16 86 -35q135 -74 224 -188q86 -111 121 -239q35 -126 27 -258q-8 -133 -54 -257q-46 -123 -127 -227q-78 -100 -192 -171q-111 -69 -248 -90 q-134 -21 -291 17q-34 8 -62 24q-33 18 -65 39q-43 28 -49 31q-117 62 -200 158q-83 97 -123 203q-39 103 -51 229q-12 119 17 233q23 111 82 216q57 102 142 181q82 76 204 124q120 47 256 47q35 0 67 1t77 1q15 0 69 -6q39 -4 74 -17q12 -4 16 -16zM1098 258q8 -15 -2 -29 q-66 -88 -183 -124t-252 -21q-127 10 -243 61q-117 51 -185 131q-120 138 -155 325q-35 189 24 362q62 175 207 294q101 82 228 103q125 23 241 -10t222 -101q107 -69 182 -157q2 -2 5.5 -6.5t4.5 -6.5q31 -36 50 -62q19 -25 39 -64q22 -42 32 -81q40 -190 -90 -446 q-31 -58 -80 -121q-19 -22 -45 -47zM539 621v-11q-2 -17 0 -47q4 -113 4 -131q-1 -80 -19 -123q-17 -30 -41 -41q-29 -12 -65 2q-25 11 -41 54q-11 29 -15 73q-7 78 -6 205q1 64 6 140q1 22 3 46.5t4 51.5t3 41q5 70 5 75l-6 72q-1 27 0 45q0 29 10 45q16 22 49 29 q26 7 64 8q67 1 167 -6q97 -11 175 -27q87 -17 116 -34q97 -60 107 -187q6 -78 -21 -129q-17 -31 -65 -63l-13 -9q16 -19 27 -32q13 -22 23 -72q11 -45 18 -98q7 -62 8 -99q0 -51 -8 -75q-16 -36 -63 -43q-39 -8 -66 2q-23 6 -35 30q-7 18 -8 39q-1 27 0 94q2 66 0 95 q-4 43 -14 57l-8 2q-13 5 -39 10q-55 9 -111 13q-54 4 -111 2q-4 0 -34 -4zM922 340q14 -1 30 0l19 8q4 9 4 49q-1 35 -8 92q-6 48 -17 95q-7 37 -16 51q-1 4 -23 29q-22 -18 -43 4t2 43l9 8q1 9 10 16q9 9 24 8l27 17q34 22 45 41q18 35 12 96q-7 93 -77 137q-19 14 -97 29 q-78 17 -168 24q-106 8 -159 7q-29 -1 -52 -7l-12 -4v-12q-2 -15 0 -39q6 -77 6 -80q0 -4 -5 -74q-5 -63 -9 -138t-6 -138q-1 -124 6 -196q5 -42 12 -64q2 -8 6 -14q12 -6 17 -4q3 1 8 12q13 28 14 98q0 16 -4 127q-2 35 0 53q1 28 10 45q7 10 21 17q8 2 18 6q3 0 11 1l16 2 t16 1q60 2 117 -2q71 -4 121 -12q22 -5 47 -13q27 -12 37 -24q21 -27 26 -88q2 -33 0 -103q-1 -65 0 -86q1 -5 3 -12zM537 772h24q16 2 35 2q5 0 10 0.5t8 1t4 0.5q22 0 42 -1q29 -1 44 0q5 1 17 1.5t18 0.5q22 2 37 7q4 1 31 15q70 50 31 121q-16 32 -52 54q-35 22 -71 23 q-41 2 -183 -6q0 -6 0.5 -22.5t1.5 -44.5t1 -56q0 -50 2 -82v-14zM522 772l-2 2q0 -2 2 -2zM492 1044q9 9 20 9q175 6 203 6q52 -1 104 -33q49 -30 74 -78q28 -46 16 -103q-12 -56 -69 -95q-19 -16 -41 -23q-26 -9 -50 -10q-30 -2 -46 -3q-18 -1 -47 0q-20 1 -38 1l-2 -1 q-3 0 -7 -0.5t-9 -0.5q-17 0 -37 -2h-37q-8 0 -18 2q-14 1 -25 12q-4 6 -6 14v6q-2 6 -2 11v28q-2 32 -2 84q-1 116 -4 142q-4 26 23 34zM1014 266q35 8 86 74q42 49 73 111q125 242 87 409q-7 36 -29 75q-24 43 -35 56l-55 68q-73 87 -170 147q-98 61 -206 91 q-109 30 -220 11q-114 -20 -203 -91q-129 -106 -187 -271q-57 -163 -25 -335t144 -302q60 -68 166 -114q111 -48 228 -60q218 -21 342 80q-13 6 -17 18q-6 25 21 33z" />
<glyph unicode="&#xb4;" horiz-adv-x="595" d="M244 1161l-2 -2q-12 -15 -29 0q-4 1 -4 8q-34 2 -78 -2l-8 -2q-8 -2 -12 -2q-15 0 -21 15q-5 8 0 20q0 5 4 12q13 23 15 27q5 6 10 18l8 13l4 6q0 1 9 18t16 31l28 61q41 80 84 101q15 7 56 12q42 6 82 4q52 -5 69 -20q16 -16 12 -37q-5 -20 -22 -37q-12 -12 -59 -66 q-26 -29 -62 -65q-24 -24 -51 -55l-27 -31q2 -6 2 -10q-5 -21 -24 -17zM139 1206q55 4 88 0l35 39q30 38 53 59q25 23 60 64q45 50 61 66q9 11 10 14q-11 8 -43 9q-33 1 -73 -3q-38 -5 -45 -8q-30 -16 -64 -82q-11 -25 -28 -59q-7 -15 -15.5 -34t-9.5 -20l-4 -6 q-5 -5 -9 -13t-10 -18z" />
<glyph unicode="&#xb5;" horiz-adv-x="1146" d="M608 6q3 11 8 55q2 22 2 27l-47 -41q-88 -78 -137 -100q-106 -47 -188 -19q-45 15 -62 23l-10 -31l-43 -147q-24 -78 -49 -152q-17 -38 -25 -55q-17 -29 -34 -35q-19 -8 -54 -2q-4 1 -14 3q-2 0 -8 1t-8 2q-10 2 -12 3t-11 1h-18q-31 5 -43 25q-5 8 -5 16v8q0 3 1.5 10.5 t1.5 10.5q6 32 14 59q31 115 47 170q79 272 80 287q10 67 92 481l61 291l23 96q4 17 6 29l4 8q0 1 1 3t1 3q5 6 11 11q12 7 36 12q24 2 43 2q25 0 41 -1t29 -1l10 2q28 6 39 -14q4 -5 4 -19q1 -4 0 -12q0 -13 -4 -29l-20 -92l-66 -268q-40 -178 -47 -285q-6 -66 0 -106 q5 -45 18 -60q10 -10 35 -16l10 -2q10 -1 17 -2h1q1 0 2.5 -0.5t4 -1t4.5 -0.5q14 -2 15 -2q113 -18 190 41q69 52 113 163q26 59 46 138q22 87 38 170l24 127q6 22 12 102q7 71 25 113q11 25 43 41q26 15 60 22t63 6q37 -1 53 -22q6 -7 6 -21q1 -4 0 -10q0 -15 -4 -31 q-9 -57 -14 -82q-6 -22 -12 -56q-2 -12 -6.5 -30.5t-5.5 -22.5q-5 -23 -5 -28q-63 -351 -141 -610q-4 -17 -12 -88q-6 -67 -23 -103q-8 -13 -24 -20q-4 -2 -27 -8q-21 -4 -59 -4q-22 0 -58 2l-20 4q-5 0 -11 2q-10 4 -14 14q-10 18 2 39zM211 -4q6 -3 51 -19q65 -21 152 19 q41 17 123 92q84 76 131 88q26 7 33 -17q8 -26 -17 -32q-3 -1 -6 -4v-12q-2 -10 -8 -56q-8 -56 -8 -59v-2q28 -2 43 -2q32 0 51 4l12 4q11 22 16 78q7 66 17 100q74 245 137 602q3 15 6 29q1 4 4.5 22t6.5 31q6 28 12 58l16 79q2 20 2 21q-6 2 -10 2q-20 0 -47 -6 q-23 -5 -47 -17q-17 -8 -19 -14q-14 -30 -20 -96q-7 -80 -13 -111q-6 -27 -24 -123q-18 -98 -39 -176q-22 -83 -49 -143q-50 -123 -131 -184q-96 -75 -230 -54q-5 2 -14 3q-7 1 -12 1q-16 1 -31 7q-42 7 -63 34q-25 30 -31 86q-6 47 0 117q11 116 49 291q10 51 63 270 q17 61 21 90l2 9q-11 0 -27 1t-41 1q-18 0 -34 -2q-8 -2 -11 -2l-6 -25l-22 -94l-60 -289q-80 -385 -92 -479q-1 -7 -82 -293l-47 -168l-12 -55q-2 -6 -2 -9q7 0 15 -1t18 -1q2 0 17 -3q6 -1 13.5 -3t9.5 -2q22 -2 25 -2q2 2 8 12q15 33 21 48q19 47 49 147l43 147 q15 49 16 52q5 11 6 16q1 1 7 8q7 9 14 10q16 6 31 -6q5 -4 10 -12z" />
<glyph unicode="&#xb6;" horiz-adv-x="1132" d="M377 -344q4 0 26 2q6 0 27 3t31 3q-10 54 2 164q1 22 12 111q8 66 8 88q3 90 5 271q2 138 0 336q-1 132 -1 271q0 23 -1 43q-1 29 -3 82q-1 20 -2.5 51.5t-1.5 34.5q-2 106 -2 125q-1 27 0 43v16q0 2 4 17q7 14 29 20q10 4 31 9q29 4 75 6q37 1 74 0h25h8h2h4q2 -2 4 -2 q4 -1 10 -9q16 -20 -2 -43q-1 -6 -4 -6q-11 -57 0 -153q13 -153 13 -168q0 -55 -4 -497q-3 -331 -3 -497q0 -19 -1 -37q-1 -24 -3 -69q-2 -54 -2 -72q-2 -88 -2 -104l2.5 -20t1.5 -15v-8q6 -2 19 -2q11 0 22 1t25 1q8 -1 33 -10q0 4 2 18q2 44 2 92q2 106 2 156 q0 157 10 427t10 427q0 43 -10 303l-8 180q0 32 -2 60v16v4v2v4v2q2 7 6 13q17 17 43 18q18 0 39 -4q19 -4 29 -4q6 0 8 2q2 6 2 10q2 17 -1 33q-3 19 -9 29l-5 4q-53 6 -133 -4l-145 -19q-116 -4 -152 -5q-114 -3 -173 -10q-65 -8 -120 -24q-95 -30 -160 -102 q-65 -73 -98 -209q-3 -10 -8 -31q-2 -8 -3.5 -15.5t-3 -12.5t-1.5 -7q0 -1 -2.5 -11t-4.5 -20q-5 -27 -5 -34l-4 -31q-2 -26 -1 -33q2 -12 3 -27t6 -30q27 -74 90 -149q61 -73 131 -107q84 -43 123 -49l20 4q37 7 52 -16q4 -7 6 -21q0 -2 -2 -16q0 -7 -2 -39q-3 -9 -7 -39 q0 -5 -0.5 -10t-1.5 -8v-3q-1 -39 5 -381q1 -146 6 -229q1 -28 4 -76q0 -6 2 -14zM530 1288v-6q-1 -15 0 -41q0 -19 2 -123q0 -7 2 -37t3 -50q2 -54 3 -83q1 -20 1 -43q0 -138 1 -270q2 -198 0 -338q-2 -182 -5 -270q0 -1 -9 -95q-13 -102 -14 -110q-12 -133 6 -178 q11 -24 -14 -35q-17 -6 -29 6q-5 -4 -12 -4t-25 -3t-30 -3q-30 -2 -37 -2q-23 1 -39 14q-4 6 -6 12q-2 2 -2 4q-2 6 -2 11q0 2 -2 22q-5 73 -5 78q-5 84 -6 231q-6 321 -4 381q0 2 0.5 5.5t1 10.5t0.5 13q6 33 6 37q2 28 2 33q-17 -6 -30 -4q-44 7 -140 53q-74 38 -146 122 q-70 82 -99 167q-8 24 -11 37q-5 20 -3 45q0 7 0.5 20.5t1.5 19.5q1 14 8 46q1 7 3 16t3.5 14t1.5 8q1 9 9 40q7 28 7 34q38 151 111 234q72 81 184 116q63 19 129 26q63 7 181 10q85 2 147 5q13 0 141 17q92 12 150 6q24 -1 41 -31q10 -17 16 -45q4 -23 2 -49 q-2 -29 -18 -44t-45 -15q-16 0 -37 4q-16 4 -27 4v-6q2 -24 2 -58l8 -180q11 -288 11 -305q0 -130 -11 -427q-10 -270 -10 -427q0 -54 -2 -156q0 -48 -2 -94q0 -2 -4 -33q0 -6 -2 -12q0 -4 -2 -6q-1 -7 -11 -15q-20 -14 -51 -2l-22 9h-17q-24 -2 -26 -2q-48 0 -64 26 q-7 12 -8 31q0 2 -1.5 17t-2.5 24q0 16 2 104q0 19 2 73q2 42 3 68q1 18 1 37q0 165 3 497t3 497q0 23 -12 162q-10 106 2 165h-68q-42 -1 -69 -6q-6 -1 -19 -4z" />
<glyph unicode="&#xbb;" horiz-adv-x="1034" d="M176 831h-2q-5 -10 -10 -36l-6 -45q-5 -34 -8 -41q0 -4 -5 -9l23 -10q8 -4 32.5 -17.5t39.5 -21.5l69 -41q13 -9 25 -16l8 -8q8 -8 10 -21q1 -10 -6 -22q-1 -1 -2.5 -3t-3 -4.5t-2.5 -3.5q-11 -8 -25 -22q-22 -20 -73 -61l-74 -64q-33 -26 -39 -35v-2v-16q0 -30 4 -51 q5 -26 10 -39q23 15 45 32l107 78l102 80l35 31q3 3 6.5 6t5.5 5l2 1q10 15 9 60q0 18 -4 43q-1 10 -2 23t-1 17q0 8 1 19q2 22 2 27v22q-12 2 -29 6l-31 8q-7 2 -15 4.5t-9 2.5q-64 30 -183 116q-1 3 -6 8zM289 559l-8 6q-22 13 -68 39l-70 39q-32 16 -36 16q-27 6 -21 33 q5 12 14 17q-5 8 0 16q0 10 4 31q4 32 9 49q6 31 14 51q17 31 45 35q20 1 37 -17q5 -6 6 -6q117 -87 174 -112q0 -2 12 -4l31 -9q25 -5 31 -8l12 -4q10 -1 17 -8q7 -8 8 -18q0 -5 2 -13v-28q0 -18 -1 -28t-1 -18q0 -2 2 -34q4 -27 4 -47q2 -66 -21 -95q-4 -6 -20 -20 l-37 -31l-104 -82l-107 -80q-51 -37 -65 -43q-35 -15 -58 29q-10 20 -16 57q-4 25 -4 60v24q1 13 8 25q12 14 49 45l76 63q53 45 69 60zM303 549l2 -2q0 2 -2 2zM598 829v-2q-8 -12 -12 -39q-3 -10 -8 -47q-5 -30 -9 -37q0 -2 -2 -8q4 -2 23 -10q33 -16 72 -39l67 -41 q24 -16 25 -16l8 -8q9 -12 10 -21q1 -10 -6 -22q-1 -1 -2.5 -3t-3 -4.5t-2.5 -3.5q-10 -7 -25 -22l-71 -62l-76 -63q-33 -26 -39 -35v-2v-18q0 -28 4 -52q1 -19 8 -36q11 7 23 14.5t18 11.5t8 6l105 78l100 80q43 33 51 43q10 14 8 59q0 16 -4 43q-2 38 -2 41q0 1 0.5 4t1 8 t0.5 9v24v23v2l-8 2q-7 3 -35 10q-57 15 -73 25q-4 4 -19 13q-9 5 -35 24l-36 28l-52 35zM709 555l-9 6q-22 15 -65 39q-40 24 -70 39q-32 16 -39 16q-26 6 -20 33q5 11 14 16q-5 8 0 17q0 8 4 29q6 42 8 51q3 11 17 51q17 34 45 35q9 0 16 -4q5 0 9 -4q2 -1 9 -6t11 -7 q10 -6 55 -37q12 -9 35 -26q23 -16 34 -25q14 -11 17 -12q10 -6 58 -18q24 -5 39 -11q25 -8 32 -18q12 -12 13 -33q2 -11 0 -29q0 -4 -2 -26v-17q0 -2 2 -34q4 -27 4 -48q1 -66 -21 -94q-7 -12 -57 -51l-103 -82l-106 -78q-50 -37 -68 -45t-36 4q-14 7 -21 23q-10 20 -16 57 q-4 27 -4 60v26q1 13 8 25q12 14 49 45l76 63q36 30 69 60z" />
<glyph unicode="&#xbf;" horiz-adv-x="1142" d="M797 86q6 21 28 20q11 0 19 -8q24 4 49 6q72 8 100 -6q36 -18 41 -75q2 -47 -12 -99q-27 -111 -66 -155q-80 -95 -186 -135q-103 -39 -242 -50q-75 -4 -169 35q-93 39 -142 94q-104 126 -92 309q12 179 121 302q23 23 102 92q58 51 84 92q1 1 14 39q0 2 2.5 9.5t8 23.5 t10.5 32q10 35 20 64q5 14 11 24q8 17 18 23q19 13 49 2q6 0 17 -4q2 -1 5 -1l2 -1q7 0 52 -4q46 -1 68 -17q5 -4 10 -12q0 -5 1 -8t1 -10q0 -3 -2 -25q-1 -19 -8 -65q-5 -40 -9 -68q-1 -6 -2.5 -14.5t-1.5 -10.5q-1 -11 -4 -14q-11 -34 -43 -79q-30 -42 -51 -63 q-38 -38 -72 -70q-51 -48 -61 -58q-69 -66 -101 -127q-30 -57 -12 -121q28 -88 92 -117q67 -30 146 -8q72 21 127 79q56 59 74 138q-8 6 -9 12q-4 18 13 29zM672 655q2 -2 4 0h-4zM545 676q-2 -2 -8 -19l-19 -61q-19 -59 -20 -66q-8 -25 -21 -51q-28 -45 -94 -104 q-81 -69 -96 -88q-98 -106 -109 -269q-10 -161 80 -268q42 -48 123 -82q84 -35 143 -31q127 7 226 46q98 38 165 118q33 41 56 138q12 45 10 79q-1 26 -12 31q-18 8 -70 2q-23 -1 -53 -8q-18 -97 -85 -169q-65 -70 -155 -97q-100 -29 -184 11q-87 41 -117 149q-27 84 10 155 q37 72 115 148q4 4 12.5 12t23.5 22t28 26q46 43 67 66q20 22 45 55q27 36 39 66v9q4 18 4 22q1 9 4.5 32.5t5.5 33.5q7 58 7 63v10q-21 6 -27 7q-16 0 -30.5 0.5t-21 1t-7.5 0.5q-15 4 -17 4q-7 4 -12 4q-1 0 -3 1t-3 1zM598 1040q-63 8 -96 -45q-19 -30 -13 -57 q6 -28 33 -45q46 -23 82 -23q37 0 59 16q21 15 29 40q16 37 0 65q-21 32 -74 37q-12 0 -20 12zM659 1075q55 -15 78 -57q31 -54 4 -113q-24 -61 -89 -81q-64 -19 -154 24q-52 28 -61 81t20 93q27 46 78 64q49 17 118 -7q3 -1 6 -4z" />
<glyph unicode="&#xc0;" d="M606 1479h2v-2h10q19 -3 74 -4q49 -1 86 -19q20 -10 10 -31q-2 -5 -6 -6q37 -73 70 -184q53 -177 63 -205q66 -167 138 -369l118 -331q0 -2 4 -9.5t12.5 -26t16.5 -36.5l51 -111q28 -69 35 -106q4 -23 2 -43q-6 -28 -30 -35q-26 -7 -115 -8q-39 -1 -66 0q-14 0 -24 2 q-16 0 -24 5q-6 4 -11 17l-2.5 5t-3 7t-2.5 7q-4 16 -15 51q-10 41 -19 77.5t-13 53t-4 17.5q-22 85 -48 143q-12 28 -24 45q-11 12 -17 12q-28 3 -96 4q-100 6 -176 7q-89 4 -168 4h-55h-8q-2 -24 -6 -31q-14 -22 -91 -227q-33 -86 -51 -129q-11 -27 -20 -46 q-6 -11 -10 -16q-5 -6 -13 -12l-12 -4h-6h-12q-25 4 -31 4l-31 4q-4 0 -8 0.5t-6 0.5l-2 1h-17q-22 -2 -26 -2q-13 0 -27 2q-22 5 -29 14q-6 6 -6 17v8q3 10 4 14q4 13 17 39q2 4 51 117q78 176 98 231l31 109q23 76 37 110q14 32 43 82q25 42 37 74l43 148q14 47 55 175 q22 68 53 142q48 120 109 235q2 2 2 5l2 8q7 22 29 24q10 1 18 -6q8 -6 8 -14q2 -6 2 -8zM1247 4v2q2 10 -2 25q-5 31 -31 98l-49 107q-32 68 -35 75l-118 332q-72 202 -138 369q-15 41 -65 207q-39 129 -78 198l-2 6q-2 0 -15 1.5t-22 2.5q-36 1 -82 5q-1 0 -3 1t-3 1h-10 q-3 1 -8 2.5t-6 1.5q-59 -112 -103 -219q-24 -61 -51 -144q-22 -67 -54 -173q-32 -107 -46 -144q-11 -36 -39 -86q-31 -53 -41 -74q-11 -28 -35 -106q-18 -63 -33 -109q-20 -59 -98 -238l-51 -114l-13 -31q8 -2 13 -2q2 0 24 2h19l22 -2l31 -4q6 0 31 -4h2l4 8q12 24 20 43 q22 53 51 127q76 202 91 231q2 2 2 15q2 25 16 35l10 6h4h6h17h55q79 0 170 -4q74 -1 176 -7q72 -1 99 -4q25 -5 47 -28q10 -14 30 -56q26 -57 52 -149l36 -148q4 -21 13 -49q0 -2 1 -4.5t2 -4.5t1 -3h22q24 -2 64 0q76 1 100 6zM838 600v2q-7 26 -21 64q-12 39 -65 192 q-104 292 -105 295l-104 -264l-68 -187q-12 -40 -18 -63q-5 -11 -6 -18v-5h2h16q101 -8 207 -12q71 -4 125 -4h37zM625 1221l-4 12q-6 23 16 29q23 6 29 -17q16 -59 127 -373q49 -131 67 -194q14 -38 21 -64q4 -13 4 -20v-10q0 -12 -6 -19q-6 -6 -19 -8q-8 -2 -16 -2h-43 q-56 0 -127 4q-108 5 -209 12h-8h-19q-12 1 -20 13q-9 9 -13 24q-2 8 3 21q0 9 4 22l22 68q18 54 68 184l121 314q0 2 2 4zM360 1804q2 -2 7 -4l18 -18q17 -10 18 -15q47 -53 115 -110q27 -24 62 -60q19 -23 34 -36q34 6 84 0q5 0 25 -2l-10 14l-21 31q-14 19 -14 20l-23 45 l-26 47l-11 23q-3 5 -7 12.5t-5 10.5q-9 19 -11 21q-7 11 -11 11q-3 0 -11 -2l5 -2h-7q-1 0 -10 1.5t-16 2.5l-80 4l-80 6h-25zM578 1538l-29 31q-34 39 -55 55q-70 58 -119 115l-2 1q-2 2 -6 5t-7 6q-11 8 -24 21q-15 15 -19 28q-6 24 17 41l10 4h4h10h27q14 -1 82 -5 q56 -4 82 -7q12 0 26 -2q5 0 11 -2h4l8 -4q31 -24 68 -88q7 -18 23 -47q15 -27 26 -45q0 -3 12 -19l20 -31q16 -24 19 -30q4 -10 6 -17q4 -12 0 -21q-5 -10 -16 -11q-3 -3 -7 -3q-2 0 -7.5 1.5t-8.5 1.5l-14 2q-6 1 -14.5 2.5t-10.5 1.5q-30 2 -53 0q0 -1 -1.5 -5t-2.5 -6 q-14 -14 -31 -2l-4 4q-16 -4 -22 13q-2 8 -2 12z" />
<glyph unicode="&#xc1;" d="M606 1479h2v-2h10q19 -3 74 -4q49 -1 86 -19q20 -10 10 -31q-2 -5 -6 -6q37 -73 70 -184q53 -177 63 -205q66 -167 138 -369l118 -331q0 -2 4 -9.5t12.5 -26t16.5 -36.5l51 -111q28 -69 35 -106q4 -23 2 -43q-6 -28 -30 -35q-26 -7 -115 -8q-39 -1 -66 0q-14 0 -24 2 q-16 0 -24 5q-6 4 -11 17l-2.5 5t-3 7t-2.5 7q-4 16 -15 51q-10 41 -19 77.5t-13 53t-4 17.5q-22 85 -48 143q-12 28 -24 45q-11 12 -17 12q-28 3 -96 4q-100 6 -176 7q-89 4 -168 4h-55h-8q-2 -24 -6 -31q-14 -22 -91 -227q-33 -86 -51 -129q-11 -27 -20 -46 q-6 -11 -10 -16q-5 -6 -13 -12l-12 -4h-6h-12q-25 4 -31 4l-31 4q-4 0 -8 0.5t-6 0.5l-2 1h-17q-22 -2 -26 -2q-13 0 -27 2q-22 5 -29 14q-6 6 -6 17v8q3 10 4 14q4 13 17 39q2 4 51 117q78 176 98 231l31 109q23 76 37 110q14 32 43 82q25 42 37 74l43 148q14 47 55 175 q22 68 53 142q48 120 109 235q2 2 2 5l2 8q7 22 29 24q10 1 18 -6q8 -6 8 -14q2 -6 2 -8zM1247 4v2q2 10 -2 25q-5 31 -31 98l-49 107q-32 68 -35 75l-118 332q-72 202 -138 369q-15 41 -65 207q-39 129 -78 198l-2 6q-2 0 -15 1.5t-22 2.5q-36 1 -82 5q-1 0 -3 1t-3 1h-10 q-3 1 -8 2.5t-6 1.5q-59 -112 -103 -219q-24 -61 -51 -144q-22 -67 -54 -173q-32 -107 -46 -144q-11 -36 -39 -86q-31 -53 -41 -74q-11 -28 -35 -106q-18 -63 -33 -109q-20 -59 -98 -238l-51 -114l-13 -31q8 -2 13 -2q2 0 24 2h19l22 -2l31 -4q6 0 31 -4h2l4 8q12 24 20 43 q22 53 51 127q76 202 91 231q2 2 2 15q2 25 16 35l10 6h4h6h17h55q79 0 170 -4q74 -1 176 -7q72 -1 99 -4q25 -5 47 -28q10 -14 30 -56q26 -57 52 -149l36 -148q4 -21 13 -49q0 -2 1 -4.5t2 -4.5t1 -3h22q24 -2 64 0q76 1 100 6zM838 600v2q-7 26 -21 64q-12 39 -65 192 q-104 292 -105 295l-104 -264l-68 -187q-12 -40 -18 -63q-5 -11 -6 -18v-5h2h16q101 -8 207 -12q71 -4 125 -4h37zM625 1221l-4 12q-6 23 16 29q23 6 29 -17q16 -59 127 -373q49 -131 67 -194q14 -38 21 -64q4 -13 4 -20v-10q0 -12 -6 -19q-6 -6 -19 -8q-8 -2 -16 -2h-43 q-56 0 -127 4q-108 5 -209 12h-8h-19q-12 1 -20 13q-9 9 -13 24q-2 8 3 21q0 9 4 22l22 68q18 54 68 184l121 314q0 2 2 4zM692 1532l-2 -2q-12 -15 -29 0q-4 1 -4 8q-33 2 -77 -2l-7 -2q-10 -2 -14 -2q-14 0 -20 14q-5 8 0 21q0 5 4 12q8 15 14 27l12 16l9 16l2 5 q6 10 24 47l31 61q39 76 82 98q22 11 76 11h36h35q68 2 72 -41q1 -27 -33 -70q-26 -32 -110 -109q-32 -30 -52 -53l-24 -28v-11q-4 -20 -25 -16zM588 1577q56 5 90 0l33 37q26 31 53 55q84 77 108 107q23 28 23 39q-5 4 -31 4h-33h-38q-43 0 -60 -7q-26 -14 -63 -81l-29 -58 q-4 -8 -25 -51l-4 -4q-4 -6 -9 -15l-9 -18z" />
<glyph unicode="&#xc2;" d="M606 1479h2v-2h10q19 -3 74 -4q49 -1 86 -19q20 -10 10 -31q-2 -5 -6 -6q37 -73 70 -184q53 -177 63 -205q66 -167 138 -369l118 -331q0 -2 4 -9.5t12.5 -26t16.5 -36.5l51 -111q28 -69 35 -106q4 -23 2 -43q-6 -28 -30 -35q-26 -7 -115 -8q-39 -1 -66 0q-14 0 -24 2 q-16 0 -24 5q-6 4 -11 17l-2.5 5t-3 7t-2.5 7q-4 16 -15 51q-10 41 -19 77.5t-13 53t-4 17.5q-22 85 -48 143q-12 28 -24 45q-11 12 -17 12q-28 3 -96 4q-100 6 -176 7q-89 4 -168 4h-55h-8q-2 -24 -6 -31q-14 -22 -91 -227q-33 -86 -51 -129q-11 -27 -20 -46 q-6 -11 -10 -16q-5 -6 -13 -12l-12 -4h-6h-12q-25 4 -31 4l-31 4q-4 0 -8 0.5t-6 0.5l-2 1h-17q-22 -2 -26 -2q-13 0 -27 2q-22 5 -29 14q-6 6 -6 17v8q3 10 4 14q4 13 17 39q2 4 51 117q78 176 98 231l31 109q23 76 37 110q14 32 43 82q25 42 37 74l43 148q14 47 55 175 q22 68 53 142q48 120 109 235q2 2 2 5l2 8q7 22 29 24q10 1 18 -6q8 -6 8 -14q2 -6 2 -8zM1247 4v2q2 10 -2 25q-5 31 -31 98l-49 107q-32 68 -35 75l-118 332q-72 202 -138 369q-15 41 -65 207q-39 129 -78 198l-2 6q-2 0 -15 1.5t-22 2.5q-36 1 -82 5q-1 0 -3 1t-3 1h-10 q-3 1 -8 2.5t-6 1.5q-59 -112 -103 -219q-24 -61 -51 -144q-22 -67 -54 -173q-32 -107 -46 -144q-11 -36 -39 -86q-31 -53 -41 -74q-11 -28 -35 -106q-18 -63 -33 -109q-20 -59 -98 -238l-51 -114l-13 -31q8 -2 13 -2q2 0 24 2h19l22 -2l31 -4q6 0 31 -4h2l4 8q12 24 20 43 q22 53 51 127q76 202 91 231q2 2 2 15q2 25 16 35l10 6h4h6h17h55q79 0 170 -4q74 -1 176 -7q72 -1 99 -4q25 -5 47 -28q10 -14 30 -56q26 -57 52 -149l36 -148q4 -21 13 -49q0 -2 1 -4.5t2 -4.5t1 -3h22q24 -2 64 0q76 1 100 6zM838 600v2q-7 26 -21 64q-12 40 -65 192 q-95 263 -105 295l-104 -264l-68 -187q-12 -40 -18 -63q-5 -11 -6 -18v-5h2h16q101 -8 207 -12q71 -4 125 -4h37zM625 1221l-4 12q-6 23 16 29q23 6 29 -17q16 -59 127 -373q49 -131 67 -194q14 -38 21 -64q4 -13 4 -20v-10q0 -12 -6 -19q-6 -6 -19 -8q-8 -2 -16 -2h-43 q-56 0 -127 4q-108 5 -209 12h-8h-19q-12 1 -20 13q-9 9 -13 24q-2 8 3 21q0 9 4 22l22 68q18 54 68 184l121 314q0 2 2 4zM373 1569q18 -13 32 -13q14 -3 39 -4q13 -1 39 -4l2 -2q11 40 76 133q2 0 8 21q10 33 37 37q7 0 15 -2q3 -1 6 -4q1 0 10 -7q2 -2 9 -8t13 -10 l58 -55l39 -37q27 -27 35 -36q12 -14 16 -15q7 -7 27 -11q21 -1 47 0q14 1 36 7q-10 20 -26 36q-1 1 -5.5 5t-13 11t-16.5 15l-31 31q-51 75 -73 98q-51 59 -88 70q-15 4 -62 -2q0 -2 -39 -8q-9 -1 -22 -3.5t-17 -3.5h-4h-8h-18h-7q2 -24 -2 -36q-12 -37 -29 -69 q-19 -35 -47 -77q-32 -48 -36 -57zM616 1673q-4 -16 -10 -26q-1 -1 -5.5 -7t-8.5 -10l-14 -18l-10 -16q-7 -12 -10 -17q-1 -2 -9 -16q-7 -12 -8 -18q-1 -2 -5 -16q-4 -12 -4 -20q-1 -8 -10 -17q-7 -7 -20 -5q-10 1 -17 10q-8 -2 -14 -2q-15 3 -31 4q-18 1 -43 4 q-61 7 -86 39q-10 14 -2 33q1 5 8 12l9 8q32 52 40 63q19 27 43 68q13 21 27 62v2q-1 3 -1.5 7t-0.5 9q-2 34 14 50l13 6h2h2h2h2h6h19h18h8q14 0 33 4q35 8 41 8q56 11 86 0q52 -17 111 -82q28 -34 79 -102q5 -9 23 -25q32 -28 35 -33q53 -50 49 -92q0 -10 -8 -18 q-3 -3 -6 -4l-9 -5q-1 0 -7.5 -1.5t-10.5 -2.5q-25 -7 -49 -8q-35 -5 -62 0q-34 4 -55 21q-1 3 -16 18l-35 33l-39 39l-57 55z" />
<glyph unicode="&#xc3;" d="M606 1479h2v-2h10q19 -3 74 -4q49 -1 86 -19q20 -10 10 -31q-2 -5 -6 -6q37 -73 70 -184q53 -177 63 -205q66 -167 138 -369l118 -331q0 -2 4 -9.5t12.5 -26t16.5 -36.5l51 -111q28 -69 35 -106q4 -23 2 -43q-6 -28 -30 -35q-26 -7 -115 -8q-39 -1 -66 0q-14 0 -24 2 q-16 0 -24 5q-6 4 -11 17l-2.5 5t-3 7t-2.5 7q-4 16 -15 51q-10 41 -19 77.5t-13 53t-4 17.5q-22 85 -48 143q-12 28 -24 45q-11 12 -17 12q-28 3 -96 4q-100 6 -176 7q-89 4 -168 4h-55h-8q-2 -24 -6 -31q-14 -22 -91 -227q-33 -86 -51 -129q-11 -27 -20 -46 q-6 -11 -10 -16q-5 -6 -13 -12l-12 -4h-6h-12q-25 4 -31 4l-31 4q-4 0 -8 0.5t-6 0.5l-2 1h-17q-22 -2 -26 -2q-13 0 -27 2q-22 5 -29 14q-6 6 -6 17v8q3 10 4 14q4 13 17 39q2 4 51 117q78 176 98 231l31 109q23 76 37 110q14 32 43 82q25 42 37 74l43 148q14 47 55 175 q22 68 53 142q48 120 109 235q2 2 2 5l2 8q7 22 29 24q10 1 18 -6q8 -6 8 -14q2 -6 2 -8zM1247 4v2q2 10 -2 25q-5 31 -31 98l-49 107q-32 68 -35 75l-118 332q-72 202 -138 369q-15 41 -65 207q-39 129 -78 198l-2 6q-2 0 -15 1.5t-22 2.5q-36 1 -82 5q-1 0 -3 1t-3 1h-10 q-3 1 -8 2.5t-6 1.5q-59 -112 -103 -219q-24 -61 -51 -144q-22 -67 -54 -173q-32 -107 -46 -144q-11 -36 -39 -86q-31 -53 -41 -74q-11 -28 -35 -106q-18 -63 -33 -109q-20 -59 -98 -238l-51 -114l-13 -31q8 -2 13 -2q2 0 24 2h19l22 -2l31 -4q6 0 31 -4h2l4 8q12 24 20 43 q22 53 51 127q76 202 91 231q2 2 2 15q2 25 16 35l10 6h4h6h17h55q79 0 170 -4q74 -1 176 -7q72 -1 99 -4q25 -5 47 -28q10 -14 30 -56q26 -57 52 -149l36 -148q4 -21 13 -49q0 -2 1 -4.5t2 -4.5t1 -3h22q24 -2 64 0q76 1 100 6zM838 600v2q-7 26 -21 64q-12 39 -65 192 q-104 292 -105 295l-104 -264l-68 -187q-12 -40 -18 -63q-5 -11 -6 -18v-5h2h16q101 -8 207 -12q71 -4 125 -4h37zM625 1221l-4 12q-6 23 16 29q23 6 29 -17q16 -59 127 -373q49 -131 67 -194q14 -38 21 -64q4 -13 4 -20v-10q0 -12 -6 -19q-6 -6 -19 -8q-8 -2 -16 -2h-43 q-56 0 -127 4q-108 5 -209 12h-8h-19q-12 1 -20 13q-9 9 -13 24q-2 8 3 21q0 9 4 22l22 68q18 54 68 184l121 314q0 2 2 4zM436 1587v6q4 20 4 27q7 22 29 34q20 11 61 13q15 0 24 -1q18 -2 27 -5q14 -5 23 -6q8 -1 27 -8l24 -13q2 -1 25 -10l20 -10q100 -46 148 -31 q1 0 3 1.5t5 4t6 4.5q16 14 29 27q30 30 68 74q47 55 61 75q6 6 8 13q-4 0 -45 10q-14 4 -23 6h-10v-6q-2 -8 -2 -9q0 -5 1 -10t1 -14q0 -27 -10 -43q-12 -27 -45 -33q-68 -15 -182 29q-117 43 -166 43q-73 0 -125 -46q-53 -47 -53 -114q0 -4 -2 -14q7 7 12 8q8 2 20 0l3 -1 q3 0 8 -0.5t10 -0.5h16zM393 1548h-2q-2 -2 -5 -4q-4 -3 -5 -4q-26 -18 -47 0q-15 12 -10 37q0 2 1 4l2 4q1 3 1 6v4q0 88 65 144q66 57 154 57q55 0 180 -45q100 -39 160 -27q12 1 18 11q4 7 4 24v37q1 28 25 39q11 6 31 4q6 -2 8 -2h2q9 0 47 -6q17 -4 29 -6 q2 -1 5.5 -2.5t4.5 -1.5q4 0 6 -2q4 -1 10 -9q4 -8 2 -20q-2 -7 -6 -14q-8 -16 -18 -31q-24 -34 -64 -79q-52 -58 -71 -77q-13 -12 -33 -26q-17 -16 -27 -17q-63 -22 -176 29l-25 10q-17 10 -23 12q-1 0 -4 1.5t-8.5 4t-9.5 4.5q-17 8 -23 9q-2 0 -5 1t-7.5 2t-7.5 2 q-6 1 -21 4q-6 1 -20 1q-26 -1 -43 -8q-7 -5 -8 -8l-1 -3q0 -3 -0.5 -8.5t-0.5 -11.5q-1 -20 -14 -33q-8 -8 -27 -8h-20l-19 2h-4z" />
<glyph unicode="&#xc4;" d="M606 1479h2v-2h10q19 -3 74 -4q49 -1 86 -19q20 -10 10 -31q-2 -5 -6 -6q37 -73 70 -184q53 -177 63 -205q66 -167 138 -369l118 -331q0 -2 4 -9.5t12.5 -26t16.5 -36.5l51 -111q28 -69 35 -106q4 -23 2 -43q-6 -28 -30 -35q-26 -7 -115 -8q-39 -1 -66 0q-14 0 -24 2 q-16 0 -24 5q-6 4 -11 17l-2.5 5t-3 7t-2.5 7q-4 16 -15 51q-10 41 -19 77.5t-13 53t-4 17.5q-22 85 -48 143q-12 28 -24 45q-11 12 -17 12q-28 3 -96 4q-100 6 -176 7q-89 4 -168 4h-55h-8q-2 -24 -6 -31q-14 -22 -91 -227q-33 -86 -51 -129q-11 -27 -20 -46 q-6 -11 -10 -16q-5 -6 -13 -12l-12 -4h-6h-12q-25 4 -31 4l-31 4q-4 0 -8 0.5t-6 0.5l-2 1h-17q-22 -2 -26 -2q-13 0 -27 2q-22 5 -29 14q-6 6 -6 17v8q3 10 4 14q4 13 17 39q2 4 51 117q78 176 98 231l31 109q23 76 37 110q14 32 43 82q25 42 37 74l43 148q14 47 55 175 q22 68 53 142q48 120 109 235q2 2 2 5l2 8q7 22 29 24q10 1 18 -6q8 -6 8 -14q2 -6 2 -8zM1247 4v2q2 10 -2 25q-5 31 -31 98l-49 107q-32 68 -35 75l-118 332q-72 202 -138 369q-15 41 -65 207q-39 129 -78 198l-2 6q-2 0 -15 1.5t-22 2.5q-36 1 -82 5q-1 0 -3 1t-3 1h-10 q-3 1 -8 2.5t-6 1.5q-59 -112 -103 -219q-24 -61 -51 -144q-22 -67 -54 -173q-32 -107 -46 -144q-11 -36 -39 -86q-31 -53 -41 -74q-11 -28 -35 -106q-18 -63 -33 -109q-20 -59 -98 -238l-51 -114l-13 -31q8 -2 13 -2q2 0 24 2h19l22 -2l31 -4q6 0 31 -4h2l4 8q12 24 20 43 q22 53 51 127q76 202 91 231q2 2 2 15q2 25 16 35l10 6h4h6h17h55q79 0 170 -4q74 -1 176 -7q72 -1 99 -4q25 -5 47 -28q10 -14 30 -56q26 -57 52 -149l36 -148q4 -21 13 -49q0 -2 1 -4.5t2 -4.5t1 -3h22q24 -2 64 0q76 1 100 6zM838 600v2q-7 26 -21 64q-12 39 -65 192 q-104 292 -105 295l-104 -264l-68 -187q-12 -40 -18 -63q-5 -11 -6 -18v-5h2h16q101 -8 207 -12q71 -4 125 -4h37zM625 1221l-4 12q-6 23 16 29q23 6 29 -17q16 -59 127 -373q49 -131 67 -194q14 -38 21 -64q4 -13 4 -20v-10q0 -12 -6 -19q-6 -6 -19 -8q-8 -2 -16 -2h-43 q-56 0 -127 4q-108 5 -209 12h-8h-19q-12 1 -20 13q-9 9 -13 24q-2 8 3 21q0 9 4 22l22 68q18 54 68 184l121 314q0 2 2 4zM496 1757q1 3 4 6q12 16 28 4q52 -39 59 -94q7 -54 -26 -92q-32 -42 -85 -53q-52 -10 -114 20q-34 20 -32 72q2 44 28 82q52 76 138 55zM809 1765 q1 5 4 7q12 16 29 4q50 -39 58 -95q7 -54 -26 -92q-32 -42 -85 -53q-51 -10 -113 20q-34 21 -33 72q1 42 29 82q54 76 137 55zM526 1700q-82 51 -135 -23q-20 -27 -20 -59q-2 -26 12 -33q47 -25 85 -17q37 7 60 38q36 46 9 92q-5 0 -11 2zM840 1708q-83 52 -136 -22 q-20 -27 -20 -60q-2 -26 12 -33q47 -25 85 -17t61 38q35 46 8 92q-4 0 -10 2z" />
<glyph unicode="&#xc5;" d="M1247 4v2q2 10 -2 25q-5 31 -31 98l-49 107q-32 68 -35 75l-118 332q-72 202 -138 369q-15 41 -65 207q-39 129 -78 198l-2 6q-2 0 -16 2q-77 -30 -146 -12q-49 -94 -90 -194q-24 -61 -51 -144q-22 -67 -54 -173q-32 -107 -46 -144q-11 -36 -39 -86q-31 -53 -41 -74 q-11 -28 -35 -106q-18 -63 -33 -109q-20 -59 -98 -238l-51 -114l-13 -31q8 -2 13 -2q2 0 24 2h19l22 -2l31 -4q6 0 31 -4h2l4 8q12 24 20 43q22 53 51 127q76 202 91 231q2 2 2 15q2 25 16 35l10 6h4h6h17h55q79 0 170 -4q74 -1 176 -7q72 -1 99 -4q25 -5 47 -28 q10 -14 30 -56q26 -57 52 -149l36 -148q4 -21 13 -49q0 -2 1 -4.5t2 -4.5t1 -3h22q24 -2 64 0q76 1 100 6zM838 600v2q-7 26 -21 64q-12 39 -65 192q-104 292 -105 295l-104 -264l-68 -187q-12 -40 -18 -63q-5 -11 -6 -18v-5h2h16q101 -8 207 -12q71 -4 125 -4h37zM625 1221 l-4 12q-6 23 16 29q23 6 29 -17q16 -59 127 -373q49 -131 67 -194q14 -38 21 -64q4 -13 4 -20v-10q0 -12 -6 -19q-6 -6 -19 -8q-8 -2 -16 -2h-43q-56 0 -127 4q-108 5 -209 12h-8h-19q-12 1 -20 13q-8 8 -12 24q-2 10 2 21q0 9 4 22l22 68q18 54 68 184l121 314q0 2 2 4z M866 1585q0 -8 -6 -16q-2 -8 -26 -66q-6 -17 -25 -12q-15 -20 -37 -35l6 -2q20 -10 10 -31q-2 -5 -6 -6q37 -73 70 -184q53 -177 63 -205q66 -167 138 -369l118 -331q0 -2 4 -9.5t12.5 -26t16.5 -36.5l51 -111q28 -69 35 -106q4 -23 2 -43q-6 -28 -30 -35q-26 -7 -115 -8 q-39 -1 -66 0q-14 0 -24 2q-16 0 -24 5q-6 4 -11 17l-2.5 5t-3 7t-2.5 7q-4 16 -15 51q-10 41 -19 77.5t-13 53t-4 17.5q-22 85 -48 143q-12 28 -24 45q-11 12 -17 12q-28 3 -96 4q-100 6 -176 7q-89 4 -168 4h-55h-8q-2 -24 -6 -31q-14 -22 -91 -227q-33 -86 -51 -129 q-11 -27 -20 -46q-6 -11 -10 -16q-5 -6 -13 -12l-12 -4h-6h-12q-25 4 -31 4l-31 4q-4 0 -8 0.5t-6 0.5l-2 1h-17q-22 -2 -26 -2q-13 0 -27 2q-22 5 -29 14q-6 6 -6 17v8q3 10 4 14q4 13 17 39q2 4 51 117q78 176 98 231l31 109q23 76 37 110q14 32 43 82q25 42 37 74l43 148 q14 47 55 175q22 68 53 142q38 97 88 195q-23 12 -43 28q-52 45 -66 121q-14 74 21 160q29 68 91 99q64 32 135 26q70 -5 128 -43q57 -38 80 -105q20 -52 -4 -131zM825 1589q23 72 9 115q-21 52 -69 83t-108 36q-60 6 -109 -21q-51 -28 -75 -80q-30 -78 -19 -135 q12 -60 56 -98q16 -16 33 -23l2 4q2 2 2 5l2 8q7 22 29 24h2q-12 1 -17 15q-26 15 -43 39q-22 36 -20 92q1 46 20 86q22 48 49 55q61 16 117 -14q54 -29 82 -84q27 -57 10 -107q-22 -58 -92 -76q-19 -4 -53 -4h-17h-6h-2q-10 0 -20 -2h-2q5 -1 10 -6q8 -6 8 -14q2 -6 2 -8h2 v-2h10q29 -3 74 -4q1 0 10 -1.5t13 -1.5l33 17q18 13 40 47q28 47 37 55zM610 1550h23q30 0 41 4q50 12 65 50q12 34 -8 73q-21 44 -62 67q-42 24 -87 9q-13 -2 -25 -31q-16 -32 -16 -71q-2 -43 14 -68q18 -27 55 -33z" />
<glyph unicode="&#xc6;" horiz-adv-x="2027" d="M1798 862q14 0 21 -6q18 -12 16 -39v-10v-2l3 -11q2 -12 4 -22q1 -6 3 -14.5t3 -13.5t1 -9q7 -55 0 -84q-8 -35 -32 -47q-16 -10 -56 -12q-29 -2 -80 0q-59 1 -217 12q-256 16 -344 10q-12 -213 -2 -395q160 -1 389 -6q168 -1 252 -6q74 -2 84 -2q22 -2 25 -2l8 -2h6 q10 -4 17 -13q7 -7 8 -20q0 -2 2 -16q2 -24 2 -41v-43q0 -26 -4 -33q-11 -31 -52 -43q-28 -8 -69 -12h-115q-45 0 -358 -7q-278 -6 -414 -2h-4q-6 -2 -10 -2q-26 -1 -41 15q-9 9 -10 24v17q0 7 2 47q0 15 3 62q1 14 2.5 39t2.5 34q4 74 2 133q-2 28 -6 45v4h-6q-3 0 -31 -2 q-13 -2 -35 -6q-19 -4 -29 -4q-33 -2 -207 10q-61 4 -108 4q-42 0 -57 -4q0 -1 -2 -5t-3 -7q-9 -17 -14 -43l-24 -90q-19 -43 -78 -127q-48 -74 -62 -117q-5 -17 -18 -21q-10 -20 -31 -18q-1 0 -5 -0.5t-12 -1t-16 -0.5q-46 -2 -53 -2q-33 0 -57 8q-40 12 -47 45q-2 14 4 31 q1 11 8 31l31 75q50 113 51 127q9 28 26 77q15 42 27 69l35 76q24 54 29 67q10 23 26 86q16 62 29 94q90 220 188 396l35 71q35 72 47 99q18 32 56 96q21 32 24 35q15 19 33 24q36 12 100 8q8 0 42 -3t48 -3q57 0 213 4q146 5 215 0q21 0 156 -16q85 -10 150 -8q49 2 145 16 q111 16 152 21q2 0 16 10q29 22 57 16q25 -6 31 -32q2 -12 0 -29q0 -6 -4 -21q-1 -4 -2 -9v-3q0 -2 0.5 -6.5t1 -12.5t0.5 -16q4 -31 4 -55q1 -35 0 -57q-5 -36 -21 -52q-4 -6 -12 -6q-2 -2 -4 -2h-2h-2h-2h-2h-4h-2l-23 2q-39 5 -67 6q-105 10 -131 9q-1 0 -13 -1 t-38.5 -3.5t-55.5 -4.5q-58 -4 -113 -2q-2 0 -157 23q-95 15 -142 0q-2 0 -2 -2q-2 -2 -1 -8q1 -4 1 -17q0 -60 -24 -190q-23 -122 -19 -174v-10h17h84q43 2 252 10q108 6 250 12l81 4l23 2h6h2zM864 655v15q2 22 0 63q0 25 -2 187q0 10 -1.5 50t-2.5 66q-2 69 -3 116 q-1 32 -1 73l-27 4q-25 4 -45 4q-43 1 -61 -16q-4 -4 -12 -23l-27 -55q-22 -54 -61 -158l-103 -276q-6 -17 -35 -74l-8 -15q56 -4 217 13q74 6 131 16q30 7 41 10zM907 1262q8 -8 8 -21q0 -32 1 -63q4 -121 4 -126q1 -32 2.5 -80.5t1.5 -49.5q2 -162 2 -189q2 -41 0 -65 q0 -32 -4 -41q-5 -16 -19 -23q-2 -1 -20 -8q-14 -5 -47 -10q-58 -12 -138 -19q-184 -18 -237 -12h-6h-13q-28 1 -41 27q-4 6 -2 16l2 6v2q2 2 2 6l7 13l18 34q27 51 33 66l102 279q37 96 64 159q22 50 26 58q10 23 23 36q40 41 110 37q22 0 52 -6q38 -6 45 -6q18 -1 24 -20z M1061 668q81 19 405 -2q184 -12 217 -13q50 -2 74 0q16 1 31 4q0 1 1.5 5t2.5 6q4 14 -4 57l-6 37l-8 35v2h-2l-84 -4q-189 -9 -250 -13q-209 -8 -252 -10h-88h-27q-4 0 -10 2q-11 0 -19 8q-18 17 -20 58q-4 65 20 190q23 127 23 178v39q6 33 43 45q62 21 170 4 q147 -22 154 -22q50 -2 104 2q26 2 54.5 4t39.5 3t13 1q40 2 139 -8q30 -2 69 -6h7v2q2 18 0 49q0 15 -5 53q0 8 -0.5 17.5t-1 14.5t-0.5 7q0 5 2 19q-20 -12 -34 -13q-103 -13 -148 -20q-105 -16 -153 -17q-56 -1 -158 11q-125 13 -152 14q-67 4 -211 0q-155 -4 -213 -4 q-14 0 -51 3t-43 3q-55 2 -76 -4q-4 -1 -6 -6q-10 -14 -20 -29q-16 -26 -51 -92l-50 -96l-34 -74q-93 -167 -185 -391q-8 -17 -26 -86q-16 -65 -29 -94l-33 -70q-6 -13 -12 -26.5l-12 -27t-8 -18.5l-25 -65q-16 -41 -23 -74q-9 -26 -55 -135l-31 -74q-5 -16 -6 -24l4 -3 q11 -4 37 -4q9 0 49 2q6 0 13 0.5t10.5 1t5.5 0.5q17 47 70 127q53 78 69 119q3 9 4 17l9 28l10 37q6 28 16 51q15 33 35 43q24 11 84 11q48 0 113 -4q178 -12 198 -11q7 0 23 4q10 2 22 4.5t15 2.5q32 2 39 2q23 0 41 -9q19 -12 26 -45q5 -21 6 -53q2 -64 -2 -141 q-1 -10 -2.5 -35t-2.5 -37q-3 -45 -3 -61q-2 -32 -2 -37h4q136 -4 414 2q269 6 358 6h111q33 1 53 8l14 6v15v39q0 16 -2 32q-6 2 -8 2q-12 0 -82 2q-106 6 -252 7q-235 4 -393 6q-8 -11 -20 -11q-27 -2 -33 25q-4 7 -4 16q0 5 2 13q-11 192 0 407q-14 6 -19 21q-2 12 4 23 q5 11 19 16z" />
<glyph unicode="&#xc7;" horiz-adv-x="1454" d="M690 -74q-13 0 -35 2q-7 -7 -32 -39q-41 -53 -52 -61l-18 -21l-6 -4q10 -3 59 -4q52 -5 76 -18q43 -23 41 -78q0 -31 -18 -49q-16 -17 -41 -23q-22 -6 -93 -4q-56 2 -71 -4q-19 -6 -19 -31l4 -12q7 -7 39 -12q2 0 56 -2q133 -4 180 8q79 22 94 117q8 58 -10 82 q-15 18 -49 24q-15 4 -74 4q-19 0 -35 2q-25 5 -35 19q-17 19 -2 49q6 12 21 33q12 12 20 22zM1276 487h-2q0 4 -4 5q-1 0 -4.5 1.5t-5.5 2.5q-14 5 -48 10q-24 4 -51 2q-15 -1 -24 -4q-10 -10 -21 -45q-7 -18 -14 -45q-8 -33 -12 -43q-41 -129 -99 -160q-199 -104 -393 -86 q-237 24 -303 242q-35 122 -48 262q-12 129 16 276q27 143 99 250q89 136 285 164q188 27 320 -64q40 -28 69 -71q31 -46 45 -79q2 -6 35 -87q8 -2 14 -2q27 -5 78 -10q66 -7 74 -7h18q0 5 -2 13q-2 9 -6 20q-5 18 -6 19q-45 156 -168 284q-125 128 -278 152 q-175 29 -400 -88q-150 -77 -235 -170q-10 -13 -19 -39q-4 -11 -9 -24l-7.5 -19.5t-3.5 -9.5q-242 -419 -29 -824l27 -53l29 -55q7 -16 26 -45q11 -17 37 -49q96 -105 340 -134q22 -2 33 -2l12 9q20 10 59 4q5 -1 48 -13q4 0 8 -4q134 6 213 45q176 84 276 318q21 51 27 80 q10 48 4 73zM1067 1020q-55 149 -125 199q-114 79 -289 55q-176 -27 -254 -144q-68 -102 -92 -235q-27 -133 -16 -263q11 -131 49 -253q55 -188 262 -209q181 -17 369 82q42 22 76 133q1 3 3 8.5t5 15t6 17.5l12 47q17 47 35 64q14 15 49 16q33 2 62 -2q36 -5 57 -14 q35 -12 41 -35q13 -39 -2 -99q-7 -40 -29 -86q-105 -247 -297 -342q-89 -43 -233 -49l-4 -8q-9 -9 -17 -20q-13 -14 -22 -27q-6 -7 -11 -16h19q63 0 82 -4q55 -7 84 -46q32 -42 20 -122q-21 -127 -133 -160q-51 -16 -194 -10q-30 1 -60 4q-47 5 -67 18q-24 19 -25 57 q-2 62 53 80q29 11 92 9q64 -2 78 2q9 1 15 7q4 4 4 13q0 23 -15 31t-53 12q-48 1 -67 4q-20 6 -33 17q-16 16 -15 40l5 15q2 0 4 2q1 3 4 6l14 14l21 21q8 8 47 57l8 10q-261 33 -367 150q-18 20 -41 52q-16 22 -30 49q-11 20 -29 58q-7 15 -16.5 33t-10.5 19 q-223 427 29 864q7 12 18 47t29 53q90 100 248 183q236 122 428 92q166 -27 300 -164q133 -136 183 -305l4 -16q1 -3 3.5 -11t4.5 -12q0 -3 1.5 -13.5t1.5 -15.5q0 -17 -11 -30q-8 -10 -16 -11h-10h-29q-12 1 -76 7q-54 6 -80 10q-41 6 -51 10q-20 6 -12 29q1 5 6 10z" />
</font>
</defs>
</svg>
